%
M48
M72
T01C0.0157
T02C0.0200
T03C0.0354
T04C0.0827
%
T01
X6724Y4519
X6724Y5464
X8181Y6212
X7000Y7078
X7944Y7551
X9322Y7846
X9952Y7157
X11252Y5897
X10661Y5149
X11212Y4322
X12315Y3889
X12275Y3063
X11212Y3023
X10504Y3378
X9126Y4244
X7905Y3378
X13574Y4007
X13929Y4322
X13574Y4519
X13574Y5031
X14716Y5740
X15189Y4952
X15189Y4519
X15189Y4007
X15189Y3535
X14716Y3574
X14952Y3023
X15897Y3023
X17185Y3358
X16055Y5425
X16330Y5740
X15228Y6488
X13889Y6920
X13436Y6920
X13802Y7648
X13811Y8042
X14085Y8298
X14677Y8338
X15366Y8791
X16133Y9165
X15444Y9696
X16114Y10011
X17157Y9401
X17157Y8220
X16094Y8023
X17196Y7157
X14677Y7708
X13810Y8968
X13456Y9598
X13889Y10307
X14480Y10937
X15444Y10878
X16095Y11173
X17118Y11763
X16095Y12078
X15425Y12157
X15110Y12590
X15819Y13574
X15031Y14047
X15622Y14244
X17185Y13870
X13732Y13614
X13760Y13004
X13771Y12630
X13731Y12236
X12000Y11921
X12000Y11509
X12000Y11134
X11409Y10976
X11094Y11330
X10267Y10937
X11527Y10149
X12000Y10189
X12000Y9716
X12000Y9283
X11960Y8908
X11527Y8929
X11527Y9362
X11094Y8929
X10661Y8929
X10228Y8929
X9795Y8929
X9362Y8929
X9992Y9322
X8496Y8929
X7511Y9007
X6645Y9007
X6645Y9559
X6645Y10189
X6645Y10858
X6645Y11567
X6645Y12275
X6645Y12944
X7511Y13102
X8456Y13141
X8929Y13141
X9362Y13141
X9716Y12944
X9126Y12078
X7866Y11763
X8496Y10307
X10464Y12000
X11960Y12708
X11488Y13141
X11015Y13102
X10346Y14244
X8496Y14244
X6645Y14244
X12944Y14047
X14677Y9441
X12855Y8113
X12816Y7595
X13653Y3023
T02
X16094Y6173
X16594Y6173
X16594Y6673
X16094Y6673
X17094Y6673
X17094Y6173
T03
X17196Y4480
X16488Y4480
X16488Y10700
X17196Y10700
X17196Y12787
X16488Y12787
T04
X5858Y2905
X16685Y2905
X16685Y14322
X5858Y14322
M30
