G75*
%MOIN*%
%OFA0B0*%
%FSLAX25Y25*%
%IPPOS*%
%LPD*%
%AMOC8*
5,1,8,0,0,1.08239X$1,22.5*
%
%ADD10C,0.00000*%
%ADD11R,0.02756X0.06299*%
%ADD12R,0.06299X0.02756*%
%ADD13R,0.06496X0.02756*%
%ADD14C,0.40157*%
%ADD15R,0.09843X0.20079*%
%ADD16R,0.05512X0.01181*%
%ADD17R,0.08661X0.06299*%
%ADD18R,0.04134X0.05512*%
%ADD19R,0.02362X0.02362*%
%ADD20R,0.03150X0.03937*%
%ADD21R,0.02362X0.03937*%
%ADD22R,0.03346X0.00787*%
%ADD23R,0.03543X0.03150*%
%ADD24C,0.04000*%
%ADD25C,0.01181*%
%ADD26C,0.03150*%
%ADD27C,0.00984*%
%ADD28C,0.00787*%
%ADD29C,0.01969*%
D10*
X0050705Y0034957D02*
X0050705Y0137319D01*
X0050707Y0137509D01*
X0050714Y0137699D01*
X0050726Y0137889D01*
X0050742Y0138079D01*
X0050762Y0138268D01*
X0050788Y0138457D01*
X0050817Y0138645D01*
X0050852Y0138832D01*
X0050891Y0139018D01*
X0050934Y0139203D01*
X0050982Y0139388D01*
X0051034Y0139571D01*
X0051090Y0139752D01*
X0051151Y0139932D01*
X0051217Y0140111D01*
X0051286Y0140288D01*
X0051360Y0140464D01*
X0051438Y0140637D01*
X0051521Y0140809D01*
X0051607Y0140978D01*
X0051697Y0141146D01*
X0051792Y0141311D01*
X0051890Y0141474D01*
X0051993Y0141634D01*
X0052099Y0141792D01*
X0052209Y0141947D01*
X0052322Y0142100D01*
X0052440Y0142250D01*
X0052561Y0142396D01*
X0052685Y0142540D01*
X0052813Y0142681D01*
X0052944Y0142819D01*
X0053079Y0142954D01*
X0053217Y0143085D01*
X0053358Y0143213D01*
X0053502Y0143337D01*
X0053648Y0143458D01*
X0053798Y0143576D01*
X0053951Y0143689D01*
X0054106Y0143799D01*
X0054264Y0143905D01*
X0054424Y0144008D01*
X0054587Y0144106D01*
X0054752Y0144201D01*
X0054920Y0144291D01*
X0055089Y0144377D01*
X0055261Y0144460D01*
X0055434Y0144538D01*
X0055610Y0144612D01*
X0055787Y0144681D01*
X0055966Y0144747D01*
X0056146Y0144808D01*
X0056327Y0144864D01*
X0056510Y0144916D01*
X0056695Y0144964D01*
X0056880Y0145007D01*
X0057066Y0145046D01*
X0057253Y0145081D01*
X0057441Y0145110D01*
X0057630Y0145136D01*
X0057819Y0145156D01*
X0058009Y0145172D01*
X0058199Y0145184D01*
X0058389Y0145191D01*
X0058579Y0145193D01*
X0166846Y0145193D01*
X0162712Y0143224D02*
X0162714Y0143352D01*
X0162720Y0143480D01*
X0162730Y0143607D01*
X0162744Y0143735D01*
X0162761Y0143861D01*
X0162783Y0143987D01*
X0162809Y0144113D01*
X0162838Y0144237D01*
X0162871Y0144361D01*
X0162908Y0144483D01*
X0162949Y0144604D01*
X0162994Y0144724D01*
X0163042Y0144843D01*
X0163094Y0144960D01*
X0163150Y0145075D01*
X0163209Y0145189D01*
X0163271Y0145300D01*
X0163337Y0145410D01*
X0163406Y0145517D01*
X0163479Y0145623D01*
X0163555Y0145726D01*
X0163634Y0145826D01*
X0163716Y0145925D01*
X0163801Y0146020D01*
X0163889Y0146113D01*
X0163980Y0146203D01*
X0164073Y0146290D01*
X0164170Y0146375D01*
X0164268Y0146456D01*
X0164370Y0146534D01*
X0164473Y0146609D01*
X0164579Y0146681D01*
X0164687Y0146750D01*
X0164797Y0146815D01*
X0164910Y0146876D01*
X0165024Y0146935D01*
X0165139Y0146989D01*
X0165257Y0147040D01*
X0165375Y0147088D01*
X0165496Y0147131D01*
X0165617Y0147171D01*
X0165740Y0147207D01*
X0165864Y0147240D01*
X0165989Y0147268D01*
X0166114Y0147293D01*
X0166240Y0147313D01*
X0166367Y0147330D01*
X0166495Y0147343D01*
X0166622Y0147352D01*
X0166750Y0147357D01*
X0166878Y0147358D01*
X0167006Y0147355D01*
X0167134Y0147348D01*
X0167261Y0147337D01*
X0167388Y0147322D01*
X0167515Y0147304D01*
X0167641Y0147281D01*
X0167766Y0147254D01*
X0167890Y0147224D01*
X0168013Y0147190D01*
X0168136Y0147152D01*
X0168257Y0147110D01*
X0168376Y0147064D01*
X0168494Y0147015D01*
X0168611Y0146962D01*
X0168726Y0146906D01*
X0168839Y0146846D01*
X0168950Y0146783D01*
X0169059Y0146716D01*
X0169166Y0146646D01*
X0169271Y0146572D01*
X0169373Y0146496D01*
X0169473Y0146416D01*
X0169571Y0146333D01*
X0169666Y0146247D01*
X0169758Y0146158D01*
X0169847Y0146067D01*
X0169934Y0145973D01*
X0170017Y0145876D01*
X0170098Y0145776D01*
X0170175Y0145675D01*
X0170250Y0145570D01*
X0170321Y0145464D01*
X0170388Y0145355D01*
X0170453Y0145245D01*
X0170513Y0145132D01*
X0170571Y0145018D01*
X0170624Y0144902D01*
X0170674Y0144784D01*
X0170721Y0144665D01*
X0170764Y0144544D01*
X0170803Y0144422D01*
X0170838Y0144299D01*
X0170869Y0144175D01*
X0170897Y0144050D01*
X0170920Y0143924D01*
X0170940Y0143798D01*
X0170956Y0143671D01*
X0170968Y0143544D01*
X0170976Y0143416D01*
X0170980Y0143288D01*
X0170980Y0143160D01*
X0170976Y0143032D01*
X0170968Y0142904D01*
X0170956Y0142777D01*
X0170940Y0142650D01*
X0170920Y0142524D01*
X0170897Y0142398D01*
X0170869Y0142273D01*
X0170838Y0142149D01*
X0170803Y0142026D01*
X0170764Y0141904D01*
X0170721Y0141783D01*
X0170674Y0141664D01*
X0170624Y0141546D01*
X0170571Y0141430D01*
X0170513Y0141316D01*
X0170453Y0141203D01*
X0170388Y0141093D01*
X0170321Y0140984D01*
X0170250Y0140878D01*
X0170175Y0140773D01*
X0170098Y0140672D01*
X0170017Y0140572D01*
X0169934Y0140475D01*
X0169847Y0140381D01*
X0169758Y0140290D01*
X0169666Y0140201D01*
X0169571Y0140115D01*
X0169473Y0140032D01*
X0169373Y0139952D01*
X0169271Y0139876D01*
X0169166Y0139802D01*
X0169059Y0139732D01*
X0168950Y0139665D01*
X0168839Y0139602D01*
X0168726Y0139542D01*
X0168611Y0139486D01*
X0168494Y0139433D01*
X0168376Y0139384D01*
X0168257Y0139338D01*
X0168136Y0139296D01*
X0168013Y0139258D01*
X0167890Y0139224D01*
X0167766Y0139194D01*
X0167641Y0139167D01*
X0167515Y0139144D01*
X0167388Y0139126D01*
X0167261Y0139111D01*
X0167134Y0139100D01*
X0167006Y0139093D01*
X0166878Y0139090D01*
X0166750Y0139091D01*
X0166622Y0139096D01*
X0166495Y0139105D01*
X0166367Y0139118D01*
X0166240Y0139135D01*
X0166114Y0139155D01*
X0165989Y0139180D01*
X0165864Y0139208D01*
X0165740Y0139241D01*
X0165617Y0139277D01*
X0165496Y0139317D01*
X0165375Y0139360D01*
X0165257Y0139408D01*
X0165139Y0139459D01*
X0165024Y0139513D01*
X0164910Y0139572D01*
X0164797Y0139633D01*
X0164687Y0139698D01*
X0164579Y0139767D01*
X0164473Y0139839D01*
X0164370Y0139914D01*
X0164268Y0139992D01*
X0164170Y0140073D01*
X0164073Y0140158D01*
X0163980Y0140245D01*
X0163889Y0140335D01*
X0163801Y0140428D01*
X0163716Y0140523D01*
X0163634Y0140622D01*
X0163555Y0140722D01*
X0163479Y0140825D01*
X0163406Y0140931D01*
X0163337Y0141038D01*
X0163271Y0141148D01*
X0163209Y0141259D01*
X0163150Y0141373D01*
X0163094Y0141488D01*
X0163042Y0141605D01*
X0162994Y0141724D01*
X0162949Y0141844D01*
X0162908Y0141965D01*
X0162871Y0142087D01*
X0162838Y0142211D01*
X0162809Y0142335D01*
X0162783Y0142461D01*
X0162761Y0142587D01*
X0162744Y0142713D01*
X0162730Y0142841D01*
X0162720Y0142968D01*
X0162714Y0143096D01*
X0162712Y0143224D01*
X0166846Y0145193D02*
X0167036Y0145191D01*
X0167226Y0145184D01*
X0167416Y0145172D01*
X0167606Y0145156D01*
X0167795Y0145136D01*
X0167984Y0145110D01*
X0168172Y0145081D01*
X0168359Y0145046D01*
X0168545Y0145007D01*
X0168730Y0144964D01*
X0168915Y0144916D01*
X0169098Y0144864D01*
X0169279Y0144808D01*
X0169459Y0144747D01*
X0169638Y0144681D01*
X0169815Y0144612D01*
X0169991Y0144538D01*
X0170164Y0144460D01*
X0170336Y0144377D01*
X0170505Y0144291D01*
X0170673Y0144201D01*
X0170838Y0144106D01*
X0171001Y0144008D01*
X0171161Y0143905D01*
X0171319Y0143799D01*
X0171474Y0143689D01*
X0171627Y0143576D01*
X0171777Y0143458D01*
X0171923Y0143337D01*
X0172067Y0143213D01*
X0172208Y0143085D01*
X0172346Y0142954D01*
X0172481Y0142819D01*
X0172612Y0142681D01*
X0172740Y0142540D01*
X0172864Y0142396D01*
X0172985Y0142250D01*
X0173103Y0142100D01*
X0173216Y0141947D01*
X0173326Y0141792D01*
X0173432Y0141634D01*
X0173535Y0141474D01*
X0173633Y0141311D01*
X0173728Y0141146D01*
X0173818Y0140978D01*
X0173904Y0140809D01*
X0173987Y0140637D01*
X0174065Y0140464D01*
X0174139Y0140288D01*
X0174208Y0140111D01*
X0174274Y0139932D01*
X0174335Y0139752D01*
X0174391Y0139571D01*
X0174443Y0139388D01*
X0174491Y0139203D01*
X0174534Y0139018D01*
X0174573Y0138832D01*
X0174608Y0138645D01*
X0174637Y0138457D01*
X0174663Y0138268D01*
X0174683Y0138079D01*
X0174699Y0137889D01*
X0174711Y0137699D01*
X0174718Y0137509D01*
X0174720Y0137319D01*
X0174720Y0034957D01*
X0174718Y0034767D01*
X0174711Y0034577D01*
X0174699Y0034387D01*
X0174683Y0034197D01*
X0174663Y0034008D01*
X0174637Y0033819D01*
X0174608Y0033631D01*
X0174573Y0033444D01*
X0174534Y0033258D01*
X0174491Y0033073D01*
X0174443Y0032888D01*
X0174391Y0032705D01*
X0174335Y0032524D01*
X0174274Y0032344D01*
X0174208Y0032165D01*
X0174139Y0031988D01*
X0174065Y0031812D01*
X0173987Y0031639D01*
X0173904Y0031467D01*
X0173818Y0031298D01*
X0173728Y0031130D01*
X0173633Y0030965D01*
X0173535Y0030802D01*
X0173432Y0030642D01*
X0173326Y0030484D01*
X0173216Y0030329D01*
X0173103Y0030176D01*
X0172985Y0030026D01*
X0172864Y0029880D01*
X0172740Y0029736D01*
X0172612Y0029595D01*
X0172481Y0029457D01*
X0172346Y0029322D01*
X0172208Y0029191D01*
X0172067Y0029063D01*
X0171923Y0028939D01*
X0171777Y0028818D01*
X0171627Y0028700D01*
X0171474Y0028587D01*
X0171319Y0028477D01*
X0171161Y0028371D01*
X0171001Y0028268D01*
X0170838Y0028170D01*
X0170673Y0028075D01*
X0170505Y0027985D01*
X0170336Y0027899D01*
X0170164Y0027816D01*
X0169991Y0027738D01*
X0169815Y0027664D01*
X0169638Y0027595D01*
X0169459Y0027529D01*
X0169279Y0027468D01*
X0169098Y0027412D01*
X0168915Y0027360D01*
X0168730Y0027312D01*
X0168545Y0027269D01*
X0168359Y0027230D01*
X0168172Y0027195D01*
X0167984Y0027166D01*
X0167795Y0027140D01*
X0167606Y0027120D01*
X0167416Y0027104D01*
X0167226Y0027092D01*
X0167036Y0027085D01*
X0166846Y0027083D01*
X0058579Y0027083D01*
X0054445Y0029051D02*
X0054447Y0029179D01*
X0054453Y0029307D01*
X0054463Y0029434D01*
X0054477Y0029562D01*
X0054494Y0029688D01*
X0054516Y0029814D01*
X0054542Y0029940D01*
X0054571Y0030064D01*
X0054604Y0030188D01*
X0054641Y0030310D01*
X0054682Y0030431D01*
X0054727Y0030551D01*
X0054775Y0030670D01*
X0054827Y0030787D01*
X0054883Y0030902D01*
X0054942Y0031016D01*
X0055004Y0031127D01*
X0055070Y0031237D01*
X0055139Y0031344D01*
X0055212Y0031450D01*
X0055288Y0031553D01*
X0055367Y0031653D01*
X0055449Y0031752D01*
X0055534Y0031847D01*
X0055622Y0031940D01*
X0055713Y0032030D01*
X0055806Y0032117D01*
X0055903Y0032202D01*
X0056001Y0032283D01*
X0056103Y0032361D01*
X0056206Y0032436D01*
X0056312Y0032508D01*
X0056420Y0032577D01*
X0056530Y0032642D01*
X0056643Y0032703D01*
X0056757Y0032762D01*
X0056872Y0032816D01*
X0056990Y0032867D01*
X0057108Y0032915D01*
X0057229Y0032958D01*
X0057350Y0032998D01*
X0057473Y0033034D01*
X0057597Y0033067D01*
X0057722Y0033095D01*
X0057847Y0033120D01*
X0057973Y0033140D01*
X0058100Y0033157D01*
X0058228Y0033170D01*
X0058355Y0033179D01*
X0058483Y0033184D01*
X0058611Y0033185D01*
X0058739Y0033182D01*
X0058867Y0033175D01*
X0058994Y0033164D01*
X0059121Y0033149D01*
X0059248Y0033131D01*
X0059374Y0033108D01*
X0059499Y0033081D01*
X0059623Y0033051D01*
X0059746Y0033017D01*
X0059869Y0032979D01*
X0059990Y0032937D01*
X0060109Y0032891D01*
X0060227Y0032842D01*
X0060344Y0032789D01*
X0060459Y0032733D01*
X0060572Y0032673D01*
X0060683Y0032610D01*
X0060792Y0032543D01*
X0060899Y0032473D01*
X0061004Y0032399D01*
X0061106Y0032323D01*
X0061206Y0032243D01*
X0061304Y0032160D01*
X0061399Y0032074D01*
X0061491Y0031985D01*
X0061580Y0031894D01*
X0061667Y0031800D01*
X0061750Y0031703D01*
X0061831Y0031603D01*
X0061908Y0031502D01*
X0061983Y0031397D01*
X0062054Y0031291D01*
X0062121Y0031182D01*
X0062186Y0031072D01*
X0062246Y0030959D01*
X0062304Y0030845D01*
X0062357Y0030729D01*
X0062407Y0030611D01*
X0062454Y0030492D01*
X0062497Y0030371D01*
X0062536Y0030249D01*
X0062571Y0030126D01*
X0062602Y0030002D01*
X0062630Y0029877D01*
X0062653Y0029751D01*
X0062673Y0029625D01*
X0062689Y0029498D01*
X0062701Y0029371D01*
X0062709Y0029243D01*
X0062713Y0029115D01*
X0062713Y0028987D01*
X0062709Y0028859D01*
X0062701Y0028731D01*
X0062689Y0028604D01*
X0062673Y0028477D01*
X0062653Y0028351D01*
X0062630Y0028225D01*
X0062602Y0028100D01*
X0062571Y0027976D01*
X0062536Y0027853D01*
X0062497Y0027731D01*
X0062454Y0027610D01*
X0062407Y0027491D01*
X0062357Y0027373D01*
X0062304Y0027257D01*
X0062246Y0027143D01*
X0062186Y0027030D01*
X0062121Y0026920D01*
X0062054Y0026811D01*
X0061983Y0026705D01*
X0061908Y0026600D01*
X0061831Y0026499D01*
X0061750Y0026399D01*
X0061667Y0026302D01*
X0061580Y0026208D01*
X0061491Y0026117D01*
X0061399Y0026028D01*
X0061304Y0025942D01*
X0061206Y0025859D01*
X0061106Y0025779D01*
X0061004Y0025703D01*
X0060899Y0025629D01*
X0060792Y0025559D01*
X0060683Y0025492D01*
X0060572Y0025429D01*
X0060459Y0025369D01*
X0060344Y0025313D01*
X0060227Y0025260D01*
X0060109Y0025211D01*
X0059990Y0025165D01*
X0059869Y0025123D01*
X0059746Y0025085D01*
X0059623Y0025051D01*
X0059499Y0025021D01*
X0059374Y0024994D01*
X0059248Y0024971D01*
X0059121Y0024953D01*
X0058994Y0024938D01*
X0058867Y0024927D01*
X0058739Y0024920D01*
X0058611Y0024917D01*
X0058483Y0024918D01*
X0058355Y0024923D01*
X0058228Y0024932D01*
X0058100Y0024945D01*
X0057973Y0024962D01*
X0057847Y0024982D01*
X0057722Y0025007D01*
X0057597Y0025035D01*
X0057473Y0025068D01*
X0057350Y0025104D01*
X0057229Y0025144D01*
X0057108Y0025187D01*
X0056990Y0025235D01*
X0056872Y0025286D01*
X0056757Y0025340D01*
X0056643Y0025399D01*
X0056530Y0025460D01*
X0056420Y0025525D01*
X0056312Y0025594D01*
X0056206Y0025666D01*
X0056103Y0025741D01*
X0056001Y0025819D01*
X0055903Y0025900D01*
X0055806Y0025985D01*
X0055713Y0026072D01*
X0055622Y0026162D01*
X0055534Y0026255D01*
X0055449Y0026350D01*
X0055367Y0026449D01*
X0055288Y0026549D01*
X0055212Y0026652D01*
X0055139Y0026758D01*
X0055070Y0026865D01*
X0055004Y0026975D01*
X0054942Y0027086D01*
X0054883Y0027200D01*
X0054827Y0027315D01*
X0054775Y0027432D01*
X0054727Y0027551D01*
X0054682Y0027671D01*
X0054641Y0027792D01*
X0054604Y0027914D01*
X0054571Y0028038D01*
X0054542Y0028162D01*
X0054516Y0028288D01*
X0054494Y0028414D01*
X0054477Y0028540D01*
X0054463Y0028668D01*
X0054453Y0028795D01*
X0054447Y0028923D01*
X0054445Y0029051D01*
X0058579Y0027083D02*
X0058389Y0027085D01*
X0058199Y0027092D01*
X0058009Y0027104D01*
X0057819Y0027120D01*
X0057630Y0027140D01*
X0057441Y0027166D01*
X0057253Y0027195D01*
X0057066Y0027230D01*
X0056880Y0027269D01*
X0056695Y0027312D01*
X0056510Y0027360D01*
X0056327Y0027412D01*
X0056146Y0027468D01*
X0055966Y0027529D01*
X0055787Y0027595D01*
X0055610Y0027664D01*
X0055434Y0027738D01*
X0055261Y0027816D01*
X0055089Y0027899D01*
X0054920Y0027985D01*
X0054752Y0028075D01*
X0054587Y0028170D01*
X0054424Y0028268D01*
X0054264Y0028371D01*
X0054106Y0028477D01*
X0053951Y0028587D01*
X0053798Y0028700D01*
X0053648Y0028818D01*
X0053502Y0028939D01*
X0053358Y0029063D01*
X0053217Y0029191D01*
X0053079Y0029322D01*
X0052944Y0029457D01*
X0052813Y0029595D01*
X0052685Y0029736D01*
X0052561Y0029880D01*
X0052440Y0030026D01*
X0052322Y0030176D01*
X0052209Y0030329D01*
X0052099Y0030484D01*
X0051993Y0030642D01*
X0051890Y0030802D01*
X0051792Y0030965D01*
X0051697Y0031130D01*
X0051607Y0031298D01*
X0051521Y0031467D01*
X0051438Y0031639D01*
X0051360Y0031812D01*
X0051286Y0031988D01*
X0051217Y0032165D01*
X0051151Y0032344D01*
X0051090Y0032524D01*
X0051034Y0032705D01*
X0050982Y0032888D01*
X0050934Y0033073D01*
X0050891Y0033258D01*
X0050852Y0033444D01*
X0050817Y0033631D01*
X0050788Y0033819D01*
X0050762Y0034008D01*
X0050742Y0034197D01*
X0050726Y0034387D01*
X0050714Y0034577D01*
X0050707Y0034767D01*
X0050705Y0034957D01*
X0163106Y0044799D02*
X0163108Y0044883D01*
X0163114Y0044966D01*
X0163124Y0045049D01*
X0163138Y0045132D01*
X0163155Y0045214D01*
X0163177Y0045295D01*
X0163202Y0045374D01*
X0163231Y0045453D01*
X0163264Y0045530D01*
X0163300Y0045605D01*
X0163340Y0045679D01*
X0163383Y0045751D01*
X0163430Y0045820D01*
X0163480Y0045887D01*
X0163533Y0045952D01*
X0163589Y0046014D01*
X0163647Y0046074D01*
X0163709Y0046131D01*
X0163773Y0046184D01*
X0163840Y0046235D01*
X0163909Y0046282D01*
X0163980Y0046327D01*
X0164053Y0046367D01*
X0164128Y0046404D01*
X0164205Y0046438D01*
X0164283Y0046468D01*
X0164362Y0046494D01*
X0164443Y0046517D01*
X0164525Y0046535D01*
X0164607Y0046550D01*
X0164690Y0046561D01*
X0164773Y0046568D01*
X0164857Y0046571D01*
X0164941Y0046570D01*
X0165024Y0046565D01*
X0165108Y0046556D01*
X0165190Y0046543D01*
X0165272Y0046527D01*
X0165353Y0046506D01*
X0165434Y0046482D01*
X0165512Y0046454D01*
X0165590Y0046422D01*
X0165666Y0046386D01*
X0165740Y0046347D01*
X0165812Y0046305D01*
X0165882Y0046259D01*
X0165950Y0046210D01*
X0166015Y0046158D01*
X0166078Y0046103D01*
X0166138Y0046045D01*
X0166196Y0045984D01*
X0166250Y0045920D01*
X0166302Y0045854D01*
X0166350Y0045786D01*
X0166395Y0045715D01*
X0166436Y0045642D01*
X0166475Y0045568D01*
X0166509Y0045492D01*
X0166540Y0045414D01*
X0166567Y0045335D01*
X0166591Y0045254D01*
X0166610Y0045173D01*
X0166626Y0045091D01*
X0166638Y0045008D01*
X0166646Y0044924D01*
X0166650Y0044841D01*
X0166650Y0044757D01*
X0166646Y0044674D01*
X0166638Y0044590D01*
X0166626Y0044507D01*
X0166610Y0044425D01*
X0166591Y0044344D01*
X0166567Y0044263D01*
X0166540Y0044184D01*
X0166509Y0044106D01*
X0166475Y0044030D01*
X0166436Y0043956D01*
X0166395Y0043883D01*
X0166350Y0043812D01*
X0166302Y0043744D01*
X0166250Y0043678D01*
X0166196Y0043614D01*
X0166138Y0043553D01*
X0166078Y0043495D01*
X0166015Y0043440D01*
X0165950Y0043388D01*
X0165882Y0043339D01*
X0165812Y0043293D01*
X0165740Y0043251D01*
X0165666Y0043212D01*
X0165590Y0043176D01*
X0165512Y0043144D01*
X0165434Y0043116D01*
X0165353Y0043092D01*
X0165272Y0043071D01*
X0165190Y0043055D01*
X0165108Y0043042D01*
X0165024Y0043033D01*
X0164941Y0043028D01*
X0164857Y0043027D01*
X0164773Y0043030D01*
X0164690Y0043037D01*
X0164607Y0043048D01*
X0164525Y0043063D01*
X0164443Y0043081D01*
X0164362Y0043104D01*
X0164283Y0043130D01*
X0164205Y0043160D01*
X0164128Y0043194D01*
X0164053Y0043231D01*
X0163980Y0043271D01*
X0163909Y0043316D01*
X0163840Y0043363D01*
X0163773Y0043414D01*
X0163709Y0043467D01*
X0163647Y0043524D01*
X0163589Y0043584D01*
X0163533Y0043646D01*
X0163480Y0043711D01*
X0163430Y0043778D01*
X0163383Y0043847D01*
X0163340Y0043919D01*
X0163300Y0043993D01*
X0163264Y0044068D01*
X0163231Y0044145D01*
X0163202Y0044224D01*
X0163177Y0044303D01*
X0163155Y0044384D01*
X0163138Y0044466D01*
X0163124Y0044549D01*
X0163114Y0044632D01*
X0163108Y0044715D01*
X0163106Y0044799D01*
X0170193Y0044799D02*
X0170195Y0044883D01*
X0170201Y0044966D01*
X0170211Y0045049D01*
X0170225Y0045132D01*
X0170242Y0045214D01*
X0170264Y0045295D01*
X0170289Y0045374D01*
X0170318Y0045453D01*
X0170351Y0045530D01*
X0170387Y0045605D01*
X0170427Y0045679D01*
X0170470Y0045751D01*
X0170517Y0045820D01*
X0170567Y0045887D01*
X0170620Y0045952D01*
X0170676Y0046014D01*
X0170734Y0046074D01*
X0170796Y0046131D01*
X0170860Y0046184D01*
X0170927Y0046235D01*
X0170996Y0046282D01*
X0171067Y0046327D01*
X0171140Y0046367D01*
X0171215Y0046404D01*
X0171292Y0046438D01*
X0171370Y0046468D01*
X0171449Y0046494D01*
X0171530Y0046517D01*
X0171612Y0046535D01*
X0171694Y0046550D01*
X0171777Y0046561D01*
X0171860Y0046568D01*
X0171944Y0046571D01*
X0172028Y0046570D01*
X0172111Y0046565D01*
X0172195Y0046556D01*
X0172277Y0046543D01*
X0172359Y0046527D01*
X0172440Y0046506D01*
X0172521Y0046482D01*
X0172599Y0046454D01*
X0172677Y0046422D01*
X0172753Y0046386D01*
X0172827Y0046347D01*
X0172899Y0046305D01*
X0172969Y0046259D01*
X0173037Y0046210D01*
X0173102Y0046158D01*
X0173165Y0046103D01*
X0173225Y0046045D01*
X0173283Y0045984D01*
X0173337Y0045920D01*
X0173389Y0045854D01*
X0173437Y0045786D01*
X0173482Y0045715D01*
X0173523Y0045642D01*
X0173562Y0045568D01*
X0173596Y0045492D01*
X0173627Y0045414D01*
X0173654Y0045335D01*
X0173678Y0045254D01*
X0173697Y0045173D01*
X0173713Y0045091D01*
X0173725Y0045008D01*
X0173733Y0044924D01*
X0173737Y0044841D01*
X0173737Y0044757D01*
X0173733Y0044674D01*
X0173725Y0044590D01*
X0173713Y0044507D01*
X0173697Y0044425D01*
X0173678Y0044344D01*
X0173654Y0044263D01*
X0173627Y0044184D01*
X0173596Y0044106D01*
X0173562Y0044030D01*
X0173523Y0043956D01*
X0173482Y0043883D01*
X0173437Y0043812D01*
X0173389Y0043744D01*
X0173337Y0043678D01*
X0173283Y0043614D01*
X0173225Y0043553D01*
X0173165Y0043495D01*
X0173102Y0043440D01*
X0173037Y0043388D01*
X0172969Y0043339D01*
X0172899Y0043293D01*
X0172827Y0043251D01*
X0172753Y0043212D01*
X0172677Y0043176D01*
X0172599Y0043144D01*
X0172521Y0043116D01*
X0172440Y0043092D01*
X0172359Y0043071D01*
X0172277Y0043055D01*
X0172195Y0043042D01*
X0172111Y0043033D01*
X0172028Y0043028D01*
X0171944Y0043027D01*
X0171860Y0043030D01*
X0171777Y0043037D01*
X0171694Y0043048D01*
X0171612Y0043063D01*
X0171530Y0043081D01*
X0171449Y0043104D01*
X0171370Y0043130D01*
X0171292Y0043160D01*
X0171215Y0043194D01*
X0171140Y0043231D01*
X0171067Y0043271D01*
X0170996Y0043316D01*
X0170927Y0043363D01*
X0170860Y0043414D01*
X0170796Y0043467D01*
X0170734Y0043524D01*
X0170676Y0043584D01*
X0170620Y0043646D01*
X0170567Y0043711D01*
X0170517Y0043778D01*
X0170470Y0043847D01*
X0170427Y0043919D01*
X0170387Y0043993D01*
X0170351Y0044068D01*
X0170318Y0044145D01*
X0170289Y0044224D01*
X0170264Y0044303D01*
X0170242Y0044384D01*
X0170225Y0044466D01*
X0170211Y0044549D01*
X0170201Y0044632D01*
X0170195Y0044715D01*
X0170193Y0044799D01*
X0162712Y0029051D02*
X0162714Y0029179D01*
X0162720Y0029307D01*
X0162730Y0029434D01*
X0162744Y0029562D01*
X0162761Y0029688D01*
X0162783Y0029814D01*
X0162809Y0029940D01*
X0162838Y0030064D01*
X0162871Y0030188D01*
X0162908Y0030310D01*
X0162949Y0030431D01*
X0162994Y0030551D01*
X0163042Y0030670D01*
X0163094Y0030787D01*
X0163150Y0030902D01*
X0163209Y0031016D01*
X0163271Y0031127D01*
X0163337Y0031237D01*
X0163406Y0031344D01*
X0163479Y0031450D01*
X0163555Y0031553D01*
X0163634Y0031653D01*
X0163716Y0031752D01*
X0163801Y0031847D01*
X0163889Y0031940D01*
X0163980Y0032030D01*
X0164073Y0032117D01*
X0164170Y0032202D01*
X0164268Y0032283D01*
X0164370Y0032361D01*
X0164473Y0032436D01*
X0164579Y0032508D01*
X0164687Y0032577D01*
X0164797Y0032642D01*
X0164910Y0032703D01*
X0165024Y0032762D01*
X0165139Y0032816D01*
X0165257Y0032867D01*
X0165375Y0032915D01*
X0165496Y0032958D01*
X0165617Y0032998D01*
X0165740Y0033034D01*
X0165864Y0033067D01*
X0165989Y0033095D01*
X0166114Y0033120D01*
X0166240Y0033140D01*
X0166367Y0033157D01*
X0166495Y0033170D01*
X0166622Y0033179D01*
X0166750Y0033184D01*
X0166878Y0033185D01*
X0167006Y0033182D01*
X0167134Y0033175D01*
X0167261Y0033164D01*
X0167388Y0033149D01*
X0167515Y0033131D01*
X0167641Y0033108D01*
X0167766Y0033081D01*
X0167890Y0033051D01*
X0168013Y0033017D01*
X0168136Y0032979D01*
X0168257Y0032937D01*
X0168376Y0032891D01*
X0168494Y0032842D01*
X0168611Y0032789D01*
X0168726Y0032733D01*
X0168839Y0032673D01*
X0168950Y0032610D01*
X0169059Y0032543D01*
X0169166Y0032473D01*
X0169271Y0032399D01*
X0169373Y0032323D01*
X0169473Y0032243D01*
X0169571Y0032160D01*
X0169666Y0032074D01*
X0169758Y0031985D01*
X0169847Y0031894D01*
X0169934Y0031800D01*
X0170017Y0031703D01*
X0170098Y0031603D01*
X0170175Y0031502D01*
X0170250Y0031397D01*
X0170321Y0031291D01*
X0170388Y0031182D01*
X0170453Y0031072D01*
X0170513Y0030959D01*
X0170571Y0030845D01*
X0170624Y0030729D01*
X0170674Y0030611D01*
X0170721Y0030492D01*
X0170764Y0030371D01*
X0170803Y0030249D01*
X0170838Y0030126D01*
X0170869Y0030002D01*
X0170897Y0029877D01*
X0170920Y0029751D01*
X0170940Y0029625D01*
X0170956Y0029498D01*
X0170968Y0029371D01*
X0170976Y0029243D01*
X0170980Y0029115D01*
X0170980Y0028987D01*
X0170976Y0028859D01*
X0170968Y0028731D01*
X0170956Y0028604D01*
X0170940Y0028477D01*
X0170920Y0028351D01*
X0170897Y0028225D01*
X0170869Y0028100D01*
X0170838Y0027976D01*
X0170803Y0027853D01*
X0170764Y0027731D01*
X0170721Y0027610D01*
X0170674Y0027491D01*
X0170624Y0027373D01*
X0170571Y0027257D01*
X0170513Y0027143D01*
X0170453Y0027030D01*
X0170388Y0026920D01*
X0170321Y0026811D01*
X0170250Y0026705D01*
X0170175Y0026600D01*
X0170098Y0026499D01*
X0170017Y0026399D01*
X0169934Y0026302D01*
X0169847Y0026208D01*
X0169758Y0026117D01*
X0169666Y0026028D01*
X0169571Y0025942D01*
X0169473Y0025859D01*
X0169373Y0025779D01*
X0169271Y0025703D01*
X0169166Y0025629D01*
X0169059Y0025559D01*
X0168950Y0025492D01*
X0168839Y0025429D01*
X0168726Y0025369D01*
X0168611Y0025313D01*
X0168494Y0025260D01*
X0168376Y0025211D01*
X0168257Y0025165D01*
X0168136Y0025123D01*
X0168013Y0025085D01*
X0167890Y0025051D01*
X0167766Y0025021D01*
X0167641Y0024994D01*
X0167515Y0024971D01*
X0167388Y0024953D01*
X0167261Y0024938D01*
X0167134Y0024927D01*
X0167006Y0024920D01*
X0166878Y0024917D01*
X0166750Y0024918D01*
X0166622Y0024923D01*
X0166495Y0024932D01*
X0166367Y0024945D01*
X0166240Y0024962D01*
X0166114Y0024982D01*
X0165989Y0025007D01*
X0165864Y0025035D01*
X0165740Y0025068D01*
X0165617Y0025104D01*
X0165496Y0025144D01*
X0165375Y0025187D01*
X0165257Y0025235D01*
X0165139Y0025286D01*
X0165024Y0025340D01*
X0164910Y0025399D01*
X0164797Y0025460D01*
X0164687Y0025525D01*
X0164579Y0025594D01*
X0164473Y0025666D01*
X0164370Y0025741D01*
X0164268Y0025819D01*
X0164170Y0025900D01*
X0164073Y0025985D01*
X0163980Y0026072D01*
X0163889Y0026162D01*
X0163801Y0026255D01*
X0163716Y0026350D01*
X0163634Y0026449D01*
X0163555Y0026549D01*
X0163479Y0026652D01*
X0163406Y0026758D01*
X0163337Y0026865D01*
X0163271Y0026975D01*
X0163209Y0027086D01*
X0163150Y0027200D01*
X0163094Y0027315D01*
X0163042Y0027432D01*
X0162994Y0027551D01*
X0162949Y0027671D01*
X0162908Y0027792D01*
X0162871Y0027914D01*
X0162838Y0028038D01*
X0162809Y0028162D01*
X0162783Y0028288D01*
X0162761Y0028414D01*
X0162744Y0028540D01*
X0162730Y0028668D01*
X0162720Y0028795D01*
X0162714Y0028923D01*
X0162712Y0029051D01*
X0163106Y0107004D02*
X0163108Y0107088D01*
X0163114Y0107171D01*
X0163124Y0107254D01*
X0163138Y0107337D01*
X0163155Y0107419D01*
X0163177Y0107500D01*
X0163202Y0107579D01*
X0163231Y0107658D01*
X0163264Y0107735D01*
X0163300Y0107810D01*
X0163340Y0107884D01*
X0163383Y0107956D01*
X0163430Y0108025D01*
X0163480Y0108092D01*
X0163533Y0108157D01*
X0163589Y0108219D01*
X0163647Y0108279D01*
X0163709Y0108336D01*
X0163773Y0108389D01*
X0163840Y0108440D01*
X0163909Y0108487D01*
X0163980Y0108532D01*
X0164053Y0108572D01*
X0164128Y0108609D01*
X0164205Y0108643D01*
X0164283Y0108673D01*
X0164362Y0108699D01*
X0164443Y0108722D01*
X0164525Y0108740D01*
X0164607Y0108755D01*
X0164690Y0108766D01*
X0164773Y0108773D01*
X0164857Y0108776D01*
X0164941Y0108775D01*
X0165024Y0108770D01*
X0165108Y0108761D01*
X0165190Y0108748D01*
X0165272Y0108732D01*
X0165353Y0108711D01*
X0165434Y0108687D01*
X0165512Y0108659D01*
X0165590Y0108627D01*
X0165666Y0108591D01*
X0165740Y0108552D01*
X0165812Y0108510D01*
X0165882Y0108464D01*
X0165950Y0108415D01*
X0166015Y0108363D01*
X0166078Y0108308D01*
X0166138Y0108250D01*
X0166196Y0108189D01*
X0166250Y0108125D01*
X0166302Y0108059D01*
X0166350Y0107991D01*
X0166395Y0107920D01*
X0166436Y0107847D01*
X0166475Y0107773D01*
X0166509Y0107697D01*
X0166540Y0107619D01*
X0166567Y0107540D01*
X0166591Y0107459D01*
X0166610Y0107378D01*
X0166626Y0107296D01*
X0166638Y0107213D01*
X0166646Y0107129D01*
X0166650Y0107046D01*
X0166650Y0106962D01*
X0166646Y0106879D01*
X0166638Y0106795D01*
X0166626Y0106712D01*
X0166610Y0106630D01*
X0166591Y0106549D01*
X0166567Y0106468D01*
X0166540Y0106389D01*
X0166509Y0106311D01*
X0166475Y0106235D01*
X0166436Y0106161D01*
X0166395Y0106088D01*
X0166350Y0106017D01*
X0166302Y0105949D01*
X0166250Y0105883D01*
X0166196Y0105819D01*
X0166138Y0105758D01*
X0166078Y0105700D01*
X0166015Y0105645D01*
X0165950Y0105593D01*
X0165882Y0105544D01*
X0165812Y0105498D01*
X0165740Y0105456D01*
X0165666Y0105417D01*
X0165590Y0105381D01*
X0165512Y0105349D01*
X0165434Y0105321D01*
X0165353Y0105297D01*
X0165272Y0105276D01*
X0165190Y0105260D01*
X0165108Y0105247D01*
X0165024Y0105238D01*
X0164941Y0105233D01*
X0164857Y0105232D01*
X0164773Y0105235D01*
X0164690Y0105242D01*
X0164607Y0105253D01*
X0164525Y0105268D01*
X0164443Y0105286D01*
X0164362Y0105309D01*
X0164283Y0105335D01*
X0164205Y0105365D01*
X0164128Y0105399D01*
X0164053Y0105436D01*
X0163980Y0105476D01*
X0163909Y0105521D01*
X0163840Y0105568D01*
X0163773Y0105619D01*
X0163709Y0105672D01*
X0163647Y0105729D01*
X0163589Y0105789D01*
X0163533Y0105851D01*
X0163480Y0105916D01*
X0163430Y0105983D01*
X0163383Y0106052D01*
X0163340Y0106124D01*
X0163300Y0106198D01*
X0163264Y0106273D01*
X0163231Y0106350D01*
X0163202Y0106429D01*
X0163177Y0106508D01*
X0163155Y0106589D01*
X0163138Y0106671D01*
X0163124Y0106754D01*
X0163114Y0106837D01*
X0163108Y0106920D01*
X0163106Y0107004D01*
X0170193Y0107004D02*
X0170195Y0107088D01*
X0170201Y0107171D01*
X0170211Y0107254D01*
X0170225Y0107337D01*
X0170242Y0107419D01*
X0170264Y0107500D01*
X0170289Y0107579D01*
X0170318Y0107658D01*
X0170351Y0107735D01*
X0170387Y0107810D01*
X0170427Y0107884D01*
X0170470Y0107956D01*
X0170517Y0108025D01*
X0170567Y0108092D01*
X0170620Y0108157D01*
X0170676Y0108219D01*
X0170734Y0108279D01*
X0170796Y0108336D01*
X0170860Y0108389D01*
X0170927Y0108440D01*
X0170996Y0108487D01*
X0171067Y0108532D01*
X0171140Y0108572D01*
X0171215Y0108609D01*
X0171292Y0108643D01*
X0171370Y0108673D01*
X0171449Y0108699D01*
X0171530Y0108722D01*
X0171612Y0108740D01*
X0171694Y0108755D01*
X0171777Y0108766D01*
X0171860Y0108773D01*
X0171944Y0108776D01*
X0172028Y0108775D01*
X0172111Y0108770D01*
X0172195Y0108761D01*
X0172277Y0108748D01*
X0172359Y0108732D01*
X0172440Y0108711D01*
X0172521Y0108687D01*
X0172599Y0108659D01*
X0172677Y0108627D01*
X0172753Y0108591D01*
X0172827Y0108552D01*
X0172899Y0108510D01*
X0172969Y0108464D01*
X0173037Y0108415D01*
X0173102Y0108363D01*
X0173165Y0108308D01*
X0173225Y0108250D01*
X0173283Y0108189D01*
X0173337Y0108125D01*
X0173389Y0108059D01*
X0173437Y0107991D01*
X0173482Y0107920D01*
X0173523Y0107847D01*
X0173562Y0107773D01*
X0173596Y0107697D01*
X0173627Y0107619D01*
X0173654Y0107540D01*
X0173678Y0107459D01*
X0173697Y0107378D01*
X0173713Y0107296D01*
X0173725Y0107213D01*
X0173733Y0107129D01*
X0173737Y0107046D01*
X0173737Y0106962D01*
X0173733Y0106879D01*
X0173725Y0106795D01*
X0173713Y0106712D01*
X0173697Y0106630D01*
X0173678Y0106549D01*
X0173654Y0106468D01*
X0173627Y0106389D01*
X0173596Y0106311D01*
X0173562Y0106235D01*
X0173523Y0106161D01*
X0173482Y0106088D01*
X0173437Y0106017D01*
X0173389Y0105949D01*
X0173337Y0105883D01*
X0173283Y0105819D01*
X0173225Y0105758D01*
X0173165Y0105700D01*
X0173102Y0105645D01*
X0173037Y0105593D01*
X0172969Y0105544D01*
X0172899Y0105498D01*
X0172827Y0105456D01*
X0172753Y0105417D01*
X0172677Y0105381D01*
X0172599Y0105349D01*
X0172521Y0105321D01*
X0172440Y0105297D01*
X0172359Y0105276D01*
X0172277Y0105260D01*
X0172195Y0105247D01*
X0172111Y0105238D01*
X0172028Y0105233D01*
X0171944Y0105232D01*
X0171860Y0105235D01*
X0171777Y0105242D01*
X0171694Y0105253D01*
X0171612Y0105268D01*
X0171530Y0105286D01*
X0171449Y0105309D01*
X0171370Y0105335D01*
X0171292Y0105365D01*
X0171215Y0105399D01*
X0171140Y0105436D01*
X0171067Y0105476D01*
X0170996Y0105521D01*
X0170927Y0105568D01*
X0170860Y0105619D01*
X0170796Y0105672D01*
X0170734Y0105729D01*
X0170676Y0105789D01*
X0170620Y0105851D01*
X0170567Y0105916D01*
X0170517Y0105983D01*
X0170470Y0106052D01*
X0170427Y0106124D01*
X0170387Y0106198D01*
X0170351Y0106273D01*
X0170318Y0106350D01*
X0170289Y0106429D01*
X0170264Y0106508D01*
X0170242Y0106589D01*
X0170225Y0106671D01*
X0170211Y0106754D01*
X0170201Y0106837D01*
X0170195Y0106920D01*
X0170193Y0107004D01*
X0170193Y0127870D02*
X0170195Y0127954D01*
X0170201Y0128037D01*
X0170211Y0128120D01*
X0170225Y0128203D01*
X0170242Y0128285D01*
X0170264Y0128366D01*
X0170289Y0128445D01*
X0170318Y0128524D01*
X0170351Y0128601D01*
X0170387Y0128676D01*
X0170427Y0128750D01*
X0170470Y0128822D01*
X0170517Y0128891D01*
X0170567Y0128958D01*
X0170620Y0129023D01*
X0170676Y0129085D01*
X0170734Y0129145D01*
X0170796Y0129202D01*
X0170860Y0129255D01*
X0170927Y0129306D01*
X0170996Y0129353D01*
X0171067Y0129398D01*
X0171140Y0129438D01*
X0171215Y0129475D01*
X0171292Y0129509D01*
X0171370Y0129539D01*
X0171449Y0129565D01*
X0171530Y0129588D01*
X0171612Y0129606D01*
X0171694Y0129621D01*
X0171777Y0129632D01*
X0171860Y0129639D01*
X0171944Y0129642D01*
X0172028Y0129641D01*
X0172111Y0129636D01*
X0172195Y0129627D01*
X0172277Y0129614D01*
X0172359Y0129598D01*
X0172440Y0129577D01*
X0172521Y0129553D01*
X0172599Y0129525D01*
X0172677Y0129493D01*
X0172753Y0129457D01*
X0172827Y0129418D01*
X0172899Y0129376D01*
X0172969Y0129330D01*
X0173037Y0129281D01*
X0173102Y0129229D01*
X0173165Y0129174D01*
X0173225Y0129116D01*
X0173283Y0129055D01*
X0173337Y0128991D01*
X0173389Y0128925D01*
X0173437Y0128857D01*
X0173482Y0128786D01*
X0173523Y0128713D01*
X0173562Y0128639D01*
X0173596Y0128563D01*
X0173627Y0128485D01*
X0173654Y0128406D01*
X0173678Y0128325D01*
X0173697Y0128244D01*
X0173713Y0128162D01*
X0173725Y0128079D01*
X0173733Y0127995D01*
X0173737Y0127912D01*
X0173737Y0127828D01*
X0173733Y0127745D01*
X0173725Y0127661D01*
X0173713Y0127578D01*
X0173697Y0127496D01*
X0173678Y0127415D01*
X0173654Y0127334D01*
X0173627Y0127255D01*
X0173596Y0127177D01*
X0173562Y0127101D01*
X0173523Y0127027D01*
X0173482Y0126954D01*
X0173437Y0126883D01*
X0173389Y0126815D01*
X0173337Y0126749D01*
X0173283Y0126685D01*
X0173225Y0126624D01*
X0173165Y0126566D01*
X0173102Y0126511D01*
X0173037Y0126459D01*
X0172969Y0126410D01*
X0172899Y0126364D01*
X0172827Y0126322D01*
X0172753Y0126283D01*
X0172677Y0126247D01*
X0172599Y0126215D01*
X0172521Y0126187D01*
X0172440Y0126163D01*
X0172359Y0126142D01*
X0172277Y0126126D01*
X0172195Y0126113D01*
X0172111Y0126104D01*
X0172028Y0126099D01*
X0171944Y0126098D01*
X0171860Y0126101D01*
X0171777Y0126108D01*
X0171694Y0126119D01*
X0171612Y0126134D01*
X0171530Y0126152D01*
X0171449Y0126175D01*
X0171370Y0126201D01*
X0171292Y0126231D01*
X0171215Y0126265D01*
X0171140Y0126302D01*
X0171067Y0126342D01*
X0170996Y0126387D01*
X0170927Y0126434D01*
X0170860Y0126485D01*
X0170796Y0126538D01*
X0170734Y0126595D01*
X0170676Y0126655D01*
X0170620Y0126717D01*
X0170567Y0126782D01*
X0170517Y0126849D01*
X0170470Y0126918D01*
X0170427Y0126990D01*
X0170387Y0127064D01*
X0170351Y0127139D01*
X0170318Y0127216D01*
X0170289Y0127295D01*
X0170264Y0127374D01*
X0170242Y0127455D01*
X0170225Y0127537D01*
X0170211Y0127620D01*
X0170201Y0127703D01*
X0170195Y0127786D01*
X0170193Y0127870D01*
X0163106Y0127870D02*
X0163108Y0127954D01*
X0163114Y0128037D01*
X0163124Y0128120D01*
X0163138Y0128203D01*
X0163155Y0128285D01*
X0163177Y0128366D01*
X0163202Y0128445D01*
X0163231Y0128524D01*
X0163264Y0128601D01*
X0163300Y0128676D01*
X0163340Y0128750D01*
X0163383Y0128822D01*
X0163430Y0128891D01*
X0163480Y0128958D01*
X0163533Y0129023D01*
X0163589Y0129085D01*
X0163647Y0129145D01*
X0163709Y0129202D01*
X0163773Y0129255D01*
X0163840Y0129306D01*
X0163909Y0129353D01*
X0163980Y0129398D01*
X0164053Y0129438D01*
X0164128Y0129475D01*
X0164205Y0129509D01*
X0164283Y0129539D01*
X0164362Y0129565D01*
X0164443Y0129588D01*
X0164525Y0129606D01*
X0164607Y0129621D01*
X0164690Y0129632D01*
X0164773Y0129639D01*
X0164857Y0129642D01*
X0164941Y0129641D01*
X0165024Y0129636D01*
X0165108Y0129627D01*
X0165190Y0129614D01*
X0165272Y0129598D01*
X0165353Y0129577D01*
X0165434Y0129553D01*
X0165512Y0129525D01*
X0165590Y0129493D01*
X0165666Y0129457D01*
X0165740Y0129418D01*
X0165812Y0129376D01*
X0165882Y0129330D01*
X0165950Y0129281D01*
X0166015Y0129229D01*
X0166078Y0129174D01*
X0166138Y0129116D01*
X0166196Y0129055D01*
X0166250Y0128991D01*
X0166302Y0128925D01*
X0166350Y0128857D01*
X0166395Y0128786D01*
X0166436Y0128713D01*
X0166475Y0128639D01*
X0166509Y0128563D01*
X0166540Y0128485D01*
X0166567Y0128406D01*
X0166591Y0128325D01*
X0166610Y0128244D01*
X0166626Y0128162D01*
X0166638Y0128079D01*
X0166646Y0127995D01*
X0166650Y0127912D01*
X0166650Y0127828D01*
X0166646Y0127745D01*
X0166638Y0127661D01*
X0166626Y0127578D01*
X0166610Y0127496D01*
X0166591Y0127415D01*
X0166567Y0127334D01*
X0166540Y0127255D01*
X0166509Y0127177D01*
X0166475Y0127101D01*
X0166436Y0127027D01*
X0166395Y0126954D01*
X0166350Y0126883D01*
X0166302Y0126815D01*
X0166250Y0126749D01*
X0166196Y0126685D01*
X0166138Y0126624D01*
X0166078Y0126566D01*
X0166015Y0126511D01*
X0165950Y0126459D01*
X0165882Y0126410D01*
X0165812Y0126364D01*
X0165740Y0126322D01*
X0165666Y0126283D01*
X0165590Y0126247D01*
X0165512Y0126215D01*
X0165434Y0126187D01*
X0165353Y0126163D01*
X0165272Y0126142D01*
X0165190Y0126126D01*
X0165108Y0126113D01*
X0165024Y0126104D01*
X0164941Y0126099D01*
X0164857Y0126098D01*
X0164773Y0126101D01*
X0164690Y0126108D01*
X0164607Y0126119D01*
X0164525Y0126134D01*
X0164443Y0126152D01*
X0164362Y0126175D01*
X0164283Y0126201D01*
X0164205Y0126231D01*
X0164128Y0126265D01*
X0164053Y0126302D01*
X0163980Y0126342D01*
X0163909Y0126387D01*
X0163840Y0126434D01*
X0163773Y0126485D01*
X0163709Y0126538D01*
X0163647Y0126595D01*
X0163589Y0126655D01*
X0163533Y0126717D01*
X0163480Y0126782D01*
X0163430Y0126849D01*
X0163383Y0126918D01*
X0163340Y0126990D01*
X0163300Y0127064D01*
X0163264Y0127139D01*
X0163231Y0127216D01*
X0163202Y0127295D01*
X0163177Y0127374D01*
X0163155Y0127455D01*
X0163138Y0127537D01*
X0163124Y0127620D01*
X0163114Y0127703D01*
X0163108Y0127786D01*
X0163106Y0127870D01*
X0054445Y0143224D02*
X0054447Y0143352D01*
X0054453Y0143480D01*
X0054463Y0143607D01*
X0054477Y0143735D01*
X0054494Y0143861D01*
X0054516Y0143987D01*
X0054542Y0144113D01*
X0054571Y0144237D01*
X0054604Y0144361D01*
X0054641Y0144483D01*
X0054682Y0144604D01*
X0054727Y0144724D01*
X0054775Y0144843D01*
X0054827Y0144960D01*
X0054883Y0145075D01*
X0054942Y0145189D01*
X0055004Y0145300D01*
X0055070Y0145410D01*
X0055139Y0145517D01*
X0055212Y0145623D01*
X0055288Y0145726D01*
X0055367Y0145826D01*
X0055449Y0145925D01*
X0055534Y0146020D01*
X0055622Y0146113D01*
X0055713Y0146203D01*
X0055806Y0146290D01*
X0055903Y0146375D01*
X0056001Y0146456D01*
X0056103Y0146534D01*
X0056206Y0146609D01*
X0056312Y0146681D01*
X0056420Y0146750D01*
X0056530Y0146815D01*
X0056643Y0146876D01*
X0056757Y0146935D01*
X0056872Y0146989D01*
X0056990Y0147040D01*
X0057108Y0147088D01*
X0057229Y0147131D01*
X0057350Y0147171D01*
X0057473Y0147207D01*
X0057597Y0147240D01*
X0057722Y0147268D01*
X0057847Y0147293D01*
X0057973Y0147313D01*
X0058100Y0147330D01*
X0058228Y0147343D01*
X0058355Y0147352D01*
X0058483Y0147357D01*
X0058611Y0147358D01*
X0058739Y0147355D01*
X0058867Y0147348D01*
X0058994Y0147337D01*
X0059121Y0147322D01*
X0059248Y0147304D01*
X0059374Y0147281D01*
X0059499Y0147254D01*
X0059623Y0147224D01*
X0059746Y0147190D01*
X0059869Y0147152D01*
X0059990Y0147110D01*
X0060109Y0147064D01*
X0060227Y0147015D01*
X0060344Y0146962D01*
X0060459Y0146906D01*
X0060572Y0146846D01*
X0060683Y0146783D01*
X0060792Y0146716D01*
X0060899Y0146646D01*
X0061004Y0146572D01*
X0061106Y0146496D01*
X0061206Y0146416D01*
X0061304Y0146333D01*
X0061399Y0146247D01*
X0061491Y0146158D01*
X0061580Y0146067D01*
X0061667Y0145973D01*
X0061750Y0145876D01*
X0061831Y0145776D01*
X0061908Y0145675D01*
X0061983Y0145570D01*
X0062054Y0145464D01*
X0062121Y0145355D01*
X0062186Y0145245D01*
X0062246Y0145132D01*
X0062304Y0145018D01*
X0062357Y0144902D01*
X0062407Y0144784D01*
X0062454Y0144665D01*
X0062497Y0144544D01*
X0062536Y0144422D01*
X0062571Y0144299D01*
X0062602Y0144175D01*
X0062630Y0144050D01*
X0062653Y0143924D01*
X0062673Y0143798D01*
X0062689Y0143671D01*
X0062701Y0143544D01*
X0062709Y0143416D01*
X0062713Y0143288D01*
X0062713Y0143160D01*
X0062709Y0143032D01*
X0062701Y0142904D01*
X0062689Y0142777D01*
X0062673Y0142650D01*
X0062653Y0142524D01*
X0062630Y0142398D01*
X0062602Y0142273D01*
X0062571Y0142149D01*
X0062536Y0142026D01*
X0062497Y0141904D01*
X0062454Y0141783D01*
X0062407Y0141664D01*
X0062357Y0141546D01*
X0062304Y0141430D01*
X0062246Y0141316D01*
X0062186Y0141203D01*
X0062121Y0141093D01*
X0062054Y0140984D01*
X0061983Y0140878D01*
X0061908Y0140773D01*
X0061831Y0140672D01*
X0061750Y0140572D01*
X0061667Y0140475D01*
X0061580Y0140381D01*
X0061491Y0140290D01*
X0061399Y0140201D01*
X0061304Y0140115D01*
X0061206Y0140032D01*
X0061106Y0139952D01*
X0061004Y0139876D01*
X0060899Y0139802D01*
X0060792Y0139732D01*
X0060683Y0139665D01*
X0060572Y0139602D01*
X0060459Y0139542D01*
X0060344Y0139486D01*
X0060227Y0139433D01*
X0060109Y0139384D01*
X0059990Y0139338D01*
X0059869Y0139296D01*
X0059746Y0139258D01*
X0059623Y0139224D01*
X0059499Y0139194D01*
X0059374Y0139167D01*
X0059248Y0139144D01*
X0059121Y0139126D01*
X0058994Y0139111D01*
X0058867Y0139100D01*
X0058739Y0139093D01*
X0058611Y0139090D01*
X0058483Y0139091D01*
X0058355Y0139096D01*
X0058228Y0139105D01*
X0058100Y0139118D01*
X0057973Y0139135D01*
X0057847Y0139155D01*
X0057722Y0139180D01*
X0057597Y0139208D01*
X0057473Y0139241D01*
X0057350Y0139277D01*
X0057229Y0139317D01*
X0057108Y0139360D01*
X0056990Y0139408D01*
X0056872Y0139459D01*
X0056757Y0139513D01*
X0056643Y0139572D01*
X0056530Y0139633D01*
X0056420Y0139698D01*
X0056312Y0139767D01*
X0056206Y0139839D01*
X0056103Y0139914D01*
X0056001Y0139992D01*
X0055903Y0140073D01*
X0055806Y0140158D01*
X0055713Y0140245D01*
X0055622Y0140335D01*
X0055534Y0140428D01*
X0055449Y0140523D01*
X0055367Y0140622D01*
X0055288Y0140722D01*
X0055212Y0140825D01*
X0055139Y0140931D01*
X0055070Y0141038D01*
X0055004Y0141148D01*
X0054942Y0141259D01*
X0054883Y0141373D01*
X0054827Y0141488D01*
X0054775Y0141605D01*
X0054727Y0141724D01*
X0054682Y0141844D01*
X0054641Y0141965D01*
X0054604Y0142087D01*
X0054571Y0142211D01*
X0054542Y0142335D01*
X0054516Y0142461D01*
X0054494Y0142587D01*
X0054477Y0142713D01*
X0054463Y0142841D01*
X0054453Y0142968D01*
X0054447Y0143096D01*
X0054445Y0143224D01*
D11*
X0067437Y0136965D03*
X0071768Y0136965D03*
X0076098Y0136965D03*
X0080429Y0136965D03*
X0084760Y0136965D03*
X0089091Y0136965D03*
X0093421Y0136965D03*
X0097752Y0136965D03*
X0102083Y0136965D03*
X0106413Y0136965D03*
X0110744Y0136965D03*
X0115075Y0136965D03*
X0119406Y0136965D03*
X0119406Y0083815D03*
X0115075Y0083815D03*
X0110744Y0083815D03*
X0106413Y0083815D03*
X0102083Y0083815D03*
X0097752Y0083815D03*
X0093421Y0083815D03*
X0089091Y0083815D03*
X0084760Y0083815D03*
X0080429Y0083815D03*
X0076098Y0083815D03*
X0071768Y0083815D03*
X0067437Y0083815D03*
D12*
X0125311Y0088736D03*
X0125311Y0093067D03*
X0125311Y0097398D03*
X0125311Y0101728D03*
X0125311Y0106059D03*
X0125311Y0110390D03*
X0125311Y0114720D03*
X0125311Y0119051D03*
X0125311Y0123382D03*
X0125311Y0127713D03*
X0125311Y0132043D03*
D13*
X0129445Y0050134D03*
X0129445Y0045134D03*
X0129445Y0040134D03*
X0129445Y0035134D03*
X0157791Y0035134D03*
X0157791Y0040134D03*
X0157791Y0045134D03*
X0157791Y0050134D03*
D14*
X0089681Y0051492D03*
D15*
X0059563Y0051492D03*
X0119799Y0051492D03*
D16*
X0133087Y0075311D03*
X0133087Y0077280D03*
X0133087Y0079248D03*
X0133087Y0081217D03*
X0133087Y0083185D03*
X0133087Y0085154D03*
X0133087Y0087122D03*
X0133087Y0089091D03*
X0133087Y0091059D03*
X0133087Y0093028D03*
D17*
X0145488Y0103461D03*
X0145488Y0064878D03*
D18*
X0165567Y0051886D03*
X0171276Y0051886D03*
X0171276Y0037713D03*
X0165567Y0037713D03*
X0165567Y0099917D03*
X0171276Y0099917D03*
X0171276Y0114091D03*
X0165567Y0114091D03*
X0165567Y0120783D03*
X0171276Y0120783D03*
X0171276Y0134957D03*
X0165567Y0134957D03*
D19*
X0158185Y0132004D03*
X0154248Y0130429D03*
X0153854Y0134366D03*
X0153854Y0138697D03*
X0146571Y0138500D03*
X0142240Y0138500D03*
X0132594Y0130823D03*
X0132594Y0126492D03*
X0144996Y0123146D03*
X0149327Y0123146D03*
X0154248Y0126098D03*
X0158185Y0127673D03*
X0151098Y0117831D03*
X0147161Y0117831D03*
X0147161Y0113500D03*
X0151098Y0113500D03*
X0137516Y0107004D03*
X0133185Y0107004D03*
X0131413Y0101689D03*
X0131413Y0097358D03*
X0113894Y0076689D03*
X0109563Y0076689D03*
X0127870Y0068224D03*
X0127870Y0063894D03*
X0130035Y0057004D03*
X0134366Y0057004D03*
X0138697Y0057004D03*
X0143028Y0057004D03*
X0151689Y0057004D03*
X0156020Y0057004D03*
X0075114Y0074293D03*
X0071028Y0074639D03*
X0070980Y0078657D03*
X0075114Y0078624D03*
X0066650Y0078657D03*
X0066697Y0074639D03*
D20*
X0133579Y0112909D03*
X0141059Y0112909D03*
X0141059Y0122358D03*
X0133579Y0122358D03*
D21*
X0137319Y0112909D03*
D22*
X0141453Y0128264D03*
X0141453Y0129839D03*
X0141453Y0131413D03*
X0141453Y0132988D03*
X0141453Y0134563D03*
X0148933Y0134563D03*
X0148933Y0132988D03*
X0148933Y0131413D03*
X0148933Y0129839D03*
X0148933Y0128264D03*
D23*
X0123539Y0076098D03*
X0115272Y0072358D03*
X0123539Y0068618D03*
D24*
X0160941Y0066728D03*
X0165941Y0066728D03*
X0165941Y0061728D03*
X0160941Y0061728D03*
X0170941Y0061728D03*
X0170941Y0066728D03*
D25*
X0163205Y0054248D02*
X0160547Y0054248D01*
X0163205Y0054248D02*
X0165567Y0051886D01*
X0165567Y0050016D01*
X0168421Y0047161D01*
X0168421Y0042437D01*
X0165567Y0039583D01*
X0165567Y0037713D01*
X0157791Y0040134D02*
X0151945Y0040134D01*
X0151886Y0040075D01*
X0151886Y0035350D02*
X0152102Y0035134D01*
X0157791Y0035134D01*
X0157791Y0045134D02*
X0151945Y0045134D01*
X0151886Y0045193D01*
X0135744Y0045193D02*
X0135685Y0045134D01*
X0129445Y0045134D01*
X0129445Y0050134D02*
X0135567Y0050134D01*
X0135744Y0050311D01*
X0134366Y0057004D02*
X0134366Y0069190D01*
X0134357Y0069199D01*
X0138894Y0069199D02*
X0138894Y0057201D01*
X0138697Y0057004D01*
X0135685Y0040134D02*
X0129445Y0040134D01*
X0135685Y0040134D02*
X0135744Y0040075D01*
X0133087Y0075311D02*
X0128794Y0075311D01*
X0128156Y0075949D01*
X0133087Y0077280D02*
X0137220Y0077280D01*
X0138017Y0076483D01*
X0136935Y0079248D02*
X0133087Y0079248D01*
X0133087Y0081217D02*
X0128633Y0081217D01*
X0128547Y0081130D01*
X0133087Y0083185D02*
X0140644Y0083185D01*
X0140850Y0082979D01*
X0151492Y0093621D01*
X0151492Y0113106D01*
X0151098Y0113500D01*
X0147161Y0113500D01*
X0147161Y0117831D02*
X0135941Y0117831D01*
X0133579Y0115469D01*
X0133579Y0112909D01*
X0125311Y0114720D02*
X0124938Y0115094D01*
X0119996Y0115094D01*
X0119996Y0119209D02*
X0125154Y0119209D01*
X0125311Y0119051D01*
X0133579Y0122358D02*
X0133579Y0125508D01*
X0132594Y0126492D01*
X0132594Y0130823D02*
X0132594Y0132988D01*
X0137319Y0132988D01*
X0132594Y0132988D02*
X0123933Y0141650D01*
X0112122Y0141650D01*
X0110744Y0140272D01*
X0110744Y0136965D01*
X0106413Y0136965D02*
X0106413Y0140665D01*
X0109350Y0143602D01*
X0151114Y0143602D01*
X0153854Y0140862D01*
X0153854Y0138697D01*
X0152870Y0138697D01*
X0150311Y0136138D01*
X0151492Y0131413D02*
X0153854Y0131413D01*
X0154248Y0126098D02*
X0150705Y0126098D01*
X0149327Y0124720D01*
X0149327Y0123146D01*
X0144996Y0123146D02*
X0144996Y0128854D01*
X0144406Y0129445D01*
X0160950Y0130340D02*
X0160950Y0120783D01*
X0165567Y0120783D01*
X0165567Y0114091D02*
X0163313Y0114091D01*
X0160950Y0111728D01*
X0160950Y0104534D01*
X0165567Y0099917D01*
X0144799Y0109366D02*
X0144602Y0109366D01*
X0141059Y0112909D01*
X0125311Y0110390D02*
X0120950Y0110390D01*
X0119996Y0111344D01*
X0117791Y0106059D02*
X0114091Y0109760D01*
X0117791Y0106059D02*
X0118421Y0106059D01*
X0125311Y0106059D01*
X0125154Y0101886D02*
X0119996Y0101886D01*
X0119996Y0097161D02*
X0125075Y0097161D01*
X0125311Y0097398D01*
X0125311Y0101728D02*
X0125154Y0101886D01*
X0133087Y0094504D02*
X0134563Y0095980D01*
X0133087Y0094504D02*
X0133087Y0093028D01*
X0137516Y0093028D01*
X0138097Y0089681D02*
X0137506Y0089091D01*
X0133087Y0089091D01*
X0133087Y0087122D02*
X0136335Y0087122D01*
X0137319Y0086138D01*
X0136335Y0085154D01*
X0133087Y0085154D01*
X0138106Y0080420D02*
X0136935Y0079248D01*
X0119602Y0084012D02*
X0119406Y0083815D01*
X0119602Y0084012D02*
X0119602Y0089081D01*
X0119996Y0092831D02*
X0125075Y0092831D01*
X0125311Y0093067D01*
X0115272Y0089287D02*
X0115272Y0084012D01*
X0115075Y0083815D01*
X0110941Y0084012D02*
X0110744Y0083815D01*
X0110941Y0084012D02*
X0110941Y0089287D01*
X0106610Y0089287D02*
X0106610Y0084012D01*
X0106413Y0083815D01*
X0102280Y0084012D02*
X0102083Y0083815D01*
X0102280Y0084012D02*
X0102280Y0089287D01*
X0097949Y0089287D02*
X0097949Y0084012D01*
X0097752Y0083815D01*
X0093618Y0084012D02*
X0093421Y0083815D01*
X0093618Y0084012D02*
X0093618Y0089287D01*
X0089091Y0083815D02*
X0089091Y0080429D01*
X0087285Y0078624D01*
X0075114Y0078624D01*
X0071014Y0078624D01*
X0070980Y0078657D01*
X0070980Y0074687D01*
X0071028Y0074639D01*
X0066697Y0074639D02*
X0066697Y0058627D01*
X0059563Y0051492D01*
X0066650Y0078657D02*
X0067437Y0079445D01*
X0067437Y0083815D01*
X0084760Y0083815D02*
X0084957Y0084012D01*
X0084957Y0089287D01*
X0089287Y0131413D02*
X0089091Y0131610D01*
X0089091Y0136965D01*
X0093421Y0136965D02*
X0093421Y0131610D01*
X0093618Y0131413D01*
X0114878Y0131413D02*
X0115075Y0131610D01*
X0115075Y0136965D01*
X0160950Y0130340D02*
X0165567Y0134957D01*
D26*
X0171846Y0138697D03*
X0158185Y0135744D03*
X0150311Y0140469D03*
X0156217Y0142437D03*
X0137319Y0136138D03*
X0137605Y0130045D03*
X0137713Y0126295D03*
X0137309Y0122358D03*
X0151098Y0125902D03*
X0154248Y0121571D03*
X0160950Y0120783D03*
X0171177Y0117634D03*
X0160950Y0111728D03*
X0154445Y0108776D03*
X0144799Y0109366D03*
X0138894Y0103067D03*
X0134563Y0095980D03*
X0138097Y0089681D03*
X0140850Y0082979D03*
X0138106Y0080420D03*
X0138017Y0076483D03*
X0138894Y0069199D03*
X0134357Y0069199D03*
X0128156Y0075949D03*
X0128547Y0081130D03*
X0119602Y0089081D03*
X0119996Y0092831D03*
X0115272Y0093618D03*
X0115272Y0089287D03*
X0110941Y0089287D03*
X0106610Y0089287D03*
X0102280Y0089287D03*
X0097949Y0089287D03*
X0093618Y0089287D03*
X0099917Y0093224D03*
X0084957Y0089287D03*
X0075114Y0090075D03*
X0066453Y0090075D03*
X0066453Y0095587D03*
X0066453Y0101886D03*
X0066453Y0108579D03*
X0066453Y0115665D03*
X0066453Y0122752D03*
X0066453Y0129445D03*
X0075114Y0131020D03*
X0084563Y0131413D03*
X0089287Y0131413D03*
X0093618Y0131413D03*
X0097161Y0129445D03*
X0091256Y0120783D03*
X0078657Y0117634D03*
X0084957Y0103067D03*
X0102673Y0109366D03*
X0110941Y0113303D03*
X0114091Y0109760D03*
X0119996Y0111344D03*
X0119996Y0115094D03*
X0119996Y0119209D03*
X0119602Y0127083D03*
X0114878Y0131413D03*
X0110154Y0131020D03*
X0104642Y0119996D03*
X0115272Y0101492D03*
X0119996Y0101886D03*
X0119996Y0097161D03*
X0146768Y0094406D03*
X0154445Y0096965D03*
X0161138Y0100114D03*
X0161335Y0091650D03*
X0153657Y0087909D03*
X0146768Y0083382D03*
X0146768Y0077083D03*
X0160941Y0080232D03*
X0171571Y0082201D03*
X0171965Y0071571D03*
X0163303Y0057398D03*
X0160547Y0054248D03*
X0151886Y0049524D03*
X0151886Y0045193D03*
X0151886Y0040075D03*
X0151886Y0035350D03*
X0147161Y0035744D03*
X0149524Y0030232D03*
X0158972Y0030232D03*
X0171846Y0033579D03*
X0139287Y0043224D03*
X0135744Y0045193D03*
X0135744Y0050311D03*
X0147161Y0057398D03*
X0152280Y0064878D03*
X0135744Y0040075D03*
X0123146Y0038894D03*
X0122752Y0030626D03*
X0112122Y0030232D03*
X0105035Y0033776D03*
X0112122Y0043224D03*
X0106610Y0051492D03*
X0112516Y0058972D03*
X0099524Y0071571D03*
X0093224Y0078461D03*
X0079445Y0075508D03*
X0069996Y0070783D03*
X0081807Y0062122D03*
X0067240Y0054642D03*
X0067240Y0045193D03*
X0079051Y0033776D03*
X0091256Y0042437D03*
X0136531Y0030232D03*
X0171571Y0094012D03*
X0129445Y0140469D03*
X0103461Y0142437D03*
X0084957Y0142437D03*
X0066453Y0142437D03*
D27*
X0065863Y0141606D02*
X0067240Y0141606D01*
X0067240Y0137161D01*
X0067634Y0137161D01*
X0067634Y0141606D01*
X0069011Y0141606D01*
X0069391Y0141505D01*
X0069731Y0141308D01*
X0069885Y0141154D01*
X0069937Y0141206D01*
X0073598Y0141206D01*
X0073933Y0140871D01*
X0074268Y0141206D01*
X0077929Y0141206D01*
X0078264Y0140871D01*
X0078599Y0141206D01*
X0082259Y0141206D01*
X0082594Y0140871D01*
X0082930Y0141206D01*
X0086590Y0141206D01*
X0086925Y0140871D01*
X0087260Y0141206D01*
X0090921Y0141206D01*
X0091256Y0140871D01*
X0091591Y0141206D01*
X0095252Y0141206D01*
X0095587Y0140871D01*
X0095922Y0141206D01*
X0099582Y0141206D01*
X0099917Y0140871D01*
X0100252Y0141206D01*
X0103913Y0141206D01*
X0104248Y0140871D01*
X0104583Y0141206D01*
X0104731Y0141206D01*
X0104731Y0141362D01*
X0107069Y0143701D01*
X0064976Y0143701D01*
X0064976Y0141142D01*
X0065143Y0141308D01*
X0065483Y0141505D01*
X0065863Y0141606D01*
X0064976Y0142066D02*
X0105434Y0142066D01*
X0104460Y0141083D02*
X0104036Y0141083D01*
X0100129Y0141083D02*
X0099705Y0141083D01*
X0095799Y0141083D02*
X0095375Y0141083D01*
X0091468Y0141083D02*
X0091044Y0141083D01*
X0087137Y0141083D02*
X0086713Y0141083D01*
X0082806Y0141083D02*
X0082383Y0141083D01*
X0078476Y0141083D02*
X0078052Y0141083D01*
X0074145Y0141083D02*
X0073721Y0141083D01*
X0067634Y0141083D02*
X0067240Y0141083D01*
X0067240Y0140100D02*
X0067634Y0140100D01*
X0067634Y0139118D02*
X0067240Y0139118D01*
X0067240Y0138135D02*
X0067634Y0138135D01*
X0067634Y0136768D02*
X0067634Y0132323D01*
X0069011Y0132323D01*
X0069391Y0132425D01*
X0069731Y0132621D01*
X0069885Y0132775D01*
X0069937Y0132723D01*
X0073598Y0132723D01*
X0073933Y0133058D01*
X0074268Y0132723D01*
X0077929Y0132723D01*
X0078264Y0133058D01*
X0078599Y0132723D01*
X0082259Y0132723D01*
X0082594Y0133058D01*
X0082930Y0132723D01*
X0086590Y0132723D01*
X0086925Y0133058D01*
X0087043Y0132940D01*
X0087026Y0132924D01*
X0086620Y0131944D01*
X0086620Y0130883D01*
X0087026Y0129903D01*
X0087777Y0129152D01*
X0088757Y0128746D01*
X0089818Y0128746D01*
X0090798Y0129152D01*
X0091453Y0129807D01*
X0092107Y0129152D01*
X0093088Y0128746D01*
X0094149Y0128746D01*
X0095129Y0129152D01*
X0095879Y0129903D01*
X0096285Y0130883D01*
X0096285Y0131944D01*
X0095962Y0132723D01*
X0099582Y0132723D01*
X0099917Y0133058D01*
X0100252Y0132723D01*
X0103913Y0132723D01*
X0104248Y0133058D01*
X0104583Y0132723D01*
X0108244Y0132723D01*
X0108579Y0133058D01*
X0108914Y0132723D01*
X0112534Y0132723D01*
X0112211Y0131944D01*
X0112211Y0130883D01*
X0112617Y0129903D01*
X0113367Y0129152D01*
X0114347Y0128746D01*
X0115408Y0128746D01*
X0116389Y0129152D01*
X0117139Y0129903D01*
X0117545Y0130883D01*
X0117545Y0131944D01*
X0117312Y0132505D01*
X0117452Y0132425D01*
X0117831Y0132323D01*
X0119209Y0132323D01*
X0119209Y0136768D01*
X0119602Y0136768D01*
X0119602Y0132323D01*
X0120980Y0132323D01*
X0121069Y0132347D01*
X0121069Y0130213D01*
X0121404Y0129878D01*
X0121069Y0129543D01*
X0121069Y0125882D01*
X0121404Y0125547D01*
X0121069Y0125212D01*
X0121069Y0121651D01*
X0120527Y0121876D01*
X0119466Y0121876D01*
X0118485Y0121470D01*
X0117735Y0120719D01*
X0117329Y0119739D01*
X0117329Y0118678D01*
X0117735Y0117698D01*
X0118282Y0117151D01*
X0117735Y0116604D01*
X0117329Y0115624D01*
X0117329Y0114563D01*
X0117735Y0113583D01*
X0118099Y0113219D01*
X0117735Y0112855D01*
X0117329Y0111875D01*
X0117329Y0110814D01*
X0117735Y0109833D01*
X0118485Y0109083D01*
X0119466Y0108677D01*
X0120527Y0108677D01*
X0120599Y0108707D01*
X0121069Y0108707D01*
X0121069Y0108559D01*
X0121404Y0108224D01*
X0121069Y0107889D01*
X0121069Y0107742D01*
X0118488Y0107742D01*
X0116757Y0109473D01*
X0116757Y0110290D01*
X0116351Y0111271D01*
X0115601Y0112021D01*
X0114621Y0112427D01*
X0113560Y0112427D01*
X0112580Y0112021D01*
X0111830Y0111271D01*
X0111424Y0110290D01*
X0111424Y0109229D01*
X0111830Y0108249D01*
X0112580Y0107499D01*
X0113560Y0107093D01*
X0114378Y0107093D01*
X0116109Y0105362D01*
X0117094Y0104376D01*
X0119040Y0104376D01*
X0118485Y0104147D01*
X0117735Y0103397D01*
X0117329Y0102416D01*
X0117329Y0101355D01*
X0117735Y0100375D01*
X0118485Y0099625D01*
X0118730Y0099524D01*
X0118485Y0099422D01*
X0117735Y0098672D01*
X0117329Y0097692D01*
X0117329Y0096631D01*
X0117735Y0095651D01*
X0118390Y0094996D01*
X0117735Y0094341D01*
X0117329Y0093361D01*
X0117329Y0092300D01*
X0117735Y0091320D01*
X0117902Y0091153D01*
X0117537Y0090787D01*
X0117533Y0090798D01*
X0116782Y0091548D01*
X0115802Y0091954D01*
X0114741Y0091954D01*
X0113761Y0091548D01*
X0113106Y0090894D01*
X0112452Y0091548D01*
X0111471Y0091954D01*
X0110410Y0091954D01*
X0109430Y0091548D01*
X0108776Y0090894D01*
X0108121Y0091548D01*
X0107141Y0091954D01*
X0106080Y0091954D01*
X0105100Y0091548D01*
X0104445Y0090894D01*
X0103790Y0091548D01*
X0102810Y0091954D01*
X0101749Y0091954D01*
X0100769Y0091548D01*
X0100114Y0090894D01*
X0099460Y0091548D01*
X0098479Y0091954D01*
X0097418Y0091954D01*
X0096438Y0091548D01*
X0095783Y0090894D01*
X0095129Y0091548D01*
X0094149Y0091954D01*
X0093088Y0091954D01*
X0092107Y0091548D01*
X0091357Y0090798D01*
X0090951Y0089818D01*
X0090951Y0088757D01*
X0091344Y0087809D01*
X0091256Y0087722D01*
X0090921Y0088057D01*
X0087334Y0088057D01*
X0087624Y0088757D01*
X0087624Y0089818D01*
X0087218Y0090798D01*
X0086467Y0091548D01*
X0085487Y0091954D01*
X0084426Y0091954D01*
X0083446Y0091548D01*
X0082696Y0090798D01*
X0082290Y0089818D01*
X0082290Y0088757D01*
X0082682Y0087809D01*
X0082594Y0087722D01*
X0082259Y0088057D01*
X0078599Y0088057D01*
X0078264Y0087722D01*
X0077929Y0088057D01*
X0074268Y0088057D01*
X0073933Y0087722D01*
X0073598Y0088057D01*
X0069937Y0088057D01*
X0069885Y0088004D01*
X0069731Y0088159D01*
X0069391Y0088355D01*
X0069011Y0088457D01*
X0067634Y0088457D01*
X0067634Y0084012D01*
X0067240Y0084012D01*
X0067240Y0088457D01*
X0065863Y0088457D01*
X0065483Y0088355D01*
X0065143Y0088159D01*
X0064976Y0087992D01*
X0064976Y0132787D01*
X0065143Y0132621D01*
X0065483Y0132425D01*
X0065863Y0132323D01*
X0067240Y0132323D01*
X0067240Y0136768D01*
X0067634Y0136768D01*
X0067634Y0136169D02*
X0067240Y0136169D01*
X0067240Y0135187D02*
X0067634Y0135187D01*
X0067634Y0134204D02*
X0067240Y0134204D01*
X0067240Y0133221D02*
X0067634Y0133221D01*
X0064976Y0132238D02*
X0086742Y0132238D01*
X0086620Y0131256D02*
X0064976Y0131256D01*
X0064976Y0130273D02*
X0086873Y0130273D01*
X0087639Y0129290D02*
X0064976Y0129290D01*
X0064976Y0128307D02*
X0121069Y0128307D01*
X0121069Y0127325D02*
X0064976Y0127325D01*
X0064976Y0126342D02*
X0121069Y0126342D01*
X0121216Y0125359D02*
X0064976Y0125359D01*
X0064976Y0124376D02*
X0121069Y0124376D01*
X0121069Y0123393D02*
X0064976Y0123393D01*
X0064976Y0122411D02*
X0121069Y0122411D01*
X0118444Y0121428D02*
X0064976Y0121428D01*
X0064976Y0120445D02*
X0117622Y0120445D01*
X0117329Y0119462D02*
X0064976Y0119462D01*
X0064976Y0118480D02*
X0117411Y0118480D01*
X0117936Y0117497D02*
X0064976Y0117497D01*
X0064976Y0116514D02*
X0117698Y0116514D01*
X0117329Y0115531D02*
X0064976Y0115531D01*
X0064976Y0114549D02*
X0117335Y0114549D01*
X0117752Y0113566D02*
X0064976Y0113566D01*
X0064976Y0112583D02*
X0117623Y0112583D01*
X0117329Y0111600D02*
X0116022Y0111600D01*
X0116622Y0110618D02*
X0117410Y0110618D01*
X0117934Y0109635D02*
X0116757Y0109635D01*
X0117578Y0108652D02*
X0121069Y0108652D01*
X0118077Y0103738D02*
X0064976Y0103738D01*
X0064976Y0102755D02*
X0117470Y0102755D01*
X0117329Y0101773D02*
X0064976Y0101773D01*
X0064976Y0100790D02*
X0117563Y0100790D01*
X0118303Y0099807D02*
X0064976Y0099807D01*
X0064976Y0098824D02*
X0117887Y0098824D01*
X0117391Y0097842D02*
X0064976Y0097842D01*
X0064976Y0096859D02*
X0117329Y0096859D01*
X0117642Y0095876D02*
X0064976Y0095876D01*
X0064976Y0094893D02*
X0118287Y0094893D01*
X0117557Y0093911D02*
X0064976Y0093911D01*
X0064976Y0092928D02*
X0117329Y0092928D01*
X0117476Y0091945D02*
X0115825Y0091945D01*
X0114719Y0091945D02*
X0111494Y0091945D01*
X0110388Y0091945D02*
X0107163Y0091945D01*
X0106057Y0091945D02*
X0102832Y0091945D01*
X0101727Y0091945D02*
X0098502Y0091945D01*
X0097396Y0091945D02*
X0094171Y0091945D01*
X0093065Y0091945D02*
X0085510Y0091945D01*
X0084404Y0091945D02*
X0064976Y0091945D01*
X0064976Y0090962D02*
X0082860Y0090962D01*
X0082357Y0089980D02*
X0064976Y0089980D01*
X0064976Y0088997D02*
X0082290Y0088997D01*
X0082302Y0088014D02*
X0082597Y0088014D01*
X0078556Y0088014D02*
X0077971Y0088014D01*
X0074225Y0088014D02*
X0073641Y0088014D01*
X0069895Y0088014D02*
X0069876Y0088014D01*
X0067634Y0088014D02*
X0067240Y0088014D01*
X0067240Y0087031D02*
X0067634Y0087031D01*
X0067634Y0086048D02*
X0067240Y0086048D01*
X0067240Y0085066D02*
X0067634Y0085066D01*
X0067634Y0084083D02*
X0067240Y0084083D01*
X0064998Y0088014D02*
X0064976Y0088014D01*
X0077119Y0076722D02*
X0077338Y0076941D01*
X0087982Y0076941D01*
X0090614Y0079573D01*
X0090921Y0079573D01*
X0091256Y0079908D01*
X0091591Y0079573D01*
X0095252Y0079573D01*
X0095587Y0079908D01*
X0095922Y0079573D01*
X0099582Y0079573D01*
X0099917Y0079908D01*
X0100252Y0079573D01*
X0103913Y0079573D01*
X0104248Y0079908D01*
X0104583Y0079573D01*
X0108244Y0079573D01*
X0108579Y0079908D01*
X0108914Y0079573D01*
X0112574Y0079573D01*
X0112909Y0079908D01*
X0113244Y0079573D01*
X0116905Y0079573D01*
X0117240Y0079908D01*
X0117575Y0079573D01*
X0121236Y0079573D01*
X0121876Y0080213D01*
X0121876Y0086266D01*
X0123235Y0086266D01*
X0123235Y0078765D01*
X0115724Y0078765D01*
X0115527Y0078962D01*
X0112260Y0078962D01*
X0111992Y0078694D01*
X0111938Y0078786D01*
X0111660Y0079064D01*
X0111320Y0079261D01*
X0110941Y0079362D01*
X0109661Y0079362D01*
X0109661Y0076787D01*
X0109465Y0076787D01*
X0109464Y0076787D02*
X0109464Y0076591D01*
X0106890Y0076591D01*
X0106890Y0075311D01*
X0106991Y0074932D01*
X0107188Y0074592D01*
X0107466Y0074314D01*
X0107806Y0074117D01*
X0108185Y0074016D01*
X0109465Y0074016D01*
X0109465Y0076590D01*
X0109661Y0076590D01*
X0109661Y0074016D01*
X0110941Y0074016D01*
X0111320Y0074117D01*
X0111660Y0074314D01*
X0111938Y0074592D01*
X0111992Y0074684D01*
X0112131Y0074545D01*
X0112110Y0074509D01*
X0112008Y0074130D01*
X0112008Y0072654D01*
X0114976Y0072654D01*
X0114976Y0072063D01*
X0112008Y0072063D01*
X0112008Y0070587D01*
X0112110Y0070208D01*
X0112306Y0069867D01*
X0112584Y0069589D01*
X0112924Y0069393D01*
X0113304Y0069291D01*
X0114976Y0069291D01*
X0114976Y0072063D01*
X0115567Y0072063D01*
X0115567Y0072654D01*
X0118535Y0072654D01*
X0118535Y0074130D01*
X0118434Y0074509D01*
X0118374Y0074613D01*
X0120676Y0074613D01*
X0120676Y0074071D01*
X0121315Y0073431D01*
X0123270Y0073431D01*
X0125203Y0071498D01*
X0125416Y0071285D01*
X0121315Y0071285D01*
X0120676Y0070645D01*
X0120676Y0068691D01*
X0117723Y0065738D01*
X0117723Y0062624D01*
X0114426Y0062624D01*
X0113786Y0061984D01*
X0113786Y0041000D01*
X0114426Y0040361D01*
X0114590Y0040361D01*
X0106134Y0031905D01*
X0078346Y0031905D01*
X0065576Y0044675D01*
X0065576Y0055126D01*
X0067394Y0056944D01*
X0068380Y0057930D01*
X0068380Y0072415D01*
X0068863Y0072898D01*
X0069395Y0072366D01*
X0072641Y0072366D01*
X0072739Y0072196D01*
X0073017Y0071918D01*
X0073357Y0071721D01*
X0073737Y0071620D01*
X0075016Y0071620D01*
X0075016Y0074194D01*
X0075213Y0074194D01*
X0075213Y0071620D01*
X0076492Y0071620D01*
X0076871Y0071721D01*
X0077211Y0071918D01*
X0077489Y0072196D01*
X0077686Y0072536D01*
X0077787Y0072915D01*
X0077787Y0074195D01*
X0075213Y0074195D01*
X0075213Y0074391D01*
X0077787Y0074391D01*
X0077787Y0075671D01*
X0077686Y0076050D01*
X0077489Y0076390D01*
X0077211Y0076668D01*
X0077119Y0076722D01*
X0077587Y0076221D02*
X0106890Y0076221D01*
X0106890Y0076787D02*
X0109464Y0076787D01*
X0109465Y0076787D02*
X0109465Y0079362D01*
X0108185Y0079362D01*
X0107806Y0079261D01*
X0107466Y0079064D01*
X0107188Y0078786D01*
X0106991Y0078446D01*
X0106890Y0078067D01*
X0106890Y0076787D01*
X0106890Y0077204D02*
X0088245Y0077204D01*
X0089227Y0078186D02*
X0106922Y0078186D01*
X0107648Y0079169D02*
X0090210Y0079169D01*
X0090964Y0088014D02*
X0091259Y0088014D01*
X0090951Y0088997D02*
X0087624Y0088997D01*
X0087557Y0089980D02*
X0091018Y0089980D01*
X0091521Y0090962D02*
X0087053Y0090962D01*
X0095715Y0090962D02*
X0095852Y0090962D01*
X0100046Y0090962D02*
X0100183Y0090962D01*
X0104376Y0090962D02*
X0104514Y0090962D01*
X0108707Y0090962D02*
X0108844Y0090962D01*
X0113038Y0090962D02*
X0113175Y0090962D01*
X0117368Y0090962D02*
X0117712Y0090962D01*
X0121876Y0086048D02*
X0123235Y0086048D01*
X0123235Y0085066D02*
X0121876Y0085066D01*
X0121876Y0084083D02*
X0123235Y0084083D01*
X0123235Y0083100D02*
X0121876Y0083100D01*
X0121876Y0082117D02*
X0123235Y0082117D01*
X0123235Y0081135D02*
X0121876Y0081135D01*
X0121814Y0080152D02*
X0123235Y0080152D01*
X0123235Y0079169D02*
X0111478Y0079169D01*
X0109661Y0079169D02*
X0109465Y0079169D01*
X0109465Y0078186D02*
X0109661Y0078186D01*
X0109661Y0077204D02*
X0109465Y0077204D01*
X0109465Y0076221D02*
X0109661Y0076221D01*
X0109661Y0075238D02*
X0109465Y0075238D01*
X0109465Y0074255D02*
X0109661Y0074255D01*
X0111559Y0074255D02*
X0112042Y0074255D01*
X0112008Y0073273D02*
X0077787Y0073273D01*
X0077544Y0072290D02*
X0114976Y0072290D01*
X0115567Y0072290D02*
X0124412Y0072290D01*
X0125203Y0071498D02*
X0125203Y0071498D01*
X0125394Y0071307D02*
X0118535Y0071307D01*
X0118535Y0070587D02*
X0118535Y0072063D01*
X0115567Y0072063D01*
X0115567Y0069291D01*
X0117240Y0069291D01*
X0117619Y0069393D01*
X0117959Y0069589D01*
X0118237Y0069867D01*
X0118434Y0070208D01*
X0118535Y0070587D01*
X0118465Y0070324D02*
X0120676Y0070324D01*
X0120676Y0069341D02*
X0117427Y0069341D01*
X0115567Y0069341D02*
X0114976Y0069341D01*
X0114976Y0070324D02*
X0115567Y0070324D01*
X0115567Y0071307D02*
X0114976Y0071307D01*
X0113116Y0069341D02*
X0068380Y0069341D01*
X0068380Y0068359D02*
X0120344Y0068359D01*
X0119361Y0067376D02*
X0068380Y0067376D01*
X0068380Y0066393D02*
X0118378Y0066393D01*
X0117723Y0065410D02*
X0068380Y0065410D01*
X0068380Y0064428D02*
X0117723Y0064428D01*
X0117723Y0063445D02*
X0068380Y0063445D01*
X0068380Y0062462D02*
X0114264Y0062462D01*
X0113786Y0061479D02*
X0068380Y0061479D01*
X0068380Y0060497D02*
X0113786Y0060497D01*
X0113786Y0059514D02*
X0068380Y0059514D01*
X0068380Y0058531D02*
X0113786Y0058531D01*
X0113786Y0057548D02*
X0067999Y0057548D01*
X0067016Y0056566D02*
X0113786Y0056566D01*
X0113786Y0055583D02*
X0066033Y0055583D01*
X0065576Y0054600D02*
X0113786Y0054600D01*
X0113786Y0053617D02*
X0065576Y0053617D01*
X0065576Y0052635D02*
X0113786Y0052635D01*
X0113786Y0051652D02*
X0065576Y0051652D01*
X0065576Y0050669D02*
X0113786Y0050669D01*
X0113786Y0049686D02*
X0065576Y0049686D01*
X0065576Y0048703D02*
X0113786Y0048703D01*
X0113786Y0047721D02*
X0065576Y0047721D01*
X0065576Y0046738D02*
X0113786Y0046738D01*
X0113786Y0045755D02*
X0065576Y0045755D01*
X0065576Y0044772D02*
X0113786Y0044772D01*
X0113786Y0043790D02*
X0066462Y0043790D01*
X0067445Y0042807D02*
X0113786Y0042807D01*
X0113786Y0041824D02*
X0068427Y0041824D01*
X0069410Y0040841D02*
X0113945Y0040841D01*
X0114088Y0039859D02*
X0070393Y0039859D01*
X0071376Y0038876D02*
X0113105Y0038876D01*
X0112122Y0037893D02*
X0072358Y0037893D01*
X0073341Y0036910D02*
X0111139Y0036910D01*
X0110156Y0035928D02*
X0074324Y0035928D01*
X0075307Y0034945D02*
X0109174Y0034945D01*
X0108191Y0033962D02*
X0076289Y0033962D01*
X0077272Y0032979D02*
X0107208Y0032979D01*
X0106225Y0031996D02*
X0078255Y0031996D01*
X0108677Y0028575D02*
X0120462Y0040361D01*
X0125105Y0040361D01*
X0125105Y0038304D01*
X0125548Y0037860D01*
X0125281Y0037706D01*
X0125003Y0037428D01*
X0124806Y0037088D01*
X0124705Y0036708D01*
X0124705Y0035331D01*
X0129248Y0035331D01*
X0129248Y0034937D01*
X0124705Y0034937D01*
X0124705Y0033559D01*
X0124806Y0033180D01*
X0125003Y0032840D01*
X0125281Y0032562D01*
X0125621Y0032365D01*
X0126000Y0032264D01*
X0129248Y0032264D01*
X0129248Y0034937D01*
X0129642Y0034937D01*
X0129642Y0035331D01*
X0134185Y0035331D01*
X0134185Y0036708D01*
X0134083Y0037088D01*
X0133887Y0037428D01*
X0133609Y0037706D01*
X0133342Y0037860D01*
X0133764Y0038283D01*
X0134233Y0037814D01*
X0135214Y0037408D01*
X0136275Y0037408D01*
X0137255Y0037814D01*
X0138005Y0038564D01*
X0138411Y0039544D01*
X0138411Y0040605D01*
X0138005Y0041585D01*
X0137255Y0042336D01*
X0136535Y0042634D01*
X0137255Y0042932D01*
X0138005Y0043682D01*
X0138411Y0044662D01*
X0138411Y0045723D01*
X0138005Y0046704D01*
X0137255Y0047454D01*
X0136535Y0047752D01*
X0137255Y0048050D01*
X0138005Y0048800D01*
X0138411Y0049781D01*
X0138411Y0050842D01*
X0138005Y0051822D01*
X0137255Y0052572D01*
X0136275Y0052978D01*
X0135214Y0052978D01*
X0134233Y0052572D01*
X0133705Y0052044D01*
X0133145Y0052604D01*
X0125813Y0052604D01*
X0125813Y0061496D01*
X0126113Y0061322D01*
X0126493Y0061220D01*
X0127772Y0061220D01*
X0127772Y0063795D01*
X0127969Y0063795D01*
X0127969Y0063992D01*
X0130543Y0063992D01*
X0130543Y0065271D01*
X0130442Y0065651D01*
X0130245Y0065991D01*
X0129967Y0066269D01*
X0129875Y0066322D01*
X0130143Y0066591D01*
X0130143Y0069858D01*
X0129719Y0070282D01*
X0131919Y0070282D01*
X0131690Y0069730D01*
X0131690Y0068669D01*
X0132096Y0067689D01*
X0132683Y0067101D01*
X0132683Y0059228D01*
X0132464Y0059009D01*
X0132411Y0059101D01*
X0132133Y0059379D01*
X0131792Y0059575D01*
X0131413Y0059677D01*
X0130134Y0059677D01*
X0130134Y0057102D01*
X0129937Y0057102D01*
X0129937Y0056905D01*
X0130134Y0056905D01*
X0130134Y0054331D01*
X0131413Y0054331D01*
X0131792Y0054432D01*
X0132133Y0054629D01*
X0132411Y0054907D01*
X0132464Y0054999D01*
X0132733Y0054731D01*
X0136000Y0054731D01*
X0136531Y0055263D01*
X0137063Y0054731D01*
X0140330Y0054731D01*
X0140599Y0054999D01*
X0140652Y0054907D01*
X0140930Y0054629D01*
X0141271Y0054432D01*
X0141650Y0054331D01*
X0142929Y0054331D01*
X0142929Y0056905D01*
X0143126Y0056905D01*
X0143126Y0054331D01*
X0144405Y0054331D01*
X0144785Y0054432D01*
X0145125Y0054629D01*
X0145403Y0054907D01*
X0145599Y0055247D01*
X0145701Y0055626D01*
X0145701Y0056905D01*
X0143126Y0056905D01*
X0143126Y0057102D01*
X0145701Y0057102D01*
X0145701Y0058381D01*
X0145599Y0058761D01*
X0145403Y0059101D01*
X0145125Y0059379D01*
X0144785Y0059575D01*
X0144405Y0059677D01*
X0143126Y0059677D01*
X0143126Y0057102D01*
X0142929Y0057102D01*
X0142929Y0059677D01*
X0141650Y0059677D01*
X0141271Y0059575D01*
X0140930Y0059379D01*
X0140652Y0059101D01*
X0140599Y0059009D01*
X0140576Y0059031D01*
X0140576Y0060765D01*
X0140705Y0060636D01*
X0150271Y0060636D01*
X0150911Y0061276D01*
X0150911Y0068034D01*
X0153943Y0065002D01*
X0153943Y0059222D01*
X0153786Y0059379D01*
X0153446Y0059575D01*
X0153067Y0059677D01*
X0151787Y0059677D01*
X0151787Y0057102D01*
X0151591Y0057102D01*
X0151590Y0057102D02*
X0151590Y0056905D01*
X0151591Y0056905D02*
X0151787Y0056905D01*
X0151787Y0054331D01*
X0153067Y0054331D01*
X0153446Y0054432D01*
X0153786Y0054629D01*
X0153943Y0054786D01*
X0153943Y0052456D01*
X0153451Y0051964D01*
X0153451Y0048304D01*
X0154091Y0047664D01*
X0161492Y0047664D01*
X0162131Y0048304D01*
X0162131Y0051964D01*
X0162083Y0052012D01*
X0162408Y0052337D01*
X0162408Y0048678D01*
X0163048Y0048038D01*
X0164168Y0048038D01*
X0163029Y0047566D01*
X0162131Y0046668D01*
X0162131Y0046964D01*
X0161492Y0047604D01*
X0154091Y0047604D01*
X0153669Y0047182D01*
X0153397Y0047454D01*
X0152416Y0047860D01*
X0151355Y0047860D01*
X0150375Y0047454D01*
X0149625Y0046704D01*
X0149219Y0045723D01*
X0149219Y0044662D01*
X0149625Y0043682D01*
X0150375Y0042932D01*
X0151095Y0042634D01*
X0150375Y0042336D01*
X0149625Y0041585D01*
X0149219Y0040605D01*
X0149219Y0039544D01*
X0149625Y0038564D01*
X0150375Y0037814D01*
X0150620Y0037713D01*
X0150375Y0037611D01*
X0149625Y0036861D01*
X0149219Y0035881D01*
X0149219Y0034820D01*
X0149625Y0033840D01*
X0150375Y0033089D01*
X0151355Y0032683D01*
X0152416Y0032683D01*
X0153397Y0033089D01*
X0153531Y0033224D01*
X0154091Y0032664D01*
X0161492Y0032664D01*
X0162131Y0033304D01*
X0162131Y0036964D01*
X0161492Y0037604D01*
X0154091Y0037604D01*
X0153747Y0037260D01*
X0153397Y0037611D01*
X0153152Y0037713D01*
X0153397Y0037814D01*
X0153669Y0038086D01*
X0154091Y0037664D01*
X0161492Y0037664D01*
X0162131Y0038304D01*
X0162131Y0041964D01*
X0161492Y0042604D01*
X0154091Y0042604D01*
X0153610Y0042123D01*
X0153397Y0042336D01*
X0152677Y0042634D01*
X0153397Y0042932D01*
X0153610Y0043145D01*
X0154091Y0042664D01*
X0161492Y0042664D01*
X0162014Y0043186D01*
X0162111Y0042950D01*
X0163029Y0042032D01*
X0164168Y0041561D01*
X0163048Y0041561D01*
X0162408Y0040921D01*
X0162408Y0034504D01*
X0163048Y0033865D01*
X0163766Y0033865D01*
X0163660Y0033821D01*
X0162077Y0032238D01*
X0161220Y0030170D01*
X0161220Y0028575D01*
X0108677Y0028575D01*
X0109150Y0029048D02*
X0161220Y0029048D01*
X0161220Y0030031D02*
X0110133Y0030031D01*
X0111116Y0031014D02*
X0161570Y0031014D01*
X0161977Y0031996D02*
X0112098Y0031996D01*
X0113081Y0032979D02*
X0124922Y0032979D01*
X0124705Y0033962D02*
X0114064Y0033962D01*
X0115047Y0034945D02*
X0129248Y0034945D01*
X0129642Y0034945D02*
X0149219Y0034945D01*
X0149238Y0035928D02*
X0134185Y0035928D01*
X0134131Y0036910D02*
X0149674Y0036910D01*
X0150296Y0037893D02*
X0137334Y0037893D01*
X0138134Y0038876D02*
X0149496Y0038876D01*
X0149219Y0039859D02*
X0138411Y0039859D01*
X0138313Y0040841D02*
X0149317Y0040841D01*
X0149864Y0041824D02*
X0137766Y0041824D01*
X0136953Y0042807D02*
X0150677Y0042807D01*
X0149580Y0043790D02*
X0138049Y0043790D01*
X0138411Y0044772D02*
X0149219Y0044772D01*
X0149232Y0045755D02*
X0138398Y0045755D01*
X0137971Y0046738D02*
X0149659Y0046738D01*
X0151019Y0047721D02*
X0136610Y0047721D01*
X0137908Y0048703D02*
X0153451Y0048703D01*
X0153451Y0049686D02*
X0138372Y0049686D01*
X0138411Y0050669D02*
X0153451Y0050669D01*
X0153451Y0051652D02*
X0138075Y0051652D01*
X0137104Y0052635D02*
X0153943Y0052635D01*
X0153943Y0053617D02*
X0125813Y0053617D01*
X0125813Y0052635D02*
X0134385Y0052635D01*
X0132083Y0054600D02*
X0140980Y0054600D01*
X0142929Y0054600D02*
X0143126Y0054600D01*
X0143126Y0055583D02*
X0142929Y0055583D01*
X0142929Y0056566D02*
X0143126Y0056566D01*
X0143126Y0057548D02*
X0142929Y0057548D01*
X0142929Y0058531D02*
X0143126Y0058531D01*
X0143126Y0059514D02*
X0142929Y0059514D01*
X0141164Y0059514D02*
X0140576Y0059514D01*
X0140576Y0060497D02*
X0153943Y0060497D01*
X0153943Y0061479D02*
X0150911Y0061479D01*
X0150911Y0062462D02*
X0153943Y0062462D01*
X0153943Y0063445D02*
X0150911Y0063445D01*
X0150911Y0064428D02*
X0153943Y0064428D01*
X0153535Y0065410D02*
X0150911Y0065410D01*
X0150911Y0066393D02*
X0152552Y0066393D01*
X0151569Y0067376D02*
X0150911Y0067376D01*
X0154494Y0070324D02*
X0173228Y0070324D01*
X0173228Y0069341D02*
X0172701Y0069341D01*
X0172692Y0069350D02*
X0171556Y0069820D01*
X0170326Y0069820D01*
X0169189Y0069350D01*
X0168441Y0068601D01*
X0167692Y0069350D01*
X0166556Y0069820D01*
X0165326Y0069820D01*
X0164189Y0069350D01*
X0163441Y0068601D01*
X0162692Y0069350D01*
X0161556Y0069820D01*
X0160326Y0069820D01*
X0159189Y0069350D01*
X0158320Y0068480D01*
X0157849Y0067343D01*
X0157849Y0066969D01*
X0151600Y0073218D01*
X0151279Y0073539D01*
X0158651Y0080912D01*
X0159868Y0082128D01*
X0159868Y0103237D01*
X0162408Y0100697D01*
X0162408Y0096709D01*
X0163048Y0096069D01*
X0168086Y0096069D01*
X0168138Y0096121D01*
X0168292Y0095967D01*
X0168633Y0095771D01*
X0169012Y0095669D01*
X0170783Y0095669D01*
X0170783Y0099425D01*
X0171768Y0099425D01*
X0171768Y0095669D01*
X0173228Y0095669D01*
X0173228Y0068814D01*
X0172692Y0069350D01*
X0173228Y0071307D02*
X0153511Y0071307D01*
X0152529Y0072290D02*
X0173228Y0072290D01*
X0173228Y0073273D02*
X0151546Y0073273D01*
X0151995Y0074255D02*
X0173228Y0074255D01*
X0173228Y0075238D02*
X0152978Y0075238D01*
X0153960Y0076221D02*
X0173228Y0076221D01*
X0173228Y0077204D02*
X0154943Y0077204D01*
X0155926Y0078186D02*
X0173228Y0078186D01*
X0173228Y0079169D02*
X0156909Y0079169D01*
X0157891Y0080152D02*
X0173228Y0080152D01*
X0173228Y0081135D02*
X0158874Y0081135D01*
X0159857Y0082117D02*
X0173228Y0082117D01*
X0173228Y0083100D02*
X0159868Y0083100D01*
X0159868Y0084083D02*
X0173228Y0084083D01*
X0173228Y0085066D02*
X0159868Y0085066D01*
X0159868Y0086048D02*
X0173228Y0086048D01*
X0173228Y0087031D02*
X0159868Y0087031D01*
X0159868Y0088014D02*
X0173228Y0088014D01*
X0173228Y0088997D02*
X0159868Y0088997D01*
X0159868Y0089980D02*
X0173228Y0089980D01*
X0173228Y0090962D02*
X0159868Y0090962D01*
X0159868Y0091945D02*
X0173228Y0091945D01*
X0173228Y0092928D02*
X0159868Y0092928D01*
X0159868Y0093911D02*
X0173228Y0093911D01*
X0173228Y0094893D02*
X0159868Y0094893D01*
X0159868Y0095876D02*
X0168451Y0095876D01*
X0170783Y0095876D02*
X0171768Y0095876D01*
X0171768Y0096859D02*
X0170783Y0096859D01*
X0170783Y0097842D02*
X0171768Y0097842D01*
X0171768Y0098824D02*
X0170783Y0098824D01*
X0162408Y0098824D02*
X0159868Y0098824D01*
X0159868Y0097842D02*
X0162408Y0097842D01*
X0162408Y0096859D02*
X0159868Y0096859D01*
X0159868Y0099807D02*
X0162408Y0099807D01*
X0162315Y0100790D02*
X0159868Y0100790D01*
X0159868Y0101773D02*
X0161332Y0101773D01*
X0160349Y0102755D02*
X0159868Y0102755D01*
X0155715Y0102755D02*
X0153175Y0102755D01*
X0153175Y0101773D02*
X0155715Y0101773D01*
X0155715Y0100790D02*
X0153175Y0100790D01*
X0153175Y0099807D02*
X0155715Y0099807D01*
X0155715Y0098824D02*
X0153175Y0098824D01*
X0153175Y0097842D02*
X0155715Y0097842D01*
X0155715Y0096859D02*
X0153175Y0096859D01*
X0153175Y0095876D02*
X0155715Y0095876D01*
X0155715Y0094893D02*
X0153175Y0094893D01*
X0153175Y0093911D02*
X0155715Y0093911D01*
X0155715Y0092928D02*
X0153175Y0092928D01*
X0153175Y0092924D02*
X0153175Y0111670D01*
X0153372Y0111867D01*
X0153372Y0115133D01*
X0153103Y0115402D01*
X0153196Y0115456D01*
X0153474Y0115733D01*
X0153670Y0116074D01*
X0153772Y0116453D01*
X0153772Y0117732D01*
X0151197Y0117732D01*
X0151197Y0117929D01*
X0153772Y0117929D01*
X0153772Y0118904D01*
X0154779Y0118904D01*
X0155715Y0119292D01*
X0155715Y0083848D01*
X0146301Y0074435D01*
X0139741Y0074435D01*
X0140278Y0074972D01*
X0140684Y0075952D01*
X0140684Y0077013D01*
X0140278Y0077993D01*
X0139865Y0078407D01*
X0140367Y0078909D01*
X0140773Y0079889D01*
X0140773Y0080312D01*
X0141380Y0080312D01*
X0142361Y0080718D01*
X0143111Y0081468D01*
X0143517Y0082448D01*
X0143517Y0083266D01*
X0152189Y0091938D01*
X0153175Y0092924D01*
X0152196Y0091945D02*
X0155715Y0091945D01*
X0155715Y0090962D02*
X0151213Y0090962D01*
X0150230Y0089980D02*
X0155715Y0089980D01*
X0155715Y0088997D02*
X0149248Y0088997D01*
X0148265Y0088014D02*
X0155715Y0088014D01*
X0155715Y0087031D02*
X0147282Y0087031D01*
X0146299Y0086048D02*
X0155715Y0086048D01*
X0155715Y0085066D02*
X0145317Y0085066D01*
X0144334Y0084083D02*
X0155715Y0084083D01*
X0154967Y0083100D02*
X0143517Y0083100D01*
X0143380Y0082117D02*
X0153984Y0082117D01*
X0153001Y0081135D02*
X0142778Y0081135D01*
X0140773Y0080152D02*
X0152019Y0080152D01*
X0151036Y0079169D02*
X0140475Y0079169D01*
X0140085Y0078186D02*
X0150053Y0078186D01*
X0149070Y0077204D02*
X0140605Y0077204D01*
X0140684Y0076221D02*
X0148088Y0076221D01*
X0147105Y0075238D02*
X0140388Y0075238D01*
X0131690Y0069341D02*
X0130143Y0069341D01*
X0130143Y0068359D02*
X0131818Y0068359D01*
X0132408Y0067376D02*
X0130143Y0067376D01*
X0129946Y0066393D02*
X0132683Y0066393D01*
X0132683Y0065410D02*
X0130506Y0065410D01*
X0130543Y0064428D02*
X0132683Y0064428D01*
X0132683Y0063445D02*
X0130543Y0063445D01*
X0130543Y0063795D02*
X0127969Y0063795D01*
X0127969Y0061220D01*
X0129248Y0061220D01*
X0129627Y0061322D01*
X0129967Y0061519D01*
X0130245Y0061796D01*
X0130442Y0062137D01*
X0130543Y0062516D01*
X0130543Y0063795D01*
X0130529Y0062462D02*
X0132683Y0062462D01*
X0132683Y0061479D02*
X0129899Y0061479D01*
X0129937Y0059677D02*
X0128658Y0059677D01*
X0128278Y0059575D01*
X0127938Y0059379D01*
X0127660Y0059101D01*
X0127464Y0058761D01*
X0127362Y0058381D01*
X0127362Y0057102D01*
X0129937Y0057102D01*
X0129937Y0059677D01*
X0129937Y0059514D02*
X0130134Y0059514D01*
X0130134Y0058531D02*
X0129937Y0058531D01*
X0129937Y0057548D02*
X0130134Y0057548D01*
X0129937Y0056905D02*
X0127362Y0056905D01*
X0127362Y0055626D01*
X0127464Y0055247D01*
X0127660Y0054907D01*
X0127938Y0054629D01*
X0128278Y0054432D01*
X0128658Y0054331D01*
X0129937Y0054331D01*
X0129937Y0056905D01*
X0129937Y0056566D02*
X0130134Y0056566D01*
X0130134Y0055583D02*
X0129937Y0055583D01*
X0129937Y0054600D02*
X0130134Y0054600D01*
X0127988Y0054600D02*
X0125813Y0054600D01*
X0125813Y0055583D02*
X0127374Y0055583D01*
X0127362Y0056566D02*
X0125813Y0056566D01*
X0125813Y0057548D02*
X0127362Y0057548D01*
X0127402Y0058531D02*
X0125813Y0058531D01*
X0125813Y0059514D02*
X0128172Y0059514D01*
X0127969Y0061479D02*
X0127772Y0061479D01*
X0127772Y0062462D02*
X0127969Y0062462D01*
X0127969Y0063445D02*
X0127772Y0063445D01*
X0127772Y0063795D02*
X0125197Y0063795D01*
X0125197Y0062600D01*
X0125173Y0062624D01*
X0121876Y0062624D01*
X0121876Y0064018D01*
X0123809Y0065951D01*
X0125472Y0065951D01*
X0125299Y0065651D01*
X0125197Y0065271D01*
X0125197Y0063992D01*
X0127772Y0063992D01*
X0127772Y0063795D01*
X0125197Y0063445D02*
X0121876Y0063445D01*
X0122285Y0064428D02*
X0125197Y0064428D01*
X0125234Y0065410D02*
X0123268Y0065410D01*
X0125813Y0061479D02*
X0125841Y0061479D01*
X0125813Y0060497D02*
X0132683Y0060497D01*
X0132683Y0059514D02*
X0131899Y0059514D01*
X0144891Y0059514D02*
X0149825Y0059514D01*
X0149932Y0059575D02*
X0149592Y0059379D01*
X0149314Y0059101D01*
X0149117Y0058761D01*
X0149016Y0058381D01*
X0149016Y0057102D01*
X0151590Y0057102D01*
X0151591Y0057102D02*
X0151591Y0059677D01*
X0150311Y0059677D01*
X0149932Y0059575D01*
X0149056Y0058531D02*
X0145661Y0058531D01*
X0145701Y0057548D02*
X0149016Y0057548D01*
X0149016Y0056905D02*
X0149016Y0055626D01*
X0149117Y0055247D01*
X0149314Y0054907D01*
X0149592Y0054629D01*
X0149932Y0054432D01*
X0150311Y0054331D01*
X0151591Y0054331D01*
X0151591Y0056905D01*
X0151590Y0056905D02*
X0149016Y0056905D01*
X0149016Y0056566D02*
X0145701Y0056566D01*
X0145689Y0055583D02*
X0149027Y0055583D01*
X0149642Y0054600D02*
X0145075Y0054600D01*
X0151591Y0054600D02*
X0151787Y0054600D01*
X0151787Y0055583D02*
X0151591Y0055583D01*
X0151591Y0056566D02*
X0151787Y0056566D01*
X0151787Y0057548D02*
X0151591Y0057548D01*
X0151591Y0058531D02*
X0151787Y0058531D01*
X0151787Y0059514D02*
X0151591Y0059514D01*
X0153553Y0059514D02*
X0153943Y0059514D01*
X0158096Y0059514D02*
X0158782Y0059514D01*
X0158644Y0059652D02*
X0159189Y0059107D01*
X0160326Y0058636D01*
X0161556Y0058636D01*
X0162692Y0059107D01*
X0163441Y0059855D01*
X0164189Y0059107D01*
X0165326Y0058636D01*
X0166556Y0058636D01*
X0167692Y0059107D01*
X0168172Y0059587D01*
X0168228Y0059502D01*
X0168715Y0059016D01*
X0169287Y0058634D01*
X0169922Y0058370D01*
X0170597Y0058236D01*
X0170933Y0058236D01*
X0170933Y0061720D01*
X0170949Y0061720D01*
X0170949Y0058236D01*
X0171285Y0058236D01*
X0171960Y0058370D01*
X0172595Y0058634D01*
X0173167Y0059016D01*
X0173228Y0059077D01*
X0173228Y0056134D01*
X0171768Y0056134D01*
X0171768Y0052378D01*
X0170783Y0052378D01*
X0170783Y0056134D01*
X0169012Y0056134D01*
X0168633Y0056032D01*
X0168292Y0055836D01*
X0168138Y0055682D01*
X0168086Y0055734D01*
X0164099Y0055734D01*
X0163902Y0055931D01*
X0162636Y0055931D01*
X0162058Y0056509D01*
X0161078Y0056915D01*
X0160017Y0056915D01*
X0159037Y0056509D01*
X0158293Y0055765D01*
X0158293Y0058637D01*
X0158096Y0058834D01*
X0158096Y0059652D01*
X0158644Y0059652D01*
X0158293Y0058531D02*
X0169534Y0058531D01*
X0170933Y0058531D02*
X0170949Y0058531D01*
X0170933Y0059514D02*
X0170949Y0059514D01*
X0170933Y0060497D02*
X0170949Y0060497D01*
X0170933Y0061479D02*
X0170949Y0061479D01*
X0172347Y0058531D02*
X0173228Y0058531D01*
X0173228Y0057548D02*
X0158293Y0057548D01*
X0158293Y0056566D02*
X0159173Y0056566D01*
X0161921Y0056566D02*
X0173228Y0056566D01*
X0171768Y0055583D02*
X0170783Y0055583D01*
X0170783Y0054600D02*
X0171768Y0054600D01*
X0171768Y0053617D02*
X0170783Y0053617D01*
X0170783Y0052635D02*
X0171768Y0052635D01*
X0168221Y0059514D02*
X0168099Y0059514D01*
X0163782Y0059514D02*
X0163099Y0059514D01*
X0157862Y0067376D02*
X0157442Y0067376D01*
X0158269Y0068359D02*
X0156460Y0068359D01*
X0155477Y0069341D02*
X0159181Y0069341D01*
X0162701Y0069341D02*
X0164181Y0069341D01*
X0167701Y0069341D02*
X0169181Y0069341D01*
X0153943Y0054600D02*
X0153736Y0054600D01*
X0154034Y0047721D02*
X0152752Y0047721D01*
X0153094Y0042807D02*
X0153948Y0042807D01*
X0153862Y0037893D02*
X0153476Y0037893D01*
X0153775Y0032979D02*
X0153130Y0032979D01*
X0150641Y0032979D02*
X0133967Y0032979D01*
X0133887Y0032840D02*
X0134083Y0033180D01*
X0134185Y0033559D01*
X0134185Y0034937D01*
X0129642Y0034937D01*
X0129642Y0032264D01*
X0132889Y0032264D01*
X0133269Y0032365D01*
X0133609Y0032562D01*
X0133887Y0032840D01*
X0134185Y0033962D02*
X0149574Y0033962D01*
X0161807Y0032979D02*
X0162818Y0032979D01*
X0162950Y0033962D02*
X0162131Y0033962D01*
X0162131Y0034945D02*
X0162408Y0034945D01*
X0162408Y0035928D02*
X0162131Y0035928D01*
X0162131Y0036910D02*
X0162408Y0036910D01*
X0162408Y0037893D02*
X0161721Y0037893D01*
X0162131Y0038876D02*
X0162408Y0038876D01*
X0162408Y0039859D02*
X0162131Y0039859D01*
X0162131Y0040841D02*
X0162408Y0040841D01*
X0162131Y0041824D02*
X0163532Y0041824D01*
X0162255Y0042807D02*
X0161635Y0042807D01*
X0162131Y0046738D02*
X0162201Y0046738D01*
X0161549Y0047721D02*
X0163402Y0047721D01*
X0162408Y0048703D02*
X0162131Y0048703D01*
X0162131Y0049686D02*
X0162408Y0049686D01*
X0162408Y0050669D02*
X0162131Y0050669D01*
X0162131Y0051652D02*
X0162408Y0051652D01*
X0170783Y0037220D02*
X0171768Y0037220D01*
X0171768Y0033465D01*
X0172989Y0033465D01*
X0172533Y0032059D01*
X0171996Y0031321D01*
X0171616Y0032238D01*
X0170389Y0033465D01*
X0170783Y0033465D01*
X0170783Y0037220D01*
X0170783Y0036910D02*
X0171768Y0036910D01*
X0171768Y0035928D02*
X0170783Y0035928D01*
X0170783Y0034945D02*
X0171768Y0034945D01*
X0171768Y0033962D02*
X0170783Y0033962D01*
X0170875Y0032979D02*
X0172832Y0032979D01*
X0172487Y0031996D02*
X0171716Y0031996D01*
X0134154Y0037893D02*
X0133375Y0037893D01*
X0129642Y0033962D02*
X0129248Y0033962D01*
X0129248Y0032979D02*
X0129642Y0032979D01*
X0124705Y0035928D02*
X0116029Y0035928D01*
X0117012Y0036910D02*
X0124759Y0036910D01*
X0125515Y0037893D02*
X0117995Y0037893D01*
X0118978Y0038876D02*
X0125105Y0038876D01*
X0125105Y0039859D02*
X0119960Y0039859D01*
X0112078Y0070324D02*
X0068380Y0070324D01*
X0068380Y0071307D02*
X0112008Y0071307D01*
X0107567Y0074255D02*
X0075213Y0074255D01*
X0075213Y0073273D02*
X0075016Y0073273D01*
X0075016Y0072290D02*
X0075213Y0072290D01*
X0072685Y0072290D02*
X0068380Y0072290D01*
X0077787Y0075238D02*
X0106909Y0075238D01*
X0118502Y0074255D02*
X0120676Y0074255D01*
X0118535Y0073273D02*
X0123429Y0073273D01*
X0143332Y0087841D02*
X0143332Y0095856D01*
X0142116Y0097072D01*
X0135655Y0103533D01*
X0135655Y0104492D01*
X0135759Y0104432D01*
X0136138Y0104331D01*
X0137417Y0104331D01*
X0137417Y0106905D01*
X0137614Y0106905D01*
X0137614Y0104331D01*
X0138893Y0104331D01*
X0139273Y0104432D01*
X0139613Y0104629D01*
X0139891Y0104907D01*
X0140065Y0105209D01*
X0140065Y0099859D01*
X0140705Y0099219D01*
X0149809Y0099219D01*
X0149809Y0094318D01*
X0143332Y0087841D01*
X0143332Y0088014D02*
X0143506Y0088014D01*
X0143332Y0088997D02*
X0144488Y0088997D01*
X0145471Y0089980D02*
X0143332Y0089980D01*
X0143332Y0090962D02*
X0146454Y0090962D01*
X0147437Y0091945D02*
X0143332Y0091945D01*
X0143332Y0092928D02*
X0148419Y0092928D01*
X0149402Y0093911D02*
X0143332Y0093911D01*
X0143332Y0094893D02*
X0149809Y0094893D01*
X0149809Y0095876D02*
X0143312Y0095876D01*
X0142330Y0096859D02*
X0149809Y0096859D01*
X0149809Y0097842D02*
X0141347Y0097842D01*
X0140364Y0098824D02*
X0149809Y0098824D01*
X0153175Y0103738D02*
X0155715Y0103738D01*
X0155715Y0104721D02*
X0153175Y0104721D01*
X0153175Y0105704D02*
X0155715Y0105704D01*
X0155715Y0106687D02*
X0153175Y0106687D01*
X0153175Y0107669D02*
X0155715Y0107669D01*
X0155715Y0108652D02*
X0153175Y0108652D01*
X0153175Y0109635D02*
X0155715Y0109635D01*
X0155715Y0110618D02*
X0153175Y0110618D01*
X0153175Y0111600D02*
X0155715Y0111600D01*
X0155715Y0112583D02*
X0153372Y0112583D01*
X0153372Y0113566D02*
X0155715Y0113566D01*
X0155715Y0114549D02*
X0153372Y0114549D01*
X0153271Y0115531D02*
X0155715Y0115531D01*
X0155715Y0116514D02*
X0153772Y0116514D01*
X0153772Y0117497D02*
X0155715Y0117497D01*
X0155715Y0118480D02*
X0153772Y0118480D01*
X0151197Y0118480D02*
X0151000Y0118480D01*
X0151000Y0117929D02*
X0151000Y0120504D01*
X0150822Y0120504D01*
X0151084Y0120574D01*
X0151424Y0120771D01*
X0151614Y0120961D01*
X0151803Y0120504D01*
X0151197Y0120504D01*
X0151197Y0117929D01*
X0151000Y0117929D01*
X0151000Y0119462D02*
X0151197Y0119462D01*
X0151197Y0120445D02*
X0151000Y0120445D01*
X0149603Y0120472D02*
X0149341Y0120402D01*
X0149001Y0120206D01*
X0148847Y0120052D01*
X0148795Y0120104D01*
X0145528Y0120104D01*
X0144937Y0119513D01*
X0143302Y0119513D01*
X0143726Y0119937D01*
X0143726Y0120872D01*
X0146630Y0120872D01*
X0146898Y0121141D01*
X0146952Y0121048D01*
X0147229Y0120771D01*
X0147570Y0120574D01*
X0147949Y0120472D01*
X0149228Y0120472D01*
X0149228Y0123047D01*
X0149425Y0123047D01*
X0149425Y0120472D01*
X0149603Y0120472D01*
X0149502Y0120445D02*
X0143726Y0120445D01*
X0149228Y0121428D02*
X0149425Y0121428D01*
X0149425Y0122411D02*
X0149228Y0122411D01*
X0149425Y0123047D02*
X0151973Y0123047D01*
X0151987Y0123082D01*
X0152454Y0123548D01*
X0152151Y0123723D01*
X0152000Y0123874D01*
X0152000Y0123244D01*
X0149425Y0123244D01*
X0149228Y0123244D01*
X0149228Y0125819D01*
X0147949Y0125819D01*
X0147570Y0125717D01*
X0147229Y0125521D01*
X0146952Y0125243D01*
X0146898Y0125150D01*
X0146679Y0125370D01*
X0146679Y0126483D01*
X0146684Y0126480D01*
X0147063Y0126378D01*
X0148933Y0126378D01*
X0148933Y0128264D01*
X0148933Y0129838D01*
X0148933Y0129838D01*
X0148933Y0128264D01*
X0148933Y0128264D01*
X0148933Y0128264D01*
X0148933Y0126378D01*
X0150803Y0126378D01*
X0151182Y0126480D01*
X0151522Y0126676D01*
X0151575Y0126728D01*
X0151575Y0126197D01*
X0154150Y0126197D01*
X0154150Y0126000D01*
X0151575Y0126000D01*
X0151575Y0125370D01*
X0151424Y0125521D01*
X0151084Y0125717D01*
X0150704Y0125819D01*
X0149425Y0125819D01*
X0149425Y0123244D01*
X0149425Y0123047D01*
X0149425Y0123393D02*
X0149228Y0123393D01*
X0149228Y0124376D02*
X0149425Y0124376D01*
X0149425Y0125359D02*
X0149228Y0125359D01*
X0148933Y0127325D02*
X0148933Y0127325D01*
X0148933Y0128307D02*
X0148933Y0128307D01*
X0148933Y0129290D02*
X0148933Y0129290D01*
X0148933Y0132988D02*
X0146901Y0132988D01*
X0146900Y0132988D01*
X0148933Y0132988D01*
X0148933Y0132988D01*
X0146168Y0134400D02*
X0146066Y0134298D01*
X0145892Y0133997D01*
X0145605Y0134283D01*
X0145605Y0134409D01*
X0144836Y0135178D01*
X0143966Y0136049D01*
X0142939Y0136049D01*
X0142939Y0136227D01*
X0143874Y0136227D01*
X0144142Y0136495D01*
X0144196Y0136403D01*
X0144474Y0136125D01*
X0144814Y0135928D01*
X0145193Y0135827D01*
X0146472Y0135827D01*
X0146472Y0138401D01*
X0146669Y0138401D01*
X0146669Y0135911D01*
X0146168Y0135409D01*
X0146168Y0134400D01*
X0146011Y0134204D02*
X0145685Y0134204D01*
X0146168Y0135187D02*
X0144828Y0135187D01*
X0144429Y0136169D02*
X0142939Y0136169D01*
X0139967Y0136169D02*
X0131793Y0136169D01*
X0132776Y0135187D02*
X0138687Y0135187D01*
X0138687Y0135409D02*
X0138687Y0134474D01*
X0138213Y0134474D01*
X0138016Y0134671D01*
X0133291Y0134671D01*
X0126043Y0141920D01*
X0150417Y0141920D01*
X0151794Y0140543D01*
X0151581Y0140330D01*
X0151581Y0139788D01*
X0151187Y0139394D01*
X0149244Y0137451D01*
X0149244Y0138402D01*
X0146669Y0138402D01*
X0146669Y0138598D01*
X0149244Y0138598D01*
X0149244Y0139878D01*
X0149142Y0140257D01*
X0148946Y0140597D01*
X0148668Y0140875D01*
X0148328Y0141072D01*
X0147948Y0141173D01*
X0146669Y0141173D01*
X0146669Y0138598D01*
X0146472Y0138598D01*
X0146472Y0141173D01*
X0145193Y0141173D01*
X0144814Y0141072D01*
X0144474Y0140875D01*
X0144196Y0140597D01*
X0144142Y0140505D01*
X0143874Y0140773D01*
X0140607Y0140773D01*
X0139967Y0140133D01*
X0139967Y0136049D01*
X0139327Y0136049D01*
X0138687Y0135409D01*
X0139967Y0137152D02*
X0130810Y0137152D01*
X0129827Y0138135D02*
X0139967Y0138135D01*
X0139967Y0139118D02*
X0128845Y0139118D01*
X0127862Y0140100D02*
X0139967Y0140100D01*
X0144857Y0141083D02*
X0126879Y0141083D01*
X0124085Y0139118D02*
X0122276Y0139118D01*
X0122276Y0139967D02*
X0122276Y0137161D01*
X0119602Y0137161D01*
X0119602Y0136768D01*
X0122276Y0136768D01*
X0122276Y0134513D01*
X0128690Y0134513D01*
X0123236Y0139967D01*
X0122276Y0139967D01*
X0122276Y0138135D02*
X0125068Y0138135D01*
X0126051Y0137152D02*
X0119602Y0137152D01*
X0119602Y0136169D02*
X0119209Y0136169D01*
X0119209Y0135187D02*
X0119602Y0135187D01*
X0119602Y0134204D02*
X0119209Y0134204D01*
X0119209Y0133221D02*
X0119602Y0133221D01*
X0121069Y0132238D02*
X0117423Y0132238D01*
X0117545Y0131256D02*
X0121069Y0131256D01*
X0121069Y0130273D02*
X0117292Y0130273D01*
X0116526Y0129290D02*
X0121069Y0129290D01*
X0122276Y0135187D02*
X0128016Y0135187D01*
X0127034Y0136169D02*
X0122276Y0136169D01*
X0112333Y0132238D02*
X0096163Y0132238D01*
X0096285Y0131256D02*
X0112211Y0131256D01*
X0112464Y0130273D02*
X0096032Y0130273D01*
X0095266Y0129290D02*
X0113230Y0129290D01*
X0106417Y0143049D02*
X0064976Y0143049D01*
X0090936Y0129290D02*
X0091970Y0129290D01*
X0112159Y0111600D02*
X0064976Y0111600D01*
X0064976Y0110618D02*
X0111559Y0110618D01*
X0111424Y0109635D02*
X0064976Y0109635D01*
X0064976Y0108652D02*
X0111663Y0108652D01*
X0112410Y0107669D02*
X0064976Y0107669D01*
X0064976Y0106687D02*
X0114784Y0106687D01*
X0115767Y0105704D02*
X0064976Y0105704D01*
X0064976Y0104721D02*
X0116750Y0104721D01*
X0131512Y0097457D02*
X0134087Y0097457D01*
X0134087Y0098736D01*
X0133985Y0099115D01*
X0133788Y0099456D01*
X0133511Y0099733D01*
X0133418Y0099787D01*
X0133473Y0099842D01*
X0139180Y0094136D01*
X0139180Y0092119D01*
X0138627Y0092348D01*
X0137566Y0092348D01*
X0137335Y0092252D01*
X0137335Y0093027D01*
X0136440Y0093027D01*
X0136440Y0093028D01*
X0137335Y0093028D01*
X0137335Y0093815D01*
X0137233Y0094194D01*
X0137037Y0094534D01*
X0136759Y0094812D01*
X0136418Y0095009D01*
X0136039Y0095110D01*
X0133638Y0095110D01*
X0133788Y0095261D01*
X0133985Y0095601D01*
X0134087Y0095981D01*
X0134087Y0097260D01*
X0131512Y0097260D01*
X0131512Y0097457D01*
X0134087Y0097842D02*
X0135474Y0097842D01*
X0134491Y0098824D02*
X0134063Y0098824D01*
X0133508Y0099807D02*
X0133438Y0099807D01*
X0134087Y0096859D02*
X0136457Y0096859D01*
X0137439Y0095876D02*
X0134059Y0095876D01*
X0133087Y0094764D02*
X0133087Y0093028D01*
X0133087Y0093028D01*
X0133087Y0094764D01*
X0133087Y0094764D01*
X0133087Y0093911D02*
X0133087Y0093911D01*
X0133087Y0093027D02*
X0133087Y0091059D01*
X0133087Y0091059D01*
X0133087Y0093027D01*
X0133087Y0093027D01*
X0133087Y0092928D02*
X0133087Y0092928D01*
X0133087Y0091945D02*
X0133087Y0091945D01*
X0137335Y0092928D02*
X0139180Y0092928D01*
X0139180Y0093911D02*
X0137309Y0093911D01*
X0136618Y0094893D02*
X0138422Y0094893D01*
X0139381Y0099807D02*
X0140117Y0099807D01*
X0140065Y0100790D02*
X0138398Y0100790D01*
X0137416Y0101773D02*
X0140065Y0101773D01*
X0140065Y0102755D02*
X0136433Y0102755D01*
X0135655Y0103738D02*
X0140065Y0103738D01*
X0140065Y0104721D02*
X0139705Y0104721D01*
X0137614Y0104721D02*
X0137417Y0104721D01*
X0137417Y0105704D02*
X0137614Y0105704D01*
X0137614Y0106687D02*
X0137417Y0106687D01*
X0137417Y0107102D02*
X0137417Y0109677D01*
X0137220Y0109677D01*
X0137220Y0112811D01*
X0137417Y0112811D01*
X0137417Y0109449D01*
X0137614Y0109449D01*
X0137614Y0107102D01*
X0137417Y0107102D01*
X0137417Y0107669D02*
X0137614Y0107669D01*
X0137614Y0108652D02*
X0137417Y0108652D01*
X0137417Y0109635D02*
X0137417Y0109635D01*
X0137417Y0110618D02*
X0137220Y0110618D01*
X0137220Y0111600D02*
X0137417Y0111600D01*
X0137417Y0112583D02*
X0137220Y0112583D01*
X0152000Y0123393D02*
X0152299Y0123393D01*
X0151575Y0126342D02*
X0146679Y0126342D01*
X0146689Y0125359D02*
X0147068Y0125359D01*
X0156128Y0134402D02*
X0156128Y0136000D01*
X0155596Y0136531D01*
X0156128Y0137063D01*
X0156128Y0140330D01*
X0155537Y0140921D01*
X0155537Y0141559D01*
X0153395Y0143701D01*
X0161220Y0143701D01*
X0161220Y0142105D01*
X0162077Y0140038D01*
X0163310Y0138805D01*
X0163048Y0138805D01*
X0162408Y0138165D01*
X0162408Y0134177D01*
X0160858Y0132628D01*
X0160858Y0133381D01*
X0160757Y0133761D01*
X0160560Y0134101D01*
X0160282Y0134379D01*
X0159942Y0134575D01*
X0159563Y0134677D01*
X0158283Y0134677D01*
X0158283Y0132102D01*
X0158087Y0132102D01*
X0158087Y0134677D01*
X0156807Y0134677D01*
X0156428Y0134575D01*
X0156128Y0134402D01*
X0156128Y0135187D02*
X0162408Y0135187D01*
X0162408Y0136169D02*
X0155958Y0136169D01*
X0156128Y0137152D02*
X0162408Y0137152D01*
X0162408Y0138135D02*
X0156128Y0138135D01*
X0156128Y0139118D02*
X0162997Y0139118D01*
X0162051Y0140100D02*
X0156128Y0140100D01*
X0155537Y0141083D02*
X0161644Y0141083D01*
X0161237Y0142066D02*
X0155030Y0142066D01*
X0154047Y0143049D02*
X0161220Y0143049D01*
X0151581Y0140100D02*
X0149184Y0140100D01*
X0149244Y0139118D02*
X0150911Y0139118D01*
X0149929Y0138135D02*
X0149244Y0138135D01*
X0146669Y0138135D02*
X0146472Y0138135D01*
X0146472Y0139118D02*
X0146669Y0139118D01*
X0146669Y0140100D02*
X0146472Y0140100D01*
X0146472Y0141083D02*
X0146669Y0141083D01*
X0148284Y0141083D02*
X0151254Y0141083D01*
X0146669Y0137152D02*
X0146472Y0137152D01*
X0146472Y0136169D02*
X0146669Y0136169D01*
X0158087Y0134204D02*
X0158283Y0134204D01*
X0158283Y0133221D02*
X0158087Y0133221D01*
X0158087Y0132238D02*
X0158283Y0132238D01*
X0160858Y0133221D02*
X0161452Y0133221D01*
X0162408Y0134204D02*
X0160457Y0134204D01*
X0170783Y0135449D02*
X0170783Y0139205D01*
X0171616Y0140038D01*
X0171996Y0140955D01*
X0172533Y0140216D01*
X0172861Y0139205D01*
X0171768Y0139205D01*
X0171768Y0135449D01*
X0170783Y0135449D01*
X0170783Y0136169D02*
X0171768Y0136169D01*
X0171768Y0137152D02*
X0170783Y0137152D01*
X0170783Y0138135D02*
X0171768Y0138135D01*
X0171768Y0139118D02*
X0170783Y0139118D01*
X0170783Y0139205D02*
X0170783Y0139205D01*
X0171642Y0140100D02*
X0172570Y0140100D01*
X0171768Y0120291D02*
X0171768Y0118339D01*
X0171768Y0114583D01*
X0170783Y0114583D01*
X0170783Y0120291D01*
X0171768Y0120291D01*
X0171768Y0119462D02*
X0170783Y0119462D01*
X0170783Y0118480D02*
X0171768Y0118480D01*
X0171768Y0117497D02*
X0170783Y0117497D01*
X0170783Y0116514D02*
X0171768Y0116514D01*
X0171768Y0115531D02*
X0170783Y0115531D01*
D28*
X0150705Y0126098D02*
X0148933Y0127870D01*
X0148933Y0128264D01*
X0148933Y0131413D02*
X0146374Y0131413D01*
X0144120Y0133668D01*
X0144120Y0133794D01*
X0143350Y0134563D01*
X0141453Y0134563D01*
X0141453Y0137713D01*
X0142240Y0138500D01*
X0145980Y0134563D02*
X0146266Y0134277D01*
X0146266Y0133758D01*
X0147036Y0132988D01*
X0148933Y0132988D01*
X0148933Y0131413D02*
X0151492Y0131413D01*
X0148933Y0134563D02*
X0150311Y0135941D01*
X0150311Y0136138D01*
X0144012Y0129839D02*
X0141453Y0129839D01*
X0141453Y0131413D02*
X0138973Y0131413D01*
X0137605Y0130045D01*
X0139681Y0128264D02*
X0137713Y0126295D01*
X0139681Y0128264D02*
X0141453Y0128264D01*
X0144012Y0129839D02*
X0144406Y0129445D01*
X0141453Y0132988D02*
X0137319Y0132988D01*
D29*
X0137309Y0122358D02*
X0133579Y0122358D01*
X0133579Y0112909D02*
X0133579Y0107398D01*
X0133579Y0103854D01*
X0132988Y0103264D01*
X0131413Y0101689D01*
X0132988Y0103264D02*
X0141256Y0094996D01*
X0141256Y0087713D01*
X0139681Y0086138D01*
X0137319Y0086138D01*
X0125311Y0088736D02*
X0125311Y0077870D01*
X0123539Y0076098D01*
X0127280Y0072358D01*
X0147161Y0072358D01*
X0149524Y0072358D01*
X0156020Y0065862D01*
X0156020Y0061335D01*
X0156413Y0061728D01*
X0160941Y0061728D01*
X0156020Y0061335D02*
X0156020Y0057004D01*
X0156020Y0051906D01*
X0157791Y0050134D01*
X0127870Y0068224D02*
X0123736Y0068224D01*
X0123441Y0068520D01*
X0123539Y0068618D01*
X0123441Y0068520D02*
X0119799Y0064878D01*
X0119799Y0051492D01*
X0119799Y0042634D01*
X0106994Y0029829D01*
X0077486Y0029829D01*
X0059563Y0047752D01*
X0059563Y0051492D01*
X0059563Y0055626D01*
X0113894Y0076689D02*
X0122949Y0076689D01*
X0123539Y0076098D01*
X0147161Y0072358D02*
X0157791Y0082988D01*
X0157791Y0121571D01*
X0154248Y0121571D01*
X0157791Y0121571D02*
X0157791Y0127476D01*
X0157988Y0127476D01*
X0158185Y0127673D01*
X0157791Y0127476D02*
X0154839Y0130429D01*
X0153854Y0131413D01*
X0153854Y0134366D01*
X0154248Y0130429D02*
X0154839Y0130429D01*
X0133579Y0107398D02*
X0133185Y0107004D01*
X0119799Y0056413D02*
X0119799Y0051492D01*
M02*
