%
M48
M72
T01C0.0157
T02C0.0200
T03C0.0354
%
T01
X5385Y3850
X6094Y3063
X6803Y4007
X7905Y3023
X8968Y3417
X10464Y3063
X12275Y3063
X12315Y3889
X11212Y4322
X10661Y5149
X8968Y5149
X7354Y5189
X6606Y6724
X6606Y7748
X7748Y7787
X8929Y6881
X9322Y7787
X9362Y8929
X9795Y8929
X10228Y8929
X10661Y8929
X11094Y8929
X11527Y8929
X11527Y9362
X12000Y9283
X11960Y8908
X12000Y9716
X12000Y10189
X11527Y10149
X11409Y10976
X11094Y11330
X10267Y10937
X10464Y12000
X9716Y12944
X9362Y13141
X8929Y13141
X8456Y13141
X7511Y13102
X6645Y12944
X6645Y12275
X6645Y11567
X6645Y10858
X6645Y10189
X6645Y9559
X6645Y9007
X7511Y9007
X8456Y8968
X8929Y8929
X9992Y9322
X8496Y10307
X7866Y11763
X9126Y12078
X11015Y13102
X11488Y13141
X11960Y12708
X12000Y11921
X12000Y11509
X12000Y11134
X13731Y12236
X13771Y12630
X13760Y13004
X12944Y14047
X15031Y14047
X15661Y14244
X16724Y14204
X15779Y13259
X15110Y12590
X15425Y12157
X16095Y12236
X17118Y11921
X16095Y11330
X15444Y10917
X14480Y10937
X13889Y10307
X13456Y9598
X13810Y8968
X14085Y8298
X13811Y8042
X13802Y7648
X13889Y6920
X13436Y6920
X12816Y7595
X12855Y8113
X14677Y8338
X15366Y8791
X16133Y9165
X15444Y9696
X14677Y9441
X16114Y10169
X17157Y9559
X17157Y8220
X16094Y8023
X17196Y7157
X16330Y5740
X16055Y5425
X15189Y4952
X15189Y4519
X15189Y4007
X15189Y3535
X14716Y3574
X14952Y3023
X15897Y3023
X16960Y3102
X13929Y4322
X13574Y4519
X13574Y4007
X13653Y3023
X13574Y5031
X14716Y5740
X15228Y6488
X14677Y7708
T02
X16094Y6673
X16594Y6673
X17094Y6673
X17094Y6173
X16594Y6173
X16094Y6173
T03
X16488Y4480
X17196Y4480
X17196Y10858
X16488Y10858
X16488Y12944
X17196Y12944
M30
