G75*
%MOIN*%
%OFA0B0*%
%FSLAX25Y25*%
%IPPOS*%
%LPD*%
%AMOC8*
5,1,8,0,0,1.08239X$1,22.5*
%
%ADD10C,0.00000*%
%ADD11C,0.04000*%
%ADD12C,0.03150*%
%ADD13C,0.01181*%
%ADD14C,0.00984*%
%ADD15C,0.01969*%
D10*
X0050705Y0034957D02*
X0050705Y0137319D01*
X0050707Y0137509D01*
X0050714Y0137699D01*
X0050726Y0137889D01*
X0050742Y0138079D01*
X0050762Y0138268D01*
X0050788Y0138457D01*
X0050817Y0138645D01*
X0050852Y0138832D01*
X0050891Y0139018D01*
X0050934Y0139203D01*
X0050982Y0139388D01*
X0051034Y0139571D01*
X0051090Y0139752D01*
X0051151Y0139932D01*
X0051217Y0140111D01*
X0051286Y0140288D01*
X0051360Y0140464D01*
X0051438Y0140637D01*
X0051521Y0140809D01*
X0051607Y0140978D01*
X0051697Y0141146D01*
X0051792Y0141311D01*
X0051890Y0141474D01*
X0051993Y0141634D01*
X0052099Y0141792D01*
X0052209Y0141947D01*
X0052322Y0142100D01*
X0052440Y0142250D01*
X0052561Y0142396D01*
X0052685Y0142540D01*
X0052813Y0142681D01*
X0052944Y0142819D01*
X0053079Y0142954D01*
X0053217Y0143085D01*
X0053358Y0143213D01*
X0053502Y0143337D01*
X0053648Y0143458D01*
X0053798Y0143576D01*
X0053951Y0143689D01*
X0054106Y0143799D01*
X0054264Y0143905D01*
X0054424Y0144008D01*
X0054587Y0144106D01*
X0054752Y0144201D01*
X0054920Y0144291D01*
X0055089Y0144377D01*
X0055261Y0144460D01*
X0055434Y0144538D01*
X0055610Y0144612D01*
X0055787Y0144681D01*
X0055966Y0144747D01*
X0056146Y0144808D01*
X0056327Y0144864D01*
X0056510Y0144916D01*
X0056695Y0144964D01*
X0056880Y0145007D01*
X0057066Y0145046D01*
X0057253Y0145081D01*
X0057441Y0145110D01*
X0057630Y0145136D01*
X0057819Y0145156D01*
X0058009Y0145172D01*
X0058199Y0145184D01*
X0058389Y0145191D01*
X0058579Y0145193D01*
X0166846Y0145193D01*
X0167036Y0145191D01*
X0167226Y0145184D01*
X0167416Y0145172D01*
X0167606Y0145156D01*
X0167795Y0145136D01*
X0167984Y0145110D01*
X0168172Y0145081D01*
X0168359Y0145046D01*
X0168545Y0145007D01*
X0168730Y0144964D01*
X0168915Y0144916D01*
X0169098Y0144864D01*
X0169279Y0144808D01*
X0169459Y0144747D01*
X0169638Y0144681D01*
X0169815Y0144612D01*
X0169991Y0144538D01*
X0170164Y0144460D01*
X0170336Y0144377D01*
X0170505Y0144291D01*
X0170673Y0144201D01*
X0170838Y0144106D01*
X0171001Y0144008D01*
X0171161Y0143905D01*
X0171319Y0143799D01*
X0171474Y0143689D01*
X0171627Y0143576D01*
X0171777Y0143458D01*
X0171923Y0143337D01*
X0172067Y0143213D01*
X0172208Y0143085D01*
X0172346Y0142954D01*
X0172481Y0142819D01*
X0172612Y0142681D01*
X0172740Y0142540D01*
X0172864Y0142396D01*
X0172985Y0142250D01*
X0173103Y0142100D01*
X0173216Y0141947D01*
X0173326Y0141792D01*
X0173432Y0141634D01*
X0173535Y0141474D01*
X0173633Y0141311D01*
X0173728Y0141146D01*
X0173818Y0140978D01*
X0173904Y0140809D01*
X0173987Y0140637D01*
X0174065Y0140464D01*
X0174139Y0140288D01*
X0174208Y0140111D01*
X0174274Y0139932D01*
X0174335Y0139752D01*
X0174391Y0139571D01*
X0174443Y0139388D01*
X0174491Y0139203D01*
X0174534Y0139018D01*
X0174573Y0138832D01*
X0174608Y0138645D01*
X0174637Y0138457D01*
X0174663Y0138268D01*
X0174683Y0138079D01*
X0174699Y0137889D01*
X0174711Y0137699D01*
X0174718Y0137509D01*
X0174720Y0137319D01*
X0174720Y0034957D01*
X0174718Y0034767D01*
X0174711Y0034577D01*
X0174699Y0034387D01*
X0174683Y0034197D01*
X0174663Y0034008D01*
X0174637Y0033819D01*
X0174608Y0033631D01*
X0174573Y0033444D01*
X0174534Y0033258D01*
X0174491Y0033073D01*
X0174443Y0032888D01*
X0174391Y0032705D01*
X0174335Y0032524D01*
X0174274Y0032344D01*
X0174208Y0032165D01*
X0174139Y0031988D01*
X0174065Y0031812D01*
X0173987Y0031639D01*
X0173904Y0031467D01*
X0173818Y0031298D01*
X0173728Y0031130D01*
X0173633Y0030965D01*
X0173535Y0030802D01*
X0173432Y0030642D01*
X0173326Y0030484D01*
X0173216Y0030329D01*
X0173103Y0030176D01*
X0172985Y0030026D01*
X0172864Y0029880D01*
X0172740Y0029736D01*
X0172612Y0029595D01*
X0172481Y0029457D01*
X0172346Y0029322D01*
X0172208Y0029191D01*
X0172067Y0029063D01*
X0171923Y0028939D01*
X0171777Y0028818D01*
X0171627Y0028700D01*
X0171474Y0028587D01*
X0171319Y0028477D01*
X0171161Y0028371D01*
X0171001Y0028268D01*
X0170838Y0028170D01*
X0170673Y0028075D01*
X0170505Y0027985D01*
X0170336Y0027899D01*
X0170164Y0027816D01*
X0169991Y0027738D01*
X0169815Y0027664D01*
X0169638Y0027595D01*
X0169459Y0027529D01*
X0169279Y0027468D01*
X0169098Y0027412D01*
X0168915Y0027360D01*
X0168730Y0027312D01*
X0168545Y0027269D01*
X0168359Y0027230D01*
X0168172Y0027195D01*
X0167984Y0027166D01*
X0167795Y0027140D01*
X0167606Y0027120D01*
X0167416Y0027104D01*
X0167226Y0027092D01*
X0167036Y0027085D01*
X0166846Y0027083D01*
X0058579Y0027083D01*
X0058389Y0027085D01*
X0058199Y0027092D01*
X0058009Y0027104D01*
X0057819Y0027120D01*
X0057630Y0027140D01*
X0057441Y0027166D01*
X0057253Y0027195D01*
X0057066Y0027230D01*
X0056880Y0027269D01*
X0056695Y0027312D01*
X0056510Y0027360D01*
X0056327Y0027412D01*
X0056146Y0027468D01*
X0055966Y0027529D01*
X0055787Y0027595D01*
X0055610Y0027664D01*
X0055434Y0027738D01*
X0055261Y0027816D01*
X0055089Y0027899D01*
X0054920Y0027985D01*
X0054752Y0028075D01*
X0054587Y0028170D01*
X0054424Y0028268D01*
X0054264Y0028371D01*
X0054106Y0028477D01*
X0053951Y0028587D01*
X0053798Y0028700D01*
X0053648Y0028818D01*
X0053502Y0028939D01*
X0053358Y0029063D01*
X0053217Y0029191D01*
X0053079Y0029322D01*
X0052944Y0029457D01*
X0052813Y0029595D01*
X0052685Y0029736D01*
X0052561Y0029880D01*
X0052440Y0030026D01*
X0052322Y0030176D01*
X0052209Y0030329D01*
X0052099Y0030484D01*
X0051993Y0030642D01*
X0051890Y0030802D01*
X0051792Y0030965D01*
X0051697Y0031130D01*
X0051607Y0031298D01*
X0051521Y0031467D01*
X0051438Y0031639D01*
X0051360Y0031812D01*
X0051286Y0031988D01*
X0051217Y0032165D01*
X0051151Y0032344D01*
X0051090Y0032524D01*
X0051034Y0032705D01*
X0050982Y0032888D01*
X0050934Y0033073D01*
X0050891Y0033258D01*
X0050852Y0033444D01*
X0050817Y0033631D01*
X0050788Y0033819D01*
X0050762Y0034008D01*
X0050742Y0034197D01*
X0050726Y0034387D01*
X0050714Y0034577D01*
X0050707Y0034767D01*
X0050705Y0034957D01*
X0163106Y0044799D02*
X0163108Y0044883D01*
X0163114Y0044966D01*
X0163124Y0045049D01*
X0163138Y0045132D01*
X0163155Y0045214D01*
X0163177Y0045295D01*
X0163202Y0045374D01*
X0163231Y0045453D01*
X0163264Y0045530D01*
X0163300Y0045605D01*
X0163340Y0045679D01*
X0163383Y0045751D01*
X0163430Y0045820D01*
X0163480Y0045887D01*
X0163533Y0045952D01*
X0163589Y0046014D01*
X0163647Y0046074D01*
X0163709Y0046131D01*
X0163773Y0046184D01*
X0163840Y0046235D01*
X0163909Y0046282D01*
X0163980Y0046327D01*
X0164053Y0046367D01*
X0164128Y0046404D01*
X0164205Y0046438D01*
X0164283Y0046468D01*
X0164362Y0046494D01*
X0164443Y0046517D01*
X0164525Y0046535D01*
X0164607Y0046550D01*
X0164690Y0046561D01*
X0164773Y0046568D01*
X0164857Y0046571D01*
X0164941Y0046570D01*
X0165024Y0046565D01*
X0165108Y0046556D01*
X0165190Y0046543D01*
X0165272Y0046527D01*
X0165353Y0046506D01*
X0165434Y0046482D01*
X0165512Y0046454D01*
X0165590Y0046422D01*
X0165666Y0046386D01*
X0165740Y0046347D01*
X0165812Y0046305D01*
X0165882Y0046259D01*
X0165950Y0046210D01*
X0166015Y0046158D01*
X0166078Y0046103D01*
X0166138Y0046045D01*
X0166196Y0045984D01*
X0166250Y0045920D01*
X0166302Y0045854D01*
X0166350Y0045786D01*
X0166395Y0045715D01*
X0166436Y0045642D01*
X0166475Y0045568D01*
X0166509Y0045492D01*
X0166540Y0045414D01*
X0166567Y0045335D01*
X0166591Y0045254D01*
X0166610Y0045173D01*
X0166626Y0045091D01*
X0166638Y0045008D01*
X0166646Y0044924D01*
X0166650Y0044841D01*
X0166650Y0044757D01*
X0166646Y0044674D01*
X0166638Y0044590D01*
X0166626Y0044507D01*
X0166610Y0044425D01*
X0166591Y0044344D01*
X0166567Y0044263D01*
X0166540Y0044184D01*
X0166509Y0044106D01*
X0166475Y0044030D01*
X0166436Y0043956D01*
X0166395Y0043883D01*
X0166350Y0043812D01*
X0166302Y0043744D01*
X0166250Y0043678D01*
X0166196Y0043614D01*
X0166138Y0043553D01*
X0166078Y0043495D01*
X0166015Y0043440D01*
X0165950Y0043388D01*
X0165882Y0043339D01*
X0165812Y0043293D01*
X0165740Y0043251D01*
X0165666Y0043212D01*
X0165590Y0043176D01*
X0165512Y0043144D01*
X0165434Y0043116D01*
X0165353Y0043092D01*
X0165272Y0043071D01*
X0165190Y0043055D01*
X0165108Y0043042D01*
X0165024Y0043033D01*
X0164941Y0043028D01*
X0164857Y0043027D01*
X0164773Y0043030D01*
X0164690Y0043037D01*
X0164607Y0043048D01*
X0164525Y0043063D01*
X0164443Y0043081D01*
X0164362Y0043104D01*
X0164283Y0043130D01*
X0164205Y0043160D01*
X0164128Y0043194D01*
X0164053Y0043231D01*
X0163980Y0043271D01*
X0163909Y0043316D01*
X0163840Y0043363D01*
X0163773Y0043414D01*
X0163709Y0043467D01*
X0163647Y0043524D01*
X0163589Y0043584D01*
X0163533Y0043646D01*
X0163480Y0043711D01*
X0163430Y0043778D01*
X0163383Y0043847D01*
X0163340Y0043919D01*
X0163300Y0043993D01*
X0163264Y0044068D01*
X0163231Y0044145D01*
X0163202Y0044224D01*
X0163177Y0044303D01*
X0163155Y0044384D01*
X0163138Y0044466D01*
X0163124Y0044549D01*
X0163114Y0044632D01*
X0163108Y0044715D01*
X0163106Y0044799D01*
X0170193Y0044799D02*
X0170195Y0044883D01*
X0170201Y0044966D01*
X0170211Y0045049D01*
X0170225Y0045132D01*
X0170242Y0045214D01*
X0170264Y0045295D01*
X0170289Y0045374D01*
X0170318Y0045453D01*
X0170351Y0045530D01*
X0170387Y0045605D01*
X0170427Y0045679D01*
X0170470Y0045751D01*
X0170517Y0045820D01*
X0170567Y0045887D01*
X0170620Y0045952D01*
X0170676Y0046014D01*
X0170734Y0046074D01*
X0170796Y0046131D01*
X0170860Y0046184D01*
X0170927Y0046235D01*
X0170996Y0046282D01*
X0171067Y0046327D01*
X0171140Y0046367D01*
X0171215Y0046404D01*
X0171292Y0046438D01*
X0171370Y0046468D01*
X0171449Y0046494D01*
X0171530Y0046517D01*
X0171612Y0046535D01*
X0171694Y0046550D01*
X0171777Y0046561D01*
X0171860Y0046568D01*
X0171944Y0046571D01*
X0172028Y0046570D01*
X0172111Y0046565D01*
X0172195Y0046556D01*
X0172277Y0046543D01*
X0172359Y0046527D01*
X0172440Y0046506D01*
X0172521Y0046482D01*
X0172599Y0046454D01*
X0172677Y0046422D01*
X0172753Y0046386D01*
X0172827Y0046347D01*
X0172899Y0046305D01*
X0172969Y0046259D01*
X0173037Y0046210D01*
X0173102Y0046158D01*
X0173165Y0046103D01*
X0173225Y0046045D01*
X0173283Y0045984D01*
X0173337Y0045920D01*
X0173389Y0045854D01*
X0173437Y0045786D01*
X0173482Y0045715D01*
X0173523Y0045642D01*
X0173562Y0045568D01*
X0173596Y0045492D01*
X0173627Y0045414D01*
X0173654Y0045335D01*
X0173678Y0045254D01*
X0173697Y0045173D01*
X0173713Y0045091D01*
X0173725Y0045008D01*
X0173733Y0044924D01*
X0173737Y0044841D01*
X0173737Y0044757D01*
X0173733Y0044674D01*
X0173725Y0044590D01*
X0173713Y0044507D01*
X0173697Y0044425D01*
X0173678Y0044344D01*
X0173654Y0044263D01*
X0173627Y0044184D01*
X0173596Y0044106D01*
X0173562Y0044030D01*
X0173523Y0043956D01*
X0173482Y0043883D01*
X0173437Y0043812D01*
X0173389Y0043744D01*
X0173337Y0043678D01*
X0173283Y0043614D01*
X0173225Y0043553D01*
X0173165Y0043495D01*
X0173102Y0043440D01*
X0173037Y0043388D01*
X0172969Y0043339D01*
X0172899Y0043293D01*
X0172827Y0043251D01*
X0172753Y0043212D01*
X0172677Y0043176D01*
X0172599Y0043144D01*
X0172521Y0043116D01*
X0172440Y0043092D01*
X0172359Y0043071D01*
X0172277Y0043055D01*
X0172195Y0043042D01*
X0172111Y0043033D01*
X0172028Y0043028D01*
X0171944Y0043027D01*
X0171860Y0043030D01*
X0171777Y0043037D01*
X0171694Y0043048D01*
X0171612Y0043063D01*
X0171530Y0043081D01*
X0171449Y0043104D01*
X0171370Y0043130D01*
X0171292Y0043160D01*
X0171215Y0043194D01*
X0171140Y0043231D01*
X0171067Y0043271D01*
X0170996Y0043316D01*
X0170927Y0043363D01*
X0170860Y0043414D01*
X0170796Y0043467D01*
X0170734Y0043524D01*
X0170676Y0043584D01*
X0170620Y0043646D01*
X0170567Y0043711D01*
X0170517Y0043778D01*
X0170470Y0043847D01*
X0170427Y0043919D01*
X0170387Y0043993D01*
X0170351Y0044068D01*
X0170318Y0044145D01*
X0170289Y0044224D01*
X0170264Y0044303D01*
X0170242Y0044384D01*
X0170225Y0044466D01*
X0170211Y0044549D01*
X0170201Y0044632D01*
X0170195Y0044715D01*
X0170193Y0044799D01*
X0170193Y0108579D02*
X0170195Y0108663D01*
X0170201Y0108746D01*
X0170211Y0108829D01*
X0170225Y0108912D01*
X0170242Y0108994D01*
X0170264Y0109075D01*
X0170289Y0109154D01*
X0170318Y0109233D01*
X0170351Y0109310D01*
X0170387Y0109385D01*
X0170427Y0109459D01*
X0170470Y0109531D01*
X0170517Y0109600D01*
X0170567Y0109667D01*
X0170620Y0109732D01*
X0170676Y0109794D01*
X0170734Y0109854D01*
X0170796Y0109911D01*
X0170860Y0109964D01*
X0170927Y0110015D01*
X0170996Y0110062D01*
X0171067Y0110107D01*
X0171140Y0110147D01*
X0171215Y0110184D01*
X0171292Y0110218D01*
X0171370Y0110248D01*
X0171449Y0110274D01*
X0171530Y0110297D01*
X0171612Y0110315D01*
X0171694Y0110330D01*
X0171777Y0110341D01*
X0171860Y0110348D01*
X0171944Y0110351D01*
X0172028Y0110350D01*
X0172111Y0110345D01*
X0172195Y0110336D01*
X0172277Y0110323D01*
X0172359Y0110307D01*
X0172440Y0110286D01*
X0172521Y0110262D01*
X0172599Y0110234D01*
X0172677Y0110202D01*
X0172753Y0110166D01*
X0172827Y0110127D01*
X0172899Y0110085D01*
X0172969Y0110039D01*
X0173037Y0109990D01*
X0173102Y0109938D01*
X0173165Y0109883D01*
X0173225Y0109825D01*
X0173283Y0109764D01*
X0173337Y0109700D01*
X0173389Y0109634D01*
X0173437Y0109566D01*
X0173482Y0109495D01*
X0173523Y0109422D01*
X0173562Y0109348D01*
X0173596Y0109272D01*
X0173627Y0109194D01*
X0173654Y0109115D01*
X0173678Y0109034D01*
X0173697Y0108953D01*
X0173713Y0108871D01*
X0173725Y0108788D01*
X0173733Y0108704D01*
X0173737Y0108621D01*
X0173737Y0108537D01*
X0173733Y0108454D01*
X0173725Y0108370D01*
X0173713Y0108287D01*
X0173697Y0108205D01*
X0173678Y0108124D01*
X0173654Y0108043D01*
X0173627Y0107964D01*
X0173596Y0107886D01*
X0173562Y0107810D01*
X0173523Y0107736D01*
X0173482Y0107663D01*
X0173437Y0107592D01*
X0173389Y0107524D01*
X0173337Y0107458D01*
X0173283Y0107394D01*
X0173225Y0107333D01*
X0173165Y0107275D01*
X0173102Y0107220D01*
X0173037Y0107168D01*
X0172969Y0107119D01*
X0172899Y0107073D01*
X0172827Y0107031D01*
X0172753Y0106992D01*
X0172677Y0106956D01*
X0172599Y0106924D01*
X0172521Y0106896D01*
X0172440Y0106872D01*
X0172359Y0106851D01*
X0172277Y0106835D01*
X0172195Y0106822D01*
X0172111Y0106813D01*
X0172028Y0106808D01*
X0171944Y0106807D01*
X0171860Y0106810D01*
X0171777Y0106817D01*
X0171694Y0106828D01*
X0171612Y0106843D01*
X0171530Y0106861D01*
X0171449Y0106884D01*
X0171370Y0106910D01*
X0171292Y0106940D01*
X0171215Y0106974D01*
X0171140Y0107011D01*
X0171067Y0107051D01*
X0170996Y0107096D01*
X0170927Y0107143D01*
X0170860Y0107194D01*
X0170796Y0107247D01*
X0170734Y0107304D01*
X0170676Y0107364D01*
X0170620Y0107426D01*
X0170567Y0107491D01*
X0170517Y0107558D01*
X0170470Y0107627D01*
X0170427Y0107699D01*
X0170387Y0107773D01*
X0170351Y0107848D01*
X0170318Y0107925D01*
X0170289Y0108004D01*
X0170264Y0108083D01*
X0170242Y0108164D01*
X0170225Y0108246D01*
X0170211Y0108329D01*
X0170201Y0108412D01*
X0170195Y0108495D01*
X0170193Y0108579D01*
X0163106Y0108579D02*
X0163108Y0108663D01*
X0163114Y0108746D01*
X0163124Y0108829D01*
X0163138Y0108912D01*
X0163155Y0108994D01*
X0163177Y0109075D01*
X0163202Y0109154D01*
X0163231Y0109233D01*
X0163264Y0109310D01*
X0163300Y0109385D01*
X0163340Y0109459D01*
X0163383Y0109531D01*
X0163430Y0109600D01*
X0163480Y0109667D01*
X0163533Y0109732D01*
X0163589Y0109794D01*
X0163647Y0109854D01*
X0163709Y0109911D01*
X0163773Y0109964D01*
X0163840Y0110015D01*
X0163909Y0110062D01*
X0163980Y0110107D01*
X0164053Y0110147D01*
X0164128Y0110184D01*
X0164205Y0110218D01*
X0164283Y0110248D01*
X0164362Y0110274D01*
X0164443Y0110297D01*
X0164525Y0110315D01*
X0164607Y0110330D01*
X0164690Y0110341D01*
X0164773Y0110348D01*
X0164857Y0110351D01*
X0164941Y0110350D01*
X0165024Y0110345D01*
X0165108Y0110336D01*
X0165190Y0110323D01*
X0165272Y0110307D01*
X0165353Y0110286D01*
X0165434Y0110262D01*
X0165512Y0110234D01*
X0165590Y0110202D01*
X0165666Y0110166D01*
X0165740Y0110127D01*
X0165812Y0110085D01*
X0165882Y0110039D01*
X0165950Y0109990D01*
X0166015Y0109938D01*
X0166078Y0109883D01*
X0166138Y0109825D01*
X0166196Y0109764D01*
X0166250Y0109700D01*
X0166302Y0109634D01*
X0166350Y0109566D01*
X0166395Y0109495D01*
X0166436Y0109422D01*
X0166475Y0109348D01*
X0166509Y0109272D01*
X0166540Y0109194D01*
X0166567Y0109115D01*
X0166591Y0109034D01*
X0166610Y0108953D01*
X0166626Y0108871D01*
X0166638Y0108788D01*
X0166646Y0108704D01*
X0166650Y0108621D01*
X0166650Y0108537D01*
X0166646Y0108454D01*
X0166638Y0108370D01*
X0166626Y0108287D01*
X0166610Y0108205D01*
X0166591Y0108124D01*
X0166567Y0108043D01*
X0166540Y0107964D01*
X0166509Y0107886D01*
X0166475Y0107810D01*
X0166436Y0107736D01*
X0166395Y0107663D01*
X0166350Y0107592D01*
X0166302Y0107524D01*
X0166250Y0107458D01*
X0166196Y0107394D01*
X0166138Y0107333D01*
X0166078Y0107275D01*
X0166015Y0107220D01*
X0165950Y0107168D01*
X0165882Y0107119D01*
X0165812Y0107073D01*
X0165740Y0107031D01*
X0165666Y0106992D01*
X0165590Y0106956D01*
X0165512Y0106924D01*
X0165434Y0106896D01*
X0165353Y0106872D01*
X0165272Y0106851D01*
X0165190Y0106835D01*
X0165108Y0106822D01*
X0165024Y0106813D01*
X0164941Y0106808D01*
X0164857Y0106807D01*
X0164773Y0106810D01*
X0164690Y0106817D01*
X0164607Y0106828D01*
X0164525Y0106843D01*
X0164443Y0106861D01*
X0164362Y0106884D01*
X0164283Y0106910D01*
X0164205Y0106940D01*
X0164128Y0106974D01*
X0164053Y0107011D01*
X0163980Y0107051D01*
X0163909Y0107096D01*
X0163840Y0107143D01*
X0163773Y0107194D01*
X0163709Y0107247D01*
X0163647Y0107304D01*
X0163589Y0107364D01*
X0163533Y0107426D01*
X0163480Y0107491D01*
X0163430Y0107558D01*
X0163383Y0107627D01*
X0163340Y0107699D01*
X0163300Y0107773D01*
X0163264Y0107848D01*
X0163231Y0107925D01*
X0163202Y0108004D01*
X0163177Y0108083D01*
X0163155Y0108164D01*
X0163138Y0108246D01*
X0163124Y0108329D01*
X0163114Y0108412D01*
X0163108Y0108495D01*
X0163106Y0108579D01*
X0163106Y0129445D02*
X0163108Y0129529D01*
X0163114Y0129612D01*
X0163124Y0129695D01*
X0163138Y0129778D01*
X0163155Y0129860D01*
X0163177Y0129941D01*
X0163202Y0130020D01*
X0163231Y0130099D01*
X0163264Y0130176D01*
X0163300Y0130251D01*
X0163340Y0130325D01*
X0163383Y0130397D01*
X0163430Y0130466D01*
X0163480Y0130533D01*
X0163533Y0130598D01*
X0163589Y0130660D01*
X0163647Y0130720D01*
X0163709Y0130777D01*
X0163773Y0130830D01*
X0163840Y0130881D01*
X0163909Y0130928D01*
X0163980Y0130973D01*
X0164053Y0131013D01*
X0164128Y0131050D01*
X0164205Y0131084D01*
X0164283Y0131114D01*
X0164362Y0131140D01*
X0164443Y0131163D01*
X0164525Y0131181D01*
X0164607Y0131196D01*
X0164690Y0131207D01*
X0164773Y0131214D01*
X0164857Y0131217D01*
X0164941Y0131216D01*
X0165024Y0131211D01*
X0165108Y0131202D01*
X0165190Y0131189D01*
X0165272Y0131173D01*
X0165353Y0131152D01*
X0165434Y0131128D01*
X0165512Y0131100D01*
X0165590Y0131068D01*
X0165666Y0131032D01*
X0165740Y0130993D01*
X0165812Y0130951D01*
X0165882Y0130905D01*
X0165950Y0130856D01*
X0166015Y0130804D01*
X0166078Y0130749D01*
X0166138Y0130691D01*
X0166196Y0130630D01*
X0166250Y0130566D01*
X0166302Y0130500D01*
X0166350Y0130432D01*
X0166395Y0130361D01*
X0166436Y0130288D01*
X0166475Y0130214D01*
X0166509Y0130138D01*
X0166540Y0130060D01*
X0166567Y0129981D01*
X0166591Y0129900D01*
X0166610Y0129819D01*
X0166626Y0129737D01*
X0166638Y0129654D01*
X0166646Y0129570D01*
X0166650Y0129487D01*
X0166650Y0129403D01*
X0166646Y0129320D01*
X0166638Y0129236D01*
X0166626Y0129153D01*
X0166610Y0129071D01*
X0166591Y0128990D01*
X0166567Y0128909D01*
X0166540Y0128830D01*
X0166509Y0128752D01*
X0166475Y0128676D01*
X0166436Y0128602D01*
X0166395Y0128529D01*
X0166350Y0128458D01*
X0166302Y0128390D01*
X0166250Y0128324D01*
X0166196Y0128260D01*
X0166138Y0128199D01*
X0166078Y0128141D01*
X0166015Y0128086D01*
X0165950Y0128034D01*
X0165882Y0127985D01*
X0165812Y0127939D01*
X0165740Y0127897D01*
X0165666Y0127858D01*
X0165590Y0127822D01*
X0165512Y0127790D01*
X0165434Y0127762D01*
X0165353Y0127738D01*
X0165272Y0127717D01*
X0165190Y0127701D01*
X0165108Y0127688D01*
X0165024Y0127679D01*
X0164941Y0127674D01*
X0164857Y0127673D01*
X0164773Y0127676D01*
X0164690Y0127683D01*
X0164607Y0127694D01*
X0164525Y0127709D01*
X0164443Y0127727D01*
X0164362Y0127750D01*
X0164283Y0127776D01*
X0164205Y0127806D01*
X0164128Y0127840D01*
X0164053Y0127877D01*
X0163980Y0127917D01*
X0163909Y0127962D01*
X0163840Y0128009D01*
X0163773Y0128060D01*
X0163709Y0128113D01*
X0163647Y0128170D01*
X0163589Y0128230D01*
X0163533Y0128292D01*
X0163480Y0128357D01*
X0163430Y0128424D01*
X0163383Y0128493D01*
X0163340Y0128565D01*
X0163300Y0128639D01*
X0163264Y0128714D01*
X0163231Y0128791D01*
X0163202Y0128870D01*
X0163177Y0128949D01*
X0163155Y0129030D01*
X0163138Y0129112D01*
X0163124Y0129195D01*
X0163114Y0129278D01*
X0163108Y0129361D01*
X0163106Y0129445D01*
X0170193Y0129445D02*
X0170195Y0129529D01*
X0170201Y0129612D01*
X0170211Y0129695D01*
X0170225Y0129778D01*
X0170242Y0129860D01*
X0170264Y0129941D01*
X0170289Y0130020D01*
X0170318Y0130099D01*
X0170351Y0130176D01*
X0170387Y0130251D01*
X0170427Y0130325D01*
X0170470Y0130397D01*
X0170517Y0130466D01*
X0170567Y0130533D01*
X0170620Y0130598D01*
X0170676Y0130660D01*
X0170734Y0130720D01*
X0170796Y0130777D01*
X0170860Y0130830D01*
X0170927Y0130881D01*
X0170996Y0130928D01*
X0171067Y0130973D01*
X0171140Y0131013D01*
X0171215Y0131050D01*
X0171292Y0131084D01*
X0171370Y0131114D01*
X0171449Y0131140D01*
X0171530Y0131163D01*
X0171612Y0131181D01*
X0171694Y0131196D01*
X0171777Y0131207D01*
X0171860Y0131214D01*
X0171944Y0131217D01*
X0172028Y0131216D01*
X0172111Y0131211D01*
X0172195Y0131202D01*
X0172277Y0131189D01*
X0172359Y0131173D01*
X0172440Y0131152D01*
X0172521Y0131128D01*
X0172599Y0131100D01*
X0172677Y0131068D01*
X0172753Y0131032D01*
X0172827Y0130993D01*
X0172899Y0130951D01*
X0172969Y0130905D01*
X0173037Y0130856D01*
X0173102Y0130804D01*
X0173165Y0130749D01*
X0173225Y0130691D01*
X0173283Y0130630D01*
X0173337Y0130566D01*
X0173389Y0130500D01*
X0173437Y0130432D01*
X0173482Y0130361D01*
X0173523Y0130288D01*
X0173562Y0130214D01*
X0173596Y0130138D01*
X0173627Y0130060D01*
X0173654Y0129981D01*
X0173678Y0129900D01*
X0173697Y0129819D01*
X0173713Y0129737D01*
X0173725Y0129654D01*
X0173733Y0129570D01*
X0173737Y0129487D01*
X0173737Y0129403D01*
X0173733Y0129320D01*
X0173725Y0129236D01*
X0173713Y0129153D01*
X0173697Y0129071D01*
X0173678Y0128990D01*
X0173654Y0128909D01*
X0173627Y0128830D01*
X0173596Y0128752D01*
X0173562Y0128676D01*
X0173523Y0128602D01*
X0173482Y0128529D01*
X0173437Y0128458D01*
X0173389Y0128390D01*
X0173337Y0128324D01*
X0173283Y0128260D01*
X0173225Y0128199D01*
X0173165Y0128141D01*
X0173102Y0128086D01*
X0173037Y0128034D01*
X0172969Y0127985D01*
X0172899Y0127939D01*
X0172827Y0127897D01*
X0172753Y0127858D01*
X0172677Y0127822D01*
X0172599Y0127790D01*
X0172521Y0127762D01*
X0172440Y0127738D01*
X0172359Y0127717D01*
X0172277Y0127701D01*
X0172195Y0127688D01*
X0172111Y0127679D01*
X0172028Y0127674D01*
X0171944Y0127673D01*
X0171860Y0127676D01*
X0171777Y0127683D01*
X0171694Y0127694D01*
X0171612Y0127709D01*
X0171530Y0127727D01*
X0171449Y0127750D01*
X0171370Y0127776D01*
X0171292Y0127806D01*
X0171215Y0127840D01*
X0171140Y0127877D01*
X0171067Y0127917D01*
X0170996Y0127962D01*
X0170927Y0128009D01*
X0170860Y0128060D01*
X0170796Y0128113D01*
X0170734Y0128170D01*
X0170676Y0128230D01*
X0170620Y0128292D01*
X0170567Y0128357D01*
X0170517Y0128424D01*
X0170470Y0128493D01*
X0170427Y0128565D01*
X0170387Y0128639D01*
X0170351Y0128714D01*
X0170318Y0128791D01*
X0170289Y0128870D01*
X0170264Y0128949D01*
X0170242Y0129030D01*
X0170225Y0129112D01*
X0170211Y0129195D01*
X0170201Y0129278D01*
X0170195Y0129361D01*
X0170193Y0129445D01*
D11*
X0170941Y0066728D03*
X0170941Y0061728D03*
X0165941Y0061728D03*
X0160941Y0061728D03*
X0160941Y0066728D03*
X0165941Y0066728D03*
D12*
X0171965Y0071571D03*
X0160941Y0080232D03*
X0153657Y0087909D03*
X0146768Y0083382D03*
X0140850Y0082979D03*
X0138106Y0080420D03*
X0138017Y0076483D03*
X0138894Y0069199D03*
X0134357Y0069199D03*
X0128156Y0075949D03*
X0128547Y0081130D03*
X0119602Y0089081D03*
X0119996Y0092831D03*
X0115272Y0093618D03*
X0115272Y0089287D03*
X0110941Y0089287D03*
X0106610Y0089287D03*
X0102280Y0089287D03*
X0097949Y0089287D03*
X0093618Y0089287D03*
X0089287Y0089287D03*
X0084563Y0089681D03*
X0075114Y0090075D03*
X0066453Y0090075D03*
X0066453Y0095587D03*
X0066453Y0101886D03*
X0066453Y0108579D03*
X0066453Y0115665D03*
X0066453Y0122752D03*
X0066453Y0129445D03*
X0075114Y0131020D03*
X0084563Y0131413D03*
X0089287Y0131413D03*
X0093618Y0131413D03*
X0097161Y0129445D03*
X0091256Y0120783D03*
X0078657Y0117634D03*
X0084957Y0103067D03*
X0099917Y0093224D03*
X0115272Y0101492D03*
X0119996Y0101886D03*
X0119996Y0097161D03*
X0114091Y0109760D03*
X0110941Y0113303D03*
X0102673Y0109366D03*
X0104642Y0119996D03*
X0119996Y0119209D03*
X0119996Y0115094D03*
X0119996Y0111344D03*
X0137309Y0122358D03*
X0137713Y0126295D03*
X0137605Y0130045D03*
X0129445Y0140469D03*
X0114878Y0131413D03*
X0110154Y0131020D03*
X0119602Y0127083D03*
X0144799Y0109366D03*
X0138894Y0103067D03*
X0134563Y0095980D03*
X0138097Y0089681D03*
X0146768Y0094406D03*
X0154445Y0096965D03*
X0161138Y0101689D03*
X0154445Y0109169D03*
X0160950Y0113303D03*
X0154248Y0121571D03*
X0151098Y0125902D03*
X0157791Y0132594D03*
X0150311Y0140469D03*
X0156610Y0142437D03*
X0167240Y0142043D03*
X0160950Y0122358D03*
X0171177Y0119209D03*
X0171571Y0095587D03*
X0161335Y0091650D03*
X0171571Y0082201D03*
X0146768Y0077083D03*
X0152280Y0064878D03*
X0147161Y0057398D03*
X0151886Y0049524D03*
X0151886Y0045193D03*
X0151886Y0040075D03*
X0151886Y0035350D03*
X0147161Y0035744D03*
X0149524Y0030232D03*
X0158972Y0030232D03*
X0169602Y0031020D03*
X0139287Y0043224D03*
X0135744Y0045193D03*
X0135744Y0050311D03*
X0135744Y0040075D03*
X0123146Y0038894D03*
X0122752Y0030626D03*
X0136531Y0030232D03*
X0112122Y0043224D03*
X0106610Y0051492D03*
X0089681Y0051492D03*
X0073539Y0051886D03*
X0068028Y0040075D03*
X0060941Y0030626D03*
X0053854Y0038500D03*
X0079051Y0030232D03*
X0089681Y0034169D03*
X0104642Y0030626D03*
X0066059Y0067240D03*
X0066059Y0077476D03*
X0077476Y0077870D03*
X0089287Y0068815D03*
X0093224Y0077870D03*
X0160547Y0054248D03*
X0163303Y0057398D03*
D13*
X0160547Y0054248D02*
X0145350Y0054248D01*
X0115272Y0084326D01*
X0115272Y0089287D01*
X0110941Y0089287D02*
X0110941Y0086138D01*
X0151886Y0045193D01*
X0151886Y0040075D02*
X0141650Y0050311D01*
X0141650Y0051886D01*
X0106610Y0086925D01*
X0106610Y0089287D01*
X0102280Y0089287D02*
X0102280Y0087686D01*
X0138509Y0051456D01*
X0138509Y0048727D01*
X0151886Y0035350D01*
X0135744Y0040075D02*
X0089287Y0086531D01*
X0089287Y0089287D01*
X0093618Y0089287D02*
X0093618Y0087319D01*
X0135744Y0045193D01*
X0135744Y0050311D02*
X0097949Y0088106D01*
X0097949Y0089287D01*
X0112122Y0104642D02*
X0089287Y0127476D01*
X0089287Y0131413D01*
X0093618Y0131413D02*
X0093618Y0125902D01*
X0112909Y0106610D01*
X0130626Y0106610D01*
X0165941Y0071295D01*
X0165941Y0066728D01*
X0160941Y0066728D02*
X0160941Y0073539D01*
X0129829Y0104651D01*
X0118851Y0104651D01*
X0118841Y0104642D01*
X0112122Y0104642D01*
X0115272Y0108579D02*
X0144012Y0108579D01*
X0144799Y0109366D01*
X0145954Y0112122D02*
X0159769Y0112122D01*
X0160950Y0113303D01*
X0153686Y0115094D02*
X0160950Y0122358D01*
X0153686Y0115094D02*
X0119996Y0115094D01*
X0120783Y0112131D02*
X0119996Y0111344D01*
X0120783Y0112131D02*
X0145945Y0112131D01*
X0145954Y0112122D01*
X0136925Y0126295D02*
X0129839Y0119209D01*
X0119996Y0119209D01*
X0114091Y0109760D02*
X0115272Y0108579D01*
X0119996Y0101886D02*
X0121943Y0101886D01*
X0140850Y0082979D01*
X0143615Y0084124D02*
X0140872Y0086868D01*
X0140872Y0086906D01*
X0138097Y0089681D01*
X0143615Y0084124D02*
X0143615Y0073921D01*
X0138894Y0069199D01*
X0134357Y0069199D02*
X0134357Y0075320D01*
X0128547Y0081130D01*
X0128156Y0075949D02*
X0119602Y0084503D01*
X0119602Y0089081D01*
X0119996Y0092831D02*
X0121669Y0092831D01*
X0138017Y0076483D01*
X0138106Y0080420D02*
X0121365Y0097161D01*
X0119996Y0097161D01*
X0136925Y0126295D02*
X0137713Y0126295D01*
X0137605Y0130045D02*
X0116246Y0130045D01*
X0114878Y0131413D01*
D14*
X0112464Y0130273D02*
X0096032Y0130273D01*
X0095879Y0129903D02*
X0096285Y0130883D01*
X0096285Y0131944D01*
X0095879Y0132924D01*
X0095129Y0133674D01*
X0094149Y0134080D01*
X0093088Y0134080D01*
X0092107Y0133674D01*
X0091453Y0133020D01*
X0090798Y0133674D01*
X0089818Y0134080D01*
X0088757Y0134080D01*
X0087777Y0133674D01*
X0087026Y0132924D01*
X0086620Y0131944D01*
X0086620Y0130883D01*
X0087026Y0129903D01*
X0087605Y0129324D01*
X0087605Y0126779D01*
X0088590Y0125794D01*
X0088590Y0125794D01*
X0110439Y0103945D01*
X0110439Y0103945D01*
X0111425Y0102959D01*
X0117554Y0102959D01*
X0117329Y0102416D01*
X0117329Y0101355D01*
X0117735Y0100375D01*
X0118485Y0099625D01*
X0118730Y0099524D01*
X0118485Y0099422D01*
X0117735Y0098672D01*
X0117329Y0097692D01*
X0117329Y0096631D01*
X0117735Y0095651D01*
X0118390Y0094996D01*
X0117735Y0094341D01*
X0117329Y0093361D01*
X0117329Y0092300D01*
X0117735Y0091320D01*
X0117902Y0091153D01*
X0117537Y0090787D01*
X0117533Y0090798D01*
X0116782Y0091548D01*
X0115802Y0091954D01*
X0114741Y0091954D01*
X0113761Y0091548D01*
X0113106Y0090894D01*
X0112452Y0091548D01*
X0111471Y0091954D01*
X0110410Y0091954D01*
X0109430Y0091548D01*
X0108776Y0090894D01*
X0108121Y0091548D01*
X0107141Y0091954D01*
X0106080Y0091954D01*
X0105100Y0091548D01*
X0104445Y0090894D01*
X0103790Y0091548D01*
X0102810Y0091954D01*
X0101749Y0091954D01*
X0100769Y0091548D01*
X0100114Y0090894D01*
X0099460Y0091548D01*
X0098479Y0091954D01*
X0097418Y0091954D01*
X0096438Y0091548D01*
X0095783Y0090894D01*
X0095129Y0091548D01*
X0094149Y0091954D01*
X0093088Y0091954D01*
X0092107Y0091548D01*
X0091453Y0090894D01*
X0090798Y0091548D01*
X0089818Y0091954D01*
X0088757Y0091954D01*
X0087777Y0091548D01*
X0087026Y0090798D01*
X0086620Y0089818D01*
X0086620Y0088757D01*
X0087026Y0087777D01*
X0087605Y0087198D01*
X0087605Y0085834D01*
X0088590Y0084849D01*
X0133077Y0040362D01*
X0133077Y0039544D01*
X0133483Y0038564D01*
X0134233Y0037814D01*
X0135214Y0037408D01*
X0136275Y0037408D01*
X0137255Y0037814D01*
X0138005Y0038564D01*
X0138411Y0039544D01*
X0138411Y0040605D01*
X0138005Y0041585D01*
X0137255Y0042336D01*
X0136535Y0042634D01*
X0137255Y0042932D01*
X0138005Y0043682D01*
X0138411Y0044662D01*
X0138411Y0045723D01*
X0138005Y0046704D01*
X0137255Y0047454D01*
X0136535Y0047752D01*
X0136938Y0047919D01*
X0137812Y0047044D01*
X0149219Y0035638D01*
X0149219Y0034820D01*
X0149625Y0033840D01*
X0150375Y0033089D01*
X0151355Y0032683D01*
X0152416Y0032683D01*
X0153397Y0033089D01*
X0154147Y0033840D01*
X0154553Y0034820D01*
X0154553Y0035881D01*
X0154147Y0036861D01*
X0153397Y0037611D01*
X0153152Y0037713D01*
X0153397Y0037814D01*
X0154147Y0038564D01*
X0154553Y0039544D01*
X0154553Y0040605D01*
X0154147Y0041585D01*
X0153397Y0042336D01*
X0152677Y0042634D01*
X0153397Y0042932D01*
X0154147Y0043682D01*
X0154553Y0044662D01*
X0154553Y0045723D01*
X0154147Y0046704D01*
X0153397Y0047454D01*
X0152416Y0047860D01*
X0151599Y0047860D01*
X0146893Y0052565D01*
X0158458Y0052565D01*
X0159037Y0051987D01*
X0160017Y0051581D01*
X0161078Y0051581D01*
X0162058Y0051987D01*
X0162808Y0052737D01*
X0163214Y0053718D01*
X0163214Y0054779D01*
X0162808Y0055759D01*
X0162058Y0056509D01*
X0161078Y0056915D01*
X0160017Y0056915D01*
X0159037Y0056509D01*
X0158458Y0055931D01*
X0146047Y0055931D01*
X0135282Y0066696D01*
X0135867Y0066938D01*
X0136618Y0067689D01*
X0136625Y0067707D01*
X0136633Y0067689D01*
X0137383Y0066938D01*
X0138363Y0066532D01*
X0139424Y0066532D01*
X0140404Y0066938D01*
X0141155Y0067689D01*
X0141561Y0068669D01*
X0141561Y0069486D01*
X0145298Y0073224D01*
X0145298Y0084821D01*
X0144312Y0085807D01*
X0142554Y0087565D01*
X0142554Y0087603D01*
X0141569Y0088589D01*
X0141569Y0088589D01*
X0140764Y0089394D01*
X0140764Y0090212D01*
X0140358Y0091192D01*
X0139608Y0091942D01*
X0138627Y0092348D01*
X0137566Y0092348D01*
X0136586Y0091942D01*
X0135836Y0091192D01*
X0135596Y0090612D01*
X0123626Y0102583D01*
X0123240Y0102969D01*
X0129132Y0102969D01*
X0159258Y0072842D01*
X0159258Y0069378D01*
X0159189Y0069350D01*
X0158320Y0068480D01*
X0157849Y0067343D01*
X0157849Y0066113D01*
X0158320Y0064977D01*
X0159068Y0064228D01*
X0158320Y0063480D01*
X0157849Y0062343D01*
X0157849Y0061113D01*
X0158320Y0059977D01*
X0159189Y0059107D01*
X0160326Y0058636D01*
X0161556Y0058636D01*
X0162692Y0059107D01*
X0163441Y0059855D01*
X0164189Y0059107D01*
X0165326Y0058636D01*
X0166556Y0058636D01*
X0167692Y0059107D01*
X0168172Y0059587D01*
X0168228Y0059502D01*
X0168715Y0059016D01*
X0169287Y0058634D01*
X0169922Y0058370D01*
X0170597Y0058236D01*
X0170933Y0058236D01*
X0170933Y0061720D01*
X0170949Y0061720D01*
X0170949Y0058236D01*
X0171285Y0058236D01*
X0171960Y0058370D01*
X0172595Y0058634D01*
X0173167Y0059016D01*
X0173228Y0059077D01*
X0173228Y0047808D01*
X0172614Y0048063D01*
X0171315Y0048063D01*
X0170116Y0047566D01*
X0169198Y0046648D01*
X0168701Y0045448D01*
X0168701Y0044150D01*
X0169198Y0042950D01*
X0170116Y0042032D01*
X0171315Y0041535D01*
X0172614Y0041535D01*
X0173228Y0041790D01*
X0173228Y0034957D01*
X0173150Y0033958D01*
X0172533Y0032059D01*
X0171359Y0030444D01*
X0169744Y0029270D01*
X0167845Y0028653D01*
X0166846Y0028575D01*
X0058579Y0028575D01*
X0057580Y0028653D01*
X0055681Y0029270D01*
X0054066Y0030444D01*
X0052892Y0032059D01*
X0052275Y0033958D01*
X0052197Y0034957D01*
X0052197Y0040370D01*
X0064688Y0040370D01*
X0064976Y0040658D01*
X0064976Y0143701D01*
X0166846Y0143701D01*
X0167845Y0143622D01*
X0169744Y0143005D01*
X0171359Y0141832D01*
X0172533Y0140216D01*
X0173150Y0138317D01*
X0173228Y0137319D01*
X0173228Y0132454D01*
X0172614Y0132709D01*
X0171315Y0132709D01*
X0170116Y0132212D01*
X0169198Y0131294D01*
X0168701Y0130094D01*
X0168701Y0128796D01*
X0169198Y0127596D01*
X0170116Y0126678D01*
X0171315Y0126181D01*
X0172614Y0126181D01*
X0173228Y0126436D01*
X0173228Y0111588D01*
X0172614Y0111843D01*
X0171315Y0111843D01*
X0170116Y0111346D01*
X0169198Y0110428D01*
X0168701Y0109228D01*
X0168701Y0107930D01*
X0169198Y0106730D01*
X0170116Y0105812D01*
X0171315Y0105315D01*
X0172614Y0105315D01*
X0173228Y0105570D01*
X0173228Y0068814D01*
X0172692Y0069350D01*
X0171556Y0069820D01*
X0170326Y0069820D01*
X0169189Y0069350D01*
X0168441Y0068601D01*
X0167692Y0069350D01*
X0167624Y0069378D01*
X0167624Y0071992D01*
X0132720Y0106896D01*
X0143793Y0106896D01*
X0144269Y0106699D01*
X0145330Y0106699D01*
X0146310Y0107105D01*
X0147060Y0107855D01*
X0147466Y0108836D01*
X0147466Y0109897D01*
X0147241Y0110439D01*
X0160466Y0110439D01*
X0160663Y0110636D01*
X0161481Y0110636D01*
X0162461Y0111042D01*
X0163211Y0111792D01*
X0163617Y0112773D01*
X0163617Y0113834D01*
X0163211Y0114814D01*
X0162461Y0115564D01*
X0161481Y0115970D01*
X0160420Y0115970D01*
X0159440Y0115564D01*
X0158689Y0114814D01*
X0158283Y0113834D01*
X0158283Y0113805D01*
X0154776Y0113805D01*
X0160663Y0119691D01*
X0161481Y0119691D01*
X0162461Y0120097D01*
X0163211Y0120848D01*
X0163617Y0121828D01*
X0163617Y0122889D01*
X0163211Y0123869D01*
X0162461Y0124619D01*
X0161481Y0125025D01*
X0160420Y0125025D01*
X0159440Y0124619D01*
X0158689Y0123869D01*
X0158283Y0122889D01*
X0158283Y0122071D01*
X0156676Y0120464D01*
X0156915Y0121040D01*
X0156915Y0122101D01*
X0156509Y0123082D01*
X0155759Y0123832D01*
X0154779Y0124238D01*
X0153718Y0124238D01*
X0152737Y0123832D01*
X0152553Y0123647D01*
X0139662Y0123647D01*
X0139570Y0123869D01*
X0139314Y0124125D01*
X0139973Y0124785D01*
X0140380Y0125765D01*
X0140380Y0126826D01*
X0139973Y0127806D01*
X0139555Y0128224D01*
X0139866Y0128534D01*
X0140272Y0129514D01*
X0140272Y0130575D01*
X0139866Y0131556D01*
X0139115Y0132306D01*
X0138135Y0132712D01*
X0137074Y0132712D01*
X0136094Y0132306D01*
X0135516Y0131728D01*
X0117545Y0131728D01*
X0117545Y0131944D01*
X0117139Y0132924D01*
X0116389Y0133674D01*
X0115408Y0134080D01*
X0114347Y0134080D01*
X0113367Y0133674D01*
X0112617Y0132924D01*
X0112211Y0131944D01*
X0112211Y0130883D01*
X0112617Y0129903D01*
X0113367Y0129152D01*
X0114347Y0128746D01*
X0115165Y0128746D01*
X0115549Y0128362D01*
X0135516Y0128362D01*
X0135762Y0128116D01*
X0135452Y0127806D01*
X0135046Y0126826D01*
X0135046Y0126795D01*
X0129142Y0120891D01*
X0122085Y0120891D01*
X0121507Y0121470D01*
X0120527Y0121876D01*
X0119466Y0121876D01*
X0118485Y0121470D01*
X0117735Y0120719D01*
X0117329Y0119739D01*
X0117329Y0118678D01*
X0117735Y0117698D01*
X0118282Y0117151D01*
X0117735Y0116604D01*
X0117329Y0115624D01*
X0117329Y0114563D01*
X0117735Y0113583D01*
X0118099Y0113219D01*
X0117735Y0112855D01*
X0117329Y0111875D01*
X0117329Y0110814D01*
X0117558Y0110261D01*
X0116757Y0110261D01*
X0116757Y0110290D01*
X0116351Y0111271D01*
X0115601Y0112021D01*
X0114621Y0112427D01*
X0113560Y0112427D01*
X0112580Y0112021D01*
X0111830Y0111271D01*
X0111478Y0110421D01*
X0095301Y0126599D01*
X0095301Y0129324D01*
X0095879Y0129903D01*
X0095301Y0129290D02*
X0113230Y0129290D01*
X0112211Y0131256D02*
X0096285Y0131256D01*
X0096163Y0132238D02*
X0112333Y0132238D01*
X0112914Y0133221D02*
X0095582Y0133221D01*
X0091654Y0133221D02*
X0091251Y0133221D01*
X0087324Y0133221D02*
X0064976Y0133221D01*
X0064976Y0132238D02*
X0086742Y0132238D01*
X0086620Y0131256D02*
X0064976Y0131256D01*
X0064976Y0130273D02*
X0086873Y0130273D01*
X0087605Y0129290D02*
X0064976Y0129290D01*
X0064976Y0128307D02*
X0087605Y0128307D01*
X0087605Y0127325D02*
X0064976Y0127325D01*
X0064976Y0126342D02*
X0088042Y0126342D01*
X0089025Y0125359D02*
X0064976Y0125359D01*
X0064976Y0124376D02*
X0090008Y0124376D01*
X0090991Y0123393D02*
X0064976Y0123393D01*
X0064976Y0122411D02*
X0091973Y0122411D01*
X0092956Y0121428D02*
X0064976Y0121428D01*
X0064976Y0120445D02*
X0093939Y0120445D01*
X0094922Y0119462D02*
X0064976Y0119462D01*
X0064976Y0118480D02*
X0095904Y0118480D01*
X0096887Y0117497D02*
X0064976Y0117497D01*
X0064976Y0116514D02*
X0097870Y0116514D01*
X0098853Y0115531D02*
X0064976Y0115531D01*
X0064976Y0114549D02*
X0099836Y0114549D01*
X0100818Y0113566D02*
X0064976Y0113566D01*
X0064976Y0112583D02*
X0101801Y0112583D01*
X0102784Y0111600D02*
X0064976Y0111600D01*
X0064976Y0110618D02*
X0103767Y0110618D01*
X0104749Y0109635D02*
X0064976Y0109635D01*
X0064976Y0108652D02*
X0105732Y0108652D01*
X0106715Y0107669D02*
X0064976Y0107669D01*
X0064976Y0106687D02*
X0107698Y0106687D01*
X0108680Y0105704D02*
X0064976Y0105704D01*
X0064976Y0104721D02*
X0109663Y0104721D01*
X0110646Y0103738D02*
X0064976Y0103738D01*
X0064976Y0102755D02*
X0117470Y0102755D01*
X0117329Y0101773D02*
X0064976Y0101773D01*
X0064976Y0100790D02*
X0117563Y0100790D01*
X0118303Y0099807D02*
X0064976Y0099807D01*
X0064976Y0098824D02*
X0117887Y0098824D01*
X0117391Y0097842D02*
X0064976Y0097842D01*
X0064976Y0096859D02*
X0117329Y0096859D01*
X0117642Y0095876D02*
X0064976Y0095876D01*
X0064976Y0094893D02*
X0118287Y0094893D01*
X0117557Y0093911D02*
X0064976Y0093911D01*
X0064976Y0092928D02*
X0117329Y0092928D01*
X0117476Y0091945D02*
X0115825Y0091945D01*
X0114719Y0091945D02*
X0111494Y0091945D01*
X0110388Y0091945D02*
X0107163Y0091945D01*
X0106057Y0091945D02*
X0102832Y0091945D01*
X0101727Y0091945D02*
X0098502Y0091945D01*
X0097396Y0091945D02*
X0094171Y0091945D01*
X0093065Y0091945D02*
X0089840Y0091945D01*
X0088735Y0091945D02*
X0064976Y0091945D01*
X0064976Y0090962D02*
X0087191Y0090962D01*
X0086687Y0089980D02*
X0064976Y0089980D01*
X0064976Y0088997D02*
X0086620Y0088997D01*
X0086928Y0088014D02*
X0064976Y0088014D01*
X0064976Y0087031D02*
X0087605Y0087031D01*
X0087605Y0086048D02*
X0064976Y0086048D01*
X0064976Y0085066D02*
X0088374Y0085066D01*
X0089356Y0084083D02*
X0064976Y0084083D01*
X0064976Y0083100D02*
X0090339Y0083100D01*
X0091322Y0082117D02*
X0064976Y0082117D01*
X0064976Y0081135D02*
X0092305Y0081135D01*
X0093287Y0080152D02*
X0064976Y0080152D01*
X0064976Y0079169D02*
X0094270Y0079169D01*
X0095253Y0078186D02*
X0064976Y0078186D01*
X0064976Y0077204D02*
X0096236Y0077204D01*
X0097218Y0076221D02*
X0064976Y0076221D01*
X0064976Y0075238D02*
X0098201Y0075238D01*
X0099184Y0074255D02*
X0064976Y0074255D01*
X0064976Y0073273D02*
X0100167Y0073273D01*
X0101149Y0072290D02*
X0064976Y0072290D01*
X0064976Y0071307D02*
X0102132Y0071307D01*
X0103115Y0070324D02*
X0064976Y0070324D01*
X0064976Y0069341D02*
X0104098Y0069341D01*
X0105080Y0068359D02*
X0064976Y0068359D01*
X0064976Y0067376D02*
X0106063Y0067376D01*
X0107046Y0066393D02*
X0064976Y0066393D01*
X0064976Y0065410D02*
X0108029Y0065410D01*
X0109012Y0064428D02*
X0064976Y0064428D01*
X0064976Y0063445D02*
X0109994Y0063445D01*
X0110977Y0062462D02*
X0064976Y0062462D01*
X0064976Y0061479D02*
X0111960Y0061479D01*
X0112943Y0060497D02*
X0064976Y0060497D01*
X0064976Y0059514D02*
X0113925Y0059514D01*
X0114908Y0058531D02*
X0064976Y0058531D01*
X0064976Y0057548D02*
X0115891Y0057548D01*
X0116874Y0056566D02*
X0064976Y0056566D01*
X0064976Y0055583D02*
X0117856Y0055583D01*
X0118839Y0054600D02*
X0064976Y0054600D01*
X0064976Y0053617D02*
X0119822Y0053617D01*
X0120805Y0052635D02*
X0064976Y0052635D01*
X0064976Y0051652D02*
X0121787Y0051652D01*
X0122770Y0050669D02*
X0064976Y0050669D01*
X0064976Y0049686D02*
X0123753Y0049686D01*
X0124736Y0048703D02*
X0064976Y0048703D01*
X0064976Y0047721D02*
X0125719Y0047721D01*
X0126701Y0046738D02*
X0064976Y0046738D01*
X0064976Y0045755D02*
X0127684Y0045755D01*
X0128667Y0044772D02*
X0064976Y0044772D01*
X0064976Y0043790D02*
X0129650Y0043790D01*
X0130632Y0042807D02*
X0064976Y0042807D01*
X0064976Y0041824D02*
X0131615Y0041824D01*
X0132598Y0040841D02*
X0064976Y0040841D01*
X0052594Y0032979D02*
X0150641Y0032979D01*
X0149574Y0033962D02*
X0052275Y0033962D01*
X0052198Y0034945D02*
X0149219Y0034945D01*
X0148929Y0035928D02*
X0052197Y0035928D01*
X0052197Y0036910D02*
X0147946Y0036910D01*
X0146963Y0037893D02*
X0137334Y0037893D01*
X0138134Y0038876D02*
X0145981Y0038876D01*
X0144998Y0039859D02*
X0138411Y0039859D01*
X0138313Y0040841D02*
X0144015Y0040841D01*
X0143032Y0041824D02*
X0137766Y0041824D01*
X0136953Y0042807D02*
X0142050Y0042807D01*
X0141067Y0043790D02*
X0138049Y0043790D01*
X0138411Y0044772D02*
X0140084Y0044772D01*
X0139101Y0045755D02*
X0138398Y0045755D01*
X0138119Y0046738D02*
X0137971Y0046738D01*
X0137136Y0047721D02*
X0136610Y0047721D01*
X0133077Y0039859D02*
X0052197Y0039859D01*
X0052197Y0038876D02*
X0133354Y0038876D01*
X0134154Y0037893D02*
X0052197Y0037893D01*
X0052938Y0031996D02*
X0172487Y0031996D01*
X0172832Y0032979D02*
X0153130Y0032979D01*
X0154197Y0033962D02*
X0173150Y0033962D01*
X0173227Y0034945D02*
X0154553Y0034945D01*
X0154533Y0035928D02*
X0173228Y0035928D01*
X0173228Y0036910D02*
X0154098Y0036910D01*
X0153476Y0037893D02*
X0173228Y0037893D01*
X0173228Y0038876D02*
X0154276Y0038876D01*
X0154553Y0039859D02*
X0173228Y0039859D01*
X0173228Y0040841D02*
X0154455Y0040841D01*
X0153908Y0041824D02*
X0163532Y0041824D01*
X0163029Y0042032D02*
X0164229Y0041535D01*
X0165527Y0041535D01*
X0166727Y0042032D01*
X0167645Y0042950D01*
X0168142Y0044150D01*
X0168142Y0045448D01*
X0167645Y0046648D01*
X0166727Y0047566D01*
X0165527Y0048063D01*
X0164229Y0048063D01*
X0163029Y0047566D01*
X0162111Y0046648D01*
X0161614Y0045448D01*
X0161614Y0044150D01*
X0162111Y0042950D01*
X0163029Y0042032D01*
X0162255Y0042807D02*
X0153094Y0042807D01*
X0154191Y0043790D02*
X0161763Y0043790D01*
X0161614Y0044772D02*
X0154553Y0044772D01*
X0154540Y0045755D02*
X0161741Y0045755D01*
X0162201Y0046738D02*
X0154112Y0046738D01*
X0152752Y0047721D02*
X0163402Y0047721D01*
X0166353Y0047721D02*
X0170489Y0047721D01*
X0169288Y0046738D02*
X0167555Y0046738D01*
X0168015Y0045755D02*
X0168828Y0045755D01*
X0168701Y0044772D02*
X0168142Y0044772D01*
X0167992Y0043790D02*
X0168850Y0043790D01*
X0169341Y0042807D02*
X0167501Y0042807D01*
X0166224Y0041824D02*
X0170618Y0041824D01*
X0173228Y0048703D02*
X0150755Y0048703D01*
X0149772Y0049686D02*
X0173228Y0049686D01*
X0173228Y0050669D02*
X0148789Y0050669D01*
X0147807Y0051652D02*
X0159846Y0051652D01*
X0161248Y0051652D02*
X0173228Y0051652D01*
X0173228Y0052635D02*
X0162705Y0052635D01*
X0163173Y0053617D02*
X0173228Y0053617D01*
X0173228Y0054600D02*
X0163214Y0054600D01*
X0162881Y0055583D02*
X0173228Y0055583D01*
X0173228Y0056566D02*
X0161921Y0056566D01*
X0159173Y0056566D02*
X0145412Y0056566D01*
X0144429Y0057548D02*
X0173228Y0057548D01*
X0173228Y0058531D02*
X0172347Y0058531D01*
X0170949Y0058531D02*
X0170933Y0058531D01*
X0170933Y0059514D02*
X0170949Y0059514D01*
X0170933Y0060497D02*
X0170949Y0060497D01*
X0170933Y0061479D02*
X0170949Y0061479D01*
X0169534Y0058531D02*
X0143446Y0058531D01*
X0142463Y0059514D02*
X0158782Y0059514D01*
X0158104Y0060497D02*
X0141481Y0060497D01*
X0140498Y0061479D02*
X0157849Y0061479D01*
X0157898Y0062462D02*
X0139515Y0062462D01*
X0138532Y0063445D02*
X0158305Y0063445D01*
X0158869Y0064428D02*
X0137550Y0064428D01*
X0136567Y0065410D02*
X0158140Y0065410D01*
X0157849Y0066393D02*
X0135584Y0066393D01*
X0136305Y0067376D02*
X0136945Y0067376D01*
X0140842Y0067376D02*
X0157862Y0067376D01*
X0158269Y0068359D02*
X0141432Y0068359D01*
X0141561Y0069341D02*
X0159181Y0069341D01*
X0159258Y0070324D02*
X0142398Y0070324D01*
X0143381Y0071307D02*
X0159258Y0071307D01*
X0159258Y0072290D02*
X0144364Y0072290D01*
X0145298Y0073273D02*
X0158828Y0073273D01*
X0157845Y0074255D02*
X0145298Y0074255D01*
X0145298Y0075238D02*
X0156863Y0075238D01*
X0155880Y0076221D02*
X0145298Y0076221D01*
X0145298Y0077204D02*
X0154897Y0077204D01*
X0153914Y0078186D02*
X0145298Y0078186D01*
X0145298Y0079169D02*
X0152932Y0079169D01*
X0151949Y0080152D02*
X0145298Y0080152D01*
X0145298Y0081135D02*
X0150966Y0081135D01*
X0149983Y0082117D02*
X0145298Y0082117D01*
X0145298Y0083100D02*
X0149000Y0083100D01*
X0148018Y0084083D02*
X0145298Y0084083D01*
X0145053Y0085066D02*
X0147035Y0085066D01*
X0146052Y0086048D02*
X0144071Y0086048D01*
X0143088Y0087031D02*
X0145069Y0087031D01*
X0144087Y0088014D02*
X0142144Y0088014D01*
X0143104Y0088997D02*
X0141161Y0088997D01*
X0140764Y0089980D02*
X0142121Y0089980D01*
X0141138Y0090962D02*
X0140453Y0090962D01*
X0140156Y0091945D02*
X0139600Y0091945D01*
X0139173Y0092928D02*
X0133281Y0092928D01*
X0134263Y0091945D02*
X0136594Y0091945D01*
X0135741Y0090962D02*
X0135246Y0090962D01*
X0138190Y0093911D02*
X0132298Y0093911D01*
X0131315Y0094893D02*
X0137207Y0094893D01*
X0136225Y0095876D02*
X0130332Y0095876D01*
X0129350Y0096859D02*
X0135242Y0096859D01*
X0134259Y0097842D02*
X0128367Y0097842D01*
X0127384Y0098824D02*
X0133276Y0098824D01*
X0132293Y0099807D02*
X0126401Y0099807D01*
X0125418Y0100790D02*
X0131311Y0100790D01*
X0130328Y0101773D02*
X0124436Y0101773D01*
X0123453Y0102755D02*
X0129345Y0102755D01*
X0132929Y0106687D02*
X0162155Y0106687D01*
X0162111Y0106730D02*
X0163029Y0105812D01*
X0164229Y0105315D01*
X0165527Y0105315D01*
X0166727Y0105812D01*
X0167645Y0106730D01*
X0168142Y0107930D01*
X0168142Y0109228D01*
X0167645Y0110428D01*
X0166727Y0111346D01*
X0165527Y0111843D01*
X0164229Y0111843D01*
X0163029Y0111346D01*
X0162111Y0110428D01*
X0161614Y0109228D01*
X0161614Y0107930D01*
X0162111Y0106730D01*
X0161722Y0107669D02*
X0146874Y0107669D01*
X0147390Y0108652D02*
X0161614Y0108652D01*
X0161783Y0109635D02*
X0147466Y0109635D01*
X0155520Y0114549D02*
X0158580Y0114549D01*
X0159407Y0115531D02*
X0156503Y0115531D01*
X0157486Y0116514D02*
X0173228Y0116514D01*
X0173228Y0115531D02*
X0162494Y0115531D01*
X0163321Y0114549D02*
X0173228Y0114549D01*
X0173228Y0113566D02*
X0163617Y0113566D01*
X0163539Y0112583D02*
X0173228Y0112583D01*
X0173198Y0111600D02*
X0173228Y0111600D01*
X0170731Y0111600D02*
X0166112Y0111600D01*
X0167455Y0110618D02*
X0169388Y0110618D01*
X0168869Y0109635D02*
X0167973Y0109635D01*
X0168142Y0108652D02*
X0168701Y0108652D01*
X0168809Y0107669D02*
X0168034Y0107669D01*
X0167601Y0106687D02*
X0169241Y0106687D01*
X0170377Y0105704D02*
X0166466Y0105704D01*
X0163290Y0105704D02*
X0133912Y0105704D01*
X0134895Y0104721D02*
X0173228Y0104721D01*
X0173228Y0103738D02*
X0135878Y0103738D01*
X0136860Y0102755D02*
X0173228Y0102755D01*
X0173228Y0101773D02*
X0137843Y0101773D01*
X0138826Y0100790D02*
X0173228Y0100790D01*
X0173228Y0099807D02*
X0139809Y0099807D01*
X0140791Y0098824D02*
X0173228Y0098824D01*
X0173228Y0097842D02*
X0141774Y0097842D01*
X0142757Y0096859D02*
X0173228Y0096859D01*
X0173228Y0095876D02*
X0143740Y0095876D01*
X0144723Y0094893D02*
X0173228Y0094893D01*
X0173228Y0093911D02*
X0145705Y0093911D01*
X0146688Y0092928D02*
X0173228Y0092928D01*
X0173228Y0091945D02*
X0147671Y0091945D01*
X0148654Y0090962D02*
X0173228Y0090962D01*
X0173228Y0089980D02*
X0149636Y0089980D01*
X0150619Y0088997D02*
X0173228Y0088997D01*
X0173228Y0088014D02*
X0151602Y0088014D01*
X0152585Y0087031D02*
X0173228Y0087031D01*
X0173228Y0086048D02*
X0153567Y0086048D01*
X0154550Y0085066D02*
X0173228Y0085066D01*
X0173228Y0084083D02*
X0155533Y0084083D01*
X0156516Y0083100D02*
X0173228Y0083100D01*
X0173228Y0082117D02*
X0157498Y0082117D01*
X0158481Y0081135D02*
X0173228Y0081135D01*
X0173228Y0080152D02*
X0159464Y0080152D01*
X0160447Y0079169D02*
X0173228Y0079169D01*
X0173228Y0078186D02*
X0161430Y0078186D01*
X0162412Y0077204D02*
X0173228Y0077204D01*
X0173228Y0076221D02*
X0163395Y0076221D01*
X0164378Y0075238D02*
X0173228Y0075238D01*
X0173228Y0074255D02*
X0165361Y0074255D01*
X0166343Y0073273D02*
X0173228Y0073273D01*
X0173228Y0072290D02*
X0167326Y0072290D01*
X0167624Y0071307D02*
X0173228Y0071307D01*
X0173228Y0070324D02*
X0167624Y0070324D01*
X0167701Y0069341D02*
X0169181Y0069341D01*
X0172701Y0069341D02*
X0173228Y0069341D01*
X0168221Y0059514D02*
X0168099Y0059514D01*
X0163782Y0059514D02*
X0163099Y0059514D01*
X0171773Y0031014D02*
X0053652Y0031014D01*
X0054635Y0030031D02*
X0170791Y0030031D01*
X0169060Y0029048D02*
X0056365Y0029048D01*
X0091384Y0090962D02*
X0091521Y0090962D01*
X0095715Y0090962D02*
X0095852Y0090962D01*
X0100046Y0090962D02*
X0100183Y0090962D01*
X0104376Y0090962D02*
X0104514Y0090962D01*
X0108707Y0090962D02*
X0108844Y0090962D01*
X0113038Y0090962D02*
X0113175Y0090962D01*
X0117368Y0090962D02*
X0117712Y0090962D01*
X0117410Y0110618D02*
X0116622Y0110618D01*
X0116022Y0111600D02*
X0117329Y0111600D01*
X0117623Y0112583D02*
X0109316Y0112583D01*
X0108333Y0113566D02*
X0117752Y0113566D01*
X0117335Y0114549D02*
X0107351Y0114549D01*
X0106368Y0115531D02*
X0117329Y0115531D01*
X0117698Y0116514D02*
X0105385Y0116514D01*
X0104402Y0117497D02*
X0117936Y0117497D01*
X0117411Y0118480D02*
X0103420Y0118480D01*
X0102437Y0119462D02*
X0117329Y0119462D01*
X0117622Y0120445D02*
X0101454Y0120445D01*
X0100471Y0121428D02*
X0118444Y0121428D01*
X0121548Y0121428D02*
X0129678Y0121428D01*
X0130661Y0122411D02*
X0099489Y0122411D01*
X0098506Y0123393D02*
X0131644Y0123393D01*
X0132627Y0124376D02*
X0097523Y0124376D01*
X0096540Y0125359D02*
X0133609Y0125359D01*
X0134592Y0126342D02*
X0095558Y0126342D01*
X0095301Y0127325D02*
X0135252Y0127325D01*
X0135571Y0128307D02*
X0095301Y0128307D01*
X0116842Y0133221D02*
X0173228Y0133221D01*
X0173228Y0134204D02*
X0064976Y0134204D01*
X0064976Y0135187D02*
X0173228Y0135187D01*
X0173228Y0136169D02*
X0064976Y0136169D01*
X0064976Y0137152D02*
X0173228Y0137152D01*
X0173164Y0138135D02*
X0064976Y0138135D01*
X0064976Y0139118D02*
X0172890Y0139118D01*
X0172570Y0140100D02*
X0064976Y0140100D01*
X0064976Y0141083D02*
X0171903Y0141083D01*
X0171036Y0142066D02*
X0064976Y0142066D01*
X0064976Y0143049D02*
X0169610Y0143049D01*
X0170180Y0132238D02*
X0166663Y0132238D01*
X0166727Y0132212D02*
X0165527Y0132709D01*
X0164229Y0132709D01*
X0163029Y0132212D01*
X0162111Y0131294D01*
X0161614Y0130094D01*
X0161614Y0128796D01*
X0162111Y0127596D01*
X0163029Y0126678D01*
X0164229Y0126181D01*
X0165527Y0126181D01*
X0166727Y0126678D01*
X0167645Y0127596D01*
X0168142Y0128796D01*
X0168142Y0130094D01*
X0167645Y0131294D01*
X0166727Y0132212D01*
X0167661Y0131256D02*
X0169182Y0131256D01*
X0168775Y0130273D02*
X0168068Y0130273D01*
X0168142Y0129290D02*
X0168701Y0129290D01*
X0168903Y0128307D02*
X0167939Y0128307D01*
X0167373Y0127325D02*
X0169469Y0127325D01*
X0170927Y0126342D02*
X0165915Y0126342D01*
X0163841Y0126342D02*
X0140380Y0126342D01*
X0140211Y0125359D02*
X0173228Y0125359D01*
X0173228Y0126342D02*
X0173002Y0126342D01*
X0173228Y0124376D02*
X0162704Y0124376D01*
X0163408Y0123393D02*
X0173228Y0123393D01*
X0173228Y0122411D02*
X0163617Y0122411D01*
X0163452Y0121428D02*
X0173228Y0121428D01*
X0173228Y0120445D02*
X0162809Y0120445D01*
X0160434Y0119462D02*
X0173228Y0119462D01*
X0173228Y0118480D02*
X0159451Y0118480D01*
X0158469Y0117497D02*
X0173228Y0117497D01*
X0163644Y0111600D02*
X0163019Y0111600D01*
X0162301Y0110618D02*
X0160644Y0110618D01*
X0157640Y0121428D02*
X0156915Y0121428D01*
X0156787Y0122411D02*
X0158283Y0122411D01*
X0158493Y0123393D02*
X0156197Y0123393D01*
X0159197Y0124376D02*
X0139565Y0124376D01*
X0140173Y0127325D02*
X0162383Y0127325D01*
X0161816Y0128307D02*
X0139639Y0128307D01*
X0140179Y0129290D02*
X0161614Y0129290D01*
X0161688Y0130273D02*
X0140272Y0130273D01*
X0139990Y0131256D02*
X0162095Y0131256D01*
X0163093Y0132238D02*
X0139183Y0132238D01*
X0136027Y0132238D02*
X0117423Y0132238D01*
X0112159Y0111600D02*
X0110299Y0111600D01*
X0111282Y0110618D02*
X0111559Y0110618D01*
D15*
X0137309Y0122358D02*
X0138097Y0121571D01*
X0154248Y0121571D01*
M02*
