G75*
%MOIN*%
%OFA0B0*%
%FSLAX25Y25*%
%IPPOS*%
%LPD*%
%AMOC8*
5,1,8,0,0,1.08239X$1,22.5*
%
%ADD10C,0.00000*%
%ADD11C,0.03943*%
D10*
X0050705Y0034957D02*
X0050705Y0137319D01*
X0050707Y0137509D01*
X0050714Y0137699D01*
X0050726Y0137889D01*
X0050742Y0138079D01*
X0050762Y0138268D01*
X0050788Y0138457D01*
X0050817Y0138645D01*
X0050852Y0138832D01*
X0050891Y0139018D01*
X0050934Y0139203D01*
X0050982Y0139388D01*
X0051034Y0139571D01*
X0051090Y0139752D01*
X0051151Y0139932D01*
X0051217Y0140111D01*
X0051286Y0140288D01*
X0051360Y0140464D01*
X0051438Y0140637D01*
X0051521Y0140809D01*
X0051607Y0140978D01*
X0051697Y0141146D01*
X0051792Y0141311D01*
X0051890Y0141474D01*
X0051993Y0141634D01*
X0052099Y0141792D01*
X0052209Y0141947D01*
X0052322Y0142100D01*
X0052440Y0142250D01*
X0052561Y0142396D01*
X0052685Y0142540D01*
X0052813Y0142681D01*
X0052944Y0142819D01*
X0053079Y0142954D01*
X0053217Y0143085D01*
X0053358Y0143213D01*
X0053502Y0143337D01*
X0053648Y0143458D01*
X0053798Y0143576D01*
X0053951Y0143689D01*
X0054106Y0143799D01*
X0054264Y0143905D01*
X0054424Y0144008D01*
X0054587Y0144106D01*
X0054752Y0144201D01*
X0054920Y0144291D01*
X0055089Y0144377D01*
X0055261Y0144460D01*
X0055434Y0144538D01*
X0055610Y0144612D01*
X0055787Y0144681D01*
X0055966Y0144747D01*
X0056146Y0144808D01*
X0056327Y0144864D01*
X0056510Y0144916D01*
X0056695Y0144964D01*
X0056880Y0145007D01*
X0057066Y0145046D01*
X0057253Y0145081D01*
X0057441Y0145110D01*
X0057630Y0145136D01*
X0057819Y0145156D01*
X0058009Y0145172D01*
X0058199Y0145184D01*
X0058389Y0145191D01*
X0058579Y0145193D01*
X0166846Y0145193D01*
X0167036Y0145191D01*
X0167226Y0145184D01*
X0167416Y0145172D01*
X0167606Y0145156D01*
X0167795Y0145136D01*
X0167984Y0145110D01*
X0168172Y0145081D01*
X0168359Y0145046D01*
X0168545Y0145007D01*
X0168730Y0144964D01*
X0168915Y0144916D01*
X0169098Y0144864D01*
X0169279Y0144808D01*
X0169459Y0144747D01*
X0169638Y0144681D01*
X0169815Y0144612D01*
X0169991Y0144538D01*
X0170164Y0144460D01*
X0170336Y0144377D01*
X0170505Y0144291D01*
X0170673Y0144201D01*
X0170838Y0144106D01*
X0171001Y0144008D01*
X0171161Y0143905D01*
X0171319Y0143799D01*
X0171474Y0143689D01*
X0171627Y0143576D01*
X0171777Y0143458D01*
X0171923Y0143337D01*
X0172067Y0143213D01*
X0172208Y0143085D01*
X0172346Y0142954D01*
X0172481Y0142819D01*
X0172612Y0142681D01*
X0172740Y0142540D01*
X0172864Y0142396D01*
X0172985Y0142250D01*
X0173103Y0142100D01*
X0173216Y0141947D01*
X0173326Y0141792D01*
X0173432Y0141634D01*
X0173535Y0141474D01*
X0173633Y0141311D01*
X0173728Y0141146D01*
X0173818Y0140978D01*
X0173904Y0140809D01*
X0173987Y0140637D01*
X0174065Y0140464D01*
X0174139Y0140288D01*
X0174208Y0140111D01*
X0174274Y0139932D01*
X0174335Y0139752D01*
X0174391Y0139571D01*
X0174443Y0139388D01*
X0174491Y0139203D01*
X0174534Y0139018D01*
X0174573Y0138832D01*
X0174608Y0138645D01*
X0174637Y0138457D01*
X0174663Y0138268D01*
X0174683Y0138079D01*
X0174699Y0137889D01*
X0174711Y0137699D01*
X0174718Y0137509D01*
X0174720Y0137319D01*
X0174720Y0034957D01*
X0174718Y0034767D01*
X0174711Y0034577D01*
X0174699Y0034387D01*
X0174683Y0034197D01*
X0174663Y0034008D01*
X0174637Y0033819D01*
X0174608Y0033631D01*
X0174573Y0033444D01*
X0174534Y0033258D01*
X0174491Y0033073D01*
X0174443Y0032888D01*
X0174391Y0032705D01*
X0174335Y0032524D01*
X0174274Y0032344D01*
X0174208Y0032165D01*
X0174139Y0031988D01*
X0174065Y0031812D01*
X0173987Y0031639D01*
X0173904Y0031467D01*
X0173818Y0031298D01*
X0173728Y0031130D01*
X0173633Y0030965D01*
X0173535Y0030802D01*
X0173432Y0030642D01*
X0173326Y0030484D01*
X0173216Y0030329D01*
X0173103Y0030176D01*
X0172985Y0030026D01*
X0172864Y0029880D01*
X0172740Y0029736D01*
X0172612Y0029595D01*
X0172481Y0029457D01*
X0172346Y0029322D01*
X0172208Y0029191D01*
X0172067Y0029063D01*
X0171923Y0028939D01*
X0171777Y0028818D01*
X0171627Y0028700D01*
X0171474Y0028587D01*
X0171319Y0028477D01*
X0171161Y0028371D01*
X0171001Y0028268D01*
X0170838Y0028170D01*
X0170673Y0028075D01*
X0170505Y0027985D01*
X0170336Y0027899D01*
X0170164Y0027816D01*
X0169991Y0027738D01*
X0169815Y0027664D01*
X0169638Y0027595D01*
X0169459Y0027529D01*
X0169279Y0027468D01*
X0169098Y0027412D01*
X0168915Y0027360D01*
X0168730Y0027312D01*
X0168545Y0027269D01*
X0168359Y0027230D01*
X0168172Y0027195D01*
X0167984Y0027166D01*
X0167795Y0027140D01*
X0167606Y0027120D01*
X0167416Y0027104D01*
X0167226Y0027092D01*
X0167036Y0027085D01*
X0166846Y0027083D01*
X0058579Y0027083D01*
X0058389Y0027085D01*
X0058199Y0027092D01*
X0058009Y0027104D01*
X0057819Y0027120D01*
X0057630Y0027140D01*
X0057441Y0027166D01*
X0057253Y0027195D01*
X0057066Y0027230D01*
X0056880Y0027269D01*
X0056695Y0027312D01*
X0056510Y0027360D01*
X0056327Y0027412D01*
X0056146Y0027468D01*
X0055966Y0027529D01*
X0055787Y0027595D01*
X0055610Y0027664D01*
X0055434Y0027738D01*
X0055261Y0027816D01*
X0055089Y0027899D01*
X0054920Y0027985D01*
X0054752Y0028075D01*
X0054587Y0028170D01*
X0054424Y0028268D01*
X0054264Y0028371D01*
X0054106Y0028477D01*
X0053951Y0028587D01*
X0053798Y0028700D01*
X0053648Y0028818D01*
X0053502Y0028939D01*
X0053358Y0029063D01*
X0053217Y0029191D01*
X0053079Y0029322D01*
X0052944Y0029457D01*
X0052813Y0029595D01*
X0052685Y0029736D01*
X0052561Y0029880D01*
X0052440Y0030026D01*
X0052322Y0030176D01*
X0052209Y0030329D01*
X0052099Y0030484D01*
X0051993Y0030642D01*
X0051890Y0030802D01*
X0051792Y0030965D01*
X0051697Y0031130D01*
X0051607Y0031298D01*
X0051521Y0031467D01*
X0051438Y0031639D01*
X0051360Y0031812D01*
X0051286Y0031988D01*
X0051217Y0032165D01*
X0051151Y0032344D01*
X0051090Y0032524D01*
X0051034Y0032705D01*
X0050982Y0032888D01*
X0050934Y0033073D01*
X0050891Y0033258D01*
X0050852Y0033444D01*
X0050817Y0033631D01*
X0050788Y0033819D01*
X0050762Y0034008D01*
X0050742Y0034197D01*
X0050726Y0034387D01*
X0050714Y0034577D01*
X0050707Y0034767D01*
X0050705Y0034957D01*
X0163106Y0044799D02*
X0163108Y0044883D01*
X0163114Y0044966D01*
X0163124Y0045049D01*
X0163138Y0045132D01*
X0163155Y0045214D01*
X0163177Y0045295D01*
X0163202Y0045374D01*
X0163231Y0045453D01*
X0163264Y0045530D01*
X0163300Y0045605D01*
X0163340Y0045679D01*
X0163383Y0045751D01*
X0163430Y0045820D01*
X0163480Y0045887D01*
X0163533Y0045952D01*
X0163589Y0046014D01*
X0163647Y0046074D01*
X0163709Y0046131D01*
X0163773Y0046184D01*
X0163840Y0046235D01*
X0163909Y0046282D01*
X0163980Y0046327D01*
X0164053Y0046367D01*
X0164128Y0046404D01*
X0164205Y0046438D01*
X0164283Y0046468D01*
X0164362Y0046494D01*
X0164443Y0046517D01*
X0164525Y0046535D01*
X0164607Y0046550D01*
X0164690Y0046561D01*
X0164773Y0046568D01*
X0164857Y0046571D01*
X0164941Y0046570D01*
X0165024Y0046565D01*
X0165108Y0046556D01*
X0165190Y0046543D01*
X0165272Y0046527D01*
X0165353Y0046506D01*
X0165434Y0046482D01*
X0165512Y0046454D01*
X0165590Y0046422D01*
X0165666Y0046386D01*
X0165740Y0046347D01*
X0165812Y0046305D01*
X0165882Y0046259D01*
X0165950Y0046210D01*
X0166015Y0046158D01*
X0166078Y0046103D01*
X0166138Y0046045D01*
X0166196Y0045984D01*
X0166250Y0045920D01*
X0166302Y0045854D01*
X0166350Y0045786D01*
X0166395Y0045715D01*
X0166436Y0045642D01*
X0166475Y0045568D01*
X0166509Y0045492D01*
X0166540Y0045414D01*
X0166567Y0045335D01*
X0166591Y0045254D01*
X0166610Y0045173D01*
X0166626Y0045091D01*
X0166638Y0045008D01*
X0166646Y0044924D01*
X0166650Y0044841D01*
X0166650Y0044757D01*
X0166646Y0044674D01*
X0166638Y0044590D01*
X0166626Y0044507D01*
X0166610Y0044425D01*
X0166591Y0044344D01*
X0166567Y0044263D01*
X0166540Y0044184D01*
X0166509Y0044106D01*
X0166475Y0044030D01*
X0166436Y0043956D01*
X0166395Y0043883D01*
X0166350Y0043812D01*
X0166302Y0043744D01*
X0166250Y0043678D01*
X0166196Y0043614D01*
X0166138Y0043553D01*
X0166078Y0043495D01*
X0166015Y0043440D01*
X0165950Y0043388D01*
X0165882Y0043339D01*
X0165812Y0043293D01*
X0165740Y0043251D01*
X0165666Y0043212D01*
X0165590Y0043176D01*
X0165512Y0043144D01*
X0165434Y0043116D01*
X0165353Y0043092D01*
X0165272Y0043071D01*
X0165190Y0043055D01*
X0165108Y0043042D01*
X0165024Y0043033D01*
X0164941Y0043028D01*
X0164857Y0043027D01*
X0164773Y0043030D01*
X0164690Y0043037D01*
X0164607Y0043048D01*
X0164525Y0043063D01*
X0164443Y0043081D01*
X0164362Y0043104D01*
X0164283Y0043130D01*
X0164205Y0043160D01*
X0164128Y0043194D01*
X0164053Y0043231D01*
X0163980Y0043271D01*
X0163909Y0043316D01*
X0163840Y0043363D01*
X0163773Y0043414D01*
X0163709Y0043467D01*
X0163647Y0043524D01*
X0163589Y0043584D01*
X0163533Y0043646D01*
X0163480Y0043711D01*
X0163430Y0043778D01*
X0163383Y0043847D01*
X0163340Y0043919D01*
X0163300Y0043993D01*
X0163264Y0044068D01*
X0163231Y0044145D01*
X0163202Y0044224D01*
X0163177Y0044303D01*
X0163155Y0044384D01*
X0163138Y0044466D01*
X0163124Y0044549D01*
X0163114Y0044632D01*
X0163108Y0044715D01*
X0163106Y0044799D01*
X0170193Y0044799D02*
X0170195Y0044883D01*
X0170201Y0044966D01*
X0170211Y0045049D01*
X0170225Y0045132D01*
X0170242Y0045214D01*
X0170264Y0045295D01*
X0170289Y0045374D01*
X0170318Y0045453D01*
X0170351Y0045530D01*
X0170387Y0045605D01*
X0170427Y0045679D01*
X0170470Y0045751D01*
X0170517Y0045820D01*
X0170567Y0045887D01*
X0170620Y0045952D01*
X0170676Y0046014D01*
X0170734Y0046074D01*
X0170796Y0046131D01*
X0170860Y0046184D01*
X0170927Y0046235D01*
X0170996Y0046282D01*
X0171067Y0046327D01*
X0171140Y0046367D01*
X0171215Y0046404D01*
X0171292Y0046438D01*
X0171370Y0046468D01*
X0171449Y0046494D01*
X0171530Y0046517D01*
X0171612Y0046535D01*
X0171694Y0046550D01*
X0171777Y0046561D01*
X0171860Y0046568D01*
X0171944Y0046571D01*
X0172028Y0046570D01*
X0172111Y0046565D01*
X0172195Y0046556D01*
X0172277Y0046543D01*
X0172359Y0046527D01*
X0172440Y0046506D01*
X0172521Y0046482D01*
X0172599Y0046454D01*
X0172677Y0046422D01*
X0172753Y0046386D01*
X0172827Y0046347D01*
X0172899Y0046305D01*
X0172969Y0046259D01*
X0173037Y0046210D01*
X0173102Y0046158D01*
X0173165Y0046103D01*
X0173225Y0046045D01*
X0173283Y0045984D01*
X0173337Y0045920D01*
X0173389Y0045854D01*
X0173437Y0045786D01*
X0173482Y0045715D01*
X0173523Y0045642D01*
X0173562Y0045568D01*
X0173596Y0045492D01*
X0173627Y0045414D01*
X0173654Y0045335D01*
X0173678Y0045254D01*
X0173697Y0045173D01*
X0173713Y0045091D01*
X0173725Y0045008D01*
X0173733Y0044924D01*
X0173737Y0044841D01*
X0173737Y0044757D01*
X0173733Y0044674D01*
X0173725Y0044590D01*
X0173713Y0044507D01*
X0173697Y0044425D01*
X0173678Y0044344D01*
X0173654Y0044263D01*
X0173627Y0044184D01*
X0173596Y0044106D01*
X0173562Y0044030D01*
X0173523Y0043956D01*
X0173482Y0043883D01*
X0173437Y0043812D01*
X0173389Y0043744D01*
X0173337Y0043678D01*
X0173283Y0043614D01*
X0173225Y0043553D01*
X0173165Y0043495D01*
X0173102Y0043440D01*
X0173037Y0043388D01*
X0172969Y0043339D01*
X0172899Y0043293D01*
X0172827Y0043251D01*
X0172753Y0043212D01*
X0172677Y0043176D01*
X0172599Y0043144D01*
X0172521Y0043116D01*
X0172440Y0043092D01*
X0172359Y0043071D01*
X0172277Y0043055D01*
X0172195Y0043042D01*
X0172111Y0043033D01*
X0172028Y0043028D01*
X0171944Y0043027D01*
X0171860Y0043030D01*
X0171777Y0043037D01*
X0171694Y0043048D01*
X0171612Y0043063D01*
X0171530Y0043081D01*
X0171449Y0043104D01*
X0171370Y0043130D01*
X0171292Y0043160D01*
X0171215Y0043194D01*
X0171140Y0043231D01*
X0171067Y0043271D01*
X0170996Y0043316D01*
X0170927Y0043363D01*
X0170860Y0043414D01*
X0170796Y0043467D01*
X0170734Y0043524D01*
X0170676Y0043584D01*
X0170620Y0043646D01*
X0170567Y0043711D01*
X0170517Y0043778D01*
X0170470Y0043847D01*
X0170427Y0043919D01*
X0170387Y0043993D01*
X0170351Y0044068D01*
X0170318Y0044145D01*
X0170289Y0044224D01*
X0170264Y0044303D01*
X0170242Y0044384D01*
X0170225Y0044466D01*
X0170211Y0044549D01*
X0170201Y0044632D01*
X0170195Y0044715D01*
X0170193Y0044799D01*
X0170193Y0108579D02*
X0170195Y0108663D01*
X0170201Y0108746D01*
X0170211Y0108829D01*
X0170225Y0108912D01*
X0170242Y0108994D01*
X0170264Y0109075D01*
X0170289Y0109154D01*
X0170318Y0109233D01*
X0170351Y0109310D01*
X0170387Y0109385D01*
X0170427Y0109459D01*
X0170470Y0109531D01*
X0170517Y0109600D01*
X0170567Y0109667D01*
X0170620Y0109732D01*
X0170676Y0109794D01*
X0170734Y0109854D01*
X0170796Y0109911D01*
X0170860Y0109964D01*
X0170927Y0110015D01*
X0170996Y0110062D01*
X0171067Y0110107D01*
X0171140Y0110147D01*
X0171215Y0110184D01*
X0171292Y0110218D01*
X0171370Y0110248D01*
X0171449Y0110274D01*
X0171530Y0110297D01*
X0171612Y0110315D01*
X0171694Y0110330D01*
X0171777Y0110341D01*
X0171860Y0110348D01*
X0171944Y0110351D01*
X0172028Y0110350D01*
X0172111Y0110345D01*
X0172195Y0110336D01*
X0172277Y0110323D01*
X0172359Y0110307D01*
X0172440Y0110286D01*
X0172521Y0110262D01*
X0172599Y0110234D01*
X0172677Y0110202D01*
X0172753Y0110166D01*
X0172827Y0110127D01*
X0172899Y0110085D01*
X0172969Y0110039D01*
X0173037Y0109990D01*
X0173102Y0109938D01*
X0173165Y0109883D01*
X0173225Y0109825D01*
X0173283Y0109764D01*
X0173337Y0109700D01*
X0173389Y0109634D01*
X0173437Y0109566D01*
X0173482Y0109495D01*
X0173523Y0109422D01*
X0173562Y0109348D01*
X0173596Y0109272D01*
X0173627Y0109194D01*
X0173654Y0109115D01*
X0173678Y0109034D01*
X0173697Y0108953D01*
X0173713Y0108871D01*
X0173725Y0108788D01*
X0173733Y0108704D01*
X0173737Y0108621D01*
X0173737Y0108537D01*
X0173733Y0108454D01*
X0173725Y0108370D01*
X0173713Y0108287D01*
X0173697Y0108205D01*
X0173678Y0108124D01*
X0173654Y0108043D01*
X0173627Y0107964D01*
X0173596Y0107886D01*
X0173562Y0107810D01*
X0173523Y0107736D01*
X0173482Y0107663D01*
X0173437Y0107592D01*
X0173389Y0107524D01*
X0173337Y0107458D01*
X0173283Y0107394D01*
X0173225Y0107333D01*
X0173165Y0107275D01*
X0173102Y0107220D01*
X0173037Y0107168D01*
X0172969Y0107119D01*
X0172899Y0107073D01*
X0172827Y0107031D01*
X0172753Y0106992D01*
X0172677Y0106956D01*
X0172599Y0106924D01*
X0172521Y0106896D01*
X0172440Y0106872D01*
X0172359Y0106851D01*
X0172277Y0106835D01*
X0172195Y0106822D01*
X0172111Y0106813D01*
X0172028Y0106808D01*
X0171944Y0106807D01*
X0171860Y0106810D01*
X0171777Y0106817D01*
X0171694Y0106828D01*
X0171612Y0106843D01*
X0171530Y0106861D01*
X0171449Y0106884D01*
X0171370Y0106910D01*
X0171292Y0106940D01*
X0171215Y0106974D01*
X0171140Y0107011D01*
X0171067Y0107051D01*
X0170996Y0107096D01*
X0170927Y0107143D01*
X0170860Y0107194D01*
X0170796Y0107247D01*
X0170734Y0107304D01*
X0170676Y0107364D01*
X0170620Y0107426D01*
X0170567Y0107491D01*
X0170517Y0107558D01*
X0170470Y0107627D01*
X0170427Y0107699D01*
X0170387Y0107773D01*
X0170351Y0107848D01*
X0170318Y0107925D01*
X0170289Y0108004D01*
X0170264Y0108083D01*
X0170242Y0108164D01*
X0170225Y0108246D01*
X0170211Y0108329D01*
X0170201Y0108412D01*
X0170195Y0108495D01*
X0170193Y0108579D01*
X0163106Y0108579D02*
X0163108Y0108663D01*
X0163114Y0108746D01*
X0163124Y0108829D01*
X0163138Y0108912D01*
X0163155Y0108994D01*
X0163177Y0109075D01*
X0163202Y0109154D01*
X0163231Y0109233D01*
X0163264Y0109310D01*
X0163300Y0109385D01*
X0163340Y0109459D01*
X0163383Y0109531D01*
X0163430Y0109600D01*
X0163480Y0109667D01*
X0163533Y0109732D01*
X0163589Y0109794D01*
X0163647Y0109854D01*
X0163709Y0109911D01*
X0163773Y0109964D01*
X0163840Y0110015D01*
X0163909Y0110062D01*
X0163980Y0110107D01*
X0164053Y0110147D01*
X0164128Y0110184D01*
X0164205Y0110218D01*
X0164283Y0110248D01*
X0164362Y0110274D01*
X0164443Y0110297D01*
X0164525Y0110315D01*
X0164607Y0110330D01*
X0164690Y0110341D01*
X0164773Y0110348D01*
X0164857Y0110351D01*
X0164941Y0110350D01*
X0165024Y0110345D01*
X0165108Y0110336D01*
X0165190Y0110323D01*
X0165272Y0110307D01*
X0165353Y0110286D01*
X0165434Y0110262D01*
X0165512Y0110234D01*
X0165590Y0110202D01*
X0165666Y0110166D01*
X0165740Y0110127D01*
X0165812Y0110085D01*
X0165882Y0110039D01*
X0165950Y0109990D01*
X0166015Y0109938D01*
X0166078Y0109883D01*
X0166138Y0109825D01*
X0166196Y0109764D01*
X0166250Y0109700D01*
X0166302Y0109634D01*
X0166350Y0109566D01*
X0166395Y0109495D01*
X0166436Y0109422D01*
X0166475Y0109348D01*
X0166509Y0109272D01*
X0166540Y0109194D01*
X0166567Y0109115D01*
X0166591Y0109034D01*
X0166610Y0108953D01*
X0166626Y0108871D01*
X0166638Y0108788D01*
X0166646Y0108704D01*
X0166650Y0108621D01*
X0166650Y0108537D01*
X0166646Y0108454D01*
X0166638Y0108370D01*
X0166626Y0108287D01*
X0166610Y0108205D01*
X0166591Y0108124D01*
X0166567Y0108043D01*
X0166540Y0107964D01*
X0166509Y0107886D01*
X0166475Y0107810D01*
X0166436Y0107736D01*
X0166395Y0107663D01*
X0166350Y0107592D01*
X0166302Y0107524D01*
X0166250Y0107458D01*
X0166196Y0107394D01*
X0166138Y0107333D01*
X0166078Y0107275D01*
X0166015Y0107220D01*
X0165950Y0107168D01*
X0165882Y0107119D01*
X0165812Y0107073D01*
X0165740Y0107031D01*
X0165666Y0106992D01*
X0165590Y0106956D01*
X0165512Y0106924D01*
X0165434Y0106896D01*
X0165353Y0106872D01*
X0165272Y0106851D01*
X0165190Y0106835D01*
X0165108Y0106822D01*
X0165024Y0106813D01*
X0164941Y0106808D01*
X0164857Y0106807D01*
X0164773Y0106810D01*
X0164690Y0106817D01*
X0164607Y0106828D01*
X0164525Y0106843D01*
X0164443Y0106861D01*
X0164362Y0106884D01*
X0164283Y0106910D01*
X0164205Y0106940D01*
X0164128Y0106974D01*
X0164053Y0107011D01*
X0163980Y0107051D01*
X0163909Y0107096D01*
X0163840Y0107143D01*
X0163773Y0107194D01*
X0163709Y0107247D01*
X0163647Y0107304D01*
X0163589Y0107364D01*
X0163533Y0107426D01*
X0163480Y0107491D01*
X0163430Y0107558D01*
X0163383Y0107627D01*
X0163340Y0107699D01*
X0163300Y0107773D01*
X0163264Y0107848D01*
X0163231Y0107925D01*
X0163202Y0108004D01*
X0163177Y0108083D01*
X0163155Y0108164D01*
X0163138Y0108246D01*
X0163124Y0108329D01*
X0163114Y0108412D01*
X0163108Y0108495D01*
X0163106Y0108579D01*
X0163106Y0129445D02*
X0163108Y0129529D01*
X0163114Y0129612D01*
X0163124Y0129695D01*
X0163138Y0129778D01*
X0163155Y0129860D01*
X0163177Y0129941D01*
X0163202Y0130020D01*
X0163231Y0130099D01*
X0163264Y0130176D01*
X0163300Y0130251D01*
X0163340Y0130325D01*
X0163383Y0130397D01*
X0163430Y0130466D01*
X0163480Y0130533D01*
X0163533Y0130598D01*
X0163589Y0130660D01*
X0163647Y0130720D01*
X0163709Y0130777D01*
X0163773Y0130830D01*
X0163840Y0130881D01*
X0163909Y0130928D01*
X0163980Y0130973D01*
X0164053Y0131013D01*
X0164128Y0131050D01*
X0164205Y0131084D01*
X0164283Y0131114D01*
X0164362Y0131140D01*
X0164443Y0131163D01*
X0164525Y0131181D01*
X0164607Y0131196D01*
X0164690Y0131207D01*
X0164773Y0131214D01*
X0164857Y0131217D01*
X0164941Y0131216D01*
X0165024Y0131211D01*
X0165108Y0131202D01*
X0165190Y0131189D01*
X0165272Y0131173D01*
X0165353Y0131152D01*
X0165434Y0131128D01*
X0165512Y0131100D01*
X0165590Y0131068D01*
X0165666Y0131032D01*
X0165740Y0130993D01*
X0165812Y0130951D01*
X0165882Y0130905D01*
X0165950Y0130856D01*
X0166015Y0130804D01*
X0166078Y0130749D01*
X0166138Y0130691D01*
X0166196Y0130630D01*
X0166250Y0130566D01*
X0166302Y0130500D01*
X0166350Y0130432D01*
X0166395Y0130361D01*
X0166436Y0130288D01*
X0166475Y0130214D01*
X0166509Y0130138D01*
X0166540Y0130060D01*
X0166567Y0129981D01*
X0166591Y0129900D01*
X0166610Y0129819D01*
X0166626Y0129737D01*
X0166638Y0129654D01*
X0166646Y0129570D01*
X0166650Y0129487D01*
X0166650Y0129403D01*
X0166646Y0129320D01*
X0166638Y0129236D01*
X0166626Y0129153D01*
X0166610Y0129071D01*
X0166591Y0128990D01*
X0166567Y0128909D01*
X0166540Y0128830D01*
X0166509Y0128752D01*
X0166475Y0128676D01*
X0166436Y0128602D01*
X0166395Y0128529D01*
X0166350Y0128458D01*
X0166302Y0128390D01*
X0166250Y0128324D01*
X0166196Y0128260D01*
X0166138Y0128199D01*
X0166078Y0128141D01*
X0166015Y0128086D01*
X0165950Y0128034D01*
X0165882Y0127985D01*
X0165812Y0127939D01*
X0165740Y0127897D01*
X0165666Y0127858D01*
X0165590Y0127822D01*
X0165512Y0127790D01*
X0165434Y0127762D01*
X0165353Y0127738D01*
X0165272Y0127717D01*
X0165190Y0127701D01*
X0165108Y0127688D01*
X0165024Y0127679D01*
X0164941Y0127674D01*
X0164857Y0127673D01*
X0164773Y0127676D01*
X0164690Y0127683D01*
X0164607Y0127694D01*
X0164525Y0127709D01*
X0164443Y0127727D01*
X0164362Y0127750D01*
X0164283Y0127776D01*
X0164205Y0127806D01*
X0164128Y0127840D01*
X0164053Y0127877D01*
X0163980Y0127917D01*
X0163909Y0127962D01*
X0163840Y0128009D01*
X0163773Y0128060D01*
X0163709Y0128113D01*
X0163647Y0128170D01*
X0163589Y0128230D01*
X0163533Y0128292D01*
X0163480Y0128357D01*
X0163430Y0128424D01*
X0163383Y0128493D01*
X0163340Y0128565D01*
X0163300Y0128639D01*
X0163264Y0128714D01*
X0163231Y0128791D01*
X0163202Y0128870D01*
X0163177Y0128949D01*
X0163155Y0129030D01*
X0163138Y0129112D01*
X0163124Y0129195D01*
X0163114Y0129278D01*
X0163108Y0129361D01*
X0163106Y0129445D01*
X0170193Y0129445D02*
X0170195Y0129529D01*
X0170201Y0129612D01*
X0170211Y0129695D01*
X0170225Y0129778D01*
X0170242Y0129860D01*
X0170264Y0129941D01*
X0170289Y0130020D01*
X0170318Y0130099D01*
X0170351Y0130176D01*
X0170387Y0130251D01*
X0170427Y0130325D01*
X0170470Y0130397D01*
X0170517Y0130466D01*
X0170567Y0130533D01*
X0170620Y0130598D01*
X0170676Y0130660D01*
X0170734Y0130720D01*
X0170796Y0130777D01*
X0170860Y0130830D01*
X0170927Y0130881D01*
X0170996Y0130928D01*
X0171067Y0130973D01*
X0171140Y0131013D01*
X0171215Y0131050D01*
X0171292Y0131084D01*
X0171370Y0131114D01*
X0171449Y0131140D01*
X0171530Y0131163D01*
X0171612Y0131181D01*
X0171694Y0131196D01*
X0171777Y0131207D01*
X0171860Y0131214D01*
X0171944Y0131217D01*
X0172028Y0131216D01*
X0172111Y0131211D01*
X0172195Y0131202D01*
X0172277Y0131189D01*
X0172359Y0131173D01*
X0172440Y0131152D01*
X0172521Y0131128D01*
X0172599Y0131100D01*
X0172677Y0131068D01*
X0172753Y0131032D01*
X0172827Y0130993D01*
X0172899Y0130951D01*
X0172969Y0130905D01*
X0173037Y0130856D01*
X0173102Y0130804D01*
X0173165Y0130749D01*
X0173225Y0130691D01*
X0173283Y0130630D01*
X0173337Y0130566D01*
X0173389Y0130500D01*
X0173437Y0130432D01*
X0173482Y0130361D01*
X0173523Y0130288D01*
X0173562Y0130214D01*
X0173596Y0130138D01*
X0173627Y0130060D01*
X0173654Y0129981D01*
X0173678Y0129900D01*
X0173697Y0129819D01*
X0173713Y0129737D01*
X0173725Y0129654D01*
X0173733Y0129570D01*
X0173737Y0129487D01*
X0173737Y0129403D01*
X0173733Y0129320D01*
X0173725Y0129236D01*
X0173713Y0129153D01*
X0173697Y0129071D01*
X0173678Y0128990D01*
X0173654Y0128909D01*
X0173627Y0128830D01*
X0173596Y0128752D01*
X0173562Y0128676D01*
X0173523Y0128602D01*
X0173482Y0128529D01*
X0173437Y0128458D01*
X0173389Y0128390D01*
X0173337Y0128324D01*
X0173283Y0128260D01*
X0173225Y0128199D01*
X0173165Y0128141D01*
X0173102Y0128086D01*
X0173037Y0128034D01*
X0172969Y0127985D01*
X0172899Y0127939D01*
X0172827Y0127897D01*
X0172753Y0127858D01*
X0172677Y0127822D01*
X0172599Y0127790D01*
X0172521Y0127762D01*
X0172440Y0127738D01*
X0172359Y0127717D01*
X0172277Y0127701D01*
X0172195Y0127688D01*
X0172111Y0127679D01*
X0172028Y0127674D01*
X0171944Y0127673D01*
X0171860Y0127676D01*
X0171777Y0127683D01*
X0171694Y0127694D01*
X0171612Y0127709D01*
X0171530Y0127727D01*
X0171449Y0127750D01*
X0171370Y0127776D01*
X0171292Y0127806D01*
X0171215Y0127840D01*
X0171140Y0127877D01*
X0171067Y0127917D01*
X0170996Y0127962D01*
X0170927Y0128009D01*
X0170860Y0128060D01*
X0170796Y0128113D01*
X0170734Y0128170D01*
X0170676Y0128230D01*
X0170620Y0128292D01*
X0170567Y0128357D01*
X0170517Y0128424D01*
X0170470Y0128493D01*
X0170427Y0128565D01*
X0170387Y0128639D01*
X0170351Y0128714D01*
X0170318Y0128791D01*
X0170289Y0128870D01*
X0170264Y0128949D01*
X0170242Y0129030D01*
X0170225Y0129112D01*
X0170211Y0129195D01*
X0170201Y0129278D01*
X0170195Y0129361D01*
X0170193Y0129445D01*
D11*
X0171965Y0129445D03*
X0164878Y0129445D03*
X0164878Y0108579D03*
X0171965Y0108579D03*
X0171965Y0044799D03*
X0164878Y0044799D03*
M02*
