G75*
%MOIN*%
%OFA0B0*%
%FSLAX25Y25*%
%IPPOS*%
%LPD*%
%AMOC8*
5,1,8,0,0,1.08239X$1,22.5*
%
%ADD10C,0.00000*%
%ADD11C,0.00591*%
%ADD12C,0.00400*%
%ADD13C,0.00787*%
%ADD14C,0.00500*%
%ADD15C,0.00394*%
%ADD16C,0.00984*%
%ADD17C,0.00800*%
D10*
X0050705Y0034957D02*
X0050705Y0137319D01*
X0050707Y0137509D01*
X0050714Y0137699D01*
X0050726Y0137889D01*
X0050742Y0138079D01*
X0050762Y0138268D01*
X0050788Y0138457D01*
X0050817Y0138645D01*
X0050852Y0138832D01*
X0050891Y0139018D01*
X0050934Y0139203D01*
X0050982Y0139388D01*
X0051034Y0139571D01*
X0051090Y0139752D01*
X0051151Y0139932D01*
X0051217Y0140111D01*
X0051286Y0140288D01*
X0051360Y0140464D01*
X0051438Y0140637D01*
X0051521Y0140809D01*
X0051607Y0140978D01*
X0051697Y0141146D01*
X0051792Y0141311D01*
X0051890Y0141474D01*
X0051993Y0141634D01*
X0052099Y0141792D01*
X0052209Y0141947D01*
X0052322Y0142100D01*
X0052440Y0142250D01*
X0052561Y0142396D01*
X0052685Y0142540D01*
X0052813Y0142681D01*
X0052944Y0142819D01*
X0053079Y0142954D01*
X0053217Y0143085D01*
X0053358Y0143213D01*
X0053502Y0143337D01*
X0053648Y0143458D01*
X0053798Y0143576D01*
X0053951Y0143689D01*
X0054106Y0143799D01*
X0054264Y0143905D01*
X0054424Y0144008D01*
X0054587Y0144106D01*
X0054752Y0144201D01*
X0054920Y0144291D01*
X0055089Y0144377D01*
X0055261Y0144460D01*
X0055434Y0144538D01*
X0055610Y0144612D01*
X0055787Y0144681D01*
X0055966Y0144747D01*
X0056146Y0144808D01*
X0056327Y0144864D01*
X0056510Y0144916D01*
X0056695Y0144964D01*
X0056880Y0145007D01*
X0057066Y0145046D01*
X0057253Y0145081D01*
X0057441Y0145110D01*
X0057630Y0145136D01*
X0057819Y0145156D01*
X0058009Y0145172D01*
X0058199Y0145184D01*
X0058389Y0145191D01*
X0058579Y0145193D01*
X0166846Y0145193D01*
X0162712Y0143224D02*
X0162714Y0143352D01*
X0162720Y0143480D01*
X0162730Y0143607D01*
X0162744Y0143735D01*
X0162761Y0143861D01*
X0162783Y0143987D01*
X0162809Y0144113D01*
X0162838Y0144237D01*
X0162871Y0144361D01*
X0162908Y0144483D01*
X0162949Y0144604D01*
X0162994Y0144724D01*
X0163042Y0144843D01*
X0163094Y0144960D01*
X0163150Y0145075D01*
X0163209Y0145189D01*
X0163271Y0145300D01*
X0163337Y0145410D01*
X0163406Y0145517D01*
X0163479Y0145623D01*
X0163555Y0145726D01*
X0163634Y0145826D01*
X0163716Y0145925D01*
X0163801Y0146020D01*
X0163889Y0146113D01*
X0163980Y0146203D01*
X0164073Y0146290D01*
X0164170Y0146375D01*
X0164268Y0146456D01*
X0164370Y0146534D01*
X0164473Y0146609D01*
X0164579Y0146681D01*
X0164687Y0146750D01*
X0164797Y0146815D01*
X0164910Y0146876D01*
X0165024Y0146935D01*
X0165139Y0146989D01*
X0165257Y0147040D01*
X0165375Y0147088D01*
X0165496Y0147131D01*
X0165617Y0147171D01*
X0165740Y0147207D01*
X0165864Y0147240D01*
X0165989Y0147268D01*
X0166114Y0147293D01*
X0166240Y0147313D01*
X0166367Y0147330D01*
X0166495Y0147343D01*
X0166622Y0147352D01*
X0166750Y0147357D01*
X0166878Y0147358D01*
X0167006Y0147355D01*
X0167134Y0147348D01*
X0167261Y0147337D01*
X0167388Y0147322D01*
X0167515Y0147304D01*
X0167641Y0147281D01*
X0167766Y0147254D01*
X0167890Y0147224D01*
X0168013Y0147190D01*
X0168136Y0147152D01*
X0168257Y0147110D01*
X0168376Y0147064D01*
X0168494Y0147015D01*
X0168611Y0146962D01*
X0168726Y0146906D01*
X0168839Y0146846D01*
X0168950Y0146783D01*
X0169059Y0146716D01*
X0169166Y0146646D01*
X0169271Y0146572D01*
X0169373Y0146496D01*
X0169473Y0146416D01*
X0169571Y0146333D01*
X0169666Y0146247D01*
X0169758Y0146158D01*
X0169847Y0146067D01*
X0169934Y0145973D01*
X0170017Y0145876D01*
X0170098Y0145776D01*
X0170175Y0145675D01*
X0170250Y0145570D01*
X0170321Y0145464D01*
X0170388Y0145355D01*
X0170453Y0145245D01*
X0170513Y0145132D01*
X0170571Y0145018D01*
X0170624Y0144902D01*
X0170674Y0144784D01*
X0170721Y0144665D01*
X0170764Y0144544D01*
X0170803Y0144422D01*
X0170838Y0144299D01*
X0170869Y0144175D01*
X0170897Y0144050D01*
X0170920Y0143924D01*
X0170940Y0143798D01*
X0170956Y0143671D01*
X0170968Y0143544D01*
X0170976Y0143416D01*
X0170980Y0143288D01*
X0170980Y0143160D01*
X0170976Y0143032D01*
X0170968Y0142904D01*
X0170956Y0142777D01*
X0170940Y0142650D01*
X0170920Y0142524D01*
X0170897Y0142398D01*
X0170869Y0142273D01*
X0170838Y0142149D01*
X0170803Y0142026D01*
X0170764Y0141904D01*
X0170721Y0141783D01*
X0170674Y0141664D01*
X0170624Y0141546D01*
X0170571Y0141430D01*
X0170513Y0141316D01*
X0170453Y0141203D01*
X0170388Y0141093D01*
X0170321Y0140984D01*
X0170250Y0140878D01*
X0170175Y0140773D01*
X0170098Y0140672D01*
X0170017Y0140572D01*
X0169934Y0140475D01*
X0169847Y0140381D01*
X0169758Y0140290D01*
X0169666Y0140201D01*
X0169571Y0140115D01*
X0169473Y0140032D01*
X0169373Y0139952D01*
X0169271Y0139876D01*
X0169166Y0139802D01*
X0169059Y0139732D01*
X0168950Y0139665D01*
X0168839Y0139602D01*
X0168726Y0139542D01*
X0168611Y0139486D01*
X0168494Y0139433D01*
X0168376Y0139384D01*
X0168257Y0139338D01*
X0168136Y0139296D01*
X0168013Y0139258D01*
X0167890Y0139224D01*
X0167766Y0139194D01*
X0167641Y0139167D01*
X0167515Y0139144D01*
X0167388Y0139126D01*
X0167261Y0139111D01*
X0167134Y0139100D01*
X0167006Y0139093D01*
X0166878Y0139090D01*
X0166750Y0139091D01*
X0166622Y0139096D01*
X0166495Y0139105D01*
X0166367Y0139118D01*
X0166240Y0139135D01*
X0166114Y0139155D01*
X0165989Y0139180D01*
X0165864Y0139208D01*
X0165740Y0139241D01*
X0165617Y0139277D01*
X0165496Y0139317D01*
X0165375Y0139360D01*
X0165257Y0139408D01*
X0165139Y0139459D01*
X0165024Y0139513D01*
X0164910Y0139572D01*
X0164797Y0139633D01*
X0164687Y0139698D01*
X0164579Y0139767D01*
X0164473Y0139839D01*
X0164370Y0139914D01*
X0164268Y0139992D01*
X0164170Y0140073D01*
X0164073Y0140158D01*
X0163980Y0140245D01*
X0163889Y0140335D01*
X0163801Y0140428D01*
X0163716Y0140523D01*
X0163634Y0140622D01*
X0163555Y0140722D01*
X0163479Y0140825D01*
X0163406Y0140931D01*
X0163337Y0141038D01*
X0163271Y0141148D01*
X0163209Y0141259D01*
X0163150Y0141373D01*
X0163094Y0141488D01*
X0163042Y0141605D01*
X0162994Y0141724D01*
X0162949Y0141844D01*
X0162908Y0141965D01*
X0162871Y0142087D01*
X0162838Y0142211D01*
X0162809Y0142335D01*
X0162783Y0142461D01*
X0162761Y0142587D01*
X0162744Y0142713D01*
X0162730Y0142841D01*
X0162720Y0142968D01*
X0162714Y0143096D01*
X0162712Y0143224D01*
X0166846Y0145193D02*
X0167036Y0145191D01*
X0167226Y0145184D01*
X0167416Y0145172D01*
X0167606Y0145156D01*
X0167795Y0145136D01*
X0167984Y0145110D01*
X0168172Y0145081D01*
X0168359Y0145046D01*
X0168545Y0145007D01*
X0168730Y0144964D01*
X0168915Y0144916D01*
X0169098Y0144864D01*
X0169279Y0144808D01*
X0169459Y0144747D01*
X0169638Y0144681D01*
X0169815Y0144612D01*
X0169991Y0144538D01*
X0170164Y0144460D01*
X0170336Y0144377D01*
X0170505Y0144291D01*
X0170673Y0144201D01*
X0170838Y0144106D01*
X0171001Y0144008D01*
X0171161Y0143905D01*
X0171319Y0143799D01*
X0171474Y0143689D01*
X0171627Y0143576D01*
X0171777Y0143458D01*
X0171923Y0143337D01*
X0172067Y0143213D01*
X0172208Y0143085D01*
X0172346Y0142954D01*
X0172481Y0142819D01*
X0172612Y0142681D01*
X0172740Y0142540D01*
X0172864Y0142396D01*
X0172985Y0142250D01*
X0173103Y0142100D01*
X0173216Y0141947D01*
X0173326Y0141792D01*
X0173432Y0141634D01*
X0173535Y0141474D01*
X0173633Y0141311D01*
X0173728Y0141146D01*
X0173818Y0140978D01*
X0173904Y0140809D01*
X0173987Y0140637D01*
X0174065Y0140464D01*
X0174139Y0140288D01*
X0174208Y0140111D01*
X0174274Y0139932D01*
X0174335Y0139752D01*
X0174391Y0139571D01*
X0174443Y0139388D01*
X0174491Y0139203D01*
X0174534Y0139018D01*
X0174573Y0138832D01*
X0174608Y0138645D01*
X0174637Y0138457D01*
X0174663Y0138268D01*
X0174683Y0138079D01*
X0174699Y0137889D01*
X0174711Y0137699D01*
X0174718Y0137509D01*
X0174720Y0137319D01*
X0174720Y0034957D01*
X0174718Y0034767D01*
X0174711Y0034577D01*
X0174699Y0034387D01*
X0174683Y0034197D01*
X0174663Y0034008D01*
X0174637Y0033819D01*
X0174608Y0033631D01*
X0174573Y0033444D01*
X0174534Y0033258D01*
X0174491Y0033073D01*
X0174443Y0032888D01*
X0174391Y0032705D01*
X0174335Y0032524D01*
X0174274Y0032344D01*
X0174208Y0032165D01*
X0174139Y0031988D01*
X0174065Y0031812D01*
X0173987Y0031639D01*
X0173904Y0031467D01*
X0173818Y0031298D01*
X0173728Y0031130D01*
X0173633Y0030965D01*
X0173535Y0030802D01*
X0173432Y0030642D01*
X0173326Y0030484D01*
X0173216Y0030329D01*
X0173103Y0030176D01*
X0172985Y0030026D01*
X0172864Y0029880D01*
X0172740Y0029736D01*
X0172612Y0029595D01*
X0172481Y0029457D01*
X0172346Y0029322D01*
X0172208Y0029191D01*
X0172067Y0029063D01*
X0171923Y0028939D01*
X0171777Y0028818D01*
X0171627Y0028700D01*
X0171474Y0028587D01*
X0171319Y0028477D01*
X0171161Y0028371D01*
X0171001Y0028268D01*
X0170838Y0028170D01*
X0170673Y0028075D01*
X0170505Y0027985D01*
X0170336Y0027899D01*
X0170164Y0027816D01*
X0169991Y0027738D01*
X0169815Y0027664D01*
X0169638Y0027595D01*
X0169459Y0027529D01*
X0169279Y0027468D01*
X0169098Y0027412D01*
X0168915Y0027360D01*
X0168730Y0027312D01*
X0168545Y0027269D01*
X0168359Y0027230D01*
X0168172Y0027195D01*
X0167984Y0027166D01*
X0167795Y0027140D01*
X0167606Y0027120D01*
X0167416Y0027104D01*
X0167226Y0027092D01*
X0167036Y0027085D01*
X0166846Y0027083D01*
X0058579Y0027083D01*
X0054445Y0029051D02*
X0054447Y0029179D01*
X0054453Y0029307D01*
X0054463Y0029434D01*
X0054477Y0029562D01*
X0054494Y0029688D01*
X0054516Y0029814D01*
X0054542Y0029940D01*
X0054571Y0030064D01*
X0054604Y0030188D01*
X0054641Y0030310D01*
X0054682Y0030431D01*
X0054727Y0030551D01*
X0054775Y0030670D01*
X0054827Y0030787D01*
X0054883Y0030902D01*
X0054942Y0031016D01*
X0055004Y0031127D01*
X0055070Y0031237D01*
X0055139Y0031344D01*
X0055212Y0031450D01*
X0055288Y0031553D01*
X0055367Y0031653D01*
X0055449Y0031752D01*
X0055534Y0031847D01*
X0055622Y0031940D01*
X0055713Y0032030D01*
X0055806Y0032117D01*
X0055903Y0032202D01*
X0056001Y0032283D01*
X0056103Y0032361D01*
X0056206Y0032436D01*
X0056312Y0032508D01*
X0056420Y0032577D01*
X0056530Y0032642D01*
X0056643Y0032703D01*
X0056757Y0032762D01*
X0056872Y0032816D01*
X0056990Y0032867D01*
X0057108Y0032915D01*
X0057229Y0032958D01*
X0057350Y0032998D01*
X0057473Y0033034D01*
X0057597Y0033067D01*
X0057722Y0033095D01*
X0057847Y0033120D01*
X0057973Y0033140D01*
X0058100Y0033157D01*
X0058228Y0033170D01*
X0058355Y0033179D01*
X0058483Y0033184D01*
X0058611Y0033185D01*
X0058739Y0033182D01*
X0058867Y0033175D01*
X0058994Y0033164D01*
X0059121Y0033149D01*
X0059248Y0033131D01*
X0059374Y0033108D01*
X0059499Y0033081D01*
X0059623Y0033051D01*
X0059746Y0033017D01*
X0059869Y0032979D01*
X0059990Y0032937D01*
X0060109Y0032891D01*
X0060227Y0032842D01*
X0060344Y0032789D01*
X0060459Y0032733D01*
X0060572Y0032673D01*
X0060683Y0032610D01*
X0060792Y0032543D01*
X0060899Y0032473D01*
X0061004Y0032399D01*
X0061106Y0032323D01*
X0061206Y0032243D01*
X0061304Y0032160D01*
X0061399Y0032074D01*
X0061491Y0031985D01*
X0061580Y0031894D01*
X0061667Y0031800D01*
X0061750Y0031703D01*
X0061831Y0031603D01*
X0061908Y0031502D01*
X0061983Y0031397D01*
X0062054Y0031291D01*
X0062121Y0031182D01*
X0062186Y0031072D01*
X0062246Y0030959D01*
X0062304Y0030845D01*
X0062357Y0030729D01*
X0062407Y0030611D01*
X0062454Y0030492D01*
X0062497Y0030371D01*
X0062536Y0030249D01*
X0062571Y0030126D01*
X0062602Y0030002D01*
X0062630Y0029877D01*
X0062653Y0029751D01*
X0062673Y0029625D01*
X0062689Y0029498D01*
X0062701Y0029371D01*
X0062709Y0029243D01*
X0062713Y0029115D01*
X0062713Y0028987D01*
X0062709Y0028859D01*
X0062701Y0028731D01*
X0062689Y0028604D01*
X0062673Y0028477D01*
X0062653Y0028351D01*
X0062630Y0028225D01*
X0062602Y0028100D01*
X0062571Y0027976D01*
X0062536Y0027853D01*
X0062497Y0027731D01*
X0062454Y0027610D01*
X0062407Y0027491D01*
X0062357Y0027373D01*
X0062304Y0027257D01*
X0062246Y0027143D01*
X0062186Y0027030D01*
X0062121Y0026920D01*
X0062054Y0026811D01*
X0061983Y0026705D01*
X0061908Y0026600D01*
X0061831Y0026499D01*
X0061750Y0026399D01*
X0061667Y0026302D01*
X0061580Y0026208D01*
X0061491Y0026117D01*
X0061399Y0026028D01*
X0061304Y0025942D01*
X0061206Y0025859D01*
X0061106Y0025779D01*
X0061004Y0025703D01*
X0060899Y0025629D01*
X0060792Y0025559D01*
X0060683Y0025492D01*
X0060572Y0025429D01*
X0060459Y0025369D01*
X0060344Y0025313D01*
X0060227Y0025260D01*
X0060109Y0025211D01*
X0059990Y0025165D01*
X0059869Y0025123D01*
X0059746Y0025085D01*
X0059623Y0025051D01*
X0059499Y0025021D01*
X0059374Y0024994D01*
X0059248Y0024971D01*
X0059121Y0024953D01*
X0058994Y0024938D01*
X0058867Y0024927D01*
X0058739Y0024920D01*
X0058611Y0024917D01*
X0058483Y0024918D01*
X0058355Y0024923D01*
X0058228Y0024932D01*
X0058100Y0024945D01*
X0057973Y0024962D01*
X0057847Y0024982D01*
X0057722Y0025007D01*
X0057597Y0025035D01*
X0057473Y0025068D01*
X0057350Y0025104D01*
X0057229Y0025144D01*
X0057108Y0025187D01*
X0056990Y0025235D01*
X0056872Y0025286D01*
X0056757Y0025340D01*
X0056643Y0025399D01*
X0056530Y0025460D01*
X0056420Y0025525D01*
X0056312Y0025594D01*
X0056206Y0025666D01*
X0056103Y0025741D01*
X0056001Y0025819D01*
X0055903Y0025900D01*
X0055806Y0025985D01*
X0055713Y0026072D01*
X0055622Y0026162D01*
X0055534Y0026255D01*
X0055449Y0026350D01*
X0055367Y0026449D01*
X0055288Y0026549D01*
X0055212Y0026652D01*
X0055139Y0026758D01*
X0055070Y0026865D01*
X0055004Y0026975D01*
X0054942Y0027086D01*
X0054883Y0027200D01*
X0054827Y0027315D01*
X0054775Y0027432D01*
X0054727Y0027551D01*
X0054682Y0027671D01*
X0054641Y0027792D01*
X0054604Y0027914D01*
X0054571Y0028038D01*
X0054542Y0028162D01*
X0054516Y0028288D01*
X0054494Y0028414D01*
X0054477Y0028540D01*
X0054463Y0028668D01*
X0054453Y0028795D01*
X0054447Y0028923D01*
X0054445Y0029051D01*
X0058579Y0027083D02*
X0058389Y0027085D01*
X0058199Y0027092D01*
X0058009Y0027104D01*
X0057819Y0027120D01*
X0057630Y0027140D01*
X0057441Y0027166D01*
X0057253Y0027195D01*
X0057066Y0027230D01*
X0056880Y0027269D01*
X0056695Y0027312D01*
X0056510Y0027360D01*
X0056327Y0027412D01*
X0056146Y0027468D01*
X0055966Y0027529D01*
X0055787Y0027595D01*
X0055610Y0027664D01*
X0055434Y0027738D01*
X0055261Y0027816D01*
X0055089Y0027899D01*
X0054920Y0027985D01*
X0054752Y0028075D01*
X0054587Y0028170D01*
X0054424Y0028268D01*
X0054264Y0028371D01*
X0054106Y0028477D01*
X0053951Y0028587D01*
X0053798Y0028700D01*
X0053648Y0028818D01*
X0053502Y0028939D01*
X0053358Y0029063D01*
X0053217Y0029191D01*
X0053079Y0029322D01*
X0052944Y0029457D01*
X0052813Y0029595D01*
X0052685Y0029736D01*
X0052561Y0029880D01*
X0052440Y0030026D01*
X0052322Y0030176D01*
X0052209Y0030329D01*
X0052099Y0030484D01*
X0051993Y0030642D01*
X0051890Y0030802D01*
X0051792Y0030965D01*
X0051697Y0031130D01*
X0051607Y0031298D01*
X0051521Y0031467D01*
X0051438Y0031639D01*
X0051360Y0031812D01*
X0051286Y0031988D01*
X0051217Y0032165D01*
X0051151Y0032344D01*
X0051090Y0032524D01*
X0051034Y0032705D01*
X0050982Y0032888D01*
X0050934Y0033073D01*
X0050891Y0033258D01*
X0050852Y0033444D01*
X0050817Y0033631D01*
X0050788Y0033819D01*
X0050762Y0034008D01*
X0050742Y0034197D01*
X0050726Y0034387D01*
X0050714Y0034577D01*
X0050707Y0034767D01*
X0050705Y0034957D01*
X0163106Y0044799D02*
X0163108Y0044883D01*
X0163114Y0044966D01*
X0163124Y0045049D01*
X0163138Y0045132D01*
X0163155Y0045214D01*
X0163177Y0045295D01*
X0163202Y0045374D01*
X0163231Y0045453D01*
X0163264Y0045530D01*
X0163300Y0045605D01*
X0163340Y0045679D01*
X0163383Y0045751D01*
X0163430Y0045820D01*
X0163480Y0045887D01*
X0163533Y0045952D01*
X0163589Y0046014D01*
X0163647Y0046074D01*
X0163709Y0046131D01*
X0163773Y0046184D01*
X0163840Y0046235D01*
X0163909Y0046282D01*
X0163980Y0046327D01*
X0164053Y0046367D01*
X0164128Y0046404D01*
X0164205Y0046438D01*
X0164283Y0046468D01*
X0164362Y0046494D01*
X0164443Y0046517D01*
X0164525Y0046535D01*
X0164607Y0046550D01*
X0164690Y0046561D01*
X0164773Y0046568D01*
X0164857Y0046571D01*
X0164941Y0046570D01*
X0165024Y0046565D01*
X0165108Y0046556D01*
X0165190Y0046543D01*
X0165272Y0046527D01*
X0165353Y0046506D01*
X0165434Y0046482D01*
X0165512Y0046454D01*
X0165590Y0046422D01*
X0165666Y0046386D01*
X0165740Y0046347D01*
X0165812Y0046305D01*
X0165882Y0046259D01*
X0165950Y0046210D01*
X0166015Y0046158D01*
X0166078Y0046103D01*
X0166138Y0046045D01*
X0166196Y0045984D01*
X0166250Y0045920D01*
X0166302Y0045854D01*
X0166350Y0045786D01*
X0166395Y0045715D01*
X0166436Y0045642D01*
X0166475Y0045568D01*
X0166509Y0045492D01*
X0166540Y0045414D01*
X0166567Y0045335D01*
X0166591Y0045254D01*
X0166610Y0045173D01*
X0166626Y0045091D01*
X0166638Y0045008D01*
X0166646Y0044924D01*
X0166650Y0044841D01*
X0166650Y0044757D01*
X0166646Y0044674D01*
X0166638Y0044590D01*
X0166626Y0044507D01*
X0166610Y0044425D01*
X0166591Y0044344D01*
X0166567Y0044263D01*
X0166540Y0044184D01*
X0166509Y0044106D01*
X0166475Y0044030D01*
X0166436Y0043956D01*
X0166395Y0043883D01*
X0166350Y0043812D01*
X0166302Y0043744D01*
X0166250Y0043678D01*
X0166196Y0043614D01*
X0166138Y0043553D01*
X0166078Y0043495D01*
X0166015Y0043440D01*
X0165950Y0043388D01*
X0165882Y0043339D01*
X0165812Y0043293D01*
X0165740Y0043251D01*
X0165666Y0043212D01*
X0165590Y0043176D01*
X0165512Y0043144D01*
X0165434Y0043116D01*
X0165353Y0043092D01*
X0165272Y0043071D01*
X0165190Y0043055D01*
X0165108Y0043042D01*
X0165024Y0043033D01*
X0164941Y0043028D01*
X0164857Y0043027D01*
X0164773Y0043030D01*
X0164690Y0043037D01*
X0164607Y0043048D01*
X0164525Y0043063D01*
X0164443Y0043081D01*
X0164362Y0043104D01*
X0164283Y0043130D01*
X0164205Y0043160D01*
X0164128Y0043194D01*
X0164053Y0043231D01*
X0163980Y0043271D01*
X0163909Y0043316D01*
X0163840Y0043363D01*
X0163773Y0043414D01*
X0163709Y0043467D01*
X0163647Y0043524D01*
X0163589Y0043584D01*
X0163533Y0043646D01*
X0163480Y0043711D01*
X0163430Y0043778D01*
X0163383Y0043847D01*
X0163340Y0043919D01*
X0163300Y0043993D01*
X0163264Y0044068D01*
X0163231Y0044145D01*
X0163202Y0044224D01*
X0163177Y0044303D01*
X0163155Y0044384D01*
X0163138Y0044466D01*
X0163124Y0044549D01*
X0163114Y0044632D01*
X0163108Y0044715D01*
X0163106Y0044799D01*
X0170193Y0044799D02*
X0170195Y0044883D01*
X0170201Y0044966D01*
X0170211Y0045049D01*
X0170225Y0045132D01*
X0170242Y0045214D01*
X0170264Y0045295D01*
X0170289Y0045374D01*
X0170318Y0045453D01*
X0170351Y0045530D01*
X0170387Y0045605D01*
X0170427Y0045679D01*
X0170470Y0045751D01*
X0170517Y0045820D01*
X0170567Y0045887D01*
X0170620Y0045952D01*
X0170676Y0046014D01*
X0170734Y0046074D01*
X0170796Y0046131D01*
X0170860Y0046184D01*
X0170927Y0046235D01*
X0170996Y0046282D01*
X0171067Y0046327D01*
X0171140Y0046367D01*
X0171215Y0046404D01*
X0171292Y0046438D01*
X0171370Y0046468D01*
X0171449Y0046494D01*
X0171530Y0046517D01*
X0171612Y0046535D01*
X0171694Y0046550D01*
X0171777Y0046561D01*
X0171860Y0046568D01*
X0171944Y0046571D01*
X0172028Y0046570D01*
X0172111Y0046565D01*
X0172195Y0046556D01*
X0172277Y0046543D01*
X0172359Y0046527D01*
X0172440Y0046506D01*
X0172521Y0046482D01*
X0172599Y0046454D01*
X0172677Y0046422D01*
X0172753Y0046386D01*
X0172827Y0046347D01*
X0172899Y0046305D01*
X0172969Y0046259D01*
X0173037Y0046210D01*
X0173102Y0046158D01*
X0173165Y0046103D01*
X0173225Y0046045D01*
X0173283Y0045984D01*
X0173337Y0045920D01*
X0173389Y0045854D01*
X0173437Y0045786D01*
X0173482Y0045715D01*
X0173523Y0045642D01*
X0173562Y0045568D01*
X0173596Y0045492D01*
X0173627Y0045414D01*
X0173654Y0045335D01*
X0173678Y0045254D01*
X0173697Y0045173D01*
X0173713Y0045091D01*
X0173725Y0045008D01*
X0173733Y0044924D01*
X0173737Y0044841D01*
X0173737Y0044757D01*
X0173733Y0044674D01*
X0173725Y0044590D01*
X0173713Y0044507D01*
X0173697Y0044425D01*
X0173678Y0044344D01*
X0173654Y0044263D01*
X0173627Y0044184D01*
X0173596Y0044106D01*
X0173562Y0044030D01*
X0173523Y0043956D01*
X0173482Y0043883D01*
X0173437Y0043812D01*
X0173389Y0043744D01*
X0173337Y0043678D01*
X0173283Y0043614D01*
X0173225Y0043553D01*
X0173165Y0043495D01*
X0173102Y0043440D01*
X0173037Y0043388D01*
X0172969Y0043339D01*
X0172899Y0043293D01*
X0172827Y0043251D01*
X0172753Y0043212D01*
X0172677Y0043176D01*
X0172599Y0043144D01*
X0172521Y0043116D01*
X0172440Y0043092D01*
X0172359Y0043071D01*
X0172277Y0043055D01*
X0172195Y0043042D01*
X0172111Y0043033D01*
X0172028Y0043028D01*
X0171944Y0043027D01*
X0171860Y0043030D01*
X0171777Y0043037D01*
X0171694Y0043048D01*
X0171612Y0043063D01*
X0171530Y0043081D01*
X0171449Y0043104D01*
X0171370Y0043130D01*
X0171292Y0043160D01*
X0171215Y0043194D01*
X0171140Y0043231D01*
X0171067Y0043271D01*
X0170996Y0043316D01*
X0170927Y0043363D01*
X0170860Y0043414D01*
X0170796Y0043467D01*
X0170734Y0043524D01*
X0170676Y0043584D01*
X0170620Y0043646D01*
X0170567Y0043711D01*
X0170517Y0043778D01*
X0170470Y0043847D01*
X0170427Y0043919D01*
X0170387Y0043993D01*
X0170351Y0044068D01*
X0170318Y0044145D01*
X0170289Y0044224D01*
X0170264Y0044303D01*
X0170242Y0044384D01*
X0170225Y0044466D01*
X0170211Y0044549D01*
X0170201Y0044632D01*
X0170195Y0044715D01*
X0170193Y0044799D01*
X0162712Y0029051D02*
X0162714Y0029179D01*
X0162720Y0029307D01*
X0162730Y0029434D01*
X0162744Y0029562D01*
X0162761Y0029688D01*
X0162783Y0029814D01*
X0162809Y0029940D01*
X0162838Y0030064D01*
X0162871Y0030188D01*
X0162908Y0030310D01*
X0162949Y0030431D01*
X0162994Y0030551D01*
X0163042Y0030670D01*
X0163094Y0030787D01*
X0163150Y0030902D01*
X0163209Y0031016D01*
X0163271Y0031127D01*
X0163337Y0031237D01*
X0163406Y0031344D01*
X0163479Y0031450D01*
X0163555Y0031553D01*
X0163634Y0031653D01*
X0163716Y0031752D01*
X0163801Y0031847D01*
X0163889Y0031940D01*
X0163980Y0032030D01*
X0164073Y0032117D01*
X0164170Y0032202D01*
X0164268Y0032283D01*
X0164370Y0032361D01*
X0164473Y0032436D01*
X0164579Y0032508D01*
X0164687Y0032577D01*
X0164797Y0032642D01*
X0164910Y0032703D01*
X0165024Y0032762D01*
X0165139Y0032816D01*
X0165257Y0032867D01*
X0165375Y0032915D01*
X0165496Y0032958D01*
X0165617Y0032998D01*
X0165740Y0033034D01*
X0165864Y0033067D01*
X0165989Y0033095D01*
X0166114Y0033120D01*
X0166240Y0033140D01*
X0166367Y0033157D01*
X0166495Y0033170D01*
X0166622Y0033179D01*
X0166750Y0033184D01*
X0166878Y0033185D01*
X0167006Y0033182D01*
X0167134Y0033175D01*
X0167261Y0033164D01*
X0167388Y0033149D01*
X0167515Y0033131D01*
X0167641Y0033108D01*
X0167766Y0033081D01*
X0167890Y0033051D01*
X0168013Y0033017D01*
X0168136Y0032979D01*
X0168257Y0032937D01*
X0168376Y0032891D01*
X0168494Y0032842D01*
X0168611Y0032789D01*
X0168726Y0032733D01*
X0168839Y0032673D01*
X0168950Y0032610D01*
X0169059Y0032543D01*
X0169166Y0032473D01*
X0169271Y0032399D01*
X0169373Y0032323D01*
X0169473Y0032243D01*
X0169571Y0032160D01*
X0169666Y0032074D01*
X0169758Y0031985D01*
X0169847Y0031894D01*
X0169934Y0031800D01*
X0170017Y0031703D01*
X0170098Y0031603D01*
X0170175Y0031502D01*
X0170250Y0031397D01*
X0170321Y0031291D01*
X0170388Y0031182D01*
X0170453Y0031072D01*
X0170513Y0030959D01*
X0170571Y0030845D01*
X0170624Y0030729D01*
X0170674Y0030611D01*
X0170721Y0030492D01*
X0170764Y0030371D01*
X0170803Y0030249D01*
X0170838Y0030126D01*
X0170869Y0030002D01*
X0170897Y0029877D01*
X0170920Y0029751D01*
X0170940Y0029625D01*
X0170956Y0029498D01*
X0170968Y0029371D01*
X0170976Y0029243D01*
X0170980Y0029115D01*
X0170980Y0028987D01*
X0170976Y0028859D01*
X0170968Y0028731D01*
X0170956Y0028604D01*
X0170940Y0028477D01*
X0170920Y0028351D01*
X0170897Y0028225D01*
X0170869Y0028100D01*
X0170838Y0027976D01*
X0170803Y0027853D01*
X0170764Y0027731D01*
X0170721Y0027610D01*
X0170674Y0027491D01*
X0170624Y0027373D01*
X0170571Y0027257D01*
X0170513Y0027143D01*
X0170453Y0027030D01*
X0170388Y0026920D01*
X0170321Y0026811D01*
X0170250Y0026705D01*
X0170175Y0026600D01*
X0170098Y0026499D01*
X0170017Y0026399D01*
X0169934Y0026302D01*
X0169847Y0026208D01*
X0169758Y0026117D01*
X0169666Y0026028D01*
X0169571Y0025942D01*
X0169473Y0025859D01*
X0169373Y0025779D01*
X0169271Y0025703D01*
X0169166Y0025629D01*
X0169059Y0025559D01*
X0168950Y0025492D01*
X0168839Y0025429D01*
X0168726Y0025369D01*
X0168611Y0025313D01*
X0168494Y0025260D01*
X0168376Y0025211D01*
X0168257Y0025165D01*
X0168136Y0025123D01*
X0168013Y0025085D01*
X0167890Y0025051D01*
X0167766Y0025021D01*
X0167641Y0024994D01*
X0167515Y0024971D01*
X0167388Y0024953D01*
X0167261Y0024938D01*
X0167134Y0024927D01*
X0167006Y0024920D01*
X0166878Y0024917D01*
X0166750Y0024918D01*
X0166622Y0024923D01*
X0166495Y0024932D01*
X0166367Y0024945D01*
X0166240Y0024962D01*
X0166114Y0024982D01*
X0165989Y0025007D01*
X0165864Y0025035D01*
X0165740Y0025068D01*
X0165617Y0025104D01*
X0165496Y0025144D01*
X0165375Y0025187D01*
X0165257Y0025235D01*
X0165139Y0025286D01*
X0165024Y0025340D01*
X0164910Y0025399D01*
X0164797Y0025460D01*
X0164687Y0025525D01*
X0164579Y0025594D01*
X0164473Y0025666D01*
X0164370Y0025741D01*
X0164268Y0025819D01*
X0164170Y0025900D01*
X0164073Y0025985D01*
X0163980Y0026072D01*
X0163889Y0026162D01*
X0163801Y0026255D01*
X0163716Y0026350D01*
X0163634Y0026449D01*
X0163555Y0026549D01*
X0163479Y0026652D01*
X0163406Y0026758D01*
X0163337Y0026865D01*
X0163271Y0026975D01*
X0163209Y0027086D01*
X0163150Y0027200D01*
X0163094Y0027315D01*
X0163042Y0027432D01*
X0162994Y0027551D01*
X0162949Y0027671D01*
X0162908Y0027792D01*
X0162871Y0027914D01*
X0162838Y0028038D01*
X0162809Y0028162D01*
X0162783Y0028288D01*
X0162761Y0028414D01*
X0162744Y0028540D01*
X0162730Y0028668D01*
X0162720Y0028795D01*
X0162714Y0028923D01*
X0162712Y0029051D01*
X0163106Y0107004D02*
X0163108Y0107088D01*
X0163114Y0107171D01*
X0163124Y0107254D01*
X0163138Y0107337D01*
X0163155Y0107419D01*
X0163177Y0107500D01*
X0163202Y0107579D01*
X0163231Y0107658D01*
X0163264Y0107735D01*
X0163300Y0107810D01*
X0163340Y0107884D01*
X0163383Y0107956D01*
X0163430Y0108025D01*
X0163480Y0108092D01*
X0163533Y0108157D01*
X0163589Y0108219D01*
X0163647Y0108279D01*
X0163709Y0108336D01*
X0163773Y0108389D01*
X0163840Y0108440D01*
X0163909Y0108487D01*
X0163980Y0108532D01*
X0164053Y0108572D01*
X0164128Y0108609D01*
X0164205Y0108643D01*
X0164283Y0108673D01*
X0164362Y0108699D01*
X0164443Y0108722D01*
X0164525Y0108740D01*
X0164607Y0108755D01*
X0164690Y0108766D01*
X0164773Y0108773D01*
X0164857Y0108776D01*
X0164941Y0108775D01*
X0165024Y0108770D01*
X0165108Y0108761D01*
X0165190Y0108748D01*
X0165272Y0108732D01*
X0165353Y0108711D01*
X0165434Y0108687D01*
X0165512Y0108659D01*
X0165590Y0108627D01*
X0165666Y0108591D01*
X0165740Y0108552D01*
X0165812Y0108510D01*
X0165882Y0108464D01*
X0165950Y0108415D01*
X0166015Y0108363D01*
X0166078Y0108308D01*
X0166138Y0108250D01*
X0166196Y0108189D01*
X0166250Y0108125D01*
X0166302Y0108059D01*
X0166350Y0107991D01*
X0166395Y0107920D01*
X0166436Y0107847D01*
X0166475Y0107773D01*
X0166509Y0107697D01*
X0166540Y0107619D01*
X0166567Y0107540D01*
X0166591Y0107459D01*
X0166610Y0107378D01*
X0166626Y0107296D01*
X0166638Y0107213D01*
X0166646Y0107129D01*
X0166650Y0107046D01*
X0166650Y0106962D01*
X0166646Y0106879D01*
X0166638Y0106795D01*
X0166626Y0106712D01*
X0166610Y0106630D01*
X0166591Y0106549D01*
X0166567Y0106468D01*
X0166540Y0106389D01*
X0166509Y0106311D01*
X0166475Y0106235D01*
X0166436Y0106161D01*
X0166395Y0106088D01*
X0166350Y0106017D01*
X0166302Y0105949D01*
X0166250Y0105883D01*
X0166196Y0105819D01*
X0166138Y0105758D01*
X0166078Y0105700D01*
X0166015Y0105645D01*
X0165950Y0105593D01*
X0165882Y0105544D01*
X0165812Y0105498D01*
X0165740Y0105456D01*
X0165666Y0105417D01*
X0165590Y0105381D01*
X0165512Y0105349D01*
X0165434Y0105321D01*
X0165353Y0105297D01*
X0165272Y0105276D01*
X0165190Y0105260D01*
X0165108Y0105247D01*
X0165024Y0105238D01*
X0164941Y0105233D01*
X0164857Y0105232D01*
X0164773Y0105235D01*
X0164690Y0105242D01*
X0164607Y0105253D01*
X0164525Y0105268D01*
X0164443Y0105286D01*
X0164362Y0105309D01*
X0164283Y0105335D01*
X0164205Y0105365D01*
X0164128Y0105399D01*
X0164053Y0105436D01*
X0163980Y0105476D01*
X0163909Y0105521D01*
X0163840Y0105568D01*
X0163773Y0105619D01*
X0163709Y0105672D01*
X0163647Y0105729D01*
X0163589Y0105789D01*
X0163533Y0105851D01*
X0163480Y0105916D01*
X0163430Y0105983D01*
X0163383Y0106052D01*
X0163340Y0106124D01*
X0163300Y0106198D01*
X0163264Y0106273D01*
X0163231Y0106350D01*
X0163202Y0106429D01*
X0163177Y0106508D01*
X0163155Y0106589D01*
X0163138Y0106671D01*
X0163124Y0106754D01*
X0163114Y0106837D01*
X0163108Y0106920D01*
X0163106Y0107004D01*
X0170193Y0107004D02*
X0170195Y0107088D01*
X0170201Y0107171D01*
X0170211Y0107254D01*
X0170225Y0107337D01*
X0170242Y0107419D01*
X0170264Y0107500D01*
X0170289Y0107579D01*
X0170318Y0107658D01*
X0170351Y0107735D01*
X0170387Y0107810D01*
X0170427Y0107884D01*
X0170470Y0107956D01*
X0170517Y0108025D01*
X0170567Y0108092D01*
X0170620Y0108157D01*
X0170676Y0108219D01*
X0170734Y0108279D01*
X0170796Y0108336D01*
X0170860Y0108389D01*
X0170927Y0108440D01*
X0170996Y0108487D01*
X0171067Y0108532D01*
X0171140Y0108572D01*
X0171215Y0108609D01*
X0171292Y0108643D01*
X0171370Y0108673D01*
X0171449Y0108699D01*
X0171530Y0108722D01*
X0171612Y0108740D01*
X0171694Y0108755D01*
X0171777Y0108766D01*
X0171860Y0108773D01*
X0171944Y0108776D01*
X0172028Y0108775D01*
X0172111Y0108770D01*
X0172195Y0108761D01*
X0172277Y0108748D01*
X0172359Y0108732D01*
X0172440Y0108711D01*
X0172521Y0108687D01*
X0172599Y0108659D01*
X0172677Y0108627D01*
X0172753Y0108591D01*
X0172827Y0108552D01*
X0172899Y0108510D01*
X0172969Y0108464D01*
X0173037Y0108415D01*
X0173102Y0108363D01*
X0173165Y0108308D01*
X0173225Y0108250D01*
X0173283Y0108189D01*
X0173337Y0108125D01*
X0173389Y0108059D01*
X0173437Y0107991D01*
X0173482Y0107920D01*
X0173523Y0107847D01*
X0173562Y0107773D01*
X0173596Y0107697D01*
X0173627Y0107619D01*
X0173654Y0107540D01*
X0173678Y0107459D01*
X0173697Y0107378D01*
X0173713Y0107296D01*
X0173725Y0107213D01*
X0173733Y0107129D01*
X0173737Y0107046D01*
X0173737Y0106962D01*
X0173733Y0106879D01*
X0173725Y0106795D01*
X0173713Y0106712D01*
X0173697Y0106630D01*
X0173678Y0106549D01*
X0173654Y0106468D01*
X0173627Y0106389D01*
X0173596Y0106311D01*
X0173562Y0106235D01*
X0173523Y0106161D01*
X0173482Y0106088D01*
X0173437Y0106017D01*
X0173389Y0105949D01*
X0173337Y0105883D01*
X0173283Y0105819D01*
X0173225Y0105758D01*
X0173165Y0105700D01*
X0173102Y0105645D01*
X0173037Y0105593D01*
X0172969Y0105544D01*
X0172899Y0105498D01*
X0172827Y0105456D01*
X0172753Y0105417D01*
X0172677Y0105381D01*
X0172599Y0105349D01*
X0172521Y0105321D01*
X0172440Y0105297D01*
X0172359Y0105276D01*
X0172277Y0105260D01*
X0172195Y0105247D01*
X0172111Y0105238D01*
X0172028Y0105233D01*
X0171944Y0105232D01*
X0171860Y0105235D01*
X0171777Y0105242D01*
X0171694Y0105253D01*
X0171612Y0105268D01*
X0171530Y0105286D01*
X0171449Y0105309D01*
X0171370Y0105335D01*
X0171292Y0105365D01*
X0171215Y0105399D01*
X0171140Y0105436D01*
X0171067Y0105476D01*
X0170996Y0105521D01*
X0170927Y0105568D01*
X0170860Y0105619D01*
X0170796Y0105672D01*
X0170734Y0105729D01*
X0170676Y0105789D01*
X0170620Y0105851D01*
X0170567Y0105916D01*
X0170517Y0105983D01*
X0170470Y0106052D01*
X0170427Y0106124D01*
X0170387Y0106198D01*
X0170351Y0106273D01*
X0170318Y0106350D01*
X0170289Y0106429D01*
X0170264Y0106508D01*
X0170242Y0106589D01*
X0170225Y0106671D01*
X0170211Y0106754D01*
X0170201Y0106837D01*
X0170195Y0106920D01*
X0170193Y0107004D01*
X0170193Y0127870D02*
X0170195Y0127954D01*
X0170201Y0128037D01*
X0170211Y0128120D01*
X0170225Y0128203D01*
X0170242Y0128285D01*
X0170264Y0128366D01*
X0170289Y0128445D01*
X0170318Y0128524D01*
X0170351Y0128601D01*
X0170387Y0128676D01*
X0170427Y0128750D01*
X0170470Y0128822D01*
X0170517Y0128891D01*
X0170567Y0128958D01*
X0170620Y0129023D01*
X0170676Y0129085D01*
X0170734Y0129145D01*
X0170796Y0129202D01*
X0170860Y0129255D01*
X0170927Y0129306D01*
X0170996Y0129353D01*
X0171067Y0129398D01*
X0171140Y0129438D01*
X0171215Y0129475D01*
X0171292Y0129509D01*
X0171370Y0129539D01*
X0171449Y0129565D01*
X0171530Y0129588D01*
X0171612Y0129606D01*
X0171694Y0129621D01*
X0171777Y0129632D01*
X0171860Y0129639D01*
X0171944Y0129642D01*
X0172028Y0129641D01*
X0172111Y0129636D01*
X0172195Y0129627D01*
X0172277Y0129614D01*
X0172359Y0129598D01*
X0172440Y0129577D01*
X0172521Y0129553D01*
X0172599Y0129525D01*
X0172677Y0129493D01*
X0172753Y0129457D01*
X0172827Y0129418D01*
X0172899Y0129376D01*
X0172969Y0129330D01*
X0173037Y0129281D01*
X0173102Y0129229D01*
X0173165Y0129174D01*
X0173225Y0129116D01*
X0173283Y0129055D01*
X0173337Y0128991D01*
X0173389Y0128925D01*
X0173437Y0128857D01*
X0173482Y0128786D01*
X0173523Y0128713D01*
X0173562Y0128639D01*
X0173596Y0128563D01*
X0173627Y0128485D01*
X0173654Y0128406D01*
X0173678Y0128325D01*
X0173697Y0128244D01*
X0173713Y0128162D01*
X0173725Y0128079D01*
X0173733Y0127995D01*
X0173737Y0127912D01*
X0173737Y0127828D01*
X0173733Y0127745D01*
X0173725Y0127661D01*
X0173713Y0127578D01*
X0173697Y0127496D01*
X0173678Y0127415D01*
X0173654Y0127334D01*
X0173627Y0127255D01*
X0173596Y0127177D01*
X0173562Y0127101D01*
X0173523Y0127027D01*
X0173482Y0126954D01*
X0173437Y0126883D01*
X0173389Y0126815D01*
X0173337Y0126749D01*
X0173283Y0126685D01*
X0173225Y0126624D01*
X0173165Y0126566D01*
X0173102Y0126511D01*
X0173037Y0126459D01*
X0172969Y0126410D01*
X0172899Y0126364D01*
X0172827Y0126322D01*
X0172753Y0126283D01*
X0172677Y0126247D01*
X0172599Y0126215D01*
X0172521Y0126187D01*
X0172440Y0126163D01*
X0172359Y0126142D01*
X0172277Y0126126D01*
X0172195Y0126113D01*
X0172111Y0126104D01*
X0172028Y0126099D01*
X0171944Y0126098D01*
X0171860Y0126101D01*
X0171777Y0126108D01*
X0171694Y0126119D01*
X0171612Y0126134D01*
X0171530Y0126152D01*
X0171449Y0126175D01*
X0171370Y0126201D01*
X0171292Y0126231D01*
X0171215Y0126265D01*
X0171140Y0126302D01*
X0171067Y0126342D01*
X0170996Y0126387D01*
X0170927Y0126434D01*
X0170860Y0126485D01*
X0170796Y0126538D01*
X0170734Y0126595D01*
X0170676Y0126655D01*
X0170620Y0126717D01*
X0170567Y0126782D01*
X0170517Y0126849D01*
X0170470Y0126918D01*
X0170427Y0126990D01*
X0170387Y0127064D01*
X0170351Y0127139D01*
X0170318Y0127216D01*
X0170289Y0127295D01*
X0170264Y0127374D01*
X0170242Y0127455D01*
X0170225Y0127537D01*
X0170211Y0127620D01*
X0170201Y0127703D01*
X0170195Y0127786D01*
X0170193Y0127870D01*
X0163106Y0127870D02*
X0163108Y0127954D01*
X0163114Y0128037D01*
X0163124Y0128120D01*
X0163138Y0128203D01*
X0163155Y0128285D01*
X0163177Y0128366D01*
X0163202Y0128445D01*
X0163231Y0128524D01*
X0163264Y0128601D01*
X0163300Y0128676D01*
X0163340Y0128750D01*
X0163383Y0128822D01*
X0163430Y0128891D01*
X0163480Y0128958D01*
X0163533Y0129023D01*
X0163589Y0129085D01*
X0163647Y0129145D01*
X0163709Y0129202D01*
X0163773Y0129255D01*
X0163840Y0129306D01*
X0163909Y0129353D01*
X0163980Y0129398D01*
X0164053Y0129438D01*
X0164128Y0129475D01*
X0164205Y0129509D01*
X0164283Y0129539D01*
X0164362Y0129565D01*
X0164443Y0129588D01*
X0164525Y0129606D01*
X0164607Y0129621D01*
X0164690Y0129632D01*
X0164773Y0129639D01*
X0164857Y0129642D01*
X0164941Y0129641D01*
X0165024Y0129636D01*
X0165108Y0129627D01*
X0165190Y0129614D01*
X0165272Y0129598D01*
X0165353Y0129577D01*
X0165434Y0129553D01*
X0165512Y0129525D01*
X0165590Y0129493D01*
X0165666Y0129457D01*
X0165740Y0129418D01*
X0165812Y0129376D01*
X0165882Y0129330D01*
X0165950Y0129281D01*
X0166015Y0129229D01*
X0166078Y0129174D01*
X0166138Y0129116D01*
X0166196Y0129055D01*
X0166250Y0128991D01*
X0166302Y0128925D01*
X0166350Y0128857D01*
X0166395Y0128786D01*
X0166436Y0128713D01*
X0166475Y0128639D01*
X0166509Y0128563D01*
X0166540Y0128485D01*
X0166567Y0128406D01*
X0166591Y0128325D01*
X0166610Y0128244D01*
X0166626Y0128162D01*
X0166638Y0128079D01*
X0166646Y0127995D01*
X0166650Y0127912D01*
X0166650Y0127828D01*
X0166646Y0127745D01*
X0166638Y0127661D01*
X0166626Y0127578D01*
X0166610Y0127496D01*
X0166591Y0127415D01*
X0166567Y0127334D01*
X0166540Y0127255D01*
X0166509Y0127177D01*
X0166475Y0127101D01*
X0166436Y0127027D01*
X0166395Y0126954D01*
X0166350Y0126883D01*
X0166302Y0126815D01*
X0166250Y0126749D01*
X0166196Y0126685D01*
X0166138Y0126624D01*
X0166078Y0126566D01*
X0166015Y0126511D01*
X0165950Y0126459D01*
X0165882Y0126410D01*
X0165812Y0126364D01*
X0165740Y0126322D01*
X0165666Y0126283D01*
X0165590Y0126247D01*
X0165512Y0126215D01*
X0165434Y0126187D01*
X0165353Y0126163D01*
X0165272Y0126142D01*
X0165190Y0126126D01*
X0165108Y0126113D01*
X0165024Y0126104D01*
X0164941Y0126099D01*
X0164857Y0126098D01*
X0164773Y0126101D01*
X0164690Y0126108D01*
X0164607Y0126119D01*
X0164525Y0126134D01*
X0164443Y0126152D01*
X0164362Y0126175D01*
X0164283Y0126201D01*
X0164205Y0126231D01*
X0164128Y0126265D01*
X0164053Y0126302D01*
X0163980Y0126342D01*
X0163909Y0126387D01*
X0163840Y0126434D01*
X0163773Y0126485D01*
X0163709Y0126538D01*
X0163647Y0126595D01*
X0163589Y0126655D01*
X0163533Y0126717D01*
X0163480Y0126782D01*
X0163430Y0126849D01*
X0163383Y0126918D01*
X0163340Y0126990D01*
X0163300Y0127064D01*
X0163264Y0127139D01*
X0163231Y0127216D01*
X0163202Y0127295D01*
X0163177Y0127374D01*
X0163155Y0127455D01*
X0163138Y0127537D01*
X0163124Y0127620D01*
X0163114Y0127703D01*
X0163108Y0127786D01*
X0163106Y0127870D01*
X0054445Y0143224D02*
X0054447Y0143352D01*
X0054453Y0143480D01*
X0054463Y0143607D01*
X0054477Y0143735D01*
X0054494Y0143861D01*
X0054516Y0143987D01*
X0054542Y0144113D01*
X0054571Y0144237D01*
X0054604Y0144361D01*
X0054641Y0144483D01*
X0054682Y0144604D01*
X0054727Y0144724D01*
X0054775Y0144843D01*
X0054827Y0144960D01*
X0054883Y0145075D01*
X0054942Y0145189D01*
X0055004Y0145300D01*
X0055070Y0145410D01*
X0055139Y0145517D01*
X0055212Y0145623D01*
X0055288Y0145726D01*
X0055367Y0145826D01*
X0055449Y0145925D01*
X0055534Y0146020D01*
X0055622Y0146113D01*
X0055713Y0146203D01*
X0055806Y0146290D01*
X0055903Y0146375D01*
X0056001Y0146456D01*
X0056103Y0146534D01*
X0056206Y0146609D01*
X0056312Y0146681D01*
X0056420Y0146750D01*
X0056530Y0146815D01*
X0056643Y0146876D01*
X0056757Y0146935D01*
X0056872Y0146989D01*
X0056990Y0147040D01*
X0057108Y0147088D01*
X0057229Y0147131D01*
X0057350Y0147171D01*
X0057473Y0147207D01*
X0057597Y0147240D01*
X0057722Y0147268D01*
X0057847Y0147293D01*
X0057973Y0147313D01*
X0058100Y0147330D01*
X0058228Y0147343D01*
X0058355Y0147352D01*
X0058483Y0147357D01*
X0058611Y0147358D01*
X0058739Y0147355D01*
X0058867Y0147348D01*
X0058994Y0147337D01*
X0059121Y0147322D01*
X0059248Y0147304D01*
X0059374Y0147281D01*
X0059499Y0147254D01*
X0059623Y0147224D01*
X0059746Y0147190D01*
X0059869Y0147152D01*
X0059990Y0147110D01*
X0060109Y0147064D01*
X0060227Y0147015D01*
X0060344Y0146962D01*
X0060459Y0146906D01*
X0060572Y0146846D01*
X0060683Y0146783D01*
X0060792Y0146716D01*
X0060899Y0146646D01*
X0061004Y0146572D01*
X0061106Y0146496D01*
X0061206Y0146416D01*
X0061304Y0146333D01*
X0061399Y0146247D01*
X0061491Y0146158D01*
X0061580Y0146067D01*
X0061667Y0145973D01*
X0061750Y0145876D01*
X0061831Y0145776D01*
X0061908Y0145675D01*
X0061983Y0145570D01*
X0062054Y0145464D01*
X0062121Y0145355D01*
X0062186Y0145245D01*
X0062246Y0145132D01*
X0062304Y0145018D01*
X0062357Y0144902D01*
X0062407Y0144784D01*
X0062454Y0144665D01*
X0062497Y0144544D01*
X0062536Y0144422D01*
X0062571Y0144299D01*
X0062602Y0144175D01*
X0062630Y0144050D01*
X0062653Y0143924D01*
X0062673Y0143798D01*
X0062689Y0143671D01*
X0062701Y0143544D01*
X0062709Y0143416D01*
X0062713Y0143288D01*
X0062713Y0143160D01*
X0062709Y0143032D01*
X0062701Y0142904D01*
X0062689Y0142777D01*
X0062673Y0142650D01*
X0062653Y0142524D01*
X0062630Y0142398D01*
X0062602Y0142273D01*
X0062571Y0142149D01*
X0062536Y0142026D01*
X0062497Y0141904D01*
X0062454Y0141783D01*
X0062407Y0141664D01*
X0062357Y0141546D01*
X0062304Y0141430D01*
X0062246Y0141316D01*
X0062186Y0141203D01*
X0062121Y0141093D01*
X0062054Y0140984D01*
X0061983Y0140878D01*
X0061908Y0140773D01*
X0061831Y0140672D01*
X0061750Y0140572D01*
X0061667Y0140475D01*
X0061580Y0140381D01*
X0061491Y0140290D01*
X0061399Y0140201D01*
X0061304Y0140115D01*
X0061206Y0140032D01*
X0061106Y0139952D01*
X0061004Y0139876D01*
X0060899Y0139802D01*
X0060792Y0139732D01*
X0060683Y0139665D01*
X0060572Y0139602D01*
X0060459Y0139542D01*
X0060344Y0139486D01*
X0060227Y0139433D01*
X0060109Y0139384D01*
X0059990Y0139338D01*
X0059869Y0139296D01*
X0059746Y0139258D01*
X0059623Y0139224D01*
X0059499Y0139194D01*
X0059374Y0139167D01*
X0059248Y0139144D01*
X0059121Y0139126D01*
X0058994Y0139111D01*
X0058867Y0139100D01*
X0058739Y0139093D01*
X0058611Y0139090D01*
X0058483Y0139091D01*
X0058355Y0139096D01*
X0058228Y0139105D01*
X0058100Y0139118D01*
X0057973Y0139135D01*
X0057847Y0139155D01*
X0057722Y0139180D01*
X0057597Y0139208D01*
X0057473Y0139241D01*
X0057350Y0139277D01*
X0057229Y0139317D01*
X0057108Y0139360D01*
X0056990Y0139408D01*
X0056872Y0139459D01*
X0056757Y0139513D01*
X0056643Y0139572D01*
X0056530Y0139633D01*
X0056420Y0139698D01*
X0056312Y0139767D01*
X0056206Y0139839D01*
X0056103Y0139914D01*
X0056001Y0139992D01*
X0055903Y0140073D01*
X0055806Y0140158D01*
X0055713Y0140245D01*
X0055622Y0140335D01*
X0055534Y0140428D01*
X0055449Y0140523D01*
X0055367Y0140622D01*
X0055288Y0140722D01*
X0055212Y0140825D01*
X0055139Y0140931D01*
X0055070Y0141038D01*
X0055004Y0141148D01*
X0054942Y0141259D01*
X0054883Y0141373D01*
X0054827Y0141488D01*
X0054775Y0141605D01*
X0054727Y0141724D01*
X0054682Y0141844D01*
X0054641Y0141965D01*
X0054604Y0142087D01*
X0054571Y0142211D01*
X0054542Y0142335D01*
X0054516Y0142461D01*
X0054494Y0142587D01*
X0054477Y0142713D01*
X0054463Y0142841D01*
X0054453Y0142968D01*
X0054447Y0143096D01*
X0054445Y0143224D01*
D11*
X0054445Y0136965D02*
X0054445Y0083815D01*
X0125311Y0083815D01*
X0125311Y0136965D01*
X0054445Y0136965D01*
D12*
X0059169Y0123431D02*
X0061469Y0123431D01*
X0061469Y0122281D01*
X0061467Y0122223D01*
X0061461Y0122164D01*
X0061452Y0122107D01*
X0061439Y0122050D01*
X0061422Y0121994D01*
X0061401Y0121939D01*
X0061377Y0121886D01*
X0061349Y0121834D01*
X0061318Y0121784D01*
X0061284Y0121737D01*
X0061247Y0121692D01*
X0061207Y0121649D01*
X0061164Y0121609D01*
X0061119Y0121572D01*
X0061072Y0121538D01*
X0061022Y0121507D01*
X0060970Y0121479D01*
X0060917Y0121455D01*
X0060862Y0121434D01*
X0060806Y0121417D01*
X0060749Y0121404D01*
X0060692Y0121395D01*
X0060633Y0121389D01*
X0060575Y0121387D01*
X0060517Y0121389D01*
X0060458Y0121395D01*
X0060401Y0121404D01*
X0060344Y0121417D01*
X0060288Y0121434D01*
X0060233Y0121455D01*
X0060180Y0121479D01*
X0060128Y0121507D01*
X0060078Y0121538D01*
X0060031Y0121572D01*
X0059986Y0121609D01*
X0059943Y0121649D01*
X0059903Y0121692D01*
X0059866Y0121737D01*
X0059832Y0121784D01*
X0059801Y0121834D01*
X0059773Y0121886D01*
X0059749Y0121939D01*
X0059728Y0121994D01*
X0059711Y0122050D01*
X0059698Y0122107D01*
X0059689Y0122164D01*
X0059683Y0122223D01*
X0059681Y0122281D01*
X0059680Y0122281D02*
X0059680Y0123431D01*
X0059169Y0123431D02*
X0059114Y0123429D01*
X0059060Y0123423D01*
X0059006Y0123413D01*
X0058953Y0123400D01*
X0058901Y0123383D01*
X0058850Y0123362D01*
X0058801Y0123337D01*
X0058754Y0123309D01*
X0058709Y0123278D01*
X0058667Y0123244D01*
X0058627Y0123206D01*
X0058589Y0123166D01*
X0058555Y0123124D01*
X0058524Y0123079D01*
X0058496Y0123032D01*
X0058471Y0122983D01*
X0058450Y0122932D01*
X0058433Y0122880D01*
X0058420Y0122827D01*
X0058410Y0122773D01*
X0058404Y0122719D01*
X0058402Y0122664D01*
X0058403Y0122664D02*
X0058403Y0121642D01*
X0059169Y0119404D02*
X0061469Y0119404D01*
X0061469Y0117360D02*
X0058403Y0117360D01*
X0058403Y0118637D01*
X0058402Y0118637D02*
X0058404Y0118692D01*
X0058410Y0118746D01*
X0058420Y0118800D01*
X0058433Y0118853D01*
X0058450Y0118905D01*
X0058471Y0118956D01*
X0058496Y0119005D01*
X0058524Y0119052D01*
X0058555Y0119097D01*
X0058589Y0119139D01*
X0058627Y0119179D01*
X0058667Y0119217D01*
X0058709Y0119251D01*
X0058754Y0119282D01*
X0058801Y0119310D01*
X0058850Y0119335D01*
X0058901Y0119356D01*
X0058953Y0119373D01*
X0059006Y0119386D01*
X0059060Y0119396D01*
X0059114Y0119402D01*
X0059169Y0119404D01*
X0059169Y0115204D02*
X0061469Y0115204D01*
X0059169Y0115204D02*
X0059114Y0115202D01*
X0059060Y0115196D01*
X0059006Y0115186D01*
X0058953Y0115173D01*
X0058901Y0115156D01*
X0058850Y0115135D01*
X0058801Y0115110D01*
X0058754Y0115082D01*
X0058709Y0115051D01*
X0058667Y0115017D01*
X0058627Y0114979D01*
X0058589Y0114939D01*
X0058555Y0114897D01*
X0058524Y0114852D01*
X0058496Y0114805D01*
X0058471Y0114756D01*
X0058450Y0114705D01*
X0058433Y0114653D01*
X0058420Y0114600D01*
X0058410Y0114546D01*
X0058404Y0114492D01*
X0058402Y0114437D01*
X0058403Y0114437D02*
X0058403Y0113160D01*
X0061469Y0113160D01*
X0061469Y0111154D02*
X0061469Y0109876D01*
X0061470Y0109876D02*
X0061468Y0109821D01*
X0061462Y0109767D01*
X0061452Y0109713D01*
X0061439Y0109660D01*
X0061422Y0109608D01*
X0061401Y0109557D01*
X0061376Y0109508D01*
X0061348Y0109461D01*
X0061317Y0109416D01*
X0061283Y0109374D01*
X0061245Y0109334D01*
X0061205Y0109296D01*
X0061163Y0109262D01*
X0061118Y0109231D01*
X0061071Y0109203D01*
X0061022Y0109178D01*
X0060971Y0109157D01*
X0060919Y0109140D01*
X0060866Y0109127D01*
X0060812Y0109117D01*
X0060758Y0109111D01*
X0060703Y0109109D01*
X0060703Y0109110D02*
X0059425Y0109110D01*
X0059936Y0109110D02*
X0059936Y0111154D01*
X0059425Y0111154D01*
X0059362Y0111152D01*
X0059299Y0111146D01*
X0059237Y0111137D01*
X0059176Y0111123D01*
X0059115Y0111106D01*
X0059056Y0111085D01*
X0058998Y0111060D01*
X0058941Y0111032D01*
X0058887Y0111001D01*
X0058835Y0110966D01*
X0058784Y0110928D01*
X0058736Y0110887D01*
X0058691Y0110843D01*
X0058649Y0110797D01*
X0058609Y0110748D01*
X0058573Y0110697D01*
X0058540Y0110643D01*
X0058510Y0110588D01*
X0058484Y0110530D01*
X0058461Y0110472D01*
X0058442Y0110412D01*
X0058427Y0110351D01*
X0058415Y0110289D01*
X0058407Y0110226D01*
X0058403Y0110163D01*
X0058403Y0110101D01*
X0058407Y0110038D01*
X0058415Y0109975D01*
X0058427Y0109913D01*
X0058442Y0109852D01*
X0058461Y0109792D01*
X0058484Y0109734D01*
X0058510Y0109676D01*
X0058540Y0109621D01*
X0058573Y0109567D01*
X0058609Y0109516D01*
X0058649Y0109467D01*
X0058691Y0109421D01*
X0058736Y0109377D01*
X0058784Y0109336D01*
X0058835Y0109298D01*
X0058887Y0109263D01*
X0058941Y0109232D01*
X0058998Y0109204D01*
X0059056Y0109179D01*
X0059115Y0109158D01*
X0059176Y0109141D01*
X0059237Y0109127D01*
X0059299Y0109118D01*
X0059362Y0109112D01*
X0059425Y0109110D01*
X0058403Y0107412D02*
X0058403Y0105879D01*
X0056869Y0106390D02*
X0060703Y0106390D01*
X0060758Y0106392D01*
X0060812Y0106398D01*
X0060866Y0106408D01*
X0060919Y0106421D01*
X0060971Y0106438D01*
X0061022Y0106459D01*
X0061071Y0106484D01*
X0061118Y0106512D01*
X0061163Y0106543D01*
X0061205Y0106577D01*
X0061245Y0106615D01*
X0061283Y0106655D01*
X0061317Y0106697D01*
X0061348Y0106742D01*
X0061376Y0106789D01*
X0061401Y0106838D01*
X0061422Y0106889D01*
X0061439Y0106941D01*
X0061452Y0106994D01*
X0061462Y0107048D01*
X0061468Y0107102D01*
X0061470Y0107157D01*
X0061469Y0107157D02*
X0061469Y0107412D01*
X0061469Y0104254D02*
X0059169Y0104254D01*
X0059114Y0104252D01*
X0059060Y0104246D01*
X0059006Y0104236D01*
X0058953Y0104223D01*
X0058901Y0104206D01*
X0058850Y0104185D01*
X0058801Y0104160D01*
X0058754Y0104132D01*
X0058709Y0104101D01*
X0058667Y0104067D01*
X0058627Y0104029D01*
X0058589Y0103989D01*
X0058555Y0103947D01*
X0058524Y0103902D01*
X0058496Y0103855D01*
X0058471Y0103806D01*
X0058450Y0103755D01*
X0058433Y0103703D01*
X0058420Y0103650D01*
X0058410Y0103596D01*
X0058404Y0103542D01*
X0058402Y0103487D01*
X0058403Y0103487D02*
X0058403Y0102210D01*
X0061469Y0102210D01*
X0061469Y0100415D02*
X0056869Y0098882D01*
X0061469Y0097349D01*
X0060319Y0097732D02*
X0060319Y0100032D01*
D13*
X0070980Y0070980D02*
X0081933Y0070980D01*
X0070980Y0070980D02*
X0063106Y0063106D01*
X0064185Y0040374D02*
X0070980Y0033579D01*
X0079051Y0033579D01*
X0100311Y0033579D02*
X0108382Y0033579D01*
X0115374Y0040571D01*
X0126197Y0052890D02*
X0132693Y0052890D01*
X0134071Y0052929D02*
X0134071Y0032339D01*
X0153165Y0032339D01*
X0153165Y0052929D01*
X0134071Y0052929D01*
X0116256Y0063106D02*
X0108382Y0070980D01*
X0097429Y0070980D01*
X0133224Y0109713D02*
X0133226Y0109743D01*
X0133232Y0109773D01*
X0133242Y0109802D01*
X0133255Y0109829D01*
X0133272Y0109855D01*
X0133292Y0109878D01*
X0133315Y0109898D01*
X0133340Y0109915D01*
X0133368Y0109928D01*
X0133397Y0109938D01*
X0133427Y0109944D01*
X0133457Y0109946D01*
X0133487Y0109944D01*
X0133517Y0109938D01*
X0133546Y0109928D01*
X0133573Y0109915D01*
X0133599Y0109898D01*
X0133622Y0109878D01*
X0133642Y0109855D01*
X0133659Y0109830D01*
X0133672Y0109802D01*
X0133682Y0109773D01*
X0133688Y0109743D01*
X0133690Y0109713D01*
X0133688Y0109683D01*
X0133682Y0109653D01*
X0133672Y0109624D01*
X0133659Y0109597D01*
X0133642Y0109571D01*
X0133622Y0109548D01*
X0133599Y0109528D01*
X0133574Y0109511D01*
X0133546Y0109498D01*
X0133517Y0109488D01*
X0133487Y0109482D01*
X0133457Y0109480D01*
X0133427Y0109482D01*
X0133397Y0109488D01*
X0133368Y0109498D01*
X0133341Y0109511D01*
X0133315Y0109528D01*
X0133292Y0109548D01*
X0133272Y0109571D01*
X0133255Y0109596D01*
X0133242Y0109624D01*
X0133232Y0109653D01*
X0133226Y0109683D01*
X0133224Y0109713D01*
X0131610Y0115429D02*
X0131610Y0119850D01*
X0135941Y0120780D02*
X0138697Y0120780D01*
X0143028Y0119850D02*
X0143028Y0115429D01*
X0144504Y0127476D02*
X0144504Y0135350D01*
X0145882Y0135350D01*
X0145882Y0127476D01*
X0144504Y0127476D01*
X0164878Y0116453D02*
X0164878Y0116453D01*
X0164880Y0116414D01*
X0164886Y0116376D01*
X0164895Y0116339D01*
X0164908Y0116302D01*
X0164925Y0116267D01*
X0164944Y0116234D01*
X0164967Y0116203D01*
X0164993Y0116174D01*
X0165022Y0116148D01*
X0165053Y0116125D01*
X0165086Y0116106D01*
X0165121Y0116089D01*
X0165158Y0116076D01*
X0165195Y0116067D01*
X0165233Y0116061D01*
X0165272Y0116059D01*
X0165311Y0116061D01*
X0165349Y0116067D01*
X0165386Y0116076D01*
X0165423Y0116089D01*
X0165458Y0116106D01*
X0165491Y0116125D01*
X0165522Y0116148D01*
X0165551Y0116174D01*
X0165577Y0116203D01*
X0165600Y0116234D01*
X0165619Y0116267D01*
X0165636Y0116302D01*
X0165649Y0116339D01*
X0165658Y0116376D01*
X0165664Y0116414D01*
X0165666Y0116453D01*
X0165665Y0116453D02*
X0165665Y0116453D01*
X0165666Y0116453D02*
X0165664Y0116492D01*
X0165658Y0116530D01*
X0165649Y0116567D01*
X0165636Y0116604D01*
X0165619Y0116639D01*
X0165600Y0116672D01*
X0165577Y0116703D01*
X0165551Y0116732D01*
X0165522Y0116758D01*
X0165491Y0116781D01*
X0165458Y0116800D01*
X0165423Y0116817D01*
X0165386Y0116830D01*
X0165349Y0116839D01*
X0165311Y0116845D01*
X0165272Y0116847D01*
X0165233Y0116845D01*
X0165195Y0116839D01*
X0165158Y0116830D01*
X0165121Y0116817D01*
X0165086Y0116800D01*
X0165053Y0116781D01*
X0165022Y0116758D01*
X0164993Y0116732D01*
X0164967Y0116703D01*
X0164944Y0116672D01*
X0164925Y0116639D01*
X0164908Y0116604D01*
X0164895Y0116567D01*
X0164886Y0116530D01*
X0164880Y0116492D01*
X0164878Y0116453D01*
X0164878Y0095587D02*
X0164878Y0095587D01*
X0164880Y0095548D01*
X0164886Y0095510D01*
X0164895Y0095473D01*
X0164908Y0095436D01*
X0164925Y0095401D01*
X0164944Y0095368D01*
X0164967Y0095337D01*
X0164993Y0095308D01*
X0165022Y0095282D01*
X0165053Y0095259D01*
X0165086Y0095240D01*
X0165121Y0095223D01*
X0165158Y0095210D01*
X0165195Y0095201D01*
X0165233Y0095195D01*
X0165272Y0095193D01*
X0165311Y0095195D01*
X0165349Y0095201D01*
X0165386Y0095210D01*
X0165423Y0095223D01*
X0165458Y0095240D01*
X0165491Y0095259D01*
X0165522Y0095282D01*
X0165551Y0095308D01*
X0165577Y0095337D01*
X0165600Y0095368D01*
X0165619Y0095401D01*
X0165636Y0095436D01*
X0165649Y0095473D01*
X0165658Y0095510D01*
X0165664Y0095548D01*
X0165666Y0095587D01*
X0165665Y0095587D02*
X0165665Y0095587D01*
X0165666Y0095587D02*
X0165664Y0095626D01*
X0165658Y0095664D01*
X0165649Y0095701D01*
X0165636Y0095738D01*
X0165619Y0095773D01*
X0165600Y0095806D01*
X0165577Y0095837D01*
X0165551Y0095866D01*
X0165522Y0095892D01*
X0165491Y0095915D01*
X0165458Y0095934D01*
X0165423Y0095951D01*
X0165386Y0095964D01*
X0165349Y0095973D01*
X0165311Y0095979D01*
X0165272Y0095981D01*
X0165233Y0095979D01*
X0165195Y0095973D01*
X0165158Y0095964D01*
X0165121Y0095951D01*
X0165086Y0095934D01*
X0165053Y0095915D01*
X0165022Y0095892D01*
X0164993Y0095866D01*
X0164967Y0095837D01*
X0164944Y0095806D01*
X0164925Y0095773D01*
X0164908Y0095738D01*
X0164895Y0095701D01*
X0164886Y0095664D01*
X0164880Y0095626D01*
X0164878Y0095587D01*
X0164878Y0033382D02*
X0164878Y0033382D01*
X0164880Y0033343D01*
X0164886Y0033305D01*
X0164895Y0033268D01*
X0164908Y0033231D01*
X0164925Y0033196D01*
X0164944Y0033163D01*
X0164967Y0033132D01*
X0164993Y0033103D01*
X0165022Y0033077D01*
X0165053Y0033054D01*
X0165086Y0033035D01*
X0165121Y0033018D01*
X0165158Y0033005D01*
X0165195Y0032996D01*
X0165233Y0032990D01*
X0165272Y0032988D01*
X0165311Y0032990D01*
X0165349Y0032996D01*
X0165386Y0033005D01*
X0165423Y0033018D01*
X0165458Y0033035D01*
X0165491Y0033054D01*
X0165522Y0033077D01*
X0165551Y0033103D01*
X0165577Y0033132D01*
X0165600Y0033163D01*
X0165619Y0033196D01*
X0165636Y0033231D01*
X0165649Y0033268D01*
X0165658Y0033305D01*
X0165664Y0033343D01*
X0165666Y0033382D01*
X0165665Y0033382D02*
X0165665Y0033382D01*
X0165666Y0033382D02*
X0165664Y0033421D01*
X0165658Y0033459D01*
X0165649Y0033496D01*
X0165636Y0033533D01*
X0165619Y0033568D01*
X0165600Y0033601D01*
X0165577Y0033632D01*
X0165551Y0033661D01*
X0165522Y0033687D01*
X0165491Y0033710D01*
X0165458Y0033729D01*
X0165423Y0033746D01*
X0165386Y0033759D01*
X0165349Y0033768D01*
X0165311Y0033774D01*
X0165272Y0033776D01*
X0165233Y0033774D01*
X0165195Y0033768D01*
X0165158Y0033759D01*
X0165121Y0033746D01*
X0165086Y0033729D01*
X0165053Y0033710D01*
X0165022Y0033687D01*
X0164993Y0033661D01*
X0164967Y0033632D01*
X0164944Y0033601D01*
X0164925Y0033568D01*
X0164908Y0033533D01*
X0164895Y0033496D01*
X0164886Y0033459D01*
X0164880Y0033421D01*
X0164878Y0033382D01*
D14*
X0156578Y0029614D02*
X0155141Y0027923D01*
X0156832Y0027923D01*
X0153411Y0029191D02*
X0152481Y0029698D01*
X0152819Y0030966D02*
X0152887Y0030964D01*
X0152955Y0030959D01*
X0153022Y0030950D01*
X0153089Y0030937D01*
X0153155Y0030921D01*
X0153220Y0030901D01*
X0153284Y0030878D01*
X0153346Y0030851D01*
X0153407Y0030821D01*
X0153467Y0030788D01*
X0153524Y0030752D01*
X0153580Y0030712D01*
X0152481Y0029698D02*
X0152438Y0029726D01*
X0152398Y0029756D01*
X0152359Y0029790D01*
X0152323Y0029826D01*
X0152290Y0029865D01*
X0152260Y0029906D01*
X0152234Y0029949D01*
X0152210Y0029994D01*
X0152190Y0030041D01*
X0152173Y0030089D01*
X0152160Y0030138D01*
X0152151Y0030188D01*
X0152145Y0030239D01*
X0152143Y0030290D01*
X0152145Y0030341D01*
X0152151Y0030391D01*
X0152160Y0030440D01*
X0152173Y0030489D01*
X0152190Y0030537D01*
X0152210Y0030583D01*
X0152234Y0030628D01*
X0152260Y0030671D01*
X0152290Y0030711D01*
X0152323Y0030750D01*
X0152359Y0030786D01*
X0152398Y0030819D01*
X0152438Y0030849D01*
X0152481Y0030875D01*
X0152526Y0030899D01*
X0152572Y0030919D01*
X0152620Y0030936D01*
X0152669Y0030949D01*
X0152718Y0030958D01*
X0152768Y0030964D01*
X0152819Y0030966D01*
X0152058Y0028346D02*
X0152113Y0028294D01*
X0152170Y0028245D01*
X0152229Y0028199D01*
X0152291Y0028156D01*
X0152355Y0028116D01*
X0152421Y0028080D01*
X0152489Y0028048D01*
X0152558Y0028019D01*
X0152629Y0027994D01*
X0152701Y0027972D01*
X0152774Y0027955D01*
X0152848Y0027941D01*
X0152923Y0027931D01*
X0152998Y0027925D01*
X0153073Y0027923D01*
X0153073Y0027924D02*
X0153124Y0027926D01*
X0153174Y0027932D01*
X0153223Y0027941D01*
X0153272Y0027954D01*
X0153320Y0027971D01*
X0153366Y0027991D01*
X0153411Y0028015D01*
X0153454Y0028041D01*
X0153494Y0028071D01*
X0153533Y0028104D01*
X0153569Y0028140D01*
X0153602Y0028179D01*
X0153632Y0028219D01*
X0153658Y0028262D01*
X0153682Y0028307D01*
X0153702Y0028353D01*
X0153719Y0028401D01*
X0153732Y0028450D01*
X0153741Y0028499D01*
X0153747Y0028549D01*
X0153749Y0028600D01*
X0153747Y0028651D01*
X0153741Y0028702D01*
X0153732Y0028752D01*
X0153719Y0028801D01*
X0153702Y0028849D01*
X0153682Y0028896D01*
X0153658Y0028941D01*
X0153632Y0028984D01*
X0153602Y0029025D01*
X0153569Y0029064D01*
X0153533Y0029100D01*
X0153494Y0029134D01*
X0153454Y0029164D01*
X0153411Y0029192D01*
X0155142Y0030290D02*
X0155162Y0030348D01*
X0155187Y0030404D01*
X0155214Y0030459D01*
X0155246Y0030512D01*
X0155280Y0030563D01*
X0155318Y0030611D01*
X0155358Y0030657D01*
X0155402Y0030701D01*
X0155448Y0030741D01*
X0155496Y0030779D01*
X0155547Y0030814D01*
X0155600Y0030845D01*
X0155655Y0030873D01*
X0155711Y0030897D01*
X0155769Y0030918D01*
X0155828Y0030935D01*
X0155888Y0030949D01*
X0155948Y0030958D01*
X0156010Y0030964D01*
X0156071Y0030966D01*
X0156071Y0030967D02*
X0156125Y0030965D01*
X0156179Y0030959D01*
X0156233Y0030950D01*
X0156285Y0030936D01*
X0156337Y0030919D01*
X0156387Y0030898D01*
X0156436Y0030874D01*
X0156482Y0030846D01*
X0156527Y0030815D01*
X0156569Y0030781D01*
X0156609Y0030744D01*
X0156646Y0030704D01*
X0156680Y0030662D01*
X0156711Y0030617D01*
X0156739Y0030571D01*
X0156763Y0030522D01*
X0156784Y0030472D01*
X0156801Y0030420D01*
X0156815Y0030368D01*
X0156824Y0030314D01*
X0156830Y0030260D01*
X0156832Y0030206D01*
X0156831Y0030206D02*
X0156829Y0030151D01*
X0156824Y0030096D01*
X0156814Y0030042D01*
X0156801Y0029988D01*
X0156785Y0029936D01*
X0156765Y0029884D01*
X0156742Y0029834D01*
X0156715Y0029786D01*
X0156685Y0029740D01*
X0156652Y0029696D01*
X0156616Y0029654D01*
X0156577Y0029614D01*
X0123586Y0033632D02*
X0121895Y0033632D01*
X0123332Y0035323D01*
X0122825Y0036675D02*
X0122764Y0036673D01*
X0122702Y0036667D01*
X0122642Y0036658D01*
X0122582Y0036644D01*
X0122523Y0036627D01*
X0122465Y0036606D01*
X0122409Y0036582D01*
X0122354Y0036554D01*
X0122301Y0036523D01*
X0122250Y0036488D01*
X0122202Y0036450D01*
X0122156Y0036410D01*
X0122112Y0036366D01*
X0122072Y0036320D01*
X0122034Y0036272D01*
X0122000Y0036221D01*
X0121968Y0036168D01*
X0121941Y0036113D01*
X0121916Y0036057D01*
X0121896Y0035999D01*
X0123332Y0035322D02*
X0123371Y0035362D01*
X0123407Y0035404D01*
X0123440Y0035448D01*
X0123470Y0035494D01*
X0123497Y0035542D01*
X0123520Y0035592D01*
X0123540Y0035644D01*
X0123556Y0035696D01*
X0123569Y0035750D01*
X0123579Y0035804D01*
X0123584Y0035859D01*
X0123586Y0035914D01*
X0123584Y0035968D01*
X0123578Y0036022D01*
X0123569Y0036076D01*
X0123555Y0036128D01*
X0123538Y0036180D01*
X0123517Y0036230D01*
X0123493Y0036279D01*
X0123465Y0036325D01*
X0123434Y0036370D01*
X0123400Y0036412D01*
X0123363Y0036452D01*
X0123323Y0036489D01*
X0123281Y0036523D01*
X0123236Y0036554D01*
X0123190Y0036582D01*
X0123141Y0036606D01*
X0123091Y0036627D01*
X0123039Y0036644D01*
X0122987Y0036658D01*
X0122933Y0036667D01*
X0122879Y0036673D01*
X0122825Y0036675D01*
X0120577Y0036675D02*
X0119901Y0036675D01*
X0119850Y0036673D01*
X0119800Y0036667D01*
X0119751Y0036658D01*
X0119702Y0036645D01*
X0119654Y0036628D01*
X0119608Y0036608D01*
X0119563Y0036584D01*
X0119520Y0036558D01*
X0119480Y0036528D01*
X0119441Y0036495D01*
X0119405Y0036459D01*
X0119372Y0036420D01*
X0119342Y0036380D01*
X0119316Y0036337D01*
X0119292Y0036292D01*
X0119272Y0036246D01*
X0119255Y0036198D01*
X0119242Y0036149D01*
X0119233Y0036100D01*
X0119227Y0036050D01*
X0119225Y0035999D01*
X0119225Y0034308D01*
X0119227Y0034257D01*
X0119233Y0034207D01*
X0119242Y0034158D01*
X0119255Y0034109D01*
X0119272Y0034061D01*
X0119292Y0034015D01*
X0119316Y0033970D01*
X0119342Y0033927D01*
X0119372Y0033887D01*
X0119405Y0033848D01*
X0119441Y0033812D01*
X0119480Y0033779D01*
X0119520Y0033749D01*
X0119563Y0033723D01*
X0119608Y0033699D01*
X0119654Y0033679D01*
X0119702Y0033662D01*
X0119751Y0033649D01*
X0119800Y0033640D01*
X0119850Y0033634D01*
X0119901Y0033632D01*
X0120577Y0033632D01*
X0117870Y0033632D02*
X0117194Y0033632D01*
X0117532Y0033632D02*
X0117532Y0036675D01*
X0117194Y0036675D02*
X0117870Y0036675D01*
X0129775Y0059648D02*
X0129775Y0062691D01*
X0130620Y0062691D01*
X0130676Y0062689D01*
X0130733Y0062683D01*
X0130788Y0062674D01*
X0130843Y0062661D01*
X0130897Y0062644D01*
X0130950Y0062624D01*
X0131001Y0062600D01*
X0131051Y0062573D01*
X0131098Y0062543D01*
X0131144Y0062509D01*
X0131187Y0062473D01*
X0131227Y0062433D01*
X0131265Y0062392D01*
X0131300Y0062347D01*
X0131332Y0062301D01*
X0131361Y0062252D01*
X0131386Y0062202D01*
X0131409Y0062150D01*
X0131427Y0062096D01*
X0131442Y0062042D01*
X0131453Y0061987D01*
X0131461Y0061931D01*
X0131465Y0061874D01*
X0131465Y0061818D01*
X0131461Y0061761D01*
X0131453Y0061705D01*
X0131442Y0061650D01*
X0131427Y0061596D01*
X0131409Y0061542D01*
X0131386Y0061490D01*
X0131361Y0061440D01*
X0131332Y0061391D01*
X0131300Y0061345D01*
X0131265Y0061300D01*
X0131227Y0061259D01*
X0131187Y0061219D01*
X0131144Y0061183D01*
X0131098Y0061149D01*
X0131051Y0061119D01*
X0131001Y0061092D01*
X0130950Y0061068D01*
X0130897Y0061048D01*
X0130843Y0061031D01*
X0130788Y0061018D01*
X0130733Y0061009D01*
X0130676Y0061003D01*
X0130620Y0061001D01*
X0130620Y0061000D02*
X0129775Y0061000D01*
X0130790Y0061000D02*
X0131466Y0059648D01*
X0132936Y0059648D02*
X0134626Y0059648D01*
X0135681Y0059585D02*
X0135681Y0062628D01*
X0136526Y0062628D01*
X0136582Y0062626D01*
X0136639Y0062620D01*
X0136694Y0062611D01*
X0136749Y0062598D01*
X0136803Y0062581D01*
X0136856Y0062561D01*
X0136907Y0062537D01*
X0136957Y0062510D01*
X0137004Y0062480D01*
X0137050Y0062446D01*
X0137093Y0062410D01*
X0137133Y0062370D01*
X0137171Y0062329D01*
X0137206Y0062284D01*
X0137238Y0062238D01*
X0137267Y0062189D01*
X0137292Y0062139D01*
X0137315Y0062087D01*
X0137333Y0062033D01*
X0137348Y0061979D01*
X0137359Y0061924D01*
X0137367Y0061868D01*
X0137371Y0061811D01*
X0137371Y0061755D01*
X0137367Y0061698D01*
X0137359Y0061642D01*
X0137348Y0061587D01*
X0137333Y0061533D01*
X0137315Y0061479D01*
X0137292Y0061427D01*
X0137267Y0061377D01*
X0137238Y0061328D01*
X0137206Y0061282D01*
X0137171Y0061237D01*
X0137133Y0061196D01*
X0137093Y0061156D01*
X0137050Y0061120D01*
X0137004Y0061086D01*
X0136957Y0061056D01*
X0136907Y0061029D01*
X0136856Y0061005D01*
X0136803Y0060985D01*
X0136749Y0060968D01*
X0136694Y0060955D01*
X0136639Y0060946D01*
X0136582Y0060940D01*
X0136526Y0060938D01*
X0136526Y0060937D02*
X0135681Y0060937D01*
X0136695Y0060937D02*
X0137371Y0059585D01*
X0138841Y0059585D02*
X0139687Y0059585D01*
X0139743Y0059587D01*
X0139800Y0059593D01*
X0139855Y0059602D01*
X0139910Y0059615D01*
X0139964Y0059632D01*
X0140017Y0059652D01*
X0140068Y0059676D01*
X0140118Y0059703D01*
X0140165Y0059733D01*
X0140211Y0059767D01*
X0140254Y0059803D01*
X0140294Y0059843D01*
X0140332Y0059884D01*
X0140367Y0059929D01*
X0140399Y0059975D01*
X0140428Y0060024D01*
X0140453Y0060074D01*
X0140476Y0060126D01*
X0140494Y0060180D01*
X0140509Y0060234D01*
X0140520Y0060289D01*
X0140528Y0060345D01*
X0140532Y0060402D01*
X0140532Y0060458D01*
X0140528Y0060515D01*
X0140520Y0060571D01*
X0140509Y0060626D01*
X0140494Y0060680D01*
X0140476Y0060734D01*
X0140453Y0060786D01*
X0140428Y0060836D01*
X0140399Y0060885D01*
X0140367Y0060931D01*
X0140332Y0060976D01*
X0140294Y0061017D01*
X0140254Y0061057D01*
X0140211Y0061093D01*
X0140165Y0061127D01*
X0140118Y0061157D01*
X0140068Y0061184D01*
X0140017Y0061208D01*
X0139964Y0061228D01*
X0139910Y0061245D01*
X0139855Y0061258D01*
X0139800Y0061267D01*
X0139743Y0061273D01*
X0139687Y0061275D01*
X0139856Y0061275D02*
X0139179Y0061275D01*
X0139856Y0061276D02*
X0139907Y0061278D01*
X0139957Y0061284D01*
X0140006Y0061293D01*
X0140055Y0061306D01*
X0140103Y0061323D01*
X0140149Y0061343D01*
X0140194Y0061367D01*
X0140237Y0061393D01*
X0140277Y0061423D01*
X0140316Y0061456D01*
X0140352Y0061492D01*
X0140385Y0061531D01*
X0140415Y0061571D01*
X0140441Y0061614D01*
X0140465Y0061659D01*
X0140485Y0061705D01*
X0140502Y0061753D01*
X0140515Y0061802D01*
X0140524Y0061851D01*
X0140530Y0061901D01*
X0140532Y0061952D01*
X0140530Y0062003D01*
X0140524Y0062053D01*
X0140515Y0062102D01*
X0140502Y0062151D01*
X0140485Y0062199D01*
X0140465Y0062245D01*
X0140441Y0062290D01*
X0140415Y0062333D01*
X0140385Y0062373D01*
X0140352Y0062412D01*
X0140316Y0062448D01*
X0140277Y0062481D01*
X0140237Y0062511D01*
X0140194Y0062537D01*
X0140149Y0062561D01*
X0140103Y0062581D01*
X0140055Y0062598D01*
X0140006Y0062611D01*
X0139957Y0062620D01*
X0139907Y0062626D01*
X0139856Y0062628D01*
X0138841Y0062628D01*
X0134373Y0061338D02*
X0132936Y0059648D01*
X0132937Y0062014D02*
X0132957Y0062072D01*
X0132982Y0062128D01*
X0133009Y0062183D01*
X0133041Y0062236D01*
X0133075Y0062287D01*
X0133113Y0062335D01*
X0133153Y0062381D01*
X0133197Y0062425D01*
X0133243Y0062465D01*
X0133291Y0062503D01*
X0133342Y0062538D01*
X0133395Y0062569D01*
X0133450Y0062597D01*
X0133506Y0062621D01*
X0133564Y0062642D01*
X0133623Y0062659D01*
X0133683Y0062673D01*
X0133743Y0062682D01*
X0133805Y0062688D01*
X0133866Y0062690D01*
X0133866Y0062691D02*
X0133920Y0062689D01*
X0133974Y0062683D01*
X0134028Y0062674D01*
X0134080Y0062660D01*
X0134132Y0062643D01*
X0134182Y0062622D01*
X0134231Y0062598D01*
X0134277Y0062570D01*
X0134322Y0062539D01*
X0134364Y0062505D01*
X0134404Y0062468D01*
X0134441Y0062428D01*
X0134475Y0062386D01*
X0134506Y0062341D01*
X0134534Y0062295D01*
X0134558Y0062246D01*
X0134579Y0062196D01*
X0134596Y0062144D01*
X0134610Y0062092D01*
X0134619Y0062038D01*
X0134625Y0061984D01*
X0134627Y0061930D01*
X0134626Y0061930D02*
X0134624Y0061875D01*
X0134619Y0061820D01*
X0134609Y0061766D01*
X0134596Y0061712D01*
X0134580Y0061660D01*
X0134560Y0061608D01*
X0134537Y0061558D01*
X0134510Y0061510D01*
X0134480Y0061464D01*
X0134447Y0061420D01*
X0134411Y0061378D01*
X0134372Y0061338D01*
X0132093Y0064253D02*
X0130403Y0064253D01*
X0130352Y0064255D01*
X0130302Y0064261D01*
X0130253Y0064270D01*
X0130204Y0064283D01*
X0130156Y0064300D01*
X0130110Y0064320D01*
X0130065Y0064344D01*
X0130022Y0064370D01*
X0129982Y0064400D01*
X0129943Y0064433D01*
X0129907Y0064469D01*
X0129874Y0064508D01*
X0129844Y0064548D01*
X0129818Y0064591D01*
X0129794Y0064636D01*
X0129774Y0064682D01*
X0129757Y0064730D01*
X0129744Y0064779D01*
X0129735Y0064828D01*
X0129729Y0064878D01*
X0129727Y0064929D01*
X0129726Y0064929D02*
X0129726Y0065605D01*
X0130403Y0066923D02*
X0129726Y0067768D01*
X0132770Y0067768D01*
X0132770Y0066923D02*
X0132770Y0068614D01*
X0132770Y0070112D02*
X0132770Y0071803D01*
X0132770Y0070957D02*
X0129726Y0070957D01*
X0130403Y0070112D01*
X0132770Y0065605D02*
X0132770Y0064929D01*
X0132769Y0064929D02*
X0132767Y0064878D01*
X0132761Y0064828D01*
X0132752Y0064779D01*
X0132739Y0064730D01*
X0132722Y0064682D01*
X0132702Y0064636D01*
X0132678Y0064591D01*
X0132652Y0064548D01*
X0132622Y0064508D01*
X0132589Y0064469D01*
X0132553Y0064433D01*
X0132514Y0064400D01*
X0132474Y0064370D01*
X0132431Y0064344D01*
X0132386Y0064320D01*
X0132340Y0064300D01*
X0132292Y0064283D01*
X0132243Y0064270D01*
X0132194Y0064261D01*
X0132144Y0064255D01*
X0132093Y0064253D01*
X0124177Y0063867D02*
X0124177Y0063529D01*
X0124175Y0063478D01*
X0124169Y0063428D01*
X0124160Y0063379D01*
X0124147Y0063330D01*
X0124130Y0063282D01*
X0124110Y0063236D01*
X0124086Y0063191D01*
X0124060Y0063148D01*
X0124030Y0063108D01*
X0123997Y0063069D01*
X0123961Y0063033D01*
X0123922Y0063000D01*
X0123882Y0062970D01*
X0123839Y0062944D01*
X0123794Y0062920D01*
X0123748Y0062900D01*
X0123700Y0062883D01*
X0123651Y0062870D01*
X0123602Y0062861D01*
X0123552Y0062855D01*
X0123501Y0062853D01*
X0123501Y0062852D02*
X0122486Y0062852D01*
X0121169Y0062852D02*
X0120492Y0062852D01*
X0120492Y0062853D02*
X0120441Y0062855D01*
X0120391Y0062861D01*
X0120342Y0062870D01*
X0120293Y0062883D01*
X0120245Y0062900D01*
X0120199Y0062920D01*
X0120154Y0062944D01*
X0120111Y0062970D01*
X0120071Y0063000D01*
X0120032Y0063033D01*
X0119996Y0063069D01*
X0119963Y0063108D01*
X0119933Y0063148D01*
X0119907Y0063191D01*
X0119883Y0063236D01*
X0119863Y0063282D01*
X0119846Y0063330D01*
X0119833Y0063379D01*
X0119824Y0063428D01*
X0119818Y0063478D01*
X0119816Y0063529D01*
X0119816Y0065219D01*
X0119818Y0065270D01*
X0119824Y0065320D01*
X0119833Y0065369D01*
X0119846Y0065418D01*
X0119863Y0065466D01*
X0119883Y0065512D01*
X0119907Y0065557D01*
X0119933Y0065600D01*
X0119963Y0065640D01*
X0119996Y0065679D01*
X0120032Y0065715D01*
X0120071Y0065748D01*
X0120111Y0065778D01*
X0120154Y0065804D01*
X0120199Y0065828D01*
X0120245Y0065848D01*
X0120293Y0065865D01*
X0120342Y0065878D01*
X0120391Y0065887D01*
X0120441Y0065893D01*
X0120492Y0065895D01*
X0120492Y0065896D02*
X0121169Y0065896D01*
X0122486Y0065896D02*
X0124177Y0065896D01*
X0123501Y0064543D02*
X0122486Y0064543D01*
X0122486Y0065896D01*
X0118461Y0065896D02*
X0117785Y0065896D01*
X0118123Y0065896D02*
X0118123Y0062852D01*
X0117785Y0062852D02*
X0118461Y0062852D01*
X0123501Y0064543D02*
X0123552Y0064541D01*
X0123602Y0064535D01*
X0123651Y0064526D01*
X0123700Y0064513D01*
X0123748Y0064496D01*
X0123794Y0064476D01*
X0123839Y0064452D01*
X0123882Y0064426D01*
X0123922Y0064396D01*
X0123961Y0064363D01*
X0123997Y0064327D01*
X0124030Y0064288D01*
X0124060Y0064248D01*
X0124086Y0064205D01*
X0124110Y0064160D01*
X0124130Y0064114D01*
X0124147Y0064066D01*
X0124160Y0064017D01*
X0124169Y0063968D01*
X0124175Y0063918D01*
X0124177Y0063867D01*
X0107216Y0076796D02*
X0107216Y0077135D01*
X0107214Y0077186D01*
X0107208Y0077236D01*
X0107199Y0077285D01*
X0107186Y0077334D01*
X0107169Y0077382D01*
X0107149Y0077428D01*
X0107125Y0077473D01*
X0107099Y0077516D01*
X0107069Y0077556D01*
X0107036Y0077595D01*
X0107000Y0077631D01*
X0106961Y0077664D01*
X0106921Y0077694D01*
X0106878Y0077720D01*
X0106833Y0077744D01*
X0106787Y0077764D01*
X0106739Y0077781D01*
X0106690Y0077794D01*
X0106641Y0077803D01*
X0106591Y0077809D01*
X0106540Y0077811D01*
X0105525Y0077811D01*
X0105525Y0079163D01*
X0107216Y0079163D01*
X0107216Y0076796D02*
X0107214Y0076745D01*
X0107208Y0076695D01*
X0107199Y0076646D01*
X0107186Y0076597D01*
X0107169Y0076549D01*
X0107149Y0076503D01*
X0107125Y0076458D01*
X0107099Y0076415D01*
X0107069Y0076375D01*
X0107036Y0076336D01*
X0107000Y0076300D01*
X0106961Y0076267D01*
X0106921Y0076237D01*
X0106878Y0076211D01*
X0106833Y0076187D01*
X0106787Y0076167D01*
X0106739Y0076150D01*
X0106690Y0076137D01*
X0106641Y0076128D01*
X0106591Y0076122D01*
X0106540Y0076120D01*
X0105525Y0076120D01*
X0104208Y0076120D02*
X0103531Y0076120D01*
X0103480Y0076122D01*
X0103430Y0076128D01*
X0103381Y0076137D01*
X0103332Y0076150D01*
X0103284Y0076167D01*
X0103238Y0076187D01*
X0103193Y0076211D01*
X0103150Y0076237D01*
X0103110Y0076267D01*
X0103071Y0076300D01*
X0103035Y0076336D01*
X0103002Y0076375D01*
X0102972Y0076415D01*
X0102946Y0076458D01*
X0102922Y0076503D01*
X0102902Y0076549D01*
X0102885Y0076597D01*
X0102872Y0076646D01*
X0102863Y0076695D01*
X0102857Y0076745D01*
X0102855Y0076796D01*
X0102855Y0078487D01*
X0102857Y0078538D01*
X0102863Y0078588D01*
X0102872Y0078637D01*
X0102885Y0078686D01*
X0102902Y0078734D01*
X0102922Y0078780D01*
X0102946Y0078825D01*
X0102972Y0078868D01*
X0103002Y0078908D01*
X0103035Y0078947D01*
X0103071Y0078983D01*
X0103110Y0079016D01*
X0103150Y0079046D01*
X0103193Y0079072D01*
X0103238Y0079096D01*
X0103284Y0079116D01*
X0103332Y0079133D01*
X0103381Y0079146D01*
X0103430Y0079155D01*
X0103480Y0079161D01*
X0103531Y0079163D01*
X0104208Y0079163D01*
X0085132Y0076812D02*
X0085132Y0076135D01*
X0085130Y0076084D01*
X0085124Y0076034D01*
X0085115Y0075985D01*
X0085102Y0075936D01*
X0085085Y0075888D01*
X0085065Y0075842D01*
X0085041Y0075797D01*
X0085015Y0075754D01*
X0084985Y0075714D01*
X0084952Y0075675D01*
X0084916Y0075639D01*
X0084877Y0075606D01*
X0084837Y0075576D01*
X0084794Y0075550D01*
X0084749Y0075526D01*
X0084703Y0075506D01*
X0084655Y0075489D01*
X0084606Y0075476D01*
X0084557Y0075467D01*
X0084507Y0075461D01*
X0084456Y0075459D01*
X0082765Y0075459D01*
X0082714Y0075461D01*
X0082664Y0075467D01*
X0082615Y0075476D01*
X0082566Y0075489D01*
X0082518Y0075506D01*
X0082472Y0075526D01*
X0082427Y0075550D01*
X0082384Y0075576D01*
X0082344Y0075606D01*
X0082305Y0075639D01*
X0082269Y0075675D01*
X0082236Y0075714D01*
X0082206Y0075754D01*
X0082180Y0075797D01*
X0082156Y0075842D01*
X0082136Y0075888D01*
X0082119Y0075936D01*
X0082106Y0075985D01*
X0082097Y0076034D01*
X0082091Y0076084D01*
X0082089Y0076135D01*
X0082089Y0076812D01*
X0083441Y0078129D02*
X0084287Y0078129D01*
X0084287Y0078130D02*
X0084343Y0078132D01*
X0084400Y0078138D01*
X0084455Y0078147D01*
X0084510Y0078160D01*
X0084564Y0078177D01*
X0084617Y0078197D01*
X0084668Y0078221D01*
X0084718Y0078248D01*
X0084765Y0078278D01*
X0084811Y0078312D01*
X0084854Y0078348D01*
X0084894Y0078388D01*
X0084932Y0078429D01*
X0084967Y0078474D01*
X0084999Y0078520D01*
X0085028Y0078569D01*
X0085053Y0078619D01*
X0085076Y0078671D01*
X0085094Y0078725D01*
X0085109Y0078779D01*
X0085120Y0078834D01*
X0085128Y0078890D01*
X0085132Y0078947D01*
X0085132Y0079003D01*
X0085128Y0079060D01*
X0085120Y0079116D01*
X0085109Y0079171D01*
X0085094Y0079225D01*
X0085076Y0079279D01*
X0085053Y0079331D01*
X0085028Y0079381D01*
X0084999Y0079430D01*
X0084967Y0079476D01*
X0084932Y0079521D01*
X0084894Y0079562D01*
X0084854Y0079602D01*
X0084811Y0079638D01*
X0084765Y0079672D01*
X0084718Y0079702D01*
X0084668Y0079729D01*
X0084617Y0079753D01*
X0084564Y0079773D01*
X0084510Y0079790D01*
X0084455Y0079803D01*
X0084400Y0079812D01*
X0084343Y0079818D01*
X0084287Y0079820D01*
X0084117Y0079820D01*
X0084066Y0079818D01*
X0084016Y0079812D01*
X0083967Y0079803D01*
X0083918Y0079790D01*
X0083870Y0079773D01*
X0083824Y0079753D01*
X0083779Y0079729D01*
X0083736Y0079703D01*
X0083696Y0079673D01*
X0083657Y0079640D01*
X0083621Y0079604D01*
X0083588Y0079565D01*
X0083558Y0079525D01*
X0083532Y0079482D01*
X0083508Y0079437D01*
X0083488Y0079391D01*
X0083471Y0079343D01*
X0083458Y0079294D01*
X0083449Y0079245D01*
X0083443Y0079195D01*
X0083441Y0079144D01*
X0083441Y0078129D01*
X0083368Y0078131D01*
X0083295Y0078137D01*
X0083222Y0078147D01*
X0083150Y0078161D01*
X0083079Y0078178D01*
X0083009Y0078200D01*
X0082940Y0078225D01*
X0082873Y0078254D01*
X0082807Y0078287D01*
X0082743Y0078323D01*
X0082682Y0078362D01*
X0082622Y0078405D01*
X0082565Y0078451D01*
X0082511Y0078500D01*
X0082459Y0078552D01*
X0082410Y0078606D01*
X0082364Y0078663D01*
X0082321Y0078723D01*
X0082282Y0078784D01*
X0082246Y0078848D01*
X0082213Y0078914D01*
X0082184Y0078981D01*
X0082159Y0079050D01*
X0082137Y0079120D01*
X0082120Y0079191D01*
X0082106Y0079263D01*
X0082096Y0079336D01*
X0082090Y0079409D01*
X0082088Y0079482D01*
X0063808Y0075932D02*
X0062963Y0072889D01*
X0060647Y0072889D02*
X0059971Y0074242D01*
X0059802Y0074242D02*
X0058957Y0074242D01*
X0059802Y0074242D02*
X0059858Y0074244D01*
X0059915Y0074250D01*
X0059970Y0074259D01*
X0060025Y0074272D01*
X0060079Y0074289D01*
X0060132Y0074309D01*
X0060183Y0074333D01*
X0060233Y0074360D01*
X0060280Y0074390D01*
X0060326Y0074424D01*
X0060369Y0074460D01*
X0060409Y0074500D01*
X0060447Y0074541D01*
X0060482Y0074586D01*
X0060514Y0074632D01*
X0060543Y0074681D01*
X0060568Y0074731D01*
X0060591Y0074783D01*
X0060609Y0074837D01*
X0060624Y0074891D01*
X0060635Y0074946D01*
X0060643Y0075002D01*
X0060647Y0075059D01*
X0060647Y0075115D01*
X0060643Y0075172D01*
X0060635Y0075228D01*
X0060624Y0075283D01*
X0060609Y0075337D01*
X0060591Y0075391D01*
X0060568Y0075443D01*
X0060543Y0075493D01*
X0060514Y0075542D01*
X0060482Y0075588D01*
X0060447Y0075633D01*
X0060409Y0075674D01*
X0060369Y0075714D01*
X0060326Y0075750D01*
X0060280Y0075784D01*
X0060233Y0075814D01*
X0060183Y0075841D01*
X0060132Y0075865D01*
X0060079Y0075885D01*
X0060025Y0075902D01*
X0059970Y0075915D01*
X0059915Y0075924D01*
X0059858Y0075930D01*
X0059802Y0075932D01*
X0058957Y0075932D01*
X0058957Y0072889D01*
X0062117Y0075594D02*
X0062117Y0075932D01*
X0063808Y0075932D01*
X0063760Y0078210D02*
X0063758Y0078154D01*
X0063752Y0078097D01*
X0063743Y0078042D01*
X0063730Y0077987D01*
X0063713Y0077933D01*
X0063693Y0077880D01*
X0063669Y0077829D01*
X0063642Y0077779D01*
X0063612Y0077732D01*
X0063578Y0077686D01*
X0063542Y0077643D01*
X0063502Y0077603D01*
X0063461Y0077565D01*
X0063416Y0077530D01*
X0063370Y0077498D01*
X0063321Y0077469D01*
X0063271Y0077444D01*
X0063219Y0077421D01*
X0063165Y0077403D01*
X0063111Y0077388D01*
X0063056Y0077377D01*
X0063000Y0077369D01*
X0062943Y0077365D01*
X0062887Y0077365D01*
X0062830Y0077369D01*
X0062774Y0077377D01*
X0062719Y0077388D01*
X0062665Y0077403D01*
X0062611Y0077421D01*
X0062559Y0077444D01*
X0062509Y0077469D01*
X0062460Y0077498D01*
X0062414Y0077530D01*
X0062369Y0077565D01*
X0062328Y0077603D01*
X0062288Y0077643D01*
X0062252Y0077686D01*
X0062218Y0077732D01*
X0062188Y0077779D01*
X0062161Y0077829D01*
X0062137Y0077880D01*
X0062117Y0077933D01*
X0062100Y0077987D01*
X0062087Y0078042D01*
X0062078Y0078097D01*
X0062072Y0078154D01*
X0062070Y0078210D01*
X0062072Y0078266D01*
X0062078Y0078323D01*
X0062087Y0078378D01*
X0062100Y0078433D01*
X0062117Y0078487D01*
X0062137Y0078540D01*
X0062161Y0078591D01*
X0062188Y0078641D01*
X0062218Y0078688D01*
X0062252Y0078734D01*
X0062288Y0078777D01*
X0062328Y0078817D01*
X0062369Y0078855D01*
X0062414Y0078890D01*
X0062460Y0078922D01*
X0062509Y0078951D01*
X0062559Y0078976D01*
X0062611Y0078999D01*
X0062665Y0079017D01*
X0062719Y0079032D01*
X0062774Y0079043D01*
X0062830Y0079051D01*
X0062887Y0079055D01*
X0062943Y0079055D01*
X0063000Y0079051D01*
X0063056Y0079043D01*
X0063111Y0079032D01*
X0063165Y0079017D01*
X0063219Y0078999D01*
X0063271Y0078976D01*
X0063321Y0078951D01*
X0063370Y0078922D01*
X0063416Y0078890D01*
X0063461Y0078855D01*
X0063502Y0078817D01*
X0063542Y0078777D01*
X0063578Y0078734D01*
X0063612Y0078688D01*
X0063642Y0078641D01*
X0063669Y0078591D01*
X0063693Y0078540D01*
X0063713Y0078487D01*
X0063730Y0078433D01*
X0063743Y0078378D01*
X0063752Y0078323D01*
X0063758Y0078266D01*
X0063760Y0078210D01*
X0063591Y0079731D02*
X0063589Y0079680D01*
X0063583Y0079630D01*
X0063574Y0079581D01*
X0063561Y0079532D01*
X0063544Y0079484D01*
X0063524Y0079438D01*
X0063500Y0079393D01*
X0063474Y0079350D01*
X0063444Y0079310D01*
X0063411Y0079271D01*
X0063375Y0079235D01*
X0063336Y0079202D01*
X0063296Y0079172D01*
X0063253Y0079146D01*
X0063208Y0079122D01*
X0063162Y0079102D01*
X0063114Y0079085D01*
X0063065Y0079072D01*
X0063016Y0079063D01*
X0062966Y0079057D01*
X0062915Y0079055D01*
X0062864Y0079057D01*
X0062814Y0079063D01*
X0062765Y0079072D01*
X0062716Y0079085D01*
X0062668Y0079102D01*
X0062622Y0079122D01*
X0062577Y0079146D01*
X0062534Y0079172D01*
X0062494Y0079202D01*
X0062455Y0079235D01*
X0062419Y0079271D01*
X0062386Y0079310D01*
X0062356Y0079350D01*
X0062330Y0079393D01*
X0062306Y0079438D01*
X0062286Y0079484D01*
X0062269Y0079532D01*
X0062256Y0079581D01*
X0062247Y0079630D01*
X0062241Y0079680D01*
X0062239Y0079731D01*
X0062241Y0079782D01*
X0062247Y0079832D01*
X0062256Y0079881D01*
X0062269Y0079930D01*
X0062286Y0079978D01*
X0062306Y0080024D01*
X0062330Y0080069D01*
X0062356Y0080112D01*
X0062386Y0080152D01*
X0062419Y0080191D01*
X0062455Y0080227D01*
X0062494Y0080260D01*
X0062534Y0080290D01*
X0062577Y0080316D01*
X0062622Y0080340D01*
X0062668Y0080360D01*
X0062716Y0080377D01*
X0062765Y0080390D01*
X0062814Y0080399D01*
X0062864Y0080405D01*
X0062915Y0080407D01*
X0062966Y0080405D01*
X0063016Y0080399D01*
X0063065Y0080390D01*
X0063114Y0080377D01*
X0063162Y0080360D01*
X0063208Y0080340D01*
X0063253Y0080316D01*
X0063296Y0080290D01*
X0063336Y0080260D01*
X0063375Y0080227D01*
X0063411Y0080191D01*
X0063444Y0080152D01*
X0063474Y0080112D01*
X0063500Y0080069D01*
X0063524Y0080024D01*
X0063544Y0079978D01*
X0063561Y0079930D01*
X0063574Y0079881D01*
X0063583Y0079832D01*
X0063589Y0079782D01*
X0063591Y0079731D01*
X0059923Y0078717D02*
X0060600Y0077364D01*
X0059754Y0078717D02*
X0058909Y0078717D01*
X0059754Y0078717D02*
X0059810Y0078719D01*
X0059867Y0078725D01*
X0059922Y0078734D01*
X0059977Y0078747D01*
X0060031Y0078764D01*
X0060084Y0078784D01*
X0060135Y0078808D01*
X0060185Y0078835D01*
X0060232Y0078865D01*
X0060278Y0078899D01*
X0060321Y0078935D01*
X0060361Y0078975D01*
X0060399Y0079016D01*
X0060434Y0079061D01*
X0060466Y0079107D01*
X0060495Y0079156D01*
X0060520Y0079206D01*
X0060543Y0079258D01*
X0060561Y0079312D01*
X0060576Y0079366D01*
X0060587Y0079421D01*
X0060595Y0079477D01*
X0060599Y0079534D01*
X0060599Y0079590D01*
X0060595Y0079647D01*
X0060587Y0079703D01*
X0060576Y0079758D01*
X0060561Y0079812D01*
X0060543Y0079866D01*
X0060520Y0079918D01*
X0060495Y0079968D01*
X0060466Y0080017D01*
X0060434Y0080063D01*
X0060399Y0080108D01*
X0060361Y0080149D01*
X0060321Y0080189D01*
X0060278Y0080225D01*
X0060232Y0080259D01*
X0060185Y0080289D01*
X0060135Y0080316D01*
X0060084Y0080340D01*
X0060031Y0080360D01*
X0059977Y0080377D01*
X0059922Y0080390D01*
X0059867Y0080399D01*
X0059810Y0080405D01*
X0059754Y0080407D01*
X0058909Y0080407D01*
X0058909Y0077364D01*
X0058657Y0068073D02*
X0057811Y0068073D01*
X0057811Y0065030D01*
X0058657Y0065030D01*
X0058713Y0065032D01*
X0058770Y0065038D01*
X0058825Y0065047D01*
X0058880Y0065060D01*
X0058934Y0065077D01*
X0058987Y0065097D01*
X0059038Y0065121D01*
X0059088Y0065148D01*
X0059135Y0065178D01*
X0059181Y0065212D01*
X0059224Y0065248D01*
X0059264Y0065288D01*
X0059302Y0065329D01*
X0059337Y0065374D01*
X0059369Y0065420D01*
X0059398Y0065469D01*
X0059423Y0065519D01*
X0059446Y0065571D01*
X0059464Y0065625D01*
X0059479Y0065679D01*
X0059490Y0065734D01*
X0059498Y0065790D01*
X0059502Y0065847D01*
X0059502Y0065903D01*
X0059498Y0065960D01*
X0059490Y0066016D01*
X0059479Y0066071D01*
X0059464Y0066125D01*
X0059446Y0066179D01*
X0059423Y0066231D01*
X0059398Y0066281D01*
X0059369Y0066330D01*
X0059337Y0066376D01*
X0059302Y0066421D01*
X0059264Y0066462D01*
X0059224Y0066502D01*
X0059181Y0066538D01*
X0059135Y0066572D01*
X0059088Y0066602D01*
X0059038Y0066629D01*
X0058987Y0066653D01*
X0058934Y0066673D01*
X0058880Y0066690D01*
X0058825Y0066703D01*
X0058770Y0066712D01*
X0058713Y0066718D01*
X0058657Y0066720D01*
X0057811Y0066720D01*
X0058657Y0066721D02*
X0058708Y0066723D01*
X0058758Y0066729D01*
X0058807Y0066738D01*
X0058856Y0066751D01*
X0058904Y0066768D01*
X0058950Y0066788D01*
X0058995Y0066812D01*
X0059038Y0066838D01*
X0059078Y0066868D01*
X0059117Y0066901D01*
X0059153Y0066937D01*
X0059186Y0066976D01*
X0059216Y0067016D01*
X0059242Y0067059D01*
X0059266Y0067104D01*
X0059286Y0067150D01*
X0059303Y0067198D01*
X0059316Y0067247D01*
X0059325Y0067296D01*
X0059331Y0067346D01*
X0059333Y0067397D01*
X0059331Y0067448D01*
X0059325Y0067498D01*
X0059316Y0067547D01*
X0059303Y0067596D01*
X0059286Y0067644D01*
X0059266Y0067690D01*
X0059242Y0067735D01*
X0059216Y0067778D01*
X0059186Y0067818D01*
X0059153Y0067857D01*
X0059117Y0067893D01*
X0059078Y0067926D01*
X0059038Y0067956D01*
X0058995Y0067982D01*
X0058950Y0068006D01*
X0058904Y0068026D01*
X0058856Y0068043D01*
X0058807Y0068056D01*
X0058758Y0068065D01*
X0058708Y0068071D01*
X0058657Y0068073D01*
X0062265Y0066720D02*
X0062304Y0066760D01*
X0062340Y0066802D01*
X0062373Y0066846D01*
X0062403Y0066892D01*
X0062430Y0066940D01*
X0062453Y0066990D01*
X0062473Y0067042D01*
X0062489Y0067094D01*
X0062502Y0067148D01*
X0062512Y0067202D01*
X0062517Y0067257D01*
X0062519Y0067312D01*
X0062266Y0066720D02*
X0060829Y0065030D01*
X0062519Y0065030D01*
X0060830Y0067396D02*
X0060850Y0067454D01*
X0060875Y0067510D01*
X0060902Y0067565D01*
X0060934Y0067618D01*
X0060968Y0067669D01*
X0061006Y0067717D01*
X0061046Y0067763D01*
X0061090Y0067807D01*
X0061136Y0067847D01*
X0061184Y0067885D01*
X0061235Y0067920D01*
X0061288Y0067951D01*
X0061343Y0067979D01*
X0061399Y0068003D01*
X0061457Y0068024D01*
X0061516Y0068041D01*
X0061576Y0068055D01*
X0061636Y0068064D01*
X0061698Y0068070D01*
X0061759Y0068072D01*
X0061759Y0068073D02*
X0061813Y0068071D01*
X0061867Y0068065D01*
X0061921Y0068056D01*
X0061973Y0068042D01*
X0062025Y0068025D01*
X0062075Y0068004D01*
X0062124Y0067980D01*
X0062170Y0067952D01*
X0062215Y0067921D01*
X0062257Y0067887D01*
X0062297Y0067850D01*
X0062334Y0067810D01*
X0062368Y0067768D01*
X0062399Y0067723D01*
X0062427Y0067677D01*
X0062451Y0067628D01*
X0062472Y0067578D01*
X0062489Y0067526D01*
X0062503Y0067474D01*
X0062512Y0067420D01*
X0062518Y0067366D01*
X0062520Y0067312D01*
X0136525Y0116804D02*
X0136523Y0116855D01*
X0136517Y0116906D01*
X0136508Y0116956D01*
X0136495Y0117005D01*
X0136478Y0117053D01*
X0136458Y0117100D01*
X0136434Y0117145D01*
X0136408Y0117188D01*
X0136378Y0117229D01*
X0136345Y0117268D01*
X0136309Y0117304D01*
X0136270Y0117338D01*
X0136230Y0117368D01*
X0136187Y0117396D01*
X0136186Y0117396D02*
X0135256Y0117903D01*
X0135595Y0119171D02*
X0135663Y0119169D01*
X0135731Y0119164D01*
X0135798Y0119155D01*
X0135865Y0119142D01*
X0135931Y0119126D01*
X0135996Y0119106D01*
X0136060Y0119083D01*
X0136122Y0119056D01*
X0136183Y0119026D01*
X0136243Y0118993D01*
X0136300Y0118957D01*
X0136356Y0118917D01*
X0135256Y0117903D02*
X0135213Y0117931D01*
X0135173Y0117961D01*
X0135134Y0117995D01*
X0135098Y0118031D01*
X0135065Y0118070D01*
X0135035Y0118111D01*
X0135009Y0118154D01*
X0134985Y0118199D01*
X0134965Y0118246D01*
X0134948Y0118294D01*
X0134935Y0118343D01*
X0134926Y0118393D01*
X0134920Y0118444D01*
X0134918Y0118495D01*
X0134919Y0118495D02*
X0134921Y0118546D01*
X0134927Y0118596D01*
X0134936Y0118645D01*
X0134949Y0118694D01*
X0134966Y0118742D01*
X0134986Y0118788D01*
X0135010Y0118833D01*
X0135036Y0118876D01*
X0135066Y0118916D01*
X0135099Y0118955D01*
X0135135Y0118991D01*
X0135174Y0119024D01*
X0135214Y0119054D01*
X0135257Y0119080D01*
X0135302Y0119104D01*
X0135348Y0119124D01*
X0135396Y0119141D01*
X0135445Y0119154D01*
X0135494Y0119163D01*
X0135544Y0119169D01*
X0135595Y0119171D01*
X0134833Y0116551D02*
X0134888Y0116499D01*
X0134945Y0116450D01*
X0135004Y0116404D01*
X0135066Y0116361D01*
X0135130Y0116321D01*
X0135196Y0116285D01*
X0135264Y0116253D01*
X0135333Y0116224D01*
X0135404Y0116199D01*
X0135476Y0116177D01*
X0135549Y0116160D01*
X0135623Y0116146D01*
X0135698Y0116136D01*
X0135773Y0116130D01*
X0135848Y0116128D01*
X0135899Y0116130D01*
X0135949Y0116136D01*
X0135998Y0116145D01*
X0136047Y0116158D01*
X0136095Y0116175D01*
X0136141Y0116195D01*
X0136186Y0116219D01*
X0136229Y0116245D01*
X0136269Y0116275D01*
X0136308Y0116308D01*
X0136344Y0116344D01*
X0136377Y0116383D01*
X0136407Y0116423D01*
X0136433Y0116466D01*
X0136457Y0116511D01*
X0136477Y0116557D01*
X0136494Y0116605D01*
X0136507Y0116654D01*
X0136516Y0116703D01*
X0136522Y0116753D01*
X0136524Y0116804D01*
X0137916Y0116804D02*
X0139607Y0116804D01*
X0139100Y0117481D02*
X0139100Y0116128D01*
X0137916Y0116804D02*
X0138593Y0119171D01*
X0146593Y0111340D02*
X0149636Y0111340D01*
X0149636Y0110495D02*
X0149636Y0112185D01*
X0147269Y0110495D02*
X0146593Y0111340D01*
X0148283Y0108349D02*
X0149636Y0109025D01*
X0148283Y0108180D02*
X0148283Y0107334D01*
X0148283Y0108180D02*
X0148281Y0108236D01*
X0148275Y0108293D01*
X0148266Y0108348D01*
X0148253Y0108403D01*
X0148236Y0108457D01*
X0148216Y0108510D01*
X0148192Y0108561D01*
X0148165Y0108611D01*
X0148135Y0108658D01*
X0148101Y0108704D01*
X0148065Y0108747D01*
X0148025Y0108787D01*
X0147984Y0108825D01*
X0147939Y0108860D01*
X0147893Y0108892D01*
X0147844Y0108921D01*
X0147794Y0108946D01*
X0147742Y0108969D01*
X0147688Y0108987D01*
X0147634Y0109002D01*
X0147579Y0109013D01*
X0147523Y0109021D01*
X0147466Y0109025D01*
X0147410Y0109025D01*
X0147353Y0109021D01*
X0147297Y0109013D01*
X0147242Y0109002D01*
X0147188Y0108987D01*
X0147134Y0108969D01*
X0147082Y0108946D01*
X0147032Y0108921D01*
X0146983Y0108892D01*
X0146937Y0108860D01*
X0146892Y0108825D01*
X0146851Y0108787D01*
X0146811Y0108747D01*
X0146775Y0108704D01*
X0146741Y0108658D01*
X0146711Y0108611D01*
X0146684Y0108561D01*
X0146660Y0108510D01*
X0146640Y0108457D01*
X0146623Y0108403D01*
X0146610Y0108348D01*
X0146601Y0108293D01*
X0146595Y0108236D01*
X0146593Y0108180D01*
X0146593Y0107334D01*
X0149636Y0107334D01*
X0150886Y0106503D02*
X0150886Y0104812D01*
X0150887Y0104812D02*
X0150889Y0104761D01*
X0150895Y0104711D01*
X0150904Y0104662D01*
X0150917Y0104613D01*
X0150934Y0104565D01*
X0150954Y0104519D01*
X0150978Y0104474D01*
X0151004Y0104431D01*
X0151034Y0104391D01*
X0151067Y0104352D01*
X0151103Y0104316D01*
X0151142Y0104283D01*
X0151182Y0104253D01*
X0151225Y0104227D01*
X0151270Y0104203D01*
X0151316Y0104183D01*
X0151364Y0104166D01*
X0151413Y0104153D01*
X0151462Y0104144D01*
X0151512Y0104138D01*
X0151563Y0104136D01*
X0152239Y0104136D01*
X0153557Y0104136D02*
X0155247Y0104136D01*
X0154402Y0104136D02*
X0154402Y0107179D01*
X0153557Y0106503D01*
X0152239Y0107179D02*
X0151563Y0107179D01*
X0151512Y0107177D01*
X0151462Y0107171D01*
X0151413Y0107162D01*
X0151364Y0107149D01*
X0151316Y0107132D01*
X0151270Y0107112D01*
X0151225Y0107088D01*
X0151182Y0107062D01*
X0151142Y0107032D01*
X0151103Y0106999D01*
X0151067Y0106963D01*
X0151034Y0106924D01*
X0151004Y0106884D01*
X0150978Y0106841D01*
X0150954Y0106796D01*
X0150934Y0106750D01*
X0150917Y0106702D01*
X0150904Y0106653D01*
X0150895Y0106604D01*
X0150889Y0106554D01*
X0150887Y0106503D01*
X0154307Y0103025D02*
X0155998Y0101588D01*
X0155998Y0103279D01*
X0153631Y0101589D02*
X0153573Y0101609D01*
X0153517Y0101634D01*
X0153462Y0101661D01*
X0153409Y0101693D01*
X0153358Y0101727D01*
X0153310Y0101765D01*
X0153264Y0101805D01*
X0153220Y0101849D01*
X0153180Y0101895D01*
X0153142Y0101943D01*
X0153107Y0101994D01*
X0153076Y0102047D01*
X0153048Y0102102D01*
X0153024Y0102158D01*
X0153003Y0102216D01*
X0152986Y0102275D01*
X0152972Y0102335D01*
X0152963Y0102395D01*
X0152957Y0102457D01*
X0152955Y0102518D01*
X0152957Y0102572D01*
X0152963Y0102626D01*
X0152972Y0102680D01*
X0152986Y0102732D01*
X0153003Y0102784D01*
X0153024Y0102834D01*
X0153048Y0102883D01*
X0153076Y0102929D01*
X0153107Y0102974D01*
X0153141Y0103016D01*
X0153178Y0103056D01*
X0153218Y0103093D01*
X0153260Y0103127D01*
X0153305Y0103158D01*
X0153351Y0103186D01*
X0153400Y0103210D01*
X0153450Y0103231D01*
X0153502Y0103248D01*
X0153554Y0103262D01*
X0153608Y0103271D01*
X0153662Y0103277D01*
X0153716Y0103279D01*
X0153771Y0103277D01*
X0153826Y0103272D01*
X0153880Y0103262D01*
X0153934Y0103249D01*
X0153986Y0103233D01*
X0154038Y0103213D01*
X0154088Y0103190D01*
X0154136Y0103163D01*
X0154182Y0103133D01*
X0154226Y0103100D01*
X0154268Y0103064D01*
X0154308Y0103025D01*
X0152955Y0100270D02*
X0152955Y0099594D01*
X0152957Y0099543D01*
X0152963Y0099493D01*
X0152972Y0099444D01*
X0152985Y0099395D01*
X0153002Y0099347D01*
X0153022Y0099301D01*
X0153046Y0099256D01*
X0153072Y0099213D01*
X0153102Y0099173D01*
X0153135Y0099134D01*
X0153171Y0099098D01*
X0153210Y0099065D01*
X0153250Y0099035D01*
X0153293Y0099009D01*
X0153338Y0098985D01*
X0153384Y0098965D01*
X0153432Y0098948D01*
X0153481Y0098935D01*
X0153530Y0098926D01*
X0153580Y0098920D01*
X0153631Y0098918D01*
X0155322Y0098918D01*
X0155373Y0098920D01*
X0155423Y0098926D01*
X0155472Y0098935D01*
X0155521Y0098948D01*
X0155569Y0098965D01*
X0155615Y0098985D01*
X0155660Y0099009D01*
X0155703Y0099035D01*
X0155743Y0099065D01*
X0155782Y0099098D01*
X0155818Y0099134D01*
X0155851Y0099173D01*
X0155881Y0099213D01*
X0155907Y0099256D01*
X0155931Y0099301D01*
X0155951Y0099347D01*
X0155968Y0099395D01*
X0155981Y0099444D01*
X0155990Y0099493D01*
X0155996Y0099543D01*
X0155998Y0099594D01*
X0155998Y0100270D01*
X0166112Y0093781D02*
X0166788Y0092936D01*
X0166112Y0093781D02*
X0169156Y0093781D01*
X0169156Y0092936D02*
X0169156Y0094627D01*
X0167887Y0091206D02*
X0167380Y0090276D01*
X0166112Y0090614D02*
X0166114Y0090682D01*
X0166119Y0090750D01*
X0166128Y0090817D01*
X0166141Y0090884D01*
X0166157Y0090950D01*
X0166177Y0091015D01*
X0166200Y0091079D01*
X0166227Y0091141D01*
X0166257Y0091203D01*
X0166290Y0091262D01*
X0166326Y0091319D01*
X0166366Y0091375D01*
X0167380Y0090276D02*
X0167352Y0090233D01*
X0167322Y0090193D01*
X0167288Y0090154D01*
X0167252Y0090118D01*
X0167213Y0090085D01*
X0167172Y0090055D01*
X0167129Y0090029D01*
X0167084Y0090005D01*
X0167037Y0089985D01*
X0166989Y0089968D01*
X0166940Y0089955D01*
X0166890Y0089946D01*
X0166839Y0089940D01*
X0166788Y0089938D01*
X0166737Y0089940D01*
X0166687Y0089946D01*
X0166638Y0089955D01*
X0166589Y0089968D01*
X0166541Y0089985D01*
X0166495Y0090005D01*
X0166450Y0090029D01*
X0166407Y0090055D01*
X0166367Y0090085D01*
X0166328Y0090118D01*
X0166292Y0090154D01*
X0166259Y0090193D01*
X0166229Y0090233D01*
X0166203Y0090276D01*
X0166179Y0090321D01*
X0166159Y0090367D01*
X0166142Y0090415D01*
X0166129Y0090464D01*
X0166120Y0090513D01*
X0166114Y0090563D01*
X0166112Y0090614D01*
X0168733Y0089853D02*
X0168785Y0089908D01*
X0168834Y0089965D01*
X0168880Y0090024D01*
X0168923Y0090086D01*
X0168963Y0090150D01*
X0168999Y0090216D01*
X0169031Y0090284D01*
X0169060Y0090353D01*
X0169085Y0090424D01*
X0169107Y0090496D01*
X0169124Y0090569D01*
X0169138Y0090643D01*
X0169148Y0090718D01*
X0169154Y0090793D01*
X0169156Y0090868D01*
X0169155Y0090868D02*
X0169153Y0090919D01*
X0169147Y0090969D01*
X0169138Y0091018D01*
X0169125Y0091067D01*
X0169108Y0091115D01*
X0169088Y0091161D01*
X0169064Y0091206D01*
X0169038Y0091249D01*
X0169008Y0091289D01*
X0168975Y0091328D01*
X0168939Y0091364D01*
X0168900Y0091397D01*
X0168860Y0091427D01*
X0168817Y0091453D01*
X0168772Y0091477D01*
X0168726Y0091497D01*
X0168678Y0091514D01*
X0168629Y0091527D01*
X0168580Y0091536D01*
X0168530Y0091542D01*
X0168479Y0091544D01*
X0168428Y0091542D01*
X0168377Y0091536D01*
X0168327Y0091527D01*
X0168278Y0091514D01*
X0168230Y0091497D01*
X0168183Y0091477D01*
X0168138Y0091453D01*
X0168095Y0091427D01*
X0168054Y0091397D01*
X0168015Y0091364D01*
X0167979Y0091328D01*
X0167945Y0091289D01*
X0167915Y0091249D01*
X0167887Y0091206D01*
X0156951Y0084740D02*
X0156951Y0083050D01*
X0156951Y0083895D02*
X0153907Y0083895D01*
X0154584Y0083050D01*
X0153907Y0081463D02*
X0156275Y0081463D01*
X0156326Y0081461D01*
X0156376Y0081455D01*
X0156425Y0081446D01*
X0156474Y0081433D01*
X0156522Y0081416D01*
X0156568Y0081396D01*
X0156613Y0081372D01*
X0156656Y0081346D01*
X0156696Y0081316D01*
X0156735Y0081283D01*
X0156771Y0081247D01*
X0156804Y0081208D01*
X0156834Y0081168D01*
X0156860Y0081125D01*
X0156884Y0081080D01*
X0156904Y0081034D01*
X0156921Y0080986D01*
X0156934Y0080937D01*
X0156943Y0080888D01*
X0156949Y0080838D01*
X0156951Y0080787D01*
X0156951Y0080449D01*
X0159691Y0074022D02*
X0160536Y0074022D01*
X0159691Y0074022D02*
X0159691Y0070978D01*
X0159441Y0070228D02*
X0157441Y0068228D01*
X0157441Y0060228D01*
X0159441Y0058228D01*
X0162441Y0058228D01*
X0163441Y0059228D01*
X0164441Y0058228D01*
X0167441Y0058228D01*
X0168441Y0059228D01*
X0169441Y0058228D01*
X0172441Y0058228D01*
X0174441Y0060228D01*
X0174441Y0068228D01*
X0172441Y0070228D01*
X0169441Y0070228D01*
X0168441Y0069228D01*
X0167441Y0070228D01*
X0164441Y0070228D01*
X0163441Y0069228D01*
X0162441Y0070228D01*
X0159441Y0070228D01*
X0159691Y0072331D02*
X0160536Y0072331D01*
X0160592Y0072333D01*
X0160649Y0072339D01*
X0160704Y0072348D01*
X0160759Y0072361D01*
X0160813Y0072378D01*
X0160866Y0072398D01*
X0160917Y0072422D01*
X0160967Y0072449D01*
X0161014Y0072479D01*
X0161060Y0072513D01*
X0161103Y0072549D01*
X0161143Y0072589D01*
X0161181Y0072630D01*
X0161216Y0072675D01*
X0161248Y0072721D01*
X0161277Y0072770D01*
X0161302Y0072820D01*
X0161325Y0072872D01*
X0161343Y0072926D01*
X0161358Y0072980D01*
X0161369Y0073035D01*
X0161377Y0073091D01*
X0161381Y0073148D01*
X0161381Y0073204D01*
X0161377Y0073261D01*
X0161369Y0073317D01*
X0161358Y0073372D01*
X0161343Y0073426D01*
X0161325Y0073480D01*
X0161302Y0073532D01*
X0161277Y0073582D01*
X0161248Y0073631D01*
X0161216Y0073677D01*
X0161181Y0073722D01*
X0161143Y0073763D01*
X0161103Y0073803D01*
X0161060Y0073839D01*
X0161014Y0073873D01*
X0160967Y0073903D01*
X0160917Y0073930D01*
X0160866Y0073954D01*
X0160813Y0073974D01*
X0160759Y0073991D01*
X0160704Y0074004D01*
X0160649Y0074013D01*
X0160592Y0074019D01*
X0160536Y0074021D01*
X0162843Y0074022D02*
X0163688Y0074022D01*
X0162843Y0074022D02*
X0162843Y0070978D01*
X0162843Y0072331D02*
X0163688Y0072331D01*
X0163857Y0072331D02*
X0164534Y0070978D01*
X0166110Y0071655D02*
X0166110Y0073345D01*
X0166112Y0073396D01*
X0166118Y0073446D01*
X0166127Y0073495D01*
X0166140Y0073544D01*
X0166157Y0073592D01*
X0166177Y0073638D01*
X0166201Y0073683D01*
X0166227Y0073726D01*
X0166257Y0073766D01*
X0166290Y0073805D01*
X0166326Y0073841D01*
X0166365Y0073874D01*
X0166405Y0073904D01*
X0166448Y0073930D01*
X0166493Y0073954D01*
X0166539Y0073974D01*
X0166587Y0073991D01*
X0166636Y0074004D01*
X0166685Y0074013D01*
X0166735Y0074019D01*
X0166786Y0074021D01*
X0166786Y0074022D02*
X0167801Y0074022D01*
X0167801Y0072669D02*
X0167801Y0070978D01*
X0166786Y0070978D01*
X0166786Y0070979D02*
X0166735Y0070981D01*
X0166685Y0070987D01*
X0166636Y0070996D01*
X0166587Y0071009D01*
X0166539Y0071026D01*
X0166493Y0071046D01*
X0166448Y0071070D01*
X0166405Y0071096D01*
X0166365Y0071126D01*
X0166326Y0071159D01*
X0166290Y0071195D01*
X0166257Y0071234D01*
X0166227Y0071274D01*
X0166201Y0071317D01*
X0166177Y0071362D01*
X0166157Y0071408D01*
X0166140Y0071456D01*
X0166127Y0071505D01*
X0166118Y0071554D01*
X0166112Y0071604D01*
X0166110Y0071655D01*
X0167293Y0072669D02*
X0167801Y0072669D01*
X0167441Y0070228D02*
X0168441Y0069228D01*
X0163688Y0072331D02*
X0163744Y0072333D01*
X0163801Y0072339D01*
X0163856Y0072348D01*
X0163911Y0072361D01*
X0163965Y0072378D01*
X0164018Y0072398D01*
X0164069Y0072422D01*
X0164119Y0072449D01*
X0164166Y0072479D01*
X0164212Y0072513D01*
X0164255Y0072549D01*
X0164295Y0072589D01*
X0164333Y0072630D01*
X0164368Y0072675D01*
X0164400Y0072721D01*
X0164429Y0072770D01*
X0164454Y0072820D01*
X0164477Y0072872D01*
X0164495Y0072926D01*
X0164510Y0072980D01*
X0164521Y0073035D01*
X0164529Y0073091D01*
X0164533Y0073148D01*
X0164533Y0073204D01*
X0164529Y0073261D01*
X0164521Y0073317D01*
X0164510Y0073372D01*
X0164495Y0073426D01*
X0164477Y0073480D01*
X0164454Y0073532D01*
X0164429Y0073582D01*
X0164400Y0073631D01*
X0164368Y0073677D01*
X0164333Y0073722D01*
X0164295Y0073763D01*
X0164255Y0073803D01*
X0164212Y0073839D01*
X0164166Y0073873D01*
X0164119Y0073903D01*
X0164069Y0073930D01*
X0164018Y0073954D01*
X0163965Y0073974D01*
X0163911Y0073991D01*
X0163856Y0074004D01*
X0163801Y0074013D01*
X0163744Y0074019D01*
X0163688Y0074021D01*
X0155020Y0062628D02*
X0154344Y0060261D01*
X0156035Y0060261D01*
X0155528Y0060937D02*
X0155528Y0059585D01*
X0153026Y0059585D02*
X0152350Y0059585D01*
X0152299Y0059587D01*
X0152249Y0059593D01*
X0152200Y0059602D01*
X0152151Y0059615D01*
X0152103Y0059632D01*
X0152057Y0059652D01*
X0152012Y0059676D01*
X0151969Y0059702D01*
X0151929Y0059732D01*
X0151890Y0059765D01*
X0151854Y0059801D01*
X0151821Y0059840D01*
X0151791Y0059880D01*
X0151765Y0059923D01*
X0151741Y0059968D01*
X0151721Y0060014D01*
X0151704Y0060062D01*
X0151691Y0060111D01*
X0151682Y0060160D01*
X0151676Y0060210D01*
X0151674Y0060261D01*
X0151674Y0061952D01*
X0151676Y0062003D01*
X0151682Y0062053D01*
X0151691Y0062102D01*
X0151704Y0062151D01*
X0151721Y0062199D01*
X0151741Y0062245D01*
X0151765Y0062290D01*
X0151791Y0062333D01*
X0151821Y0062373D01*
X0151854Y0062412D01*
X0151890Y0062448D01*
X0151929Y0062481D01*
X0151969Y0062511D01*
X0152012Y0062537D01*
X0152057Y0062561D01*
X0152103Y0062581D01*
X0152151Y0062598D01*
X0152200Y0062611D01*
X0152249Y0062620D01*
X0152299Y0062626D01*
X0152350Y0062628D01*
X0153026Y0062628D01*
X0154355Y0111910D02*
X0156046Y0111910D01*
X0156097Y0111912D01*
X0156147Y0111918D01*
X0156196Y0111927D01*
X0156245Y0111940D01*
X0156293Y0111957D01*
X0156339Y0111977D01*
X0156384Y0112001D01*
X0156427Y0112027D01*
X0156467Y0112057D01*
X0156506Y0112090D01*
X0156542Y0112126D01*
X0156575Y0112165D01*
X0156605Y0112205D01*
X0156631Y0112248D01*
X0156655Y0112293D01*
X0156675Y0112339D01*
X0156692Y0112387D01*
X0156705Y0112436D01*
X0156714Y0112485D01*
X0156720Y0112535D01*
X0156722Y0112586D01*
X0156722Y0113263D01*
X0156722Y0114580D02*
X0156722Y0115426D01*
X0156720Y0115482D01*
X0156714Y0115539D01*
X0156705Y0115594D01*
X0156692Y0115649D01*
X0156675Y0115703D01*
X0156655Y0115756D01*
X0156631Y0115807D01*
X0156604Y0115857D01*
X0156574Y0115904D01*
X0156540Y0115950D01*
X0156504Y0115993D01*
X0156464Y0116033D01*
X0156423Y0116071D01*
X0156378Y0116106D01*
X0156332Y0116138D01*
X0156283Y0116167D01*
X0156233Y0116192D01*
X0156181Y0116215D01*
X0156127Y0116233D01*
X0156073Y0116248D01*
X0156018Y0116259D01*
X0155962Y0116267D01*
X0155905Y0116271D01*
X0155849Y0116271D01*
X0155792Y0116267D01*
X0155736Y0116259D01*
X0155681Y0116248D01*
X0155627Y0116233D01*
X0155573Y0116215D01*
X0155521Y0116192D01*
X0155471Y0116167D01*
X0155422Y0116138D01*
X0155376Y0116106D01*
X0155331Y0116071D01*
X0155290Y0116033D01*
X0155250Y0115993D01*
X0155214Y0115950D01*
X0155180Y0115904D01*
X0155150Y0115857D01*
X0155123Y0115807D01*
X0155099Y0115756D01*
X0155079Y0115703D01*
X0155062Y0115649D01*
X0155049Y0115594D01*
X0155040Y0115539D01*
X0155034Y0115482D01*
X0155032Y0115426D01*
X0155032Y0115595D02*
X0155032Y0114918D01*
X0155031Y0115595D02*
X0155029Y0115646D01*
X0155023Y0115696D01*
X0155014Y0115745D01*
X0155001Y0115794D01*
X0154984Y0115842D01*
X0154964Y0115888D01*
X0154940Y0115933D01*
X0154914Y0115976D01*
X0154884Y0116016D01*
X0154851Y0116055D01*
X0154815Y0116091D01*
X0154776Y0116124D01*
X0154736Y0116154D01*
X0154693Y0116180D01*
X0154648Y0116204D01*
X0154602Y0116224D01*
X0154554Y0116241D01*
X0154505Y0116254D01*
X0154456Y0116263D01*
X0154406Y0116269D01*
X0154355Y0116271D01*
X0154304Y0116269D01*
X0154254Y0116263D01*
X0154205Y0116254D01*
X0154156Y0116241D01*
X0154108Y0116224D01*
X0154062Y0116204D01*
X0154017Y0116180D01*
X0153974Y0116154D01*
X0153934Y0116124D01*
X0153895Y0116091D01*
X0153859Y0116055D01*
X0153826Y0116016D01*
X0153796Y0115976D01*
X0153770Y0115933D01*
X0153746Y0115888D01*
X0153726Y0115842D01*
X0153709Y0115794D01*
X0153696Y0115745D01*
X0153687Y0115696D01*
X0153681Y0115646D01*
X0153679Y0115595D01*
X0153679Y0114580D01*
X0153679Y0113263D02*
X0153679Y0112586D01*
X0153681Y0112535D01*
X0153687Y0112485D01*
X0153696Y0112436D01*
X0153709Y0112387D01*
X0153726Y0112339D01*
X0153746Y0112293D01*
X0153770Y0112248D01*
X0153796Y0112205D01*
X0153826Y0112165D01*
X0153859Y0112126D01*
X0153895Y0112090D01*
X0153934Y0112057D01*
X0153974Y0112027D01*
X0154017Y0112001D01*
X0154062Y0111977D01*
X0154108Y0111957D01*
X0154156Y0111940D01*
X0154205Y0111927D01*
X0154254Y0111918D01*
X0154304Y0111912D01*
X0154355Y0111910D01*
X0157973Y0115836D02*
X0157973Y0117526D01*
X0157975Y0117577D01*
X0157981Y0117627D01*
X0157990Y0117676D01*
X0158003Y0117725D01*
X0158020Y0117773D01*
X0158040Y0117819D01*
X0158064Y0117864D01*
X0158090Y0117907D01*
X0158120Y0117947D01*
X0158153Y0117986D01*
X0158189Y0118022D01*
X0158228Y0118055D01*
X0158268Y0118085D01*
X0158311Y0118111D01*
X0158356Y0118135D01*
X0158402Y0118155D01*
X0158450Y0118172D01*
X0158499Y0118185D01*
X0158548Y0118194D01*
X0158598Y0118200D01*
X0158649Y0118202D01*
X0158649Y0118203D02*
X0159326Y0118203D01*
X0158471Y0118997D02*
X0156781Y0118997D01*
X0156730Y0118999D01*
X0156680Y0119005D01*
X0156631Y0119014D01*
X0156582Y0119027D01*
X0156534Y0119044D01*
X0156488Y0119064D01*
X0156443Y0119088D01*
X0156400Y0119114D01*
X0156360Y0119144D01*
X0156321Y0119177D01*
X0156285Y0119213D01*
X0156252Y0119252D01*
X0156222Y0119292D01*
X0156196Y0119335D01*
X0156172Y0119380D01*
X0156152Y0119426D01*
X0156135Y0119474D01*
X0156122Y0119523D01*
X0156113Y0119572D01*
X0156107Y0119622D01*
X0156105Y0119673D01*
X0156104Y0119673D02*
X0156104Y0120349D01*
X0156781Y0121836D02*
X0156832Y0121838D01*
X0156882Y0121844D01*
X0156931Y0121853D01*
X0156980Y0121866D01*
X0157028Y0121883D01*
X0157074Y0121903D01*
X0157119Y0121927D01*
X0157162Y0121953D01*
X0157202Y0121983D01*
X0157241Y0122016D01*
X0157277Y0122052D01*
X0157310Y0122091D01*
X0157340Y0122131D01*
X0157366Y0122174D01*
X0157390Y0122219D01*
X0157410Y0122265D01*
X0157427Y0122313D01*
X0157440Y0122362D01*
X0157449Y0122411D01*
X0157455Y0122461D01*
X0157457Y0122512D01*
X0157455Y0122563D01*
X0157449Y0122613D01*
X0157440Y0122662D01*
X0157427Y0122711D01*
X0157410Y0122759D01*
X0157390Y0122805D01*
X0157366Y0122850D01*
X0157340Y0122893D01*
X0157310Y0122933D01*
X0157277Y0122972D01*
X0157241Y0123008D01*
X0157202Y0123041D01*
X0157162Y0123071D01*
X0157119Y0123097D01*
X0157074Y0123121D01*
X0157028Y0123141D01*
X0156980Y0123158D01*
X0156931Y0123171D01*
X0156882Y0123180D01*
X0156832Y0123186D01*
X0156781Y0123188D01*
X0156730Y0123186D01*
X0156680Y0123180D01*
X0156631Y0123171D01*
X0156582Y0123158D01*
X0156534Y0123141D01*
X0156488Y0123121D01*
X0156443Y0123097D01*
X0156400Y0123071D01*
X0156360Y0123041D01*
X0156321Y0123008D01*
X0156285Y0122972D01*
X0156252Y0122933D01*
X0156222Y0122893D01*
X0156196Y0122850D01*
X0156172Y0122805D01*
X0156152Y0122759D01*
X0156135Y0122711D01*
X0156122Y0122662D01*
X0156113Y0122613D01*
X0156107Y0122563D01*
X0156105Y0122512D01*
X0156107Y0122461D01*
X0156113Y0122411D01*
X0156122Y0122362D01*
X0156135Y0122313D01*
X0156152Y0122265D01*
X0156172Y0122219D01*
X0156196Y0122174D01*
X0156222Y0122131D01*
X0156252Y0122091D01*
X0156285Y0122052D01*
X0156321Y0122016D01*
X0156360Y0121983D01*
X0156400Y0121953D01*
X0156443Y0121927D01*
X0156488Y0121903D01*
X0156534Y0121883D01*
X0156582Y0121866D01*
X0156631Y0121853D01*
X0156680Y0121844D01*
X0156730Y0121838D01*
X0156781Y0121836D01*
X0158302Y0121667D02*
X0158358Y0121669D01*
X0158415Y0121675D01*
X0158470Y0121684D01*
X0158525Y0121697D01*
X0158579Y0121714D01*
X0158632Y0121734D01*
X0158683Y0121758D01*
X0158733Y0121785D01*
X0158780Y0121815D01*
X0158826Y0121849D01*
X0158869Y0121885D01*
X0158909Y0121925D01*
X0158947Y0121966D01*
X0158982Y0122011D01*
X0159014Y0122057D01*
X0159043Y0122106D01*
X0159068Y0122156D01*
X0159091Y0122208D01*
X0159109Y0122262D01*
X0159124Y0122316D01*
X0159135Y0122371D01*
X0159143Y0122427D01*
X0159147Y0122484D01*
X0159147Y0122540D01*
X0159143Y0122597D01*
X0159135Y0122653D01*
X0159124Y0122708D01*
X0159109Y0122762D01*
X0159091Y0122816D01*
X0159068Y0122868D01*
X0159043Y0122918D01*
X0159014Y0122967D01*
X0158982Y0123013D01*
X0158947Y0123058D01*
X0158909Y0123099D01*
X0158869Y0123139D01*
X0158826Y0123175D01*
X0158780Y0123209D01*
X0158733Y0123239D01*
X0158683Y0123266D01*
X0158632Y0123290D01*
X0158579Y0123310D01*
X0158525Y0123327D01*
X0158470Y0123340D01*
X0158415Y0123349D01*
X0158358Y0123355D01*
X0158302Y0123357D01*
X0158246Y0123355D01*
X0158189Y0123349D01*
X0158134Y0123340D01*
X0158079Y0123327D01*
X0158025Y0123310D01*
X0157972Y0123290D01*
X0157921Y0123266D01*
X0157871Y0123239D01*
X0157824Y0123209D01*
X0157778Y0123175D01*
X0157735Y0123139D01*
X0157695Y0123099D01*
X0157657Y0123058D01*
X0157622Y0123013D01*
X0157590Y0122967D01*
X0157561Y0122918D01*
X0157536Y0122868D01*
X0157513Y0122816D01*
X0157495Y0122762D01*
X0157480Y0122708D01*
X0157469Y0122653D01*
X0157461Y0122597D01*
X0157457Y0122540D01*
X0157457Y0122484D01*
X0157461Y0122427D01*
X0157469Y0122371D01*
X0157480Y0122316D01*
X0157495Y0122262D01*
X0157513Y0122208D01*
X0157536Y0122156D01*
X0157561Y0122106D01*
X0157590Y0122057D01*
X0157622Y0122011D01*
X0157657Y0121966D01*
X0157695Y0121925D01*
X0157735Y0121885D01*
X0157778Y0121849D01*
X0157824Y0121815D01*
X0157871Y0121785D01*
X0157921Y0121758D01*
X0157972Y0121734D01*
X0158025Y0121714D01*
X0158079Y0121697D01*
X0158134Y0121684D01*
X0158189Y0121675D01*
X0158246Y0121669D01*
X0158302Y0121667D01*
X0159148Y0120349D02*
X0159148Y0119673D01*
X0159147Y0119673D02*
X0159145Y0119622D01*
X0159139Y0119572D01*
X0159130Y0119523D01*
X0159117Y0119474D01*
X0159100Y0119426D01*
X0159080Y0119380D01*
X0159056Y0119335D01*
X0159030Y0119292D01*
X0159000Y0119252D01*
X0158967Y0119213D01*
X0158931Y0119177D01*
X0158892Y0119144D01*
X0158852Y0119114D01*
X0158809Y0119088D01*
X0158764Y0119064D01*
X0158718Y0119044D01*
X0158670Y0119027D01*
X0158621Y0119014D01*
X0158572Y0119005D01*
X0158522Y0118999D01*
X0158471Y0118997D01*
X0160643Y0117357D02*
X0160643Y0117188D01*
X0160644Y0117188D02*
X0160646Y0117137D01*
X0160652Y0117087D01*
X0160661Y0117038D01*
X0160674Y0116989D01*
X0160691Y0116941D01*
X0160711Y0116895D01*
X0160735Y0116850D01*
X0160761Y0116807D01*
X0160791Y0116767D01*
X0160824Y0116728D01*
X0160860Y0116692D01*
X0160899Y0116659D01*
X0160939Y0116629D01*
X0160982Y0116603D01*
X0161027Y0116579D01*
X0161073Y0116559D01*
X0161121Y0116542D01*
X0161170Y0116529D01*
X0161219Y0116520D01*
X0161269Y0116514D01*
X0161320Y0116512D01*
X0162334Y0116512D01*
X0162334Y0117357D01*
X0162332Y0117413D01*
X0162326Y0117470D01*
X0162317Y0117525D01*
X0162304Y0117580D01*
X0162287Y0117634D01*
X0162267Y0117687D01*
X0162243Y0117738D01*
X0162216Y0117788D01*
X0162186Y0117835D01*
X0162152Y0117881D01*
X0162116Y0117924D01*
X0162076Y0117964D01*
X0162035Y0118002D01*
X0161990Y0118037D01*
X0161944Y0118069D01*
X0161895Y0118098D01*
X0161845Y0118123D01*
X0161793Y0118146D01*
X0161739Y0118164D01*
X0161685Y0118179D01*
X0161630Y0118190D01*
X0161574Y0118198D01*
X0161517Y0118202D01*
X0161461Y0118202D01*
X0161404Y0118198D01*
X0161348Y0118190D01*
X0161293Y0118179D01*
X0161239Y0118164D01*
X0161185Y0118146D01*
X0161133Y0118123D01*
X0161083Y0118098D01*
X0161034Y0118069D01*
X0160988Y0118037D01*
X0160943Y0118002D01*
X0160902Y0117964D01*
X0160862Y0117924D01*
X0160826Y0117881D01*
X0160792Y0117835D01*
X0160762Y0117788D01*
X0160735Y0117738D01*
X0160711Y0117687D01*
X0160691Y0117634D01*
X0160674Y0117580D01*
X0160661Y0117525D01*
X0160652Y0117470D01*
X0160646Y0117413D01*
X0160644Y0117357D01*
X0162334Y0116512D02*
X0162332Y0116441D01*
X0162327Y0116371D01*
X0162317Y0116300D01*
X0162304Y0116231D01*
X0162288Y0116162D01*
X0162268Y0116094D01*
X0162244Y0116027D01*
X0162217Y0115962D01*
X0162187Y0115898D01*
X0162153Y0115835D01*
X0162116Y0115775D01*
X0162076Y0115717D01*
X0162032Y0115661D01*
X0161986Y0115607D01*
X0161938Y0115555D01*
X0161886Y0115507D01*
X0161832Y0115461D01*
X0161776Y0115417D01*
X0161718Y0115377D01*
X0161657Y0115340D01*
X0161595Y0115306D01*
X0161531Y0115276D01*
X0161466Y0115249D01*
X0161399Y0115225D01*
X0161331Y0115205D01*
X0161262Y0115189D01*
X0161193Y0115176D01*
X0161122Y0115166D01*
X0161052Y0115161D01*
X0160981Y0115159D01*
X0159326Y0115159D02*
X0158649Y0115159D01*
X0158649Y0115160D02*
X0158598Y0115162D01*
X0158548Y0115168D01*
X0158499Y0115177D01*
X0158450Y0115190D01*
X0158402Y0115207D01*
X0158356Y0115227D01*
X0158311Y0115251D01*
X0158268Y0115277D01*
X0158228Y0115307D01*
X0158189Y0115340D01*
X0158153Y0115376D01*
X0158120Y0115415D01*
X0158090Y0115455D01*
X0158064Y0115498D01*
X0158040Y0115543D01*
X0158020Y0115589D01*
X0158003Y0115637D01*
X0157990Y0115686D01*
X0157981Y0115735D01*
X0157975Y0115785D01*
X0157973Y0115836D01*
X0160655Y0124489D02*
X0162345Y0124489D01*
X0162396Y0124491D01*
X0162446Y0124497D01*
X0162495Y0124506D01*
X0162544Y0124519D01*
X0162592Y0124536D01*
X0162638Y0124556D01*
X0162683Y0124580D01*
X0162726Y0124606D01*
X0162766Y0124636D01*
X0162805Y0124669D01*
X0162841Y0124705D01*
X0162874Y0124744D01*
X0162904Y0124784D01*
X0162930Y0124827D01*
X0162954Y0124872D01*
X0162974Y0124918D01*
X0162991Y0124966D01*
X0163004Y0125015D01*
X0163013Y0125064D01*
X0163019Y0125114D01*
X0163021Y0125165D01*
X0163022Y0125165D02*
X0163022Y0125841D01*
X0163022Y0127159D02*
X0163022Y0128850D01*
X0163022Y0128004D02*
X0159978Y0128004D01*
X0160655Y0127159D01*
X0159978Y0125841D02*
X0159978Y0125165D01*
X0159979Y0125165D02*
X0159981Y0125114D01*
X0159987Y0125064D01*
X0159996Y0125015D01*
X0160009Y0124966D01*
X0160026Y0124918D01*
X0160046Y0124872D01*
X0160070Y0124827D01*
X0160096Y0124784D01*
X0160126Y0124744D01*
X0160159Y0124705D01*
X0160195Y0124669D01*
X0160234Y0124636D01*
X0160274Y0124606D01*
X0160317Y0124580D01*
X0160362Y0124556D01*
X0160408Y0124536D01*
X0160456Y0124519D01*
X0160505Y0124506D01*
X0160554Y0124497D01*
X0160604Y0124491D01*
X0160655Y0124489D01*
X0162599Y0131785D02*
X0162513Y0131825D01*
X0162426Y0131862D01*
X0162337Y0131895D01*
X0162247Y0131925D01*
X0162156Y0131952D01*
X0162064Y0131975D01*
X0161971Y0131994D01*
X0161878Y0132010D01*
X0161784Y0132023D01*
X0161689Y0132032D01*
X0161595Y0132037D01*
X0161500Y0132039D01*
X0161500Y0130348D02*
X0161405Y0130350D01*
X0161311Y0130355D01*
X0161216Y0130364D01*
X0161122Y0130377D01*
X0161029Y0130393D01*
X0160936Y0130412D01*
X0160844Y0130435D01*
X0160753Y0130462D01*
X0160663Y0130492D01*
X0160574Y0130525D01*
X0160487Y0130562D01*
X0160401Y0130602D01*
X0159978Y0131193D02*
X0159980Y0131241D01*
X0159986Y0131290D01*
X0159995Y0131337D01*
X0160008Y0131384D01*
X0160024Y0131430D01*
X0160045Y0131474D01*
X0160068Y0131516D01*
X0160095Y0131557D01*
X0160124Y0131595D01*
X0160157Y0131631D01*
X0160192Y0131664D01*
X0160230Y0131695D01*
X0160270Y0131722D01*
X0160312Y0131747D01*
X0160356Y0131768D01*
X0160401Y0131785D01*
X0160655Y0131870D02*
X0162345Y0130517D01*
X0163022Y0131193D02*
X0163020Y0131241D01*
X0163014Y0131290D01*
X0163005Y0131337D01*
X0162992Y0131384D01*
X0162976Y0131430D01*
X0162955Y0131474D01*
X0162932Y0131516D01*
X0162905Y0131557D01*
X0162876Y0131595D01*
X0162843Y0131631D01*
X0162808Y0131664D01*
X0162770Y0131695D01*
X0162730Y0131722D01*
X0162688Y0131747D01*
X0162644Y0131768D01*
X0162599Y0131785D01*
X0163022Y0131193D02*
X0163020Y0131145D01*
X0163014Y0131096D01*
X0163005Y0131049D01*
X0162992Y0131002D01*
X0162976Y0130956D01*
X0162955Y0130912D01*
X0162932Y0130870D01*
X0162905Y0130829D01*
X0162876Y0130791D01*
X0162843Y0130755D01*
X0162808Y0130722D01*
X0162770Y0130691D01*
X0162730Y0130664D01*
X0162688Y0130639D01*
X0162644Y0130618D01*
X0162599Y0130601D01*
X0161500Y0132039D02*
X0161405Y0132037D01*
X0161311Y0132032D01*
X0161216Y0132023D01*
X0161122Y0132010D01*
X0161029Y0131994D01*
X0160936Y0131975D01*
X0160844Y0131952D01*
X0160753Y0131925D01*
X0160663Y0131895D01*
X0160574Y0131862D01*
X0160487Y0131825D01*
X0160401Y0131785D01*
X0159978Y0131193D02*
X0159980Y0131145D01*
X0159986Y0131096D01*
X0159995Y0131049D01*
X0160008Y0131002D01*
X0160024Y0130956D01*
X0160045Y0130912D01*
X0160068Y0130870D01*
X0160095Y0130829D01*
X0160124Y0130791D01*
X0160157Y0130755D01*
X0160192Y0130722D01*
X0160230Y0130691D01*
X0160270Y0130664D01*
X0160312Y0130639D01*
X0160356Y0130618D01*
X0160401Y0130601D01*
X0161500Y0130348D02*
X0161595Y0130350D01*
X0161689Y0130355D01*
X0161784Y0130364D01*
X0161878Y0130377D01*
X0161971Y0130393D01*
X0162064Y0130412D01*
X0162156Y0130435D01*
X0162247Y0130462D01*
X0162337Y0130492D01*
X0162426Y0130525D01*
X0162513Y0130562D01*
X0162599Y0130602D01*
X0158754Y0136074D02*
X0155711Y0136074D01*
X0155711Y0136920D01*
X0155713Y0136976D01*
X0155719Y0137033D01*
X0155728Y0137088D01*
X0155741Y0137143D01*
X0155758Y0137197D01*
X0155778Y0137250D01*
X0155802Y0137301D01*
X0155829Y0137351D01*
X0155859Y0137398D01*
X0155893Y0137444D01*
X0155929Y0137487D01*
X0155969Y0137527D01*
X0156010Y0137565D01*
X0156055Y0137600D01*
X0156101Y0137632D01*
X0156150Y0137661D01*
X0156200Y0137686D01*
X0156252Y0137709D01*
X0156306Y0137727D01*
X0156360Y0137742D01*
X0156415Y0137753D01*
X0156471Y0137761D01*
X0156528Y0137765D01*
X0156584Y0137765D01*
X0156641Y0137761D01*
X0156697Y0137753D01*
X0156752Y0137742D01*
X0156806Y0137727D01*
X0156860Y0137709D01*
X0156912Y0137686D01*
X0156962Y0137661D01*
X0157011Y0137632D01*
X0157057Y0137600D01*
X0157102Y0137565D01*
X0157143Y0137527D01*
X0157183Y0137487D01*
X0157219Y0137444D01*
X0157253Y0137398D01*
X0157283Y0137351D01*
X0157310Y0137301D01*
X0157334Y0137250D01*
X0157354Y0137197D01*
X0157371Y0137143D01*
X0157384Y0137088D01*
X0157393Y0137033D01*
X0157399Y0136976D01*
X0157401Y0136920D01*
X0157401Y0136074D01*
X0157401Y0137089D02*
X0158754Y0137765D01*
X0158078Y0139235D02*
X0158078Y0140926D01*
X0158754Y0140418D02*
X0157401Y0140418D01*
X0158078Y0139235D02*
X0155711Y0139911D01*
X0159261Y0142379D02*
X0159259Y0142430D01*
X0159253Y0142481D01*
X0159244Y0142531D01*
X0159231Y0142580D01*
X0159214Y0142628D01*
X0159194Y0142675D01*
X0159170Y0142720D01*
X0159144Y0142763D01*
X0159114Y0142804D01*
X0159081Y0142843D01*
X0159045Y0142879D01*
X0159006Y0142913D01*
X0158966Y0142943D01*
X0158923Y0142971D01*
X0157993Y0143478D01*
X0158331Y0144746D02*
X0158399Y0144744D01*
X0158467Y0144739D01*
X0158534Y0144730D01*
X0158601Y0144717D01*
X0158667Y0144701D01*
X0158732Y0144681D01*
X0158796Y0144658D01*
X0158858Y0144631D01*
X0158919Y0144601D01*
X0158979Y0144568D01*
X0159036Y0144532D01*
X0159092Y0144492D01*
X0157992Y0143478D02*
X0157949Y0143506D01*
X0157909Y0143536D01*
X0157870Y0143570D01*
X0157834Y0143606D01*
X0157801Y0143645D01*
X0157771Y0143686D01*
X0157745Y0143729D01*
X0157721Y0143774D01*
X0157701Y0143821D01*
X0157684Y0143869D01*
X0157671Y0143918D01*
X0157662Y0143968D01*
X0157656Y0144019D01*
X0157654Y0144070D01*
X0157655Y0144070D02*
X0157657Y0144121D01*
X0157663Y0144171D01*
X0157672Y0144220D01*
X0157685Y0144269D01*
X0157702Y0144317D01*
X0157722Y0144363D01*
X0157746Y0144408D01*
X0157772Y0144451D01*
X0157802Y0144491D01*
X0157835Y0144530D01*
X0157871Y0144566D01*
X0157910Y0144599D01*
X0157950Y0144629D01*
X0157993Y0144655D01*
X0158038Y0144679D01*
X0158084Y0144699D01*
X0158132Y0144716D01*
X0158181Y0144729D01*
X0158230Y0144738D01*
X0158280Y0144744D01*
X0158331Y0144746D01*
X0157569Y0142125D02*
X0157624Y0142073D01*
X0157681Y0142024D01*
X0157740Y0141978D01*
X0157802Y0141935D01*
X0157866Y0141895D01*
X0157932Y0141859D01*
X0158000Y0141827D01*
X0158069Y0141798D01*
X0158140Y0141773D01*
X0158212Y0141751D01*
X0158285Y0141734D01*
X0158359Y0141720D01*
X0158434Y0141710D01*
X0158509Y0141704D01*
X0158584Y0141702D01*
X0158584Y0141703D02*
X0158635Y0141705D01*
X0158685Y0141711D01*
X0158734Y0141720D01*
X0158783Y0141733D01*
X0158831Y0141750D01*
X0158877Y0141770D01*
X0158922Y0141794D01*
X0158965Y0141820D01*
X0159005Y0141850D01*
X0159044Y0141883D01*
X0159080Y0141919D01*
X0159113Y0141958D01*
X0159143Y0141998D01*
X0159169Y0142041D01*
X0159193Y0142086D01*
X0159213Y0142132D01*
X0159230Y0142180D01*
X0159243Y0142229D01*
X0159252Y0142278D01*
X0159258Y0142328D01*
X0159260Y0142379D01*
X0160653Y0141703D02*
X0161498Y0141703D01*
X0161554Y0141705D01*
X0161611Y0141711D01*
X0161666Y0141720D01*
X0161721Y0141733D01*
X0161775Y0141750D01*
X0161828Y0141770D01*
X0161879Y0141794D01*
X0161929Y0141821D01*
X0161976Y0141851D01*
X0162022Y0141885D01*
X0162065Y0141921D01*
X0162105Y0141961D01*
X0162143Y0142002D01*
X0162178Y0142047D01*
X0162210Y0142093D01*
X0162239Y0142142D01*
X0162264Y0142192D01*
X0162287Y0142244D01*
X0162305Y0142298D01*
X0162320Y0142352D01*
X0162331Y0142407D01*
X0162339Y0142463D01*
X0162343Y0142520D01*
X0162343Y0142576D01*
X0162339Y0142633D01*
X0162331Y0142689D01*
X0162320Y0142744D01*
X0162305Y0142798D01*
X0162287Y0142852D01*
X0162264Y0142904D01*
X0162239Y0142954D01*
X0162210Y0143003D01*
X0162178Y0143049D01*
X0162143Y0143094D01*
X0162105Y0143135D01*
X0162065Y0143175D01*
X0162022Y0143211D01*
X0161976Y0143245D01*
X0161929Y0143275D01*
X0161879Y0143302D01*
X0161828Y0143326D01*
X0161775Y0143346D01*
X0161721Y0143363D01*
X0161666Y0143376D01*
X0161611Y0143385D01*
X0161554Y0143391D01*
X0161498Y0143393D01*
X0161667Y0143393D02*
X0160991Y0143393D01*
X0161667Y0143394D02*
X0161718Y0143396D01*
X0161768Y0143402D01*
X0161817Y0143411D01*
X0161866Y0143424D01*
X0161914Y0143441D01*
X0161960Y0143461D01*
X0162005Y0143485D01*
X0162048Y0143511D01*
X0162088Y0143541D01*
X0162127Y0143574D01*
X0162163Y0143610D01*
X0162196Y0143649D01*
X0162226Y0143689D01*
X0162252Y0143732D01*
X0162276Y0143777D01*
X0162296Y0143823D01*
X0162313Y0143871D01*
X0162326Y0143920D01*
X0162335Y0143969D01*
X0162341Y0144019D01*
X0162343Y0144070D01*
X0162341Y0144121D01*
X0162335Y0144171D01*
X0162326Y0144220D01*
X0162313Y0144269D01*
X0162296Y0144317D01*
X0162276Y0144363D01*
X0162252Y0144408D01*
X0162226Y0144451D01*
X0162196Y0144491D01*
X0162163Y0144530D01*
X0162127Y0144566D01*
X0162088Y0144599D01*
X0162048Y0144629D01*
X0162005Y0144655D01*
X0161960Y0144679D01*
X0161914Y0144699D01*
X0161866Y0144716D01*
X0161817Y0144729D01*
X0161768Y0144738D01*
X0161718Y0144744D01*
X0161667Y0144746D01*
X0160653Y0144746D01*
X0148389Y0141985D02*
X0146698Y0141985D01*
X0147375Y0144352D01*
X0147882Y0142662D02*
X0147882Y0141309D01*
X0145381Y0141309D02*
X0144704Y0141309D01*
X0144653Y0141311D01*
X0144603Y0141317D01*
X0144554Y0141326D01*
X0144505Y0141339D01*
X0144457Y0141356D01*
X0144411Y0141376D01*
X0144366Y0141400D01*
X0144323Y0141426D01*
X0144283Y0141456D01*
X0144244Y0141489D01*
X0144208Y0141525D01*
X0144175Y0141564D01*
X0144145Y0141604D01*
X0144119Y0141647D01*
X0144095Y0141692D01*
X0144075Y0141738D01*
X0144058Y0141786D01*
X0144045Y0141835D01*
X0144036Y0141884D01*
X0144030Y0141934D01*
X0144028Y0141985D01*
X0144028Y0143676D01*
X0144030Y0143727D01*
X0144036Y0143777D01*
X0144045Y0143826D01*
X0144058Y0143875D01*
X0144075Y0143923D01*
X0144095Y0143969D01*
X0144119Y0144014D01*
X0144145Y0144057D01*
X0144175Y0144097D01*
X0144208Y0144136D01*
X0144244Y0144172D01*
X0144283Y0144205D01*
X0144323Y0144235D01*
X0144366Y0144261D01*
X0144411Y0144285D01*
X0144457Y0144305D01*
X0144505Y0144322D01*
X0144554Y0144335D01*
X0144603Y0144344D01*
X0144653Y0144350D01*
X0144704Y0144352D01*
X0145381Y0144352D01*
X0142673Y0144352D02*
X0141997Y0144352D01*
X0142335Y0144352D02*
X0142335Y0141309D01*
X0141997Y0141309D02*
X0142673Y0141309D01*
X0139893Y0141825D02*
X0139048Y0138781D01*
X0136885Y0138781D02*
X0136208Y0138781D01*
X0136208Y0138782D02*
X0136157Y0138784D01*
X0136107Y0138790D01*
X0136058Y0138799D01*
X0136009Y0138812D01*
X0135961Y0138829D01*
X0135915Y0138849D01*
X0135870Y0138873D01*
X0135827Y0138899D01*
X0135787Y0138929D01*
X0135748Y0138962D01*
X0135712Y0138998D01*
X0135679Y0139037D01*
X0135649Y0139077D01*
X0135623Y0139120D01*
X0135599Y0139165D01*
X0135579Y0139211D01*
X0135562Y0139259D01*
X0135549Y0139308D01*
X0135540Y0139357D01*
X0135534Y0139407D01*
X0135532Y0139458D01*
X0135532Y0141149D01*
X0135534Y0141200D01*
X0135540Y0141250D01*
X0135549Y0141299D01*
X0135562Y0141348D01*
X0135579Y0141396D01*
X0135599Y0141442D01*
X0135623Y0141487D01*
X0135649Y0141530D01*
X0135679Y0141570D01*
X0135712Y0141609D01*
X0135748Y0141645D01*
X0135787Y0141678D01*
X0135827Y0141708D01*
X0135870Y0141734D01*
X0135915Y0141758D01*
X0135961Y0141778D01*
X0136009Y0141795D01*
X0136058Y0141808D01*
X0136107Y0141817D01*
X0136157Y0141823D01*
X0136208Y0141825D01*
X0136885Y0141825D01*
X0138202Y0141825D02*
X0139893Y0141825D01*
X0138202Y0141825D02*
X0138202Y0141487D01*
X0126864Y0141430D02*
X0126864Y0140416D01*
X0126864Y0141430D02*
X0126862Y0141481D01*
X0126856Y0141531D01*
X0126847Y0141580D01*
X0126834Y0141629D01*
X0126817Y0141677D01*
X0126797Y0141723D01*
X0126773Y0141768D01*
X0126747Y0141811D01*
X0126717Y0141851D01*
X0126684Y0141890D01*
X0126648Y0141926D01*
X0126609Y0141959D01*
X0126569Y0141989D01*
X0126526Y0142015D01*
X0126481Y0142039D01*
X0126435Y0142059D01*
X0126387Y0142076D01*
X0126338Y0142089D01*
X0126289Y0142098D01*
X0126239Y0142104D01*
X0126188Y0142106D01*
X0126188Y0142107D02*
X0125850Y0142107D01*
X0125850Y0142106D02*
X0125799Y0142104D01*
X0125749Y0142098D01*
X0125700Y0142089D01*
X0125651Y0142076D01*
X0125603Y0142059D01*
X0125557Y0142039D01*
X0125512Y0142015D01*
X0125469Y0141989D01*
X0125429Y0141959D01*
X0125390Y0141926D01*
X0125354Y0141890D01*
X0125321Y0141851D01*
X0125291Y0141811D01*
X0125265Y0141768D01*
X0125241Y0141723D01*
X0125221Y0141677D01*
X0125204Y0141629D01*
X0125191Y0141580D01*
X0125182Y0141531D01*
X0125176Y0141481D01*
X0125174Y0141430D01*
X0125173Y0141430D02*
X0125173Y0140416D01*
X0123821Y0140416D01*
X0123821Y0142107D01*
X0123821Y0138101D02*
X0123821Y0137255D01*
X0126864Y0137255D01*
X0125512Y0137255D02*
X0125512Y0138101D01*
X0125512Y0138270D02*
X0126864Y0138946D01*
X0125511Y0138101D02*
X0125509Y0138157D01*
X0125503Y0138214D01*
X0125494Y0138269D01*
X0125481Y0138324D01*
X0125464Y0138378D01*
X0125444Y0138431D01*
X0125420Y0138482D01*
X0125393Y0138532D01*
X0125363Y0138579D01*
X0125329Y0138625D01*
X0125293Y0138668D01*
X0125253Y0138708D01*
X0125212Y0138746D01*
X0125167Y0138781D01*
X0125121Y0138813D01*
X0125072Y0138842D01*
X0125022Y0138867D01*
X0124970Y0138890D01*
X0124916Y0138908D01*
X0124862Y0138923D01*
X0124807Y0138934D01*
X0124751Y0138942D01*
X0124694Y0138946D01*
X0124638Y0138946D01*
X0124581Y0138942D01*
X0124525Y0138934D01*
X0124470Y0138923D01*
X0124416Y0138908D01*
X0124362Y0138890D01*
X0124310Y0138867D01*
X0124260Y0138842D01*
X0124211Y0138813D01*
X0124165Y0138781D01*
X0124120Y0138746D01*
X0124079Y0138708D01*
X0124039Y0138668D01*
X0124003Y0138625D01*
X0123969Y0138579D01*
X0123939Y0138532D01*
X0123912Y0138482D01*
X0123888Y0138431D01*
X0123868Y0138378D01*
X0123851Y0138324D01*
X0123838Y0138269D01*
X0123829Y0138214D01*
X0123823Y0138157D01*
X0123821Y0138101D01*
D15*
X0162713Y0134760D02*
X0162713Y0120980D01*
X0162713Y0113894D02*
X0162713Y0100114D01*
X0152181Y0103067D02*
X0150606Y0103067D01*
X0152181Y0103067D02*
X0152181Y0065272D01*
X0150606Y0065272D01*
X0140370Y0065272D02*
X0134858Y0065272D01*
X0134858Y0072358D01*
X0162713Y0051689D02*
X0162713Y0037909D01*
X0174130Y0037713D02*
X0174130Y0051689D01*
X0134858Y0095980D02*
X0134858Y0103067D01*
X0140370Y0103067D01*
X0174130Y0099917D02*
X0174130Y0113894D01*
X0174130Y0120783D02*
X0174130Y0134760D01*
D16*
X0139288Y0136925D02*
X0139290Y0136969D01*
X0139296Y0137013D01*
X0139306Y0137056D01*
X0139319Y0137098D01*
X0139337Y0137138D01*
X0139358Y0137177D01*
X0139382Y0137214D01*
X0139409Y0137249D01*
X0139440Y0137281D01*
X0139473Y0137310D01*
X0139509Y0137336D01*
X0139547Y0137358D01*
X0139587Y0137377D01*
X0139628Y0137393D01*
X0139671Y0137405D01*
X0139714Y0137413D01*
X0139758Y0137417D01*
X0139802Y0137417D01*
X0139846Y0137413D01*
X0139889Y0137405D01*
X0139932Y0137393D01*
X0139973Y0137377D01*
X0140013Y0137358D01*
X0140051Y0137336D01*
X0140087Y0137310D01*
X0140120Y0137281D01*
X0140151Y0137249D01*
X0140178Y0137214D01*
X0140202Y0137177D01*
X0140223Y0137138D01*
X0140241Y0137098D01*
X0140254Y0137056D01*
X0140264Y0137013D01*
X0140270Y0136969D01*
X0140272Y0136925D01*
X0140270Y0136881D01*
X0140264Y0136837D01*
X0140254Y0136794D01*
X0140241Y0136752D01*
X0140223Y0136712D01*
X0140202Y0136673D01*
X0140178Y0136636D01*
X0140151Y0136601D01*
X0140120Y0136569D01*
X0140087Y0136540D01*
X0140051Y0136514D01*
X0140013Y0136492D01*
X0139973Y0136473D01*
X0139932Y0136457D01*
X0139889Y0136445D01*
X0139846Y0136437D01*
X0139802Y0136433D01*
X0139758Y0136433D01*
X0139714Y0136437D01*
X0139671Y0136445D01*
X0139628Y0136457D01*
X0139587Y0136473D01*
X0139547Y0136492D01*
X0139509Y0136514D01*
X0139473Y0136540D01*
X0139440Y0136569D01*
X0139409Y0136601D01*
X0139382Y0136636D01*
X0139358Y0136673D01*
X0139337Y0136712D01*
X0139319Y0136752D01*
X0139306Y0136794D01*
X0139296Y0136837D01*
X0139290Y0136881D01*
X0139288Y0136925D01*
D17*
X0119996Y0077870D02*
X0116846Y0077870D01*
X0116846Y0075508D01*
X0116846Y0069209D02*
X0116846Y0066846D01*
X0119996Y0066846D01*
M02*
